M48
;Layer_Color=9474304
;FILE_FORMAT=2:5
INCH,LZ
;TYPE=PLATED
T1F00S00C0.00800
T2F00S00C0.01200
T3F00S00C0.01968
T4F00S00C0.02560
T5F00S00C0.03937
T6F00S00C0.05000
T7F00S00C0.10630
;TYPE=NON_PLATED
T8F00S00C0.07008
%
T01
X026565Y0012598
X0245079Y0074787
X0280906Y0140354
X0284842
X0289173
X029311
X029626Y0140748
X0229999Y0129921
X0158267Y0122047
X0155512Y0116929
X0121829Y0128522
X0102362Y0101727
Y0090215
X0107656Y0076596
X0121829Y0067104
X0132299Y0074787
X0138189Y0063779
X0117695Y0045691
X0117793Y0007403
X0099606Y0020079
X0094585Y0025197
X0090648Y001447
X0136614Y0020079
X0156398Y0014173
X0187402Y0025984
X0207087Y0037795
X0217717Y0032283
X0244488Y003189
X0237008Y0012205
X0165354Y0050394
X007441Y0025197
X0081986Y001112
X0063758Y0008289
X0053543Y0037008
X0060411Y0076421
X0074585Y0076159
X0081102Y0086614
X0063927Y0093947
X0063998Y0102538
X0074585Y0119685
X0032065Y0119073
Y0078128
X0027892Y0169291
X0015354Y0167323
X0018504Y0190945
X0016535Y02
X0030709Y0189764
X0043701Y0180709
Y0177953
Y0175197
X0055905Y0176378
X0053937Y0186614
X005Y0202755
X0055118Y0229
X0035039
X0070175Y0175933
X0082774
X0089467Y0170421
X0096947Y0170027
X011112Y0175933
X01249Y0172783
X0117321Y0194535
X0099703Y0189712
X0094191Y0190992
X0097085Y0145807
X0184842Y0143405
X0195964Y0155708
X0209252Y0185039
X0209752Y0192913
X0214764Y020059
X0193799Y0201378
X0190157Y0200098
X0182087Y0211614
X0204724Y0215945
T02
X0172047Y0106299
X0187402Y0119685
X0190551
Y0123031
Y0125963
X0187598Y0125516
X0220472Y017126
X0223221Y016924
X0205512Y0188681
Y0192913
Y019685
X0247835Y0173031
X0251378Y0173819
X0251378Y0165945
X0248228
X0280906Y0193504
X0285236Y0194134
X0292717
X0297047Y0193898
T03
X0188976Y0227165
X0193898
T04
X0206535Y0020591
X0211535
Y0025591
X0206535
X0216535
X0221535
Y0020591
X0216535
X0226535
Y0025591
T05
X0264764Y0049787
X0272638
X0280512
X0307087Y0076362
Y0084236
Y009211
X0111907Y020861
X0104034
X0096159
X0088285
T06
X0134213Y0201378
X0144213
X0154213
X0164213
X0163819Y0225394
X0153819
X0143819
X0133819
T07
X0305709Y0009252
X0009252Y0009252
Y0226969
X0305709
T08
X030315Y0167126
M30
