G04*
G04 #@! TF.GenerationSoftware,Altium Limited,Altium Designer,21.1.1 (26)*
G04*
G04 Layer_Physical_Order=4*
G04 Layer_Color=16711680*
%FSLAX25Y25*%
%MOIN*%
G70*
G04*
G04 #@! TF.SameCoordinates,D31DAFBF-B6A6-4984-8A5A-3B2B1D04CFA6*
G04*
G04*
G04 #@! TF.FilePolarity,Positive*
G04*
G01*
G75*
%ADD13C,0.01000*%
%ADD17C,0.00800*%
%ADD34R,0.04724X0.04724*%
%ADD106R,0.03937X0.03937*%
%ADD107C,0.03937*%
%ADD108C,0.07008*%
%ADD116C,0.02000*%
%ADD126R,0.03960X0.03960*%
%ADD127C,0.03960*%
%ADD128C,0.14173*%
%ADD129C,0.04724*%
%ADD130C,0.07087*%
%ADD131R,0.07087X0.07087*%
%ADD132C,0.02000*%
G36*
X302753Y234104D02*
X301417Y233391D01*
X300247Y232430D01*
X299287Y231260D01*
X298573Y229924D01*
X298133Y228475D01*
X297985Y226969D01*
X298133Y225462D01*
X298573Y224013D01*
X299287Y222677D01*
X300247Y221507D01*
X301417Y220546D01*
X302753Y219833D01*
X304202Y219393D01*
X305709Y219245D01*
X307215Y219393D01*
X308664Y219833D01*
X310000Y220546D01*
X311170Y221507D01*
X312131Y222677D01*
X312844Y224013D01*
X313329Y223888D01*
X313329Y12332D01*
X312844Y12208D01*
X312131Y13543D01*
X311170Y14714D01*
X310000Y15674D01*
X308664Y16388D01*
X307215Y16827D01*
X305709Y16976D01*
X304202Y16827D01*
X302753Y16388D01*
X301417Y15674D01*
X300247Y14714D01*
X299287Y13543D01*
X298573Y12208D01*
X298133Y10759D01*
X297985Y9252D01*
X298133Y7745D01*
X298573Y6296D01*
X299287Y4961D01*
X300247Y3790D01*
X301417Y2830D01*
X302753Y2116D01*
X302629Y1631D01*
X111957D01*
X111786Y1788D01*
X111637Y1878D01*
X111508Y1993D01*
X110765Y2428D01*
X110601Y2484D01*
X110450Y2570D01*
X109632Y2838D01*
X109460Y2859D01*
X109294Y2910D01*
X108439Y3000D01*
X108352Y2992D01*
X108268Y3009D01*
X68898D01*
X68813Y2992D01*
X68727Y3000D01*
X67871Y2911D01*
X67704Y2859D01*
X67532Y2838D01*
X66714Y2569D01*
X66689Y2555D01*
X66662Y2551D01*
X66413Y2399D01*
X66159Y2256D01*
X66142Y2234D01*
X66118Y2220D01*
X65479Y1631D01*
X12332D01*
X12208Y2116D01*
X13543Y2830D01*
X14714Y3790D01*
X15674Y4961D01*
X16388Y6296D01*
X16827Y7745D01*
X16976Y9252D01*
X16827Y10759D01*
X16388Y12208D01*
X15674Y13543D01*
X14714Y14714D01*
X13543Y15674D01*
X12208Y16388D01*
X10759Y16827D01*
X9252Y16976D01*
X7745Y16827D01*
X6296Y16388D01*
X4961Y15674D01*
X3790Y14714D01*
X2830Y13543D01*
X2116Y12208D01*
X1631Y12332D01*
Y53487D01*
X24016D01*
X24105Y53505D01*
X24196Y53497D01*
X24547Y53536D01*
X24722Y53591D01*
X24904Y53617D01*
X25237Y53733D01*
X25395Y53826D01*
X25567Y53892D01*
X25866Y54079D01*
X25999Y54205D01*
X26152Y54307D01*
X26401Y54557D01*
X26503Y54710D01*
X26629Y54843D01*
X26817Y55142D01*
X26882Y55313D01*
X26975Y55471D01*
X27092Y55805D01*
X27117Y55986D01*
X27173Y56161D01*
X27212Y56512D01*
X27204Y56603D01*
X27222Y56693D01*
X27222Y140157D01*
X27204Y140247D01*
X27212Y140338D01*
X27173Y140689D01*
X27117Y140864D01*
X27092Y141046D01*
X26976Y141379D01*
X26882Y141537D01*
X26817Y141709D01*
X26629Y142007D01*
X26503Y142141D01*
X26401Y142293D01*
X26152Y142543D01*
X25999Y142645D01*
X25866Y142771D01*
X25567Y142958D01*
X25395Y143024D01*
X25237Y143117D01*
X24904Y143233D01*
X24722Y143259D01*
X24547Y143314D01*
X24196Y143353D01*
X24105Y143346D01*
X24016Y143364D01*
X1631D01*
X1631Y223888D01*
X2116Y224013D01*
X2830Y222677D01*
X3790Y221507D01*
X4961Y220546D01*
X6296Y219833D01*
X7745Y219393D01*
X9252Y219245D01*
X10759Y219393D01*
X12208Y219833D01*
X13543Y220546D01*
X14714Y221507D01*
X15674Y222677D01*
X16388Y224013D01*
X16827Y225462D01*
X16976Y226969D01*
X16827Y228475D01*
X16388Y229924D01*
X15674Y231260D01*
X14714Y232430D01*
X13543Y233391D01*
X12208Y234104D01*
X12339Y234587D01*
X22165Y234585D01*
X22332Y234432D01*
X22481Y234342D01*
X22610Y234227D01*
X23353Y233793D01*
X23517Y233736D01*
X23668Y233651D01*
X24486Y233383D01*
X24658Y233362D01*
X24824Y233310D01*
X25680Y233220D01*
X25766Y233228D01*
X25850Y233211D01*
X65220D01*
X65305Y233228D01*
X65391Y233220D01*
X66247Y233310D01*
X66414Y233362D01*
X66587Y233383D01*
X67405Y233652D01*
X67556Y233737D01*
X67721Y233794D01*
X68464Y234230D01*
X68594Y234346D01*
X68742Y234437D01*
X68908Y234589D01*
X197539Y234583D01*
X197570Y234589D01*
X302629Y234589D01*
X302753Y234104D01*
D02*
G37*
%LPC*%
G36*
X55618Y230940D02*
Y229500D01*
X57058D01*
X57002Y229780D01*
X56560Y230442D01*
X55898Y230884D01*
X55618Y230940D01*
D02*
G37*
G36*
X54618D02*
X54338Y230884D01*
X53676Y230442D01*
X53234Y229780D01*
X53178Y229500D01*
X54618D01*
Y230940D01*
D02*
G37*
G36*
X35539D02*
Y229500D01*
X36979D01*
X36923Y229780D01*
X36481Y230442D01*
X35820Y230884D01*
X35539Y230940D01*
D02*
G37*
G36*
X34539D02*
X34259Y230884D01*
X33597Y230442D01*
X33155Y229780D01*
X33100Y229500D01*
X34539D01*
Y230940D01*
D02*
G37*
G36*
X193898Y229756D02*
X193227Y229668D01*
X192602Y229409D01*
X192066Y228997D01*
X192045Y228970D01*
X191545Y229140D01*
Y229734D01*
X186408D01*
Y224597D01*
X191545D01*
Y225191D01*
X192045Y225361D01*
X192066Y225333D01*
X192602Y224922D01*
X193227Y224663D01*
X193898Y224575D01*
X194568Y224663D01*
X195193Y224922D01*
X195729Y225333D01*
X196141Y225870D01*
X196400Y226495D01*
X196488Y227165D01*
X196400Y227836D01*
X196141Y228461D01*
X195729Y228997D01*
X195193Y229409D01*
X194568Y229668D01*
X193898Y229756D01*
D02*
G37*
G36*
X57058Y228500D02*
X55618D01*
Y227060D01*
X55898Y227116D01*
X56560Y227558D01*
X57002Y228220D01*
X57058Y228500D01*
D02*
G37*
G36*
X54618D02*
X53178D01*
X53234Y228220D01*
X53676Y227558D01*
X54338Y227116D01*
X54618Y227060D01*
Y228500D01*
D02*
G37*
G36*
X36979D02*
X35539D01*
Y227060D01*
X35820Y227116D01*
X36481Y227558D01*
X36923Y228220D01*
X36979Y228500D01*
D02*
G37*
G36*
X34539D02*
X33100D01*
X33155Y228220D01*
X33597Y227558D01*
X34259Y227116D01*
X34539Y227060D01*
Y228500D01*
D02*
G37*
G36*
X138362Y229937D02*
X134319D01*
Y225894D01*
X138362D01*
Y229937D01*
D02*
G37*
G36*
X133319D02*
X129276D01*
Y225894D01*
X133319D01*
Y229937D01*
D02*
G37*
G36*
X163819Y229573D02*
X162737Y229430D01*
X161729Y229013D01*
X160864Y228349D01*
X160200Y227483D01*
X159782Y226475D01*
X159640Y225394D01*
X159782Y224312D01*
X160200Y223304D01*
X160864Y222439D01*
X161729Y221775D01*
X162737Y221357D01*
X163819Y221215D01*
X164901Y221357D01*
X165908Y221775D01*
X166774Y222439D01*
X167438Y223304D01*
X167856Y224312D01*
X167998Y225394D01*
X167856Y226475D01*
X167438Y227483D01*
X166774Y228349D01*
X165908Y229013D01*
X164901Y229430D01*
X163819Y229573D01*
D02*
G37*
G36*
X153819D02*
X152737Y229430D01*
X151729Y229013D01*
X150864Y228349D01*
X150200Y227483D01*
X149782Y226475D01*
X149640Y225394D01*
X149782Y224312D01*
X150200Y223304D01*
X150864Y222439D01*
X151729Y221775D01*
X152737Y221357D01*
X153819Y221215D01*
X154901Y221357D01*
X155908Y221775D01*
X156774Y222439D01*
X157438Y223304D01*
X157855Y224312D01*
X157998Y225394D01*
X157855Y226475D01*
X157438Y227483D01*
X156774Y228349D01*
X155908Y229013D01*
X154901Y229430D01*
X153819Y229573D01*
D02*
G37*
G36*
X143819D02*
X142737Y229430D01*
X141729Y229013D01*
X140864Y228349D01*
X140200Y227483D01*
X139782Y226475D01*
X139640Y225394D01*
X139782Y224312D01*
X140200Y223304D01*
X140864Y222439D01*
X141729Y221775D01*
X142737Y221357D01*
X143819Y221215D01*
X144901Y221357D01*
X145908Y221775D01*
X146774Y222439D01*
X147438Y223304D01*
X147855Y224312D01*
X147998Y225394D01*
X147855Y226475D01*
X147438Y227483D01*
X146774Y228349D01*
X145908Y229013D01*
X144901Y229430D01*
X143819Y229573D01*
D02*
G37*
G36*
X138362Y224894D02*
X134319D01*
Y220850D01*
X138362D01*
Y224894D01*
D02*
G37*
G36*
X133319D02*
X129276D01*
Y220850D01*
X133319D01*
Y224894D01*
D02*
G37*
G36*
X205224Y217885D02*
Y216445D01*
X206664D01*
X206608Y216725D01*
X206166Y217387D01*
X205505Y217829D01*
X205224Y217885D01*
D02*
G37*
G36*
X204224D02*
X203944Y217829D01*
X203282Y217387D01*
X202840Y216725D01*
X202785Y216445D01*
X204224D01*
Y217885D01*
D02*
G37*
G36*
X206664Y215445D02*
X205224D01*
Y214005D01*
X205505Y214061D01*
X206166Y214503D01*
X206608Y215164D01*
X206664Y215445D01*
D02*
G37*
G36*
X204224D02*
X202785D01*
X202840Y215164D01*
X203282Y214503D01*
X203944Y214061D01*
X204224Y214005D01*
Y215445D01*
D02*
G37*
G36*
X182587Y213554D02*
Y212114D01*
X184026D01*
X183971Y212394D01*
X183528Y213056D01*
X182867Y213498D01*
X182587Y213554D01*
D02*
G37*
G36*
X181587D02*
X181306Y213498D01*
X180645Y213056D01*
X180203Y212394D01*
X180147Y212114D01*
X181587D01*
Y213554D01*
D02*
G37*
G36*
X184026Y211114D02*
X182587D01*
Y209674D01*
X182867Y209730D01*
X183528Y210172D01*
X183971Y210834D01*
X184026Y211114D01*
D02*
G37*
G36*
X181587D02*
X180147D01*
X180203Y210834D01*
X180645Y210172D01*
X181306Y209730D01*
X181587Y209674D01*
Y211114D01*
D02*
G37*
G36*
X87785Y213153D02*
X83742D01*
Y209110D01*
X87785D01*
Y213153D01*
D02*
G37*
G36*
X92829D02*
X88785D01*
Y208610D01*
Y204067D01*
X92829D01*
Y205382D01*
X93329Y205559D01*
X94070Y204991D01*
X95078Y204573D01*
X96159Y204431D01*
X97241Y204573D01*
X98249Y204991D01*
X99115Y205655D01*
X99779Y206520D01*
X99847Y206684D01*
X100347D01*
X100414Y206520D01*
X101078Y205655D01*
X101944Y204991D01*
X102952Y204573D01*
X104034Y204431D01*
X105115Y204573D01*
X106123Y204991D01*
X106989Y205655D01*
X107653Y206520D01*
X107720Y206684D01*
X108221D01*
X108288Y206520D01*
X108952Y205655D01*
X109818Y204991D01*
X110826Y204573D01*
X111907Y204431D01*
X112989Y204573D01*
X113997Y204991D01*
X114863Y205655D01*
X115527Y206520D01*
X115944Y207528D01*
X116086Y208610D01*
X115944Y209692D01*
X115527Y210699D01*
X114863Y211565D01*
X113997Y212229D01*
X112989Y212647D01*
X111907Y212789D01*
X110826Y212647D01*
X109818Y212229D01*
X108952Y211565D01*
X108288Y210699D01*
X108221Y210536D01*
X107720D01*
X107653Y210699D01*
X106989Y211565D01*
X106123Y212229D01*
X105115Y212647D01*
X104034Y212789D01*
X102952Y212647D01*
X101944Y212229D01*
X101078Y211565D01*
X100414Y210699D01*
X100347Y210536D01*
X99847D01*
X99779Y210699D01*
X99115Y211565D01*
X98249Y212229D01*
X97241Y212647D01*
X96159Y212789D01*
X95078Y212647D01*
X94070Y212229D01*
X93329Y211660D01*
X92829Y211838D01*
Y213153D01*
D02*
G37*
G36*
X87785Y208110D02*
X83742D01*
Y204067D01*
X87785D01*
Y208110D01*
D02*
G37*
G36*
X50500Y204695D02*
Y203256D01*
X51940D01*
X51884Y203536D01*
X51442Y204197D01*
X50780Y204640D01*
X50500Y204695D01*
D02*
G37*
G36*
X49500D02*
X49220Y204640D01*
X48558Y204197D01*
X48116Y203536D01*
X48060Y203256D01*
X49500D01*
Y204695D01*
D02*
G37*
G36*
X138756Y205921D02*
X134713D01*
Y201878D01*
X138756D01*
Y205921D01*
D02*
G37*
G36*
X133713D02*
X129669D01*
Y201878D01*
X133713D01*
Y205921D01*
D02*
G37*
G36*
X193799Y203009D02*
X193175Y202885D01*
X192646Y202532D01*
X192292Y202002D01*
X192200Y201541D01*
X191692Y201401D01*
X191599Y201540D01*
X190938Y201982D01*
X190657Y202038D01*
Y200098D01*
Y198159D01*
X190938Y198214D01*
X191599Y198656D01*
X192041Y199318D01*
X192181Y200020D01*
X192473Y200154D01*
X192687Y200197D01*
X193175Y199871D01*
X193799Y199747D01*
X194423Y199871D01*
X194953Y200224D01*
X195306Y200754D01*
X195431Y201378D01*
X195306Y202002D01*
X194953Y202532D01*
X194423Y202885D01*
X193799Y203009D01*
D02*
G37*
G36*
X215264Y202530D02*
Y201091D01*
X216704D01*
X216648Y201371D01*
X216206Y202032D01*
X215544Y202474D01*
X215264Y202530D01*
D02*
G37*
G36*
X214264D02*
X213983Y202474D01*
X213322Y202032D01*
X212880Y201371D01*
X212824Y201091D01*
X214264D01*
Y202530D01*
D02*
G37*
G36*
X51940Y202256D02*
X50500D01*
Y200816D01*
X50780Y200871D01*
X51442Y201314D01*
X51884Y201975D01*
X51940Y202256D01*
D02*
G37*
G36*
X49500D02*
X48060D01*
X48116Y201975D01*
X48558Y201314D01*
X49220Y200871D01*
X49500Y200816D01*
Y202256D01*
D02*
G37*
G36*
X189657Y202038D02*
X189377Y201982D01*
X188716Y201540D01*
X188274Y200879D01*
X188218Y200598D01*
X189657D01*
Y202038D01*
D02*
G37*
G36*
X17035Y201940D02*
Y200500D01*
X18475D01*
X18419Y200780D01*
X17977Y201442D01*
X17316Y201884D01*
X17035Y201940D01*
D02*
G37*
G36*
X16035D02*
X15755Y201884D01*
X15093Y201442D01*
X14651Y200780D01*
X14596Y200500D01*
X16035D01*
Y201940D01*
D02*
G37*
G36*
X216704Y200091D02*
X215264D01*
Y198651D01*
X215544Y198707D01*
X216206Y199149D01*
X216648Y199810D01*
X216704Y200091D01*
D02*
G37*
G36*
X214264D02*
X212824D01*
X212880Y199810D01*
X213322Y199149D01*
X213983Y198707D01*
X214264Y198651D01*
Y200091D01*
D02*
G37*
G36*
X189657Y199598D02*
X188218D01*
X188274Y199318D01*
X188716Y198656D01*
X189377Y198214D01*
X189657Y198159D01*
Y199598D01*
D02*
G37*
G36*
X18475Y199500D02*
X17035D01*
Y198060D01*
X17316Y198116D01*
X17977Y198558D01*
X18419Y199220D01*
X18475Y199500D01*
D02*
G37*
G36*
X16035D02*
X14596D01*
X14651Y199220D01*
X15093Y198558D01*
X15755Y198116D01*
X16035Y198060D01*
Y199500D01*
D02*
G37*
G36*
X164213Y205557D02*
X163131Y205415D01*
X162123Y204997D01*
X161258Y204333D01*
X160593Y203467D01*
X160176Y202460D01*
X160034Y201378D01*
X160176Y200296D01*
X160593Y199288D01*
X161258Y198423D01*
X162123Y197759D01*
X163131Y197341D01*
X164213Y197199D01*
X165294Y197341D01*
X166302Y197759D01*
X167168Y198423D01*
X167832Y199288D01*
X168249Y200296D01*
X168392Y201378D01*
X168249Y202460D01*
X167832Y203467D01*
X167168Y204333D01*
X166302Y204997D01*
X165294Y205415D01*
X164213Y205557D01*
D02*
G37*
G36*
X154213D02*
X153131Y205415D01*
X152123Y204997D01*
X151258Y204333D01*
X150593Y203467D01*
X150176Y202460D01*
X150033Y201378D01*
X150176Y200296D01*
X150593Y199288D01*
X151258Y198423D01*
X152123Y197759D01*
X153131Y197341D01*
X154213Y197199D01*
X155294Y197341D01*
X156302Y197759D01*
X157168Y198423D01*
X157832Y199288D01*
X158249Y200296D01*
X158392Y201378D01*
X158249Y202460D01*
X157832Y203467D01*
X157168Y204333D01*
X156302Y204997D01*
X155294Y205415D01*
X154213Y205557D01*
D02*
G37*
G36*
X144213D02*
X143131Y205415D01*
X142123Y204997D01*
X141258Y204333D01*
X140593Y203467D01*
X140176Y202460D01*
X140033Y201378D01*
X140176Y200296D01*
X140593Y199288D01*
X141258Y198423D01*
X142123Y197759D01*
X143131Y197341D01*
X144213Y197199D01*
X145294Y197341D01*
X146302Y197759D01*
X147168Y198423D01*
X147832Y199288D01*
X148249Y200296D01*
X148392Y201378D01*
X148249Y202460D01*
X147832Y203467D01*
X147168Y204333D01*
X146302Y204997D01*
X145294Y205415D01*
X144213Y205557D01*
D02*
G37*
G36*
X138756Y200878D02*
X134713D01*
Y196835D01*
X138756D01*
Y200878D01*
D02*
G37*
G36*
X133713D02*
X129669D01*
Y196835D01*
X133713D01*
Y200878D01*
D02*
G37*
G36*
X205512Y198482D02*
X204888Y198358D01*
X204358Y198004D01*
X204005Y197475D01*
X203880Y196850D01*
X204005Y196226D01*
X204358Y195697D01*
X204888Y195343D01*
X205512Y195219D01*
X206136Y195343D01*
X206665Y195697D01*
X207019Y196226D01*
X207143Y196850D01*
X207019Y197475D01*
X206665Y198004D01*
X206136Y198358D01*
X205512Y198482D01*
D02*
G37*
G36*
X117821Y196475D02*
Y195035D01*
X119261D01*
X119205Y195315D01*
X118763Y195977D01*
X118101Y196419D01*
X117821Y196475D01*
D02*
G37*
G36*
X116821D02*
X116541Y196419D01*
X115879Y195977D01*
X115437Y195315D01*
X115381Y195035D01*
X116821D01*
Y196475D01*
D02*
G37*
G36*
X292217Y196074D02*
X291936Y196018D01*
X291275Y195576D01*
X290833Y194914D01*
X290777Y194634D01*
X292217D01*
Y196074D01*
D02*
G37*
G36*
X285736D02*
Y194634D01*
X287176D01*
X287120Y194914D01*
X286678Y195576D01*
X286017Y196018D01*
X285736Y196074D01*
D02*
G37*
G36*
X297547Y195837D02*
Y194398D01*
X298987D01*
X298931Y194678D01*
X298489Y195340D01*
X297828Y195782D01*
X297547Y195837D01*
D02*
G37*
G36*
X284736Y196074D02*
X284456Y196018D01*
X283794Y195576D01*
X283352Y194914D01*
X283254Y194421D01*
X283076Y194368D01*
X282734Y194368D01*
X282347Y194946D01*
X281686Y195388D01*
X281405Y195444D01*
Y193504D01*
Y191564D01*
X281686Y191620D01*
X282347Y192062D01*
X282789Y192724D01*
X282888Y193217D01*
X283066Y193270D01*
X283408Y193270D01*
X283794Y192692D01*
X284456Y192250D01*
X284736Y192194D01*
Y194134D01*
Y196074D01*
D02*
G37*
G36*
X280405Y195444D02*
X280125Y195388D01*
X279464Y194946D01*
X279022Y194284D01*
X278966Y194004D01*
X280405D01*
Y195444D01*
D02*
G37*
G36*
X119261Y194035D02*
X117821D01*
Y192595D01*
X118101Y192651D01*
X118763Y193093D01*
X119205Y193755D01*
X119261Y194035D01*
D02*
G37*
G36*
X116821D02*
X115381D01*
X115437Y193755D01*
X115879Y193093D01*
X116541Y192651D01*
X116821Y192595D01*
Y194035D01*
D02*
G37*
G36*
X292217Y193634D02*
X290777D01*
X290833Y193353D01*
X291275Y192692D01*
X291936Y192250D01*
X292217Y192194D01*
Y193634D01*
D02*
G37*
G36*
X287176D02*
X285736D01*
Y192194D01*
X286017Y192250D01*
X286678Y192692D01*
X287120Y193353D01*
X287176Y193634D01*
D02*
G37*
G36*
X298987Y193398D02*
X297547D01*
Y191958D01*
X297828Y192014D01*
X298489Y192456D01*
X298931Y193117D01*
X298987Y193398D01*
D02*
G37*
G36*
X293217Y196074D02*
Y194134D01*
Y192194D01*
X293497Y192250D01*
X294159Y192692D01*
X294601Y193353D01*
X294603Y193369D01*
X295113D01*
X295163Y193117D01*
X295605Y192456D01*
X296267Y192014D01*
X296547Y191958D01*
Y193898D01*
Y195837D01*
X296267Y195782D01*
X295605Y195340D01*
X295163Y194678D01*
X295160Y194663D01*
X294651D01*
X294601Y194914D01*
X294159Y195576D01*
X293497Y196018D01*
X293217Y196074D01*
D02*
G37*
G36*
X280405Y193004D02*
X278966D01*
X279022Y192724D01*
X279464Y192062D01*
X280125Y191620D01*
X280405Y191564D01*
Y193004D01*
D02*
G37*
G36*
X94691Y192931D02*
Y191492D01*
X96131D01*
X96075Y191772D01*
X95633Y192434D01*
X94971Y192876D01*
X94691Y192931D01*
D02*
G37*
G36*
X93691D02*
X93411Y192876D01*
X92749Y192434D01*
X92307Y191772D01*
X92251Y191492D01*
X93691D01*
Y192931D01*
D02*
G37*
G36*
X19004Y192885D02*
Y191445D01*
X20444D01*
X20388Y191725D01*
X19946Y192387D01*
X19284Y192829D01*
X19004Y192885D01*
D02*
G37*
G36*
X18004D02*
X17724Y192829D01*
X17062Y192387D01*
X16620Y191725D01*
X16564Y191445D01*
X18004D01*
Y192885D01*
D02*
G37*
G36*
X209752Y194545D02*
X209127Y194421D01*
X208598Y194067D01*
X208245Y193538D01*
X208120Y192913D01*
X208245Y192289D01*
X208598Y191760D01*
X209127Y191406D01*
X209752Y191282D01*
X210376Y191406D01*
X210905Y191760D01*
X211259Y192289D01*
X211383Y192913D01*
X211259Y193538D01*
X210905Y194067D01*
X210376Y194421D01*
X209752Y194545D01*
D02*
G37*
G36*
X205512D02*
X204888Y194421D01*
X204358Y194067D01*
X204005Y193538D01*
X203880Y192913D01*
X204005Y192289D01*
X204358Y191760D01*
X204888Y191406D01*
X205512Y191282D01*
X206136Y191406D01*
X206665Y191760D01*
X207019Y192289D01*
X207143Y192913D01*
X207019Y193538D01*
X206665Y194067D01*
X206136Y194421D01*
X205512Y194545D01*
D02*
G37*
G36*
X31209Y191703D02*
Y190264D01*
X32648D01*
X32593Y190544D01*
X32151Y191206D01*
X31489Y191648D01*
X31209Y191703D01*
D02*
G37*
G36*
X30209D02*
X29928Y191648D01*
X29267Y191206D01*
X28825Y190544D01*
X28769Y190264D01*
X30209D01*
Y191703D01*
D02*
G37*
G36*
X96131Y190492D02*
X94691D01*
Y189052D01*
X94971Y189108D01*
X95633Y189550D01*
X96075Y190211D01*
X96131Y190492D01*
D02*
G37*
G36*
X93691D02*
X92251D01*
X92307Y190211D01*
X92749Y189550D01*
X93411Y189108D01*
X93691Y189052D01*
Y190492D01*
D02*
G37*
G36*
X20444Y190445D02*
X19004D01*
Y189005D01*
X19284Y189061D01*
X19946Y189503D01*
X20388Y190164D01*
X20444Y190445D01*
D02*
G37*
G36*
X18004D02*
X16564D01*
X16620Y190164D01*
X17062Y189503D01*
X17724Y189061D01*
X18004Y189005D01*
Y190445D01*
D02*
G37*
G36*
X99703Y191344D02*
X99079Y191219D01*
X98549Y190866D01*
X98196Y190337D01*
X98071Y189712D01*
X98196Y189088D01*
X98549Y188559D01*
X99079Y188205D01*
X99703Y188081D01*
X100327Y188205D01*
X100856Y188559D01*
X101210Y189088D01*
X101334Y189712D01*
X101210Y190337D01*
X100856Y190866D01*
X100327Y191219D01*
X99703Y191344D01*
D02*
G37*
G36*
X32648Y189264D02*
X31209D01*
Y187824D01*
X31489Y187880D01*
X32151Y188322D01*
X32593Y188983D01*
X32648Y189264D01*
D02*
G37*
G36*
X30209D02*
X28769D01*
X28825Y188983D01*
X29267Y188322D01*
X29928Y187880D01*
X30209Y187824D01*
Y189264D01*
D02*
G37*
G36*
X54437Y188554D02*
Y187114D01*
X55877D01*
X55821Y187394D01*
X55379Y188056D01*
X54717Y188498D01*
X54437Y188554D01*
D02*
G37*
G36*
X53437D02*
X53157Y188498D01*
X52495Y188056D01*
X52053Y187394D01*
X51997Y187114D01*
X53437D01*
Y188554D01*
D02*
G37*
G36*
X205512Y190312D02*
X204888Y190188D01*
X204358Y189835D01*
X204005Y189305D01*
X203880Y188681D01*
X204005Y188057D01*
X204358Y187528D01*
X204888Y187174D01*
X205512Y187050D01*
X206136Y187174D01*
X206665Y187528D01*
X207019Y188057D01*
X207143Y188681D01*
X207019Y189305D01*
X206665Y189835D01*
X206136Y190188D01*
X205512Y190312D01*
D02*
G37*
G36*
X209752Y186979D02*
Y185539D01*
X211192D01*
X211136Y185820D01*
X210694Y186481D01*
X210032Y186923D01*
X209752Y186979D01*
D02*
G37*
G36*
X208752D02*
X208471Y186923D01*
X207810Y186481D01*
X207368Y185820D01*
X207312Y185539D01*
X208752D01*
Y186979D01*
D02*
G37*
G36*
X55877Y186114D02*
X54437D01*
Y184674D01*
X54717Y184730D01*
X55379Y185172D01*
X55821Y185833D01*
X55877Y186114D01*
D02*
G37*
G36*
X53437D02*
X51997D01*
X52053Y185833D01*
X52495Y185172D01*
X53157Y184730D01*
X53437Y184674D01*
Y186114D01*
D02*
G37*
G36*
X211192Y184539D02*
X209752D01*
Y183100D01*
X210032Y183155D01*
X210694Y183598D01*
X211136Y184259D01*
X211192Y184539D01*
D02*
G37*
G36*
X208752D02*
X207312D01*
X207368Y184259D01*
X207810Y183598D01*
X208471Y183155D01*
X208752Y183100D01*
Y184539D01*
D02*
G37*
G36*
X44201Y182648D02*
Y181209D01*
X45641D01*
X45585Y181489D01*
X45143Y182151D01*
X44481Y182593D01*
X44201Y182648D01*
D02*
G37*
G36*
X43201D02*
X42920Y182593D01*
X42259Y182151D01*
X41817Y181489D01*
X41761Y181209D01*
X43201D01*
Y182648D01*
D02*
G37*
G36*
X45641Y180209D02*
X41761D01*
X41817Y179928D01*
X42216Y179331D01*
X41817Y178733D01*
X41761Y178453D01*
X45641D01*
X45585Y178733D01*
X45185Y179331D01*
X45585Y179928D01*
X45641Y180209D01*
D02*
G37*
G36*
X70675Y177872D02*
Y176433D01*
X72115D01*
X72059Y176713D01*
X71617Y177375D01*
X70956Y177817D01*
X70675Y177872D01*
D02*
G37*
G36*
X69675D02*
X69395Y177817D01*
X68733Y177375D01*
X68291Y176713D01*
X68235Y176433D01*
X69675D01*
Y177872D01*
D02*
G37*
G36*
X45641Y177453D02*
X41761D01*
X41817Y177172D01*
X42216Y176575D01*
X41817Y175977D01*
X41761Y175697D01*
X45641D01*
X45585Y175977D01*
X45185Y176575D01*
X45585Y177172D01*
X45641Y177453D01*
D02*
G37*
G36*
X250878Y175759D02*
X250598Y175703D01*
X249936Y175261D01*
X249625Y174796D01*
X249422Y174608D01*
X248996Y174661D01*
X248615Y174916D01*
X248335Y174971D01*
Y173031D01*
Y171092D01*
X248615Y171148D01*
X249277Y171590D01*
X249587Y172055D01*
X249790Y172242D01*
X250216Y172190D01*
X250598Y171935D01*
X250878Y171879D01*
Y173819D01*
Y175759D01*
D02*
G37*
G36*
X251878D02*
Y174319D01*
X253318D01*
X253262Y174599D01*
X252820Y175261D01*
X252158Y175703D01*
X251878Y175759D01*
D02*
G37*
G36*
X111120Y177564D02*
X110496Y177440D01*
X109967Y177086D01*
X109877Y176952D01*
X94978D01*
X94588Y176875D01*
X94257Y176654D01*
X89625Y172021D01*
X89467Y172052D01*
X88842Y171928D01*
X88313Y171574D01*
X87959Y171045D01*
X87835Y170421D01*
X87959Y169797D01*
X88313Y169267D01*
X88842Y168914D01*
X89467Y168790D01*
X90091Y168914D01*
X90620Y169267D01*
X90974Y169797D01*
X91098Y170421D01*
X91066Y170579D01*
X95401Y174913D01*
X109877D01*
X109967Y174779D01*
X110496Y174425D01*
X111120Y174301D01*
X111744Y174425D01*
X112274Y174779D01*
X112627Y175308D01*
X112751Y175933D01*
X112627Y176557D01*
X112274Y177086D01*
X111744Y177440D01*
X111120Y177564D01*
D02*
G37*
G36*
X82774D02*
X82149Y177440D01*
X81620Y177086D01*
X81266Y176557D01*
X81142Y175933D01*
X81266Y175308D01*
X81620Y174779D01*
X82149Y174425D01*
X82774Y174301D01*
X83398Y174425D01*
X83927Y174779D01*
X84281Y175308D01*
X84405Y175933D01*
X84281Y176557D01*
X83927Y177086D01*
X83398Y177440D01*
X82774Y177564D01*
D02*
G37*
G36*
X72115Y175433D02*
X70675D01*
Y173993D01*
X70956Y174049D01*
X71617Y174491D01*
X72059Y175152D01*
X72115Y175433D01*
D02*
G37*
G36*
X69675D02*
X68235D01*
X68291Y175152D01*
X68733Y174491D01*
X69395Y174049D01*
X69675Y173993D01*
Y175433D01*
D02*
G37*
G36*
X247335Y174971D02*
X247054Y174916D01*
X246393Y174473D01*
X245951Y173812D01*
X245895Y173531D01*
X247335D01*
Y174971D01*
D02*
G37*
G36*
X45641Y174697D02*
X44201D01*
Y173257D01*
X44481Y173313D01*
X45143Y173755D01*
X45585Y174416D01*
X45641Y174697D01*
D02*
G37*
G36*
X43201D02*
X41761D01*
X41817Y174416D01*
X42259Y173755D01*
X42920Y173313D01*
X43201Y173257D01*
Y174697D01*
D02*
G37*
G36*
X253318Y173319D02*
X251878D01*
Y171879D01*
X252158Y171935D01*
X252820Y172377D01*
X253262Y173039D01*
X253318Y173319D01*
D02*
G37*
G36*
X219972Y173200D02*
X219692Y173144D01*
X219030Y172702D01*
X218588Y172040D01*
X218533Y171760D01*
X219972D01*
Y173200D01*
D02*
G37*
G36*
X124900Y174414D02*
X124275Y174290D01*
X123746Y173937D01*
X123392Y173407D01*
X123268Y172783D01*
X123392Y172159D01*
X123746Y171630D01*
X124275Y171276D01*
X124900Y171152D01*
X125524Y171276D01*
X126053Y171630D01*
X126407Y172159D01*
X126531Y172783D01*
X126407Y173407D01*
X126053Y173937D01*
X125524Y174290D01*
X124900Y174414D01*
D02*
G37*
G36*
X247335Y172531D02*
X245895D01*
X245951Y172251D01*
X246393Y171590D01*
X247054Y171148D01*
X247335Y171092D01*
Y172531D01*
D02*
G37*
G36*
X97447Y171967D02*
Y170527D01*
X98887D01*
X98831Y170808D01*
X98389Y171469D01*
X97727Y171911D01*
X97447Y171967D01*
D02*
G37*
G36*
X96447D02*
X96166Y171911D01*
X95505Y171469D01*
X95063Y170808D01*
X95007Y170527D01*
X96447D01*
Y171967D01*
D02*
G37*
G36*
X55905Y178009D02*
X55281Y177885D01*
X54752Y177531D01*
X54398Y177002D01*
X54274Y176378D01*
X54398Y175753D01*
X54752Y175224D01*
X54886Y175135D01*
Y171288D01*
X53908Y170311D01*
X29135D01*
X29045Y170445D01*
X28516Y170799D01*
X27892Y170923D01*
X27267Y170799D01*
X26738Y170445D01*
X26385Y169916D01*
X26260Y169291D01*
X26385Y168667D01*
X26738Y168138D01*
X27267Y167784D01*
X27892Y167660D01*
X28516Y167784D01*
X29045Y168138D01*
X29135Y168272D01*
X54331D01*
X54721Y168349D01*
X55052Y168570D01*
X56626Y170145D01*
X56847Y170476D01*
X56925Y170866D01*
Y175135D01*
X57059Y175224D01*
X57413Y175753D01*
X57537Y176378D01*
X57413Y177002D01*
X57059Y177531D01*
X56530Y177885D01*
X55905Y178009D01*
D02*
G37*
G36*
X223721Y171179D02*
Y169740D01*
X225161D01*
X225105Y170020D01*
X224663Y170682D01*
X224002Y171124D01*
X223721Y171179D01*
D02*
G37*
G36*
X219972Y170760D02*
X218533D01*
X218588Y170480D01*
X219030Y169818D01*
X219692Y169376D01*
X219972Y169320D01*
Y170760D01*
D02*
G37*
G36*
X98887Y169527D02*
X97447D01*
Y168087D01*
X97727Y168143D01*
X98389Y168585D01*
X98831Y169247D01*
X98887Y169527D01*
D02*
G37*
G36*
X96447D02*
X95007D01*
X95063Y169247D01*
X95505Y168585D01*
X96166Y168143D01*
X96447Y168087D01*
Y169527D01*
D02*
G37*
G36*
X15854Y169262D02*
Y167823D01*
X17294D01*
X17238Y168103D01*
X16796Y168764D01*
X16135Y169207D01*
X15854Y169262D01*
D02*
G37*
G36*
X14854D02*
X14574Y169207D01*
X13912Y168764D01*
X13470Y168103D01*
X13415Y167823D01*
X14854D01*
Y169262D01*
D02*
G37*
G36*
X250878Y167885D02*
X250598Y167829D01*
X249936Y167387D01*
X249670D01*
X249009Y167829D01*
X248728Y167885D01*
Y165945D01*
Y164005D01*
X249009Y164061D01*
X249670Y164503D01*
X249936D01*
X250598Y164061D01*
X250878Y164005D01*
Y165945D01*
Y167885D01*
D02*
G37*
G36*
X225161Y168740D02*
X223721D01*
Y167300D01*
X224002Y167356D01*
X224663Y167798D01*
X225105Y168459D01*
X225161Y168740D01*
D02*
G37*
G36*
X220972Y173200D02*
Y171260D01*
Y169079D01*
X221256Y168867D01*
X221337Y168459D01*
X221779Y167798D01*
X222441Y167356D01*
X222721Y167300D01*
Y169240D01*
Y171421D01*
X222437Y171633D01*
X222356Y172040D01*
X221914Y172702D01*
X221253Y173144D01*
X220972Y173200D01*
D02*
G37*
G36*
X251878Y167885D02*
Y166445D01*
X253318D01*
X253262Y166725D01*
X252820Y167387D01*
X252158Y167829D01*
X251878Y167885D01*
D02*
G37*
G36*
X247728D02*
X247448Y167829D01*
X246786Y167387D01*
X246344Y166725D01*
X246289Y166445D01*
X247728D01*
Y167885D01*
D02*
G37*
G36*
X17294Y166823D02*
X15854D01*
Y165383D01*
X16135Y165438D01*
X16796Y165881D01*
X17238Y166542D01*
X17294Y166823D01*
D02*
G37*
G36*
X14854D02*
X13415D01*
X13470Y166542D01*
X13912Y165881D01*
X14574Y165438D01*
X14854Y165383D01*
Y166823D01*
D02*
G37*
G36*
X253318Y165445D02*
X251878D01*
Y164005D01*
X252158Y164061D01*
X252820Y164503D01*
X253262Y165164D01*
X253318Y165445D01*
D02*
G37*
G36*
X247728D02*
X246289D01*
X246344Y165164D01*
X246786Y164503D01*
X247448Y164061D01*
X247728Y164005D01*
Y165445D01*
D02*
G37*
G36*
X303150Y171265D02*
X302078Y171124D01*
X301080Y170711D01*
X300223Y170053D01*
X299565Y169196D01*
X299151Y168197D01*
X299010Y167126D01*
X299151Y166055D01*
X299565Y165056D01*
X300223Y164199D01*
X301080Y163541D01*
X302078Y163128D01*
X303150Y162987D01*
X304221Y163128D01*
X305219Y163541D01*
X306077Y164199D01*
X306734Y165056D01*
X307148Y166055D01*
X307289Y167126D01*
X307148Y168197D01*
X306734Y169196D01*
X306077Y170053D01*
X305219Y170711D01*
X304221Y171124D01*
X303150Y171265D01*
D02*
G37*
G36*
X196464Y157648D02*
Y156208D01*
X197904D01*
X197848Y156489D01*
X197406Y157150D01*
X196745Y157592D01*
X196464Y157648D01*
D02*
G37*
G36*
X195464D02*
X195184Y157592D01*
X194522Y157150D01*
X194080Y156489D01*
X194025Y156208D01*
X195464D01*
Y157648D01*
D02*
G37*
G36*
X197904Y155208D02*
X196464D01*
Y153769D01*
X196745Y153824D01*
X197406Y154266D01*
X197848Y154928D01*
X197904Y155208D01*
D02*
G37*
G36*
X195464D02*
X194025D01*
X194080Y154928D01*
X194522Y154266D01*
X195184Y153824D01*
X195464Y153769D01*
Y155208D01*
D02*
G37*
G36*
X97585Y147747D02*
Y146307D01*
X99024D01*
X98969Y146587D01*
X98527Y147249D01*
X97865Y147691D01*
X97585Y147747D01*
D02*
G37*
G36*
X96585D02*
X96304Y147691D01*
X95643Y147249D01*
X95201Y146587D01*
X95145Y146307D01*
X96585D01*
Y147747D01*
D02*
G37*
G36*
X185342Y145345D02*
Y143905D01*
X186782D01*
X186726Y144186D01*
X186284Y144847D01*
X185623Y145289D01*
X185342Y145345D01*
D02*
G37*
G36*
X184342D02*
X184062Y145289D01*
X183400Y144847D01*
X182958Y144186D01*
X182903Y143905D01*
X184342D01*
Y145345D01*
D02*
G37*
G36*
X99024Y145307D02*
X97585D01*
Y143867D01*
X97865Y143923D01*
X98527Y144365D01*
X98969Y145027D01*
X99024Y145307D01*
D02*
G37*
G36*
X96585D02*
X95145D01*
X95201Y145027D01*
X95643Y144365D01*
X96304Y143923D01*
X96585Y143867D01*
Y145307D01*
D02*
G37*
G36*
X296260Y142379D02*
X295636Y142255D01*
X295106Y141902D01*
X294854Y141524D01*
X294375Y141465D01*
X294276Y141490D01*
X294264Y141508D01*
X293735Y141861D01*
X293110Y141986D01*
X292486Y141861D01*
X291957Y141508D01*
X291603Y140979D01*
X291479Y140354D01*
X291603Y139730D01*
X291957Y139201D01*
X292486Y138847D01*
X293110Y138723D01*
X293735Y138847D01*
X294264Y139201D01*
X294516Y139578D01*
X294995Y139637D01*
X295094Y139612D01*
X295106Y139594D01*
X295636Y139241D01*
X296260Y139117D01*
X296884Y139241D01*
X297413Y139594D01*
X297767Y140124D01*
X297891Y140748D01*
X297767Y141372D01*
X297413Y141902D01*
X296884Y142255D01*
X296260Y142379D01*
D02*
G37*
G36*
X186782Y142905D02*
X185342D01*
Y141465D01*
X185623Y141521D01*
X186284Y141963D01*
X186726Y142625D01*
X186782Y142905D01*
D02*
G37*
G36*
X184342D02*
X182903D01*
X182958Y142625D01*
X183400Y141963D01*
X184062Y141521D01*
X184342Y141465D01*
Y142905D01*
D02*
G37*
G36*
X289173Y141986D02*
X288549Y141861D01*
X288020Y141508D01*
X287666Y140979D01*
X287542Y140354D01*
X287666Y139730D01*
X288020Y139201D01*
X288549Y138847D01*
X289173Y138723D01*
X289797Y138847D01*
X290327Y139201D01*
X290680Y139730D01*
X290805Y140354D01*
X290680Y140979D01*
X290327Y141508D01*
X289797Y141861D01*
X289173Y141986D01*
D02*
G37*
G36*
X284842D02*
X284218Y141861D01*
X283689Y141508D01*
X283335Y140979D01*
X283211Y140354D01*
X283335Y139730D01*
X283689Y139201D01*
X284218Y138847D01*
X284842Y138723D01*
X285467Y138847D01*
X285996Y139201D01*
X286350Y139730D01*
X286474Y140354D01*
X286350Y140979D01*
X285996Y141508D01*
X285467Y141861D01*
X284842Y141986D01*
D02*
G37*
G36*
X280906D02*
X280281Y141861D01*
X279752Y141508D01*
X279398Y140979D01*
X279274Y140354D01*
X279398Y139730D01*
X279752Y139201D01*
X280281Y138847D01*
X280906Y138723D01*
X281530Y138847D01*
X282059Y139201D01*
X282413Y139730D01*
X282537Y140354D01*
X282413Y140979D01*
X282059Y141508D01*
X281530Y141861D01*
X280906Y141986D01*
D02*
G37*
G36*
X230499Y131861D02*
Y130421D01*
X231939D01*
X231883Y130702D01*
X231441Y131363D01*
X230779Y131805D01*
X230499Y131861D01*
D02*
G37*
G36*
X229499D02*
X229219Y131805D01*
X228557Y131363D01*
X228115Y130702D01*
X228059Y130421D01*
X229499D01*
Y131861D01*
D02*
G37*
G36*
X122329Y130461D02*
Y129022D01*
X123768D01*
X123713Y129302D01*
X123271Y129964D01*
X122609Y130406D01*
X122329Y130461D01*
D02*
G37*
G36*
X121329D02*
X121048Y130406D01*
X120387Y129964D01*
X119945Y129302D01*
X119889Y129022D01*
X121329D01*
Y130461D01*
D02*
G37*
G36*
X231939Y129421D02*
X230499D01*
Y127981D01*
X230779Y128037D01*
X231441Y128479D01*
X231883Y129141D01*
X231939Y129421D01*
D02*
G37*
G36*
X229499D02*
X228059D01*
X228115Y129141D01*
X228557Y128479D01*
X229219Y128037D01*
X229499Y127981D01*
Y129421D01*
D02*
G37*
G36*
X190551Y127594D02*
X189927Y127470D01*
X189398Y127116D01*
X189226Y126859D01*
X188798Y126688D01*
X188608Y126766D01*
X188223Y127023D01*
X187598Y127147D01*
X186974Y127023D01*
X186445Y126669D01*
X186091Y126140D01*
X185967Y125516D01*
X186091Y124891D01*
X186445Y124362D01*
X186974Y124009D01*
X187598Y123884D01*
X188223Y124009D01*
X188752Y124362D01*
X189237Y124394D01*
X189398Y124185D01*
X189044Y123656D01*
X188920Y123031D01*
X189044Y122407D01*
X189398Y121878D01*
X189760Y121636D01*
X189767Y121617D01*
Y121099D01*
X189760Y121081D01*
X189398Y120839D01*
X189277Y120658D01*
X188676D01*
X188555Y120839D01*
X188026Y121192D01*
X187402Y121316D01*
X186777Y121192D01*
X186248Y120839D01*
X185894Y120309D01*
X185770Y119685D01*
X185894Y119061D01*
X186248Y118532D01*
X186777Y118178D01*
X187402Y118054D01*
X188026Y118178D01*
X188555Y118532D01*
X188676Y118712D01*
X189277D01*
X189398Y118532D01*
X189927Y118178D01*
X190551Y118054D01*
X191175Y118178D01*
X191705Y118532D01*
X192058Y119061D01*
X192183Y119685D01*
X192058Y120309D01*
X191705Y120839D01*
X191343Y121081D01*
X191336Y121099D01*
Y121617D01*
X191343Y121636D01*
X191705Y121878D01*
X192058Y122407D01*
X192183Y123031D01*
X192058Y123656D01*
X191705Y124185D01*
X191612Y124247D01*
Y124747D01*
X191705Y124809D01*
X192058Y125338D01*
X192183Y125963D01*
X192058Y126587D01*
X191705Y127116D01*
X191175Y127470D01*
X190551Y127594D01*
D02*
G37*
G36*
X123768Y128022D02*
X122329D01*
Y126582D01*
X122609Y126638D01*
X123271Y127080D01*
X123713Y127741D01*
X123768Y128022D01*
D02*
G37*
G36*
X121329D02*
X119889D01*
X119945Y127741D01*
X120387Y127080D01*
X121048Y126638D01*
X121329Y126582D01*
Y128022D01*
D02*
G37*
G36*
X158767Y123987D02*
Y122547D01*
X160207D01*
X160151Y122827D01*
X159709Y123489D01*
X159048Y123931D01*
X158767Y123987D01*
D02*
G37*
G36*
X157767D02*
X157487Y123931D01*
X156825Y123489D01*
X156383Y122827D01*
X156328Y122547D01*
X157767D01*
Y123987D01*
D02*
G37*
G36*
X75085Y121625D02*
Y120185D01*
X76524D01*
X76469Y120465D01*
X76027Y121127D01*
X75365Y121569D01*
X75085Y121625D01*
D02*
G37*
G36*
X74085D02*
X73804Y121569D01*
X73143Y121127D01*
X72701Y120465D01*
X72645Y120185D01*
X74085D01*
Y121625D01*
D02*
G37*
G36*
X160207Y121547D02*
X158767D01*
Y120107D01*
X159048Y120163D01*
X159709Y120605D01*
X160151Y121267D01*
X160207Y121547D01*
D02*
G37*
G36*
X157767D02*
X156328D01*
X156383Y121267D01*
X156825Y120605D01*
X157487Y120163D01*
X157767Y120107D01*
Y121547D01*
D02*
G37*
G36*
X32565Y121013D02*
Y119573D01*
X34005D01*
X33949Y119853D01*
X33507Y120515D01*
X32845Y120957D01*
X32565Y121013D01*
D02*
G37*
G36*
X31565D02*
X31285Y120957D01*
X30623Y120515D01*
X30181Y119853D01*
X30125Y119573D01*
X31565D01*
Y121013D01*
D02*
G37*
G36*
X76524Y119185D02*
X75085D01*
Y117745D01*
X75365Y117801D01*
X76027Y118243D01*
X76469Y118905D01*
X76524Y119185D01*
D02*
G37*
G36*
X74085D02*
X72645D01*
X72701Y118905D01*
X73143Y118243D01*
X73804Y117801D01*
X74085Y117745D01*
Y119185D01*
D02*
G37*
G36*
X156012Y118869D02*
Y117429D01*
X157451D01*
X157396Y117710D01*
X156954Y118371D01*
X156292Y118813D01*
X156012Y118869D01*
D02*
G37*
G36*
X155012D02*
X154731Y118813D01*
X154070Y118371D01*
X153628Y117710D01*
X153572Y117429D01*
X155012D01*
Y118869D01*
D02*
G37*
G36*
X34005Y118573D02*
X32565D01*
Y117133D01*
X32845Y117189D01*
X33507Y117631D01*
X33949Y118292D01*
X34005Y118573D01*
D02*
G37*
G36*
X31565D02*
X30125D01*
X30181Y118292D01*
X30623Y117631D01*
X31285Y117189D01*
X31565Y117133D01*
Y118573D01*
D02*
G37*
G36*
X157451Y116429D02*
X156012D01*
Y114989D01*
X156292Y115045D01*
X156954Y115487D01*
X157396Y116149D01*
X157451Y116429D01*
D02*
G37*
G36*
X155012D02*
X153572D01*
X153628Y116149D01*
X154070Y115487D01*
X154731Y115045D01*
X155012Y114989D01*
Y116429D01*
D02*
G37*
G36*
X172547Y108239D02*
Y106799D01*
X173987D01*
X173931Y107080D01*
X173489Y107741D01*
X172828Y108183D01*
X172547Y108239D01*
D02*
G37*
G36*
X171547D02*
X171267Y108183D01*
X170605Y107741D01*
X170163Y107080D01*
X170107Y106799D01*
X171547D01*
Y108239D01*
D02*
G37*
G36*
X173987Y105799D02*
X172547D01*
Y104359D01*
X172828Y104415D01*
X173489Y104857D01*
X173931Y105519D01*
X173987Y105799D01*
D02*
G37*
G36*
X171547D02*
X170107D01*
X170163Y105519D01*
X170605Y104857D01*
X171267Y104415D01*
X171547Y104359D01*
Y105799D01*
D02*
G37*
G36*
X64498Y104478D02*
Y103038D01*
X65937D01*
X65882Y103318D01*
X65439Y103980D01*
X64778Y104422D01*
X64498Y104478D01*
D02*
G37*
G36*
X63498D02*
X63217Y104422D01*
X62556Y103980D01*
X62114Y103318D01*
X62058Y103038D01*
X63498D01*
Y104478D01*
D02*
G37*
G36*
X102862Y103666D02*
Y102227D01*
X104302D01*
X104246Y102507D01*
X103804Y103169D01*
X103143Y103611D01*
X102862Y103666D01*
D02*
G37*
G36*
X101862D02*
X101582Y103611D01*
X100920Y103169D01*
X100478Y102507D01*
X100423Y102227D01*
X101862D01*
Y103666D01*
D02*
G37*
G36*
X65937Y102038D02*
X64498D01*
Y100598D01*
X64778Y100654D01*
X65439Y101096D01*
X65882Y101757D01*
X65937Y102038D01*
D02*
G37*
G36*
X63498D02*
X62058D01*
X62114Y101757D01*
X62556Y101096D01*
X63217Y100654D01*
X63498Y100598D01*
Y102038D01*
D02*
G37*
G36*
X104302Y101227D02*
X102862D01*
Y99787D01*
X103143Y99843D01*
X103804Y100285D01*
X104246Y100946D01*
X104302Y101227D01*
D02*
G37*
G36*
X101862D02*
X100423D01*
X100478Y100946D01*
X100920Y100285D01*
X101582Y99843D01*
X101862Y99787D01*
Y101227D01*
D02*
G37*
G36*
X64427Y95887D02*
Y94447D01*
X65867D01*
X65811Y94728D01*
X65369Y95389D01*
X64707Y95831D01*
X64427Y95887D01*
D02*
G37*
G36*
X63427D02*
X63146Y95831D01*
X62485Y95389D01*
X62043Y94728D01*
X61987Y94447D01*
X63427D01*
Y95887D01*
D02*
G37*
G36*
X310449Y95472D02*
X307587D01*
Y92610D01*
X310449D01*
Y95472D01*
D02*
G37*
G36*
X306587D02*
X303724D01*
Y92610D01*
X306587D01*
Y95472D01*
D02*
G37*
G36*
X65867Y93447D02*
X64427D01*
Y92007D01*
X64707Y92063D01*
X65369Y92505D01*
X65811Y93167D01*
X65867Y93447D01*
D02*
G37*
G36*
X63427D02*
X61987D01*
X62043Y93167D01*
X62485Y92505D01*
X63146Y92063D01*
X63427Y92007D01*
Y93447D01*
D02*
G37*
G36*
X102862Y92155D02*
Y90715D01*
X104302D01*
X104246Y90995D01*
X103804Y91657D01*
X103143Y92099D01*
X102862Y92155D01*
D02*
G37*
G36*
X101862D02*
X101582Y92099D01*
X100920Y91657D01*
X100478Y90995D01*
X100423Y90715D01*
X101862D01*
Y92155D01*
D02*
G37*
G36*
X310449Y91610D02*
X307587D01*
Y88748D01*
X310449D01*
Y91610D01*
D02*
G37*
G36*
X306587D02*
X303724D01*
Y88748D01*
X306587D01*
Y91610D01*
D02*
G37*
G36*
X104302Y89715D02*
X102862D01*
Y88275D01*
X103143Y88331D01*
X103804Y88773D01*
X104246Y89435D01*
X104302Y89715D01*
D02*
G37*
G36*
X101862D02*
X100423D01*
X100478Y89435D01*
X100920Y88773D01*
X101582Y88331D01*
X101862Y88275D01*
Y89715D01*
D02*
G37*
G36*
X307087Y87224D02*
X306313Y87122D01*
X305593Y86824D01*
X304974Y86349D01*
X304499Y85730D01*
X304345Y85358D01*
X287402D01*
X287402Y85358D01*
X286972Y85272D01*
X286609Y85029D01*
X286609Y85029D01*
X277488Y75909D01*
X246254D01*
X246232Y75941D01*
X245703Y76295D01*
X245079Y76419D01*
X244454Y76295D01*
X243925Y75941D01*
X243572Y75412D01*
X243447Y74787D01*
X243572Y74163D01*
X243925Y73634D01*
X244454Y73280D01*
X245079Y73156D01*
X245703Y73280D01*
X246232Y73634D01*
X246254Y73666D01*
X277953D01*
X277953Y73666D01*
X278382Y73751D01*
X278746Y73994D01*
X287866Y83115D01*
X304345D01*
X304499Y82742D01*
X304974Y82124D01*
X305593Y81649D01*
X306313Y81350D01*
X307087Y81248D01*
X307860Y81350D01*
X308580Y81649D01*
X309199Y82124D01*
X309674Y82742D01*
X309973Y83463D01*
X310074Y84236D01*
X309973Y85009D01*
X309674Y85730D01*
X309199Y86349D01*
X308580Y86824D01*
X307860Y87122D01*
X307087Y87224D01*
D02*
G37*
G36*
X32565Y80068D02*
Y78628D01*
X34005D01*
X33949Y78908D01*
X33507Y79570D01*
X32845Y80012D01*
X32565Y80068D01*
D02*
G37*
G36*
X31565D02*
X31285Y80012D01*
X30623Y79570D01*
X30181Y78908D01*
X30125Y78628D01*
X31565D01*
Y80068D01*
D02*
G37*
G36*
X108156Y78536D02*
Y77096D01*
X109595D01*
X109539Y77377D01*
X109097Y78038D01*
X108436Y78480D01*
X108156Y78536D01*
D02*
G37*
G36*
X107156D02*
X106875Y78480D01*
X106214Y78038D01*
X105772Y77377D01*
X105716Y77096D01*
X107156D01*
Y78536D01*
D02*
G37*
G36*
X75085Y78099D02*
Y76659D01*
X76524D01*
X76469Y76940D01*
X76027Y77601D01*
X75365Y78043D01*
X75085Y78099D01*
D02*
G37*
G36*
X74085D02*
X73804Y78043D01*
X73143Y77601D01*
X72701Y76940D01*
X72645Y76659D01*
X74085D01*
Y78099D01*
D02*
G37*
G36*
X34005Y77628D02*
X32565D01*
Y76188D01*
X32845Y76244D01*
X33507Y76686D01*
X33949Y77348D01*
X34005Y77628D01*
D02*
G37*
G36*
X31565D02*
X30125D01*
X30181Y77348D01*
X30623Y76686D01*
X31285Y76244D01*
X31565Y76188D01*
Y77628D01*
D02*
G37*
G36*
X60411Y78053D02*
X59787Y77928D01*
X59258Y77575D01*
X58904Y77046D01*
X58780Y76421D01*
X58904Y75797D01*
X59258Y75268D01*
X59787Y74914D01*
X60411Y74790D01*
X61036Y74914D01*
X61565Y75268D01*
X61919Y75797D01*
X62043Y76421D01*
X61919Y77046D01*
X61565Y77575D01*
X61036Y77928D01*
X60411Y78053D01*
D02*
G37*
G36*
X109595Y76096D02*
X108156D01*
Y74657D01*
X108436Y74713D01*
X109097Y75155D01*
X109539Y75816D01*
X109595Y76096D01*
D02*
G37*
G36*
X107156D02*
X105716D01*
X105772Y75816D01*
X106214Y75155D01*
X106875Y74713D01*
X107156Y74657D01*
Y76096D01*
D02*
G37*
G36*
X76524Y75659D02*
X75085D01*
Y74220D01*
X75365Y74275D01*
X76027Y74717D01*
X76469Y75379D01*
X76524Y75659D01*
D02*
G37*
G36*
X74085D02*
X72645D01*
X72701Y75379D01*
X73143Y74717D01*
X73804Y74275D01*
X74085Y74220D01*
Y75659D01*
D02*
G37*
G36*
X307087Y79350D02*
X306313Y79248D01*
X305593Y78950D01*
X304974Y78475D01*
X304499Y77856D01*
X304201Y77135D01*
X304099Y76362D01*
X304201Y75589D01*
X304499Y74868D01*
X304974Y74250D01*
X305593Y73775D01*
X306313Y73476D01*
X307087Y73374D01*
X307860Y73476D01*
X308580Y73775D01*
X309199Y74250D01*
X309674Y74868D01*
X309973Y75589D01*
X310074Y76362D01*
X309973Y77135D01*
X309674Y77856D01*
X309199Y78475D01*
X308580Y78950D01*
X307860Y79248D01*
X307087Y79350D01*
D02*
G37*
G36*
X132299Y76419D02*
X131675Y76295D01*
X131146Y75941D01*
X130792Y75412D01*
X130668Y74787D01*
X130792Y74163D01*
X131146Y73634D01*
X131675Y73280D01*
X132299Y73156D01*
X132923Y73280D01*
X133453Y73634D01*
X133806Y74163D01*
X133931Y74787D01*
X133806Y75412D01*
X133453Y75941D01*
X132923Y76295D01*
X132299Y76419D01*
D02*
G37*
G36*
X122329Y69044D02*
Y67604D01*
X123768D01*
X123713Y67885D01*
X123271Y68546D01*
X122609Y68988D01*
X122329Y69044D01*
D02*
G37*
G36*
X121329D02*
X121048Y68988D01*
X120387Y68546D01*
X119945Y67885D01*
X119889Y67604D01*
X121329D01*
Y69044D01*
D02*
G37*
G36*
X123768Y66604D02*
X122329D01*
Y65165D01*
X122609Y65220D01*
X123271Y65662D01*
X123713Y66324D01*
X123768Y66604D01*
D02*
G37*
G36*
X121329D02*
X119889D01*
X119945Y66324D01*
X120387Y65662D01*
X121048Y65220D01*
X121329Y65165D01*
Y66604D01*
D02*
G37*
G36*
X138689Y65719D02*
Y64280D01*
X140129D01*
X140073Y64560D01*
X139631Y65221D01*
X138969Y65663D01*
X138689Y65719D01*
D02*
G37*
G36*
X137689D02*
X137409Y65663D01*
X136747Y65221D01*
X136305Y64560D01*
X136249Y64280D01*
X137689D01*
Y65719D01*
D02*
G37*
G36*
X140129Y63279D02*
X138689D01*
Y61840D01*
X138969Y61896D01*
X139631Y62338D01*
X140073Y62999D01*
X140129Y63279D01*
D02*
G37*
G36*
X137689D02*
X136249D01*
X136305Y62999D01*
X136747Y62338D01*
X137409Y61896D01*
X137689Y61840D01*
Y63279D01*
D02*
G37*
G36*
X165854Y52333D02*
Y50894D01*
X167294D01*
X167238Y51174D01*
X166796Y51836D01*
X166135Y52278D01*
X165854Y52333D01*
D02*
G37*
G36*
X164854D02*
X164574Y52278D01*
X163912Y51836D01*
X163470Y51174D01*
X163415Y50894D01*
X164854D01*
Y52333D01*
D02*
G37*
G36*
X265264Y53113D02*
Y50287D01*
X268089D01*
X268039Y50665D01*
X267701Y51483D01*
X267162Y52185D01*
X266459Y52724D01*
X265641Y53063D01*
X265264Y53113D01*
D02*
G37*
G36*
X264264D02*
X263886Y53063D01*
X263068Y52724D01*
X262366Y52185D01*
X261827Y51483D01*
X261488Y50665D01*
X261438Y50287D01*
X264264D01*
Y53113D01*
D02*
G37*
G36*
X167294Y49894D02*
X165854D01*
Y48454D01*
X166135Y48510D01*
X166796Y48952D01*
X167238Y49613D01*
X167294Y49894D01*
D02*
G37*
G36*
X164854D02*
X163415D01*
X163470Y49613D01*
X163912Y48952D01*
X164574Y48510D01*
X164854Y48454D01*
Y49894D01*
D02*
G37*
G36*
X280512Y52775D02*
X279738Y52673D01*
X279018Y52375D01*
X278399Y51900D01*
X277924Y51281D01*
X277626Y50561D01*
X277524Y49787D01*
X277626Y49014D01*
X277924Y48294D01*
X278399Y47675D01*
X279018Y47200D01*
X279738Y46901D01*
X280512Y46800D01*
X281285Y46901D01*
X282006Y47200D01*
X282625Y47675D01*
X283099Y48294D01*
X283398Y49014D01*
X283500Y49787D01*
X283398Y50561D01*
X283099Y51281D01*
X282625Y51900D01*
X282006Y52375D01*
X281285Y52673D01*
X280512Y52775D01*
D02*
G37*
G36*
X272638D02*
X271865Y52673D01*
X271144Y52375D01*
X270525Y51900D01*
X270050Y51281D01*
X269752Y50561D01*
X269650Y49787D01*
X269752Y49014D01*
X270050Y48294D01*
X270525Y47675D01*
X271144Y47200D01*
X271865Y46901D01*
X272638Y46800D01*
X273411Y46901D01*
X274132Y47200D01*
X274750Y47675D01*
X275225Y48294D01*
X275524Y49014D01*
X275626Y49787D01*
X275524Y50561D01*
X275225Y51281D01*
X274750Y51900D01*
X274132Y52375D01*
X273411Y52673D01*
X272638Y52775D01*
D02*
G37*
G36*
X268089Y49287D02*
X265264D01*
Y46462D01*
X265641Y46512D01*
X266459Y46850D01*
X267162Y47389D01*
X267701Y48092D01*
X268039Y48910D01*
X268089Y49287D01*
D02*
G37*
G36*
X264264D02*
X261438D01*
X261488Y48910D01*
X261827Y48092D01*
X262366Y47389D01*
X263068Y46850D01*
X263886Y46512D01*
X264264Y46462D01*
Y49287D01*
D02*
G37*
G36*
X118195Y47631D02*
Y46191D01*
X119635D01*
X119579Y46471D01*
X119137Y47133D01*
X118475Y47575D01*
X118195Y47631D01*
D02*
G37*
G36*
X117195D02*
X116914Y47575D01*
X116253Y47133D01*
X115811Y46471D01*
X115755Y46191D01*
X117195D01*
Y47631D01*
D02*
G37*
G36*
X119635Y45191D02*
X118195D01*
Y43751D01*
X118475Y43807D01*
X119137Y44249D01*
X119579Y44911D01*
X119635Y45191D01*
D02*
G37*
G36*
X117195D02*
X115755D01*
X115811Y44911D01*
X116253Y44249D01*
X116914Y43807D01*
X117195Y43751D01*
Y45191D01*
D02*
G37*
G36*
X53543Y38639D02*
X52919Y38515D01*
X52390Y38161D01*
X52036Y37632D01*
X51912Y37008D01*
X52036Y36384D01*
X52390Y35854D01*
X52919Y35501D01*
X53543Y35377D01*
X54168Y35501D01*
X54697Y35854D01*
X55050Y36384D01*
X55175Y37008D01*
X55050Y37632D01*
X54697Y38161D01*
X54168Y38515D01*
X53543Y38639D01*
D02*
G37*
G36*
X244988Y33829D02*
Y32390D01*
X246427D01*
X246372Y32670D01*
X245930Y33332D01*
X245268Y33774D01*
X244988Y33829D01*
D02*
G37*
G36*
X243988D02*
X243707Y33774D01*
X243046Y33332D01*
X242604Y32670D01*
X242548Y32390D01*
X243988D01*
Y33829D01*
D02*
G37*
G36*
X207087Y39427D02*
X206462Y39302D01*
X205933Y38949D01*
X205579Y38420D01*
X205455Y37795D01*
X205579Y37171D01*
X205933Y36642D01*
X206462Y36288D01*
X207087Y36164D01*
X207711Y36288D01*
X208240Y36642D01*
X208261Y36674D01*
X221976D01*
X225414Y33236D01*
Y27918D01*
X225234Y27844D01*
X224695Y27431D01*
X224313Y26933D01*
X224035Y26899D01*
X223758Y26933D01*
X223376Y27431D01*
X222837Y27844D01*
X222209Y28104D01*
X221535Y28193D01*
X220862Y28104D01*
X220234Y27844D01*
X219695Y27431D01*
X219313Y26933D01*
X219035Y26899D01*
X218758Y26933D01*
X218375Y27431D01*
X217837Y27844D01*
X217209Y28104D01*
X216535Y28193D01*
X215862Y28104D01*
X215234Y27844D01*
X214695Y27431D01*
X214313Y26933D01*
X214035Y26899D01*
X213758Y26933D01*
X213375Y27431D01*
X212837Y27844D01*
X212209Y28104D01*
X211535Y28193D01*
X210862Y28104D01*
X210234Y27844D01*
X209695Y27431D01*
X209313Y26933D01*
X209035Y26899D01*
X208758Y26933D01*
X208376Y27431D01*
X207965Y27746D01*
X207879Y28197D01*
X207899Y28360D01*
X210701Y31162D01*
X216542D01*
X216563Y31130D01*
X217092Y30776D01*
X217717Y30652D01*
X218341Y30776D01*
X218870Y31130D01*
X219224Y31659D01*
X219348Y32283D01*
X219224Y32908D01*
X218870Y33437D01*
X218341Y33791D01*
X217717Y33915D01*
X217092Y33791D01*
X216563Y33437D01*
X216542Y33405D01*
X210236D01*
X210236Y33405D01*
X209807Y33320D01*
X209443Y33077D01*
X209443Y33077D01*
X205742Y29376D01*
X205499Y29012D01*
X205414Y28583D01*
X205414Y28583D01*
Y27918D01*
X205234Y27844D01*
X204695Y27431D01*
X204282Y26892D01*
X204022Y26264D01*
X203933Y25591D01*
X204022Y24917D01*
X204282Y24289D01*
X204695Y23751D01*
X204800Y23671D01*
X204630Y23171D01*
X203955D01*
Y18011D01*
X209115D01*
Y18061D01*
X209615Y18308D01*
X210033Y17988D01*
X210757Y17687D01*
X211035Y17651D01*
Y20591D01*
X212035D01*
Y17651D01*
X212313Y17687D01*
X213038Y17988D01*
X213661Y18465D01*
X213785Y18628D01*
X214285D01*
X214410Y18465D01*
X215033Y17988D01*
X215757Y17687D01*
X216035Y17651D01*
Y20591D01*
X217035D01*
Y17651D01*
X217313Y17687D01*
X218038Y17988D01*
X218661Y18465D01*
X218972Y18871D01*
X219536Y18911D01*
X219591Y18887D01*
X219695Y18751D01*
X220234Y18337D01*
X220862Y18077D01*
X221535Y17988D01*
X222209Y18077D01*
X222837Y18337D01*
X223376Y18751D01*
X223480Y18887D01*
X223535Y18911D01*
X224098Y18871D01*
X224410Y18465D01*
X225033Y17988D01*
X225758Y17687D01*
X226035Y17651D01*
Y20591D01*
X226535D01*
Y21091D01*
X229475D01*
X229439Y21369D01*
X229138Y22093D01*
X228661Y22716D01*
X228255Y23028D01*
X228215Y23591D01*
X228239Y23646D01*
X228376Y23751D01*
X228789Y24289D01*
X229049Y24917D01*
X229138Y25591D01*
X229049Y26264D01*
X228789Y26892D01*
X228376Y27431D01*
X227837Y27844D01*
X227657Y27918D01*
Y33701D01*
X227657Y33701D01*
X227572Y34130D01*
X227328Y34494D01*
X227328Y34494D01*
X223234Y38588D01*
X222870Y38831D01*
X222441Y38917D01*
X222441Y38917D01*
X208261D01*
X208240Y38949D01*
X207711Y39302D01*
X207087Y39427D01*
D02*
G37*
G36*
X246427Y31390D02*
X244988D01*
Y29950D01*
X245268Y30006D01*
X245930Y30448D01*
X246372Y31109D01*
X246427Y31390D01*
D02*
G37*
G36*
X243988D02*
X242548D01*
X242604Y31109D01*
X243046Y30448D01*
X243707Y30006D01*
X243988Y29950D01*
Y31390D01*
D02*
G37*
G36*
X187902Y27924D02*
Y26484D01*
X189341D01*
X189286Y26765D01*
X188844Y27426D01*
X188182Y27868D01*
X187902Y27924D01*
D02*
G37*
G36*
X186902D02*
X186621Y27868D01*
X185960Y27426D01*
X185518Y26765D01*
X185462Y26484D01*
X186902D01*
Y27924D01*
D02*
G37*
G36*
X94585Y26828D02*
X93960Y26704D01*
X93431Y26350D01*
X93410Y26318D01*
X75584D01*
X75563Y26350D01*
X75034Y26704D01*
X74410Y26828D01*
X73785Y26704D01*
X73256Y26350D01*
X72902Y25821D01*
X72778Y25197D01*
X72902Y24573D01*
X73256Y24043D01*
X73785Y23690D01*
X74410Y23565D01*
X75034Y23690D01*
X75563Y24043D01*
X75584Y24075D01*
X93410D01*
X93431Y24043D01*
X93960Y23690D01*
X94585Y23565D01*
X95209Y23690D01*
X95738Y24043D01*
X96092Y24573D01*
X96216Y25197D01*
X96092Y25821D01*
X95738Y26350D01*
X95209Y26704D01*
X94585Y26828D01*
D02*
G37*
G36*
X189341Y25484D02*
X187902D01*
Y24045D01*
X188182Y24100D01*
X188844Y24542D01*
X189286Y25204D01*
X189341Y25484D01*
D02*
G37*
G36*
X186902D02*
X185462D01*
X185518Y25204D01*
X185960Y24542D01*
X186621Y24100D01*
X186902Y24045D01*
Y25484D01*
D02*
G37*
G36*
X136614Y21710D02*
X135990Y21586D01*
X135461Y21232D01*
X135107Y20703D01*
X134983Y20079D01*
X135107Y19454D01*
X135461Y18925D01*
X135990Y18572D01*
X136614Y18447D01*
X137239Y18572D01*
X137768Y18925D01*
X138121Y19454D01*
X138245Y20079D01*
X138121Y20703D01*
X137768Y21232D01*
X137239Y21586D01*
X136614Y21710D01*
D02*
G37*
G36*
X81102Y88245D02*
X80478Y88121D01*
X79949Y87768D01*
X79595Y87239D01*
X79471Y86614D01*
X79595Y85990D01*
X79949Y85461D01*
X80478Y85107D01*
X81102Y84983D01*
X81140Y84990D01*
X98485Y67646D01*
Y21254D01*
X98453Y21232D01*
X98099Y20703D01*
X97975Y20079D01*
X98099Y19454D01*
X98453Y18925D01*
X98982Y18572D01*
X99606Y18447D01*
X100231Y18572D01*
X100760Y18925D01*
X101113Y19454D01*
X101238Y20079D01*
X101113Y20703D01*
X100760Y21232D01*
X100728Y21254D01*
Y68110D01*
X100643Y68539D01*
X100399Y68903D01*
X100399Y68903D01*
X82726Y86576D01*
X82734Y86614D01*
X82609Y87239D01*
X82256Y87768D01*
X81727Y88121D01*
X81102Y88245D01*
D02*
G37*
G36*
X229475Y20090D02*
X227035D01*
Y17651D01*
X227313Y17687D01*
X228038Y17988D01*
X228661Y18465D01*
X229138Y19088D01*
X229439Y19813D01*
X229475Y20090D01*
D02*
G37*
G36*
X156898Y16113D02*
Y14673D01*
X158337D01*
X158282Y14954D01*
X157840Y15615D01*
X157178Y16057D01*
X156898Y16113D01*
D02*
G37*
G36*
X155898D02*
X155617Y16057D01*
X154956Y15615D01*
X154514Y14954D01*
X154458Y14673D01*
X155898D01*
Y16113D01*
D02*
G37*
G36*
X266150Y14538D02*
Y13098D01*
X267589D01*
X267534Y13379D01*
X267091Y14040D01*
X266430Y14482D01*
X266150Y14538D01*
D02*
G37*
G36*
X265150D02*
X264869Y14482D01*
X264208Y14040D01*
X263766Y13379D01*
X263710Y13098D01*
X265150D01*
Y14538D01*
D02*
G37*
G36*
X90648Y16102D02*
X90023Y15978D01*
X89494Y15624D01*
X89140Y15095D01*
X89016Y14470D01*
X89140Y13846D01*
X89494Y13317D01*
X90023Y12963D01*
X90648Y12839D01*
X91272Y12963D01*
X91801Y13317D01*
X92155Y13846D01*
X92279Y14470D01*
X92155Y15095D01*
X91801Y15624D01*
X91272Y15978D01*
X90648Y16102D01*
D02*
G37*
G36*
X158337Y13673D02*
X156898D01*
Y12234D01*
X157178Y12289D01*
X157840Y12731D01*
X158282Y13393D01*
X158337Y13673D01*
D02*
G37*
G36*
X155898D02*
X154458D01*
X154514Y13393D01*
X154956Y12731D01*
X155617Y12289D01*
X155898Y12234D01*
Y13673D01*
D02*
G37*
G36*
X82486Y13060D02*
Y11620D01*
X83926D01*
X83870Y11900D01*
X83428Y12562D01*
X82767Y13004D01*
X82486Y13060D01*
D02*
G37*
G36*
X81486D02*
X81206Y13004D01*
X80544Y12562D01*
X80102Y11900D01*
X80046Y11620D01*
X81486D01*
Y13060D01*
D02*
G37*
G36*
X267589Y12098D02*
X266150D01*
Y10659D01*
X266430Y10714D01*
X267091Y11157D01*
X267534Y11818D01*
X267589Y12098D01*
D02*
G37*
G36*
X265150D02*
X263710D01*
X263766Y11818D01*
X264208Y11157D01*
X264869Y10714D01*
X265150Y10659D01*
Y12098D01*
D02*
G37*
G36*
X237008Y13836D02*
X236384Y13712D01*
X235854Y13358D01*
X235501Y12829D01*
X235377Y12205D01*
X235501Y11580D01*
X235854Y11051D01*
X236384Y10698D01*
X237008Y10573D01*
X237632Y10698D01*
X238161Y11051D01*
X238515Y11580D01*
X238639Y12205D01*
X238515Y12829D01*
X238161Y13358D01*
X237632Y13712D01*
X237008Y13836D01*
D02*
G37*
G36*
X83926Y10620D02*
X82486D01*
Y9180D01*
X82767Y9236D01*
X83428Y9678D01*
X83870Y10340D01*
X83926Y10620D01*
D02*
G37*
G36*
X81486D02*
X80046D01*
X80102Y10340D01*
X80544Y9678D01*
X81206Y9236D01*
X81486Y9180D01*
Y10620D01*
D02*
G37*
G36*
X64258Y10229D02*
Y8789D01*
X65698D01*
X65642Y9070D01*
X65200Y9731D01*
X64538Y10173D01*
X64258Y10229D01*
D02*
G37*
G36*
X63258D02*
X62977Y10173D01*
X62316Y9731D01*
X61874Y9070D01*
X61818Y8789D01*
X63258D01*
Y10229D01*
D02*
G37*
G36*
X118293Y9343D02*
Y7903D01*
X119733D01*
X119677Y8184D01*
X119235Y8845D01*
X118574Y9287D01*
X118293Y9343D01*
D02*
G37*
G36*
X117293D02*
X117013Y9287D01*
X116351Y8845D01*
X115909Y8184D01*
X115854Y7903D01*
X117293D01*
Y9343D01*
D02*
G37*
G36*
X65698Y7789D02*
X64258D01*
Y6350D01*
X64538Y6405D01*
X65200Y6848D01*
X65642Y7509D01*
X65698Y7789D01*
D02*
G37*
G36*
X63258D02*
X61818D01*
X61874Y7509D01*
X62316Y6848D01*
X62977Y6405D01*
X63258Y6350D01*
Y7789D01*
D02*
G37*
G36*
X119733Y6904D02*
X118293D01*
Y5464D01*
X118574Y5520D01*
X119235Y5962D01*
X119677Y6623D01*
X119733Y6904D01*
D02*
G37*
G36*
X117293D02*
X115854D01*
X115909Y6623D01*
X116351Y5962D01*
X117013Y5520D01*
X117293Y5464D01*
Y6904D01*
D02*
G37*
%LPD*%
D13*
X74410Y25197D02*
X94585D01*
X81102Y86614D02*
X99606Y68110D01*
Y20079D02*
Y68110D01*
X207087Y37795D02*
X222441D01*
X226535Y33701D01*
Y25591D02*
Y33701D01*
X210236Y32283D02*
X217717D01*
X206535Y28583D02*
X210236Y32283D01*
X206535Y25591D02*
Y28583D01*
X53937Y186614D02*
Y187008D01*
X49999Y202756D02*
X50000Y202755D01*
X245079Y74787D02*
X277953D01*
X287402Y84236D01*
X307087D01*
D17*
X55905Y170866D02*
Y176378D01*
X54331Y169291D02*
X55905Y170866D01*
X27892Y169291D02*
X54331D01*
X89467Y170421D02*
X94978Y175933D01*
X111120D01*
D34*
X307087Y92110D02*
D03*
D106*
X188976Y227165D02*
D03*
D107*
X193898D02*
D03*
D108*
X303150Y167126D02*
D03*
D116*
X158267Y122047D02*
Y122047D01*
X195571Y155708D02*
X195964D01*
X244488Y31890D02*
X244882D01*
D126*
X206535Y20591D02*
D03*
D127*
X211535D02*
D03*
X206535Y25591D02*
D03*
X211535D02*
D03*
X221535D02*
D03*
X216535D02*
D03*
X221535Y20591D02*
D03*
X216535D02*
D03*
X226535D02*
D03*
Y25591D02*
D03*
D128*
X305709Y226969D02*
D03*
X9252D02*
D03*
X305709Y9252D02*
D03*
X9252Y9252D02*
D03*
D129*
X307087Y84236D02*
D03*
Y76362D02*
D03*
X280512Y49787D02*
D03*
X272638D02*
D03*
X264764D02*
D03*
D130*
X111907Y208610D02*
D03*
X104034D02*
D03*
X96159D02*
D03*
X143819Y225394D02*
D03*
X153819D02*
D03*
X163819D02*
D03*
X144213Y201378D02*
D03*
X154213D02*
D03*
X164213D02*
D03*
D131*
X88285Y208610D02*
D03*
X133819Y225394D02*
D03*
X134213Y201378D02*
D03*
D132*
X187598Y125516D02*
D03*
X187402Y119685D02*
D03*
X190551D02*
D03*
X55905Y176378D02*
D03*
X27892Y169291D02*
D03*
X89467Y170421D02*
D03*
X111120Y175933D02*
D03*
X74585Y76159D02*
D03*
X107656Y76596D02*
D03*
X102362Y101727D02*
D03*
Y90215D02*
D03*
X74410Y25197D02*
D03*
X94585D02*
D03*
X90648Y14470D02*
D03*
X63758Y8289D02*
D03*
X81102Y86614D02*
D03*
X99606Y20079D02*
D03*
X207087Y37795D02*
D03*
X217717Y32283D02*
D03*
X172047Y106299D02*
D03*
X155512Y116929D02*
D03*
X158267Y122047D02*
D03*
X184842Y143405D02*
D03*
X229999Y129921D02*
D03*
X195964Y155708D02*
D03*
X209252Y185039D02*
D03*
X182087Y211614D02*
D03*
X214764Y200590D02*
D03*
X70175Y175933D02*
D03*
X43701Y177953D02*
D03*
Y180709D02*
D03*
Y175197D02*
D03*
X53937Y186614D02*
D03*
X50000Y202755D02*
D03*
X35039Y229000D02*
D03*
X55118D02*
D03*
X16535Y200000D02*
D03*
X18504Y190945D02*
D03*
X30709Y189764D02*
D03*
X32065Y119073D02*
D03*
X74585Y119685D02*
D03*
X63998Y102538D02*
D03*
X63927Y93947D02*
D03*
X32065Y78128D02*
D03*
X121829Y128522D02*
D03*
Y67104D02*
D03*
X132299Y74787D02*
D03*
X138189Y63779D02*
D03*
X165354Y50394D02*
D03*
X156398Y14173D02*
D03*
X187402Y25984D02*
D03*
X237008Y12205D02*
D03*
X265650Y12598D02*
D03*
X244488Y31890D02*
D03*
X117793Y7403D02*
D03*
X81986Y11120D02*
D03*
X117695Y45691D02*
D03*
X96947Y170027D02*
D03*
X94191Y190992D02*
D03*
X117321Y194535D02*
D03*
X190157Y200098D02*
D03*
X193799Y201378D02*
D03*
X209752Y192913D02*
D03*
X15354Y167323D02*
D03*
X124900Y172783D02*
D03*
X99703Y189712D02*
D03*
X82774Y175933D02*
D03*
X60411Y76421D02*
D03*
X53543Y37008D02*
D03*
X136614Y20079D02*
D03*
X289173Y140354D02*
D03*
X284842D02*
D03*
X293110D02*
D03*
X296260Y140748D02*
D03*
X280906Y140354D02*
D03*
X297047Y193898D02*
D03*
X280906Y193504D02*
D03*
X247835Y173031D02*
D03*
X248228Y165945D02*
D03*
X292717Y194134D02*
D03*
X285236D02*
D03*
X251378Y173819D02*
D03*
X251378Y165945D02*
D03*
X205512Y192913D02*
D03*
Y188681D02*
D03*
Y196850D02*
D03*
X245079Y74787D02*
D03*
X220472Y171260D02*
D03*
X223221Y169240D02*
D03*
X190551Y125963D02*
D03*
Y123031D02*
D03*
X97085Y145807D02*
D03*
X204724Y215945D02*
D03*
M02*
