G04*
G04 #@! TF.GenerationSoftware,Altium Limited,Altium Designer,21.1.1 (26)*
G04*
G04 Layer_Physical_Order=3*
G04 Layer_Color=128*
%FSLAX25Y25*%
%MOIN*%
G70*
G04*
G04 #@! TF.SameCoordinates,D31DAFBF-B6A6-4984-8A5A-3B2B1D04CFA6*
G04*
G04*
G04 #@! TF.FilePolarity,Negative*
G04*
G01*
G75*
%ADD118C,0.03000*%
%ADD119C,0.04000*%
%ADD133C,0.04560*%
G04:AMPARAMS|DCode=134|XSize=85.6mil|YSize=85.6mil|CornerRadius=0mil|HoleSize=0mil|Usage=FLASHONLY|Rotation=0.000|XOffset=0mil|YOffset=0mil|HoleType=Round|Shape=Relief|Width=10mil|Gap=10mil|Entries=4|*
%AMTHD134*
7,0,0,0.08560,0.06560,0.01000,45*
%
%ADD134THD134*%
%ADD135C,0.12630*%
%ADD136C,0.03969*%
%ADD137C,0.09008*%
G04:AMPARAMS|DCode=138|XSize=99.37mil|YSize=99.37mil|CornerRadius=0mil|HoleSize=0mil|Usage=FLASHONLY|Rotation=0.000|XOffset=0mil|YOffset=0mil|HoleType=Round|Shape=Relief|Width=10mil|Gap=10mil|Entries=4|*
%AMTHD138*
7,0,0,0.09937,0.07937,0.01000,45*
%
%ADD138THD138*%
%ADD139C,0.05937*%
G04:AMPARAMS|DCode=140|XSize=110mil|YSize=110mil|CornerRadius=0mil|HoleSize=0mil|Usage=FLASHONLY|Rotation=0.000|XOffset=0mil|YOffset=0mil|HoleType=Round|Shape=Relief|Width=10mil|Gap=10mil|Entries=4|*
%AMTHD140*
7,0,0,0.11000,0.09000,0.01000,45*
%
%ADD140THD140*%
%ADD141C,0.07000*%
%ADD142C,0.03200*%
%ADD143C,0.02800*%
G04:AMPARAMS|DCode=144|XSize=68mil|YSize=68mil|CornerRadius=0mil|HoleSize=0mil|Usage=FLASHONLY|Rotation=0.000|XOffset=0mil|YOffset=0mil|HoleType=Round|Shape=Relief|Width=10mil|Gap=10mil|Entries=4|*
%AMTHD144*
7,0,0,0.06800,0.04800,0.01000,45*
%
%ADD144THD144*%
G04:AMPARAMS|DCode=145|XSize=72mil|YSize=72mil|CornerRadius=0mil|HoleSize=0mil|Usage=FLASHONLY|Rotation=0.000|XOffset=0mil|YOffset=0mil|HoleType=Round|Shape=Relief|Width=10mil|Gap=10mil|Entries=4|*
%AMTHD145*
7,0,0,0.07200,0.05200,0.01000,45*
%
%ADD145THD145*%
D118*
X314961Y0D02*
X314961Y0D01*
X-0Y0D02*
X0Y0D01*
X-0Y0D02*
Y55118D01*
X39Y55157D01*
X24211D01*
X25571Y56518D01*
Y140705D01*
X178642Y133071D02*
Y235630D01*
Y133071D02*
X314961D01*
Y235433D01*
X314567Y235827D02*
X314961Y235433D01*
X178150Y235827D02*
X314567D01*
X0Y-0D02*
X314961D01*
X314961Y-0D01*
Y130905D01*
X177165D02*
X314961D01*
X176181Y131890D02*
X177165Y130905D01*
X176181Y131890D02*
Y236215D01*
X176180Y236216D02*
X176181Y236215D01*
X4Y236216D02*
X176180D01*
X-0Y236212D02*
X4Y236216D01*
X-0Y141732D02*
Y236212D01*
Y141732D02*
X592Y141140D01*
X25248D01*
D119*
X0Y0D02*
X314961D01*
Y236221D01*
X0D02*
X314961D01*
X0Y141732D02*
Y236221D01*
Y141732D02*
X25591D01*
Y55118D02*
Y141732D01*
X0Y55118D02*
X25591D01*
X0Y0D02*
Y55118D01*
D133*
X211535Y20591D02*
D03*
X206535Y25591D02*
D03*
X211535D02*
D03*
X221535D02*
D03*
X216535D02*
D03*
X221535Y20591D02*
D03*
X216535D02*
D03*
X226535D02*
D03*
Y25591D02*
D03*
D134*
X206535Y20591D02*
D03*
D135*
X305709Y226969D02*
D03*
X9252D02*
D03*
X305709Y9252D02*
D03*
X9252Y9252D02*
D03*
D136*
X188976Y227165D02*
D03*
X193898D02*
D03*
D137*
X303150Y167126D02*
D03*
D138*
X307087Y76362D02*
D03*
X280512Y49787D02*
D03*
X96159Y208610D02*
D03*
D139*
X307087Y92110D02*
D03*
Y84236D02*
D03*
X272638Y49787D02*
D03*
X264764D02*
D03*
X111907Y208610D02*
D03*
X104034D02*
D03*
X88285D02*
D03*
D140*
X143819Y225394D02*
D03*
X144213Y201378D02*
D03*
D141*
X133819Y225394D02*
D03*
X153819D02*
D03*
X163819D02*
D03*
X134213Y201378D02*
D03*
X154213D02*
D03*
X164213D02*
D03*
D142*
X172047Y106299D02*
D03*
X297047Y193898D02*
D03*
X280906Y193504D02*
D03*
X247835Y173031D02*
D03*
X248228Y165945D02*
D03*
X292717Y194134D02*
D03*
X285236D02*
D03*
X251378Y173819D02*
D03*
X251378Y165945D02*
D03*
X220472Y171260D02*
D03*
X223221Y169240D02*
D03*
D143*
X55905Y176378D02*
D03*
X27892Y169291D02*
D03*
X89467Y170421D02*
D03*
X111120Y175933D02*
D03*
X74585Y76159D02*
D03*
X107656Y76596D02*
D03*
X102362Y101727D02*
D03*
Y90215D02*
D03*
X74410Y25197D02*
D03*
X94585D02*
D03*
X63758Y8289D02*
D03*
X81102Y86614D02*
D03*
X99606Y20079D02*
D03*
X207087Y37795D02*
D03*
X217717Y32283D02*
D03*
X155512Y116929D02*
D03*
X158267Y122047D02*
D03*
X184842Y143405D02*
D03*
X229999Y129921D02*
D03*
X195964Y155708D02*
D03*
X209252Y185039D02*
D03*
X182087Y211614D02*
D03*
X214764Y200590D02*
D03*
X70175Y175933D02*
D03*
X43701Y177953D02*
D03*
Y180709D02*
D03*
Y175197D02*
D03*
X53937Y186614D02*
D03*
X50000Y202755D02*
D03*
X35039Y229000D02*
D03*
X55118D02*
D03*
X16535Y200000D02*
D03*
X18504Y190945D02*
D03*
X30709Y189764D02*
D03*
X32065Y119073D02*
D03*
X74585Y119685D02*
D03*
X63998Y102538D02*
D03*
X63927Y93947D02*
D03*
X32065Y78128D02*
D03*
X121829Y128522D02*
D03*
Y67104D02*
D03*
X138189Y63779D02*
D03*
X165354Y50394D02*
D03*
X156398Y14173D02*
D03*
X187402Y25984D02*
D03*
X265650Y12598D02*
D03*
X244488Y31890D02*
D03*
X117793Y7403D02*
D03*
X81986Y11120D02*
D03*
X117695Y45691D02*
D03*
X96947Y170027D02*
D03*
X94191Y190992D02*
D03*
X117321Y194535D02*
D03*
X190157Y200098D02*
D03*
X15354Y167323D02*
D03*
X245079Y74787D02*
D03*
X97085Y145807D02*
D03*
X204724Y215945D02*
D03*
D144*
X90648Y14470D02*
D03*
X132299Y74787D02*
D03*
X237008Y12205D02*
D03*
X193799Y201378D02*
D03*
X209752Y192913D02*
D03*
X124900Y172783D02*
D03*
X99703Y189712D02*
D03*
X82774Y175933D02*
D03*
X60411Y76421D02*
D03*
X53543Y37008D02*
D03*
X136614Y20079D02*
D03*
X289173Y140354D02*
D03*
X284842D02*
D03*
X293110D02*
D03*
X296260Y140748D02*
D03*
X280906Y140354D02*
D03*
D145*
X187598Y125516D02*
D03*
X187402Y119685D02*
D03*
X190551D02*
D03*
X205512Y192913D02*
D03*
Y188681D02*
D03*
Y196850D02*
D03*
X190551Y125963D02*
D03*
Y123031D02*
D03*
M02*
