G04*
G04 #@! TF.GenerationSoftware,Altium Limited,Altium Designer,21.1.1 (26)*
G04*
G04 Layer_Color=8421504*
%FSLAX25Y25*%
%MOIN*%
G70*
G04*
G04 #@! TF.SameCoordinates,969F4329-1E93-4840-8548-A094FB753E80*
G04*
G04*
G04 #@! TF.FilePolarity,Positive*
G04*
G01*
G75*
%ADD19R,0.03634X0.07178*%
%ADD20R,0.01404X0.04947*%
%ADD21R,0.03937X0.03543*%
%ADD22R,0.04606X0.07087*%
%ADD23R,0.02953X0.04331*%
%ADD24R,0.03347X0.04331*%
%ADD25R,0.06102X0.05315*%
%ADD26R,0.04724X0.03937*%
%ADD27R,0.07480X0.05315*%
%ADD28R,0.03306X0.00876*%
G04:AMPARAMS|DCode=29|XSize=33.06mil|YSize=8.76mil|CornerRadius=4.38mil|HoleSize=0mil|Usage=FLASHONLY|Rotation=0.000|XOffset=0mil|YOffset=0mil|HoleType=Round|Shape=RoundedRectangle|*
%AMROUNDEDRECTD29*
21,1,0.03306,0.00000,0,0,0.0*
21,1,0.02430,0.00876,0,0,0.0*
1,1,0.00876,0.01215,0.00000*
1,1,0.00876,-0.01215,0.00000*
1,1,0.00876,-0.01215,0.00000*
1,1,0.00876,0.01215,0.00000*
%
%ADD29ROUNDEDRECTD29*%
%ADD30R,0.02756X0.02362*%
%ADD31R,0.02756X0.03937*%
%ADD32R,0.03543X0.03937*%
%ADD33C,0.05000*%
%ADD34R,0.04724X0.04724*%
%ADD35R,0.05512X0.03937*%
%ADD36R,0.04528X0.05709*%
%ADD37R,0.03150X0.03150*%
%ADD38R,0.02559X0.04134*%
%ADD39R,0.15984X0.12992*%
%ADD40R,0.25000X0.15000*%
%ADD41R,0.25000X0.12992*%
%ADD42R,0.02165X0.01772*%
%ADD43R,0.03740X0.05315*%
%ADD44R,0.04331X0.04331*%
%ADD45R,0.07284X0.13386*%
%ADD46R,0.07874X0.07874*%
%ADD47R,0.02756X0.04724*%
%ADD48R,0.04724X0.02756*%
%ADD49R,0.04724X0.04724*%
%ADD50R,0.06299X0.05906*%
%ADD51R,0.04331X0.04331*%
%ADD52R,0.01575X0.05315*%
%ADD53R,0.08268X0.07874*%
%ADD54R,0.06299X0.07480*%
%ADD55R,0.04724X0.07480*%
%ADD56R,0.07480X0.04331*%
%ADD57R,0.03231X0.01341*%
G04:AMPARAMS|DCode=58|XSize=32.31mil|YSize=13.41mil|CornerRadius=6.71mil|HoleSize=0mil|Usage=FLASHONLY|Rotation=180.000|XOffset=0mil|YOffset=0mil|HoleType=Round|Shape=RoundedRectangle|*
%AMROUNDEDRECTD58*
21,1,0.03231,0.00000,0,0,180.0*
21,1,0.01890,0.01341,0,0,180.0*
1,1,0.01341,-0.00945,0.00000*
1,1,0.01341,0.00945,0.00000*
1,1,0.01341,0.00945,0.00000*
1,1,0.01341,-0.00945,0.00000*
%
%ADD58ROUNDEDRECTD58*%
%ADD59R,0.05315X0.03740*%
%ADD60R,0.01772X0.05315*%
%ADD61R,0.02362X0.06102*%
%ADD62R,0.04724X0.07087*%
%ADD63R,0.00787X0.03937*%
%ADD64R,0.00984X0.02362*%
D19*
X43701Y177953D02*
D03*
D20*
X104821Y171996D02*
D03*
D21*
X40400Y195950D02*
D03*
Y189650D02*
D03*
X46900Y195950D02*
D03*
Y189650D02*
D03*
X155118Y56693D02*
D03*
Y50394D02*
D03*
X161811Y56693D02*
D03*
Y50394D02*
D03*
X209449Y174409D02*
D03*
Y168110D02*
D03*
X27165Y200394D02*
D03*
Y206693D02*
D03*
X33858Y189764D02*
D03*
Y196063D02*
D03*
X53543Y189764D02*
D03*
Y196063D02*
D03*
X195965Y158858D02*
D03*
Y165157D02*
D03*
D22*
X68758Y8289D02*
D03*
D23*
X73522Y6911D02*
D03*
D24*
X77656D02*
D03*
X81986D02*
D03*
X86317D02*
D03*
X90648D02*
D03*
X94978D02*
D03*
X99309D02*
D03*
X103640D02*
D03*
D25*
X113325Y7403D02*
D03*
D26*
X114014Y45691D02*
D03*
Y31124D02*
D03*
D27*
X100234Y49529D02*
D03*
X76730D02*
D03*
D28*
X38128Y182382D02*
D03*
D29*
Y180610D02*
D03*
Y178839D02*
D03*
Y177067D02*
D03*
Y175295D02*
D03*
Y173524D02*
D03*
X49274D02*
D03*
Y175295D02*
D03*
Y177067D02*
D03*
Y178839D02*
D03*
Y180610D02*
D03*
Y182382D02*
D03*
D30*
X39451Y209393D02*
D03*
X47325D02*
D03*
X39451Y201913D02*
D03*
D31*
X47325Y202700D02*
D03*
D32*
X161024Y63386D02*
D03*
X154724D02*
D03*
X24803Y180709D02*
D03*
X18504D02*
D03*
X24803Y187402D02*
D03*
X18504D02*
D03*
X24803Y174409D02*
D03*
X18504D02*
D03*
X35433Y161024D02*
D03*
X29134D02*
D03*
X16535Y196457D02*
D03*
X10236D02*
D03*
X24803Y167323D02*
D03*
X18504D02*
D03*
X124900Y169633D02*
D03*
X118600D02*
D03*
X118600Y175933D02*
D03*
X124900D02*
D03*
X44488Y62402D02*
D03*
X50787D02*
D03*
X44488Y55709D02*
D03*
X50787D02*
D03*
X136614Y15748D02*
D03*
X130315D02*
D03*
X44488Y49213D02*
D03*
X50787D02*
D03*
X136221Y24803D02*
D03*
X129921D02*
D03*
X241339Y25984D02*
D03*
X235039D02*
D03*
X241339Y19291D02*
D03*
X235039D02*
D03*
X235039Y32283D02*
D03*
X241339D02*
D03*
X171653Y109055D02*
D03*
X165354D02*
D03*
X165354Y115748D02*
D03*
X171653D02*
D03*
X165354Y96457D02*
D03*
X171653D02*
D03*
X171653Y102756D02*
D03*
X165354D02*
D03*
X194193Y215945D02*
D03*
X200492D02*
D03*
X97085Y150591D02*
D03*
X103384D02*
D03*
X221850Y189961D02*
D03*
X228150D02*
D03*
X209646Y128937D02*
D03*
X203346D02*
D03*
X196850D02*
D03*
X190551D02*
D03*
X187825Y215945D02*
D03*
X181526D02*
D03*
X79624Y175933D02*
D03*
X73325D02*
D03*
X44175Y37008D02*
D03*
X50474D02*
D03*
X148819Y122047D02*
D03*
X155118D02*
D03*
X148819Y113779D02*
D03*
X155118D02*
D03*
X185728Y172244D02*
D03*
X179429D02*
D03*
X215551Y182087D02*
D03*
X209252D02*
D03*
X208858Y189961D02*
D03*
X215158D02*
D03*
X221850Y182087D02*
D03*
X228150D02*
D03*
X233465Y12205D02*
D03*
X227165D02*
D03*
X85923Y175933D02*
D03*
X92222D02*
D03*
D33*
X70079Y140990D02*
D03*
X64567Y146457D02*
D03*
X11400Y181299D02*
D03*
X131102Y8661D02*
D03*
X35433Y62598D02*
D03*
X35827Y56009D02*
D03*
X241339Y12226D02*
D03*
X158268Y107858D02*
D03*
X143307Y88976D02*
D03*
X264961Y8661D02*
D03*
X137795Y57087D02*
D03*
X80018Y169240D02*
D03*
X35827Y49213D02*
D03*
X150394Y93685D02*
D03*
X143307Y98819D02*
D03*
X150000Y103543D02*
D03*
X140945Y133465D02*
D03*
X129921Y31496D02*
D03*
X143701Y24803D02*
D03*
X81593Y183413D02*
D03*
X120175Y183019D02*
D03*
X111811Y135433D02*
D03*
X122835Y135039D02*
D03*
D34*
X50651Y161024D02*
D03*
X42384D02*
D03*
X163976Y36614D02*
D03*
X155709D02*
D03*
D35*
X20472Y211059D02*
D03*
X10236D02*
D03*
D36*
X17717Y203937D02*
D03*
X10630D02*
D03*
X228543Y198228D02*
D03*
X221457D02*
D03*
D37*
X43565Y42520D02*
D03*
X49470D02*
D03*
D38*
X164862Y7185D02*
D03*
Y23524D02*
D03*
X156398D02*
D03*
Y7185D02*
D03*
X265650Y17028D02*
D03*
Y33366D02*
D03*
X257185Y17028D02*
D03*
Y33366D02*
D03*
D39*
X252362Y170118D02*
D03*
D40*
X288347Y141811D02*
D03*
D41*
Y194134D02*
D03*
D42*
X215158Y170866D02*
D03*
Y174409D02*
D03*
D43*
X208465Y196653D02*
D03*
X214764D02*
D03*
X220079Y128937D02*
D03*
X226378D02*
D03*
X187402Y20079D02*
D03*
X193701D02*
D03*
D44*
X179823Y180118D02*
D03*
X186909D02*
D03*
D45*
X236122Y148622D02*
D03*
X214272D02*
D03*
D46*
X48108Y102538D02*
D03*
X56840D02*
D03*
X48108Y93947D02*
D03*
X56840D02*
D03*
X96360Y101727D02*
D03*
X107600D02*
D03*
X96360Y90215D02*
D03*
X107600D02*
D03*
D47*
X32065Y124803D02*
D03*
X36789D02*
D03*
X41514D02*
D03*
X46238D02*
D03*
X50963D02*
D03*
X55687D02*
D03*
X60411D02*
D03*
X74585D02*
D03*
X79309D02*
D03*
X84034D02*
D03*
X98207D02*
D03*
X107656D02*
D03*
X121829D02*
D03*
Y72047D02*
D03*
X117104D02*
D03*
X112380D02*
D03*
X107656D02*
D03*
X102931D02*
D03*
X98207D02*
D03*
X93482D02*
D03*
X88758D02*
D03*
X84034D02*
D03*
X79309D02*
D03*
X74585D02*
D03*
X69860D02*
D03*
X65136D02*
D03*
X60411D02*
D03*
X55687D02*
D03*
X50963D02*
D03*
X46238D02*
D03*
X41514D02*
D03*
X36789D02*
D03*
X32065D02*
D03*
X93482Y124803D02*
D03*
X88758D02*
D03*
X117104D02*
D03*
X102931D02*
D03*
X112380D02*
D03*
X69860D02*
D03*
X65136D02*
D03*
D48*
X127502Y98409D02*
D03*
Y93685D02*
D03*
Y88961D02*
D03*
Y84236D02*
D03*
Y74787D02*
D03*
Y122031D02*
D03*
Y107858D02*
D03*
Y103134D02*
D03*
Y79512D02*
D03*
Y117307D02*
D03*
Y112583D02*
D03*
D49*
X176968Y147047D02*
D03*
X184842D02*
D03*
D50*
X180905Y159843D02*
D03*
D51*
X195965Y173031D02*
D03*
Y180118D02*
D03*
D52*
X38840Y218468D02*
D03*
X41399D02*
D03*
X43958D02*
D03*
X46517D02*
D03*
X49076D02*
D03*
D53*
X31754Y219748D02*
D03*
X56163D02*
D03*
D54*
X27817Y229000D02*
D03*
X60100D02*
D03*
D55*
X40612D02*
D03*
X47305D02*
D03*
D56*
X140945Y112970D02*
D03*
Y122813D02*
D03*
D57*
X108856Y170027D02*
D03*
D58*
Y173964D02*
D03*
X100785D02*
D03*
Y170027D02*
D03*
D59*
X138189Y66929D02*
D03*
Y73228D02*
D03*
D60*
X187598Y206004D02*
D03*
X190157D02*
D03*
X192717D02*
D03*
X195276D02*
D03*
Y190453D02*
D03*
X192717D02*
D03*
X190157D02*
D03*
X187598D02*
D03*
D61*
X95766Y184594D02*
D03*
X99703D02*
D03*
X103640D02*
D03*
X107577D02*
D03*
D62*
X90648Y194535D02*
D03*
X112695D02*
D03*
D63*
X227756Y170078D02*
D03*
X225787D02*
D03*
X223819D02*
D03*
D64*
Y174409D02*
D03*
X225787D02*
D03*
X227756D02*
D03*
M02*
