G04*
G04 #@! TF.GenerationSoftware,Altium Limited,Altium Designer,21.1.1 (26)*
G04*
G04 Layer_Color=16711935*
%FSLAX25Y25*%
%MOIN*%
G70*
G04*
G04 #@! TF.SameCoordinates,D31DAFBF-B6A6-4984-8A5A-3B2B1D04CFA6*
G04*
G04*
G04 #@! TF.FilePolarity,Negative*
G04*
G01*
G75*
%ADD77R,0.05124X0.05124*%
%ADD103R,0.04360X0.04360*%
%ADD104C,0.04360*%
%ADD105C,0.14573*%
%ADD106R,0.03937X0.03937*%
%ADD107C,0.03937*%
%ADD108C,0.07008*%
%ADD109C,0.05124*%
%ADD110C,0.07717*%
%ADD111R,0.07717X0.07717*%
%ADD112R,0.07487X0.07487*%
%ADD113C,0.07487*%
%ADD114C,0.02400*%
D77*
X307087Y92110D02*
D03*
D103*
X206535Y20591D02*
D03*
D104*
X211535D02*
D03*
X206535Y25591D02*
D03*
X211535D02*
D03*
X221535D02*
D03*
X216535D02*
D03*
X221535Y20591D02*
D03*
X216535D02*
D03*
X226535D02*
D03*
Y25591D02*
D03*
D105*
X305709Y226969D02*
D03*
X9252D02*
D03*
X305709Y9252D02*
D03*
X9252Y9252D02*
D03*
D106*
X188976Y227165D02*
D03*
D107*
X193898D02*
D03*
D108*
X303150Y167126D02*
D03*
D109*
X307087Y84236D02*
D03*
Y76362D02*
D03*
X280512Y49787D02*
D03*
X272638D02*
D03*
X264764D02*
D03*
D110*
X111907Y208610D02*
D03*
X104034D02*
D03*
X96159D02*
D03*
D111*
X88285D02*
D03*
D112*
X133819Y225394D02*
D03*
X134213Y201378D02*
D03*
D113*
X143819Y225394D02*
D03*
X153819D02*
D03*
X163819D02*
D03*
X144213Y201378D02*
D03*
X154213D02*
D03*
X164213D02*
D03*
D114*
X187598Y125516D02*
D03*
X187402Y119685D02*
D03*
X190551D02*
D03*
X55905Y176378D02*
D03*
X27892Y169291D02*
D03*
X89467Y170421D02*
D03*
X111120Y175933D02*
D03*
X74585Y76159D02*
D03*
X107656Y76596D02*
D03*
X102362Y101727D02*
D03*
Y90215D02*
D03*
X74410Y25197D02*
D03*
X94585D02*
D03*
X90648Y14470D02*
D03*
X63758Y8289D02*
D03*
X81102Y86614D02*
D03*
X99606Y20079D02*
D03*
X207087Y37795D02*
D03*
X217717Y32283D02*
D03*
X172047Y106299D02*
D03*
X155512Y116929D02*
D03*
X158267Y122047D02*
D03*
X184842Y143405D02*
D03*
X229999Y129921D02*
D03*
X195964Y155708D02*
D03*
X209252Y185039D02*
D03*
X182087Y211614D02*
D03*
X214764Y200590D02*
D03*
X70175Y175933D02*
D03*
X43701Y177953D02*
D03*
Y180709D02*
D03*
Y175197D02*
D03*
X53937Y186614D02*
D03*
X50000Y202755D02*
D03*
X35039Y229000D02*
D03*
X55118D02*
D03*
X16535Y200000D02*
D03*
X18504Y190945D02*
D03*
X30709Y189764D02*
D03*
X32065Y119073D02*
D03*
X74585Y119685D02*
D03*
X63998Y102538D02*
D03*
X63927Y93947D02*
D03*
X32065Y78128D02*
D03*
X121829Y128522D02*
D03*
Y67104D02*
D03*
X132299Y74787D02*
D03*
X138189Y63779D02*
D03*
X165354Y50394D02*
D03*
X156398Y14173D02*
D03*
X187402Y25984D02*
D03*
X237008Y12205D02*
D03*
X265650Y12598D02*
D03*
X244488Y31890D02*
D03*
X117793Y7403D02*
D03*
X81986Y11120D02*
D03*
X117695Y45691D02*
D03*
X96947Y170027D02*
D03*
X94191Y190992D02*
D03*
X117321Y194535D02*
D03*
X190157Y200098D02*
D03*
X193799Y201378D02*
D03*
X209752Y192913D02*
D03*
X15354Y167323D02*
D03*
X124900Y172783D02*
D03*
X99703Y189712D02*
D03*
X82774Y175933D02*
D03*
X60411Y76421D02*
D03*
X53543Y37008D02*
D03*
X136614Y20079D02*
D03*
X289173Y140354D02*
D03*
X284842D02*
D03*
X293110D02*
D03*
X296260Y140748D02*
D03*
X280906Y140354D02*
D03*
X297047Y193898D02*
D03*
X280906Y193504D02*
D03*
X247835Y173031D02*
D03*
X248228Y165945D02*
D03*
X292717Y194134D02*
D03*
X285236D02*
D03*
X251378Y173819D02*
D03*
X251378Y165945D02*
D03*
X205512Y192913D02*
D03*
Y188681D02*
D03*
Y196850D02*
D03*
X245079Y74787D02*
D03*
X220472Y171260D02*
D03*
X223221Y169240D02*
D03*
X190551Y125963D02*
D03*
Y123031D02*
D03*
X97085Y145807D02*
D03*
X204724Y215945D02*
D03*
M02*
