G04*
G04 #@! TF.GenerationSoftware,Altium Limited,Altium Designer,21.1.1 (26)*
G04*
G04 Layer_Physical_Order=1*
G04 Layer_Color=255*
%FSLAX25Y25*%
%MOIN*%
G70*
G04*
G04 #@! TF.SameCoordinates,969F4329-1E93-4840-8548-A094FB753E80*
G04*
G04*
G04 #@! TF.FilePolarity,Positive*
G04*
G01*
G75*
%ADD13C,0.01000*%
%ADD17C,0.00800*%
%ADD21R,0.03937X0.03543*%
%ADD22R,0.04606X0.07087*%
%ADD23R,0.02953X0.04331*%
%ADD24R,0.03347X0.04331*%
%ADD25R,0.06102X0.05315*%
%ADD26R,0.04724X0.03937*%
%ADD27R,0.07480X0.05315*%
%ADD28R,0.03306X0.00876*%
G04:AMPARAMS|DCode=29|XSize=33.06mil|YSize=8.76mil|CornerRadius=4.38mil|HoleSize=0mil|Usage=FLASHONLY|Rotation=0.000|XOffset=0mil|YOffset=0mil|HoleType=Round|Shape=RoundedRectangle|*
%AMROUNDEDRECTD29*
21,1,0.03306,0.00000,0,0,0.0*
21,1,0.02430,0.00876,0,0,0.0*
1,1,0.00876,0.01215,0.00000*
1,1,0.00876,-0.01215,0.00000*
1,1,0.00876,-0.01215,0.00000*
1,1,0.00876,0.01215,0.00000*
%
%ADD29ROUNDEDRECTD29*%
%ADD30R,0.02756X0.02362*%
%ADD31R,0.02756X0.03937*%
%ADD32R,0.03543X0.03937*%
%ADD33C,0.05000*%
%ADD34R,0.04724X0.04724*%
%ADD35R,0.05512X0.03937*%
%ADD36R,0.04528X0.05709*%
%ADD37R,0.03150X0.03150*%
%ADD38R,0.02559X0.04134*%
%ADD39R,0.15984X0.12992*%
%ADD40R,0.25000X0.15000*%
%ADD41R,0.25000X0.12992*%
%ADD42R,0.02165X0.01772*%
%ADD43R,0.03740X0.05315*%
%ADD44R,0.04331X0.04331*%
%ADD45R,0.07284X0.13386*%
%ADD46R,0.07874X0.07874*%
%ADD47R,0.02756X0.04724*%
%ADD48R,0.04724X0.02756*%
%ADD49R,0.04724X0.04724*%
%ADD50R,0.06299X0.05906*%
%ADD51R,0.04331X0.04331*%
%ADD52R,0.01575X0.05315*%
%ADD53R,0.08268X0.07874*%
%ADD54R,0.06299X0.07480*%
%ADD55R,0.04724X0.07480*%
%ADD56R,0.07480X0.04331*%
%ADD57R,0.03231X0.01341*%
G04:AMPARAMS|DCode=58|XSize=32.31mil|YSize=13.41mil|CornerRadius=6.71mil|HoleSize=0mil|Usage=FLASHONLY|Rotation=180.000|XOffset=0mil|YOffset=0mil|HoleType=Round|Shape=RoundedRectangle|*
%AMROUNDEDRECTD58*
21,1,0.03231,0.00000,0,0,180.0*
21,1,0.01890,0.01341,0,0,180.0*
1,1,0.01341,-0.00945,0.00000*
1,1,0.01341,0.00945,0.00000*
1,1,0.01341,0.00945,0.00000*
1,1,0.01341,-0.00945,0.00000*
%
%ADD58ROUNDEDRECTD58*%
%ADD59R,0.05315X0.03740*%
%ADD60R,0.01772X0.05315*%
%ADD61R,0.02362X0.06102*%
%ADD62R,0.04724X0.07087*%
%ADD63R,0.00787X0.03937*%
%ADD64R,0.00984X0.02362*%
%ADD72R,0.06496X0.10039*%
%ADD97R,0.02756X0.06299*%
%ADD106R,0.03937X0.03937*%
%ADD107C,0.03937*%
%ADD108C,0.07008*%
%ADD115C,0.04000*%
%ADD116C,0.02000*%
%ADD117C,0.01500*%
%ADD118C,0.03000*%
%ADD119C,0.04000*%
%ADD120R,0.06299X0.12205*%
%ADD121R,0.10433X0.05512*%
%ADD122R,0.04528X0.03789*%
%ADD123R,0.16732X0.02953*%
%ADD124R,0.09843X0.04943*%
%ADD125R,0.05709X0.12795*%
%ADD126R,0.03960X0.03960*%
%ADD127C,0.03960*%
%ADD128C,0.14173*%
%ADD129C,0.04724*%
%ADD130C,0.07087*%
%ADD131R,0.07087X0.07087*%
%ADD132C,0.02000*%
G36*
X302753Y234104D02*
X301417Y233391D01*
X300247Y232430D01*
X299287Y231260D01*
X298573Y229924D01*
X298133Y228475D01*
X297985Y226969D01*
X298133Y225462D01*
X298573Y224013D01*
X299287Y222677D01*
X300247Y221507D01*
X301417Y220546D01*
X302753Y219833D01*
X304202Y219393D01*
X305709Y219245D01*
X307215Y219393D01*
X308664Y219833D01*
X310000Y220546D01*
X311170Y221507D01*
X312131Y222677D01*
X312844Y224013D01*
X313329Y223888D01*
X313329Y12332D01*
X312844Y12208D01*
X312131Y13543D01*
X311170Y14714D01*
X310000Y15674D01*
X308664Y16388D01*
X307215Y16827D01*
X305709Y16976D01*
X304202Y16827D01*
X302753Y16388D01*
X301417Y15674D01*
X300247Y14714D01*
X299287Y13543D01*
X298573Y12208D01*
X298133Y10759D01*
X297985Y9252D01*
X298133Y7745D01*
X298573Y6296D01*
X299287Y4961D01*
X300247Y3790D01*
X301417Y2830D01*
X302753Y2116D01*
X302629Y1631D01*
X111957D01*
X111786Y1788D01*
X111637Y1878D01*
X111508Y1993D01*
X110765Y2428D01*
X110601Y2484D01*
X110450Y2570D01*
X109632Y2838D01*
X109460Y2859D01*
X109294Y2910D01*
X108439Y3000D01*
X108352Y2992D01*
X108268Y3009D01*
X68898D01*
X68813Y2992D01*
X68727Y3000D01*
X67871Y2911D01*
X67704Y2859D01*
X67532Y2838D01*
X66714Y2569D01*
X66689Y2555D01*
X66662Y2551D01*
X66413Y2399D01*
X66159Y2256D01*
X66142Y2234D01*
X66118Y2220D01*
X65479Y1631D01*
X12332D01*
X12208Y2116D01*
X13543Y2830D01*
X14714Y3790D01*
X15674Y4961D01*
X16388Y6296D01*
X16827Y7745D01*
X16976Y9252D01*
X16827Y10759D01*
X16388Y12208D01*
X15674Y13543D01*
X14714Y14714D01*
X13543Y15674D01*
X12208Y16388D01*
X10759Y16827D01*
X9252Y16976D01*
X7745Y16827D01*
X6296Y16388D01*
X4961Y15674D01*
X3790Y14714D01*
X2830Y13543D01*
X2116Y12208D01*
X1631Y12332D01*
Y53487D01*
X24016D01*
X24105Y53505D01*
X24196Y53497D01*
X24547Y53536D01*
X24722Y53591D01*
X24904Y53617D01*
X25237Y53733D01*
X25395Y53826D01*
X25567Y53892D01*
X25866Y54079D01*
X25999Y54205D01*
X26152Y54307D01*
X26401Y54557D01*
X26503Y54710D01*
X26629Y54843D01*
X26817Y55142D01*
X26882Y55313D01*
X26975Y55471D01*
X27092Y55805D01*
X27117Y55986D01*
X27173Y56161D01*
X27212Y56512D01*
X27204Y56603D01*
X27222Y56693D01*
X27222Y140157D01*
X27204Y140247D01*
X27212Y140338D01*
X27173Y140689D01*
X27117Y140864D01*
X27092Y141046D01*
X26976Y141379D01*
X26882Y141537D01*
X26817Y141709D01*
X26629Y142007D01*
X26503Y142141D01*
X26401Y142293D01*
X26152Y142543D01*
X25999Y142645D01*
X25866Y142771D01*
X25567Y142958D01*
X25395Y143024D01*
X25237Y143117D01*
X24904Y143233D01*
X24722Y143259D01*
X24547Y143314D01*
X24196Y143353D01*
X24105Y143346D01*
X24016Y143364D01*
X1631D01*
X1631Y223888D01*
X2116Y224013D01*
X2830Y222677D01*
X3790Y221507D01*
X4961Y220546D01*
X6296Y219833D01*
X7745Y219393D01*
X9252Y219245D01*
X10759Y219393D01*
X12208Y219833D01*
X13543Y220546D01*
X14714Y221507D01*
X15674Y222677D01*
X16388Y224013D01*
X16827Y225462D01*
X16976Y226969D01*
X16827Y228475D01*
X16388Y229924D01*
X15674Y231260D01*
X14714Y232430D01*
X13543Y233391D01*
X12208Y234104D01*
X12339Y234587D01*
X22165Y234585D01*
X22332Y234432D01*
X22481Y234342D01*
X22610Y234227D01*
X23353Y233793D01*
X23517Y233736D01*
X23667Y233652D01*
Y229500D01*
X31966D01*
Y233211D01*
X37250D01*
Y230192D01*
X36750Y230040D01*
X36481Y230442D01*
X35820Y230884D01*
X35539Y230940D01*
Y229000D01*
Y227060D01*
X35820Y227116D01*
X36481Y227558D01*
X36750Y227960D01*
X37250Y227808D01*
Y225018D01*
X36887Y224685D01*
X31966D01*
Y228500D01*
X23667D01*
Y224260D01*
X26620D01*
Y220248D01*
X36887D01*
Y223927D01*
X37250Y224260D01*
X40112D01*
Y229000D01*
X41112D01*
Y224260D01*
X46805D01*
Y229000D01*
X47305D01*
Y229500D01*
X50667D01*
Y233211D01*
X55950D01*
Y231383D01*
X55618Y231111D01*
Y229000D01*
Y226889D01*
X55950Y226617D01*
Y224685D01*
X51029D01*
X50667Y225018D01*
Y228500D01*
X47805D01*
Y224260D01*
X50667D01*
X51029Y223927D01*
Y222557D01*
X50864Y222126D01*
X49576D01*
Y218468D01*
Y214811D01*
X50529D01*
X50864Y214811D01*
Y214811D01*
X51029D01*
Y214811D01*
X55663D01*
Y219748D01*
X56163D01*
Y220248D01*
X61297D01*
Y224260D01*
X64250D01*
Y228500D01*
X60100D01*
Y229500D01*
X64250D01*
Y233211D01*
X65220D01*
X65305Y233228D01*
X65391Y233220D01*
X66247Y233310D01*
X66414Y233362D01*
X66587Y233383D01*
X67405Y233652D01*
X67556Y233737D01*
X67721Y233794D01*
X68464Y234230D01*
X68594Y234346D01*
X68742Y234437D01*
X68908Y234589D01*
X197539Y234583D01*
X197570Y234589D01*
X302629Y234589D01*
X302753Y234104D01*
D02*
G37*
%LPC*%
G36*
X54618Y230940D02*
X54338Y230884D01*
X53676Y230442D01*
X53234Y229780D01*
X53178Y229500D01*
X54618D01*
Y230940D01*
D02*
G37*
G36*
X34539D02*
X34259Y230884D01*
X33597Y230442D01*
X33155Y229780D01*
X33100Y229500D01*
X34539D01*
Y230940D01*
D02*
G37*
G36*
X193898Y229756D02*
X193227Y229668D01*
X192602Y229409D01*
X192066Y228997D01*
X192045Y228970D01*
X191545Y229140D01*
Y229734D01*
X186408D01*
Y224597D01*
X187855D01*
Y218513D01*
X185454D01*
Y213376D01*
X187855D01*
Y211587D01*
X186805Y210537D01*
X186562Y210173D01*
X186477Y209744D01*
X186477Y209744D01*
Y209261D01*
X186113D01*
Y202747D01*
X188272D01*
Y202346D01*
X189022D01*
X189174Y201847D01*
X188716Y201540D01*
X188274Y200879D01*
X188218Y200598D01*
X190157D01*
Y200098D01*
X190657D01*
Y198159D01*
X190938Y198214D01*
X191599Y198656D01*
X192041Y199318D01*
X192181Y200020D01*
X192473Y200154D01*
X192687Y200197D01*
X193175Y199871D01*
X193799Y199747D01*
X194423Y199871D01*
X194953Y200224D01*
X195306Y200754D01*
X195431Y201378D01*
X195306Y202002D01*
X195143Y202246D01*
X195411Y202747D01*
X196761D01*
Y209261D01*
X196397D01*
Y209780D01*
X196397Y209780D01*
X196312Y210209D01*
X196069Y210573D01*
X196069Y210573D01*
X195019Y211622D01*
Y213376D01*
X196565D01*
Y218513D01*
X195019D01*
Y224850D01*
X195193Y224922D01*
X195729Y225333D01*
X196141Y225870D01*
X196400Y226495D01*
X196488Y227165D01*
X196400Y227836D01*
X196141Y228461D01*
X195729Y228997D01*
X195193Y229409D01*
X194568Y229668D01*
X193898Y229756D01*
D02*
G37*
G36*
X54618Y228500D02*
X53178D01*
X53234Y228220D01*
X53676Y227558D01*
X54338Y227116D01*
X54618Y227060D01*
Y228500D01*
D02*
G37*
G36*
X34539D02*
X33100D01*
X33155Y228220D01*
X33597Y227558D01*
X34259Y227116D01*
X34539Y227060D01*
Y228500D01*
D02*
G37*
G36*
X138362Y229937D02*
X134319D01*
Y225894D01*
X138362D01*
Y229937D01*
D02*
G37*
G36*
X133319D02*
X129276D01*
Y225894D01*
X133319D01*
Y229937D01*
D02*
G37*
G36*
X143819Y229573D02*
X142737Y229430D01*
X141729Y229013D01*
X140864Y228349D01*
X140200Y227483D01*
X139782Y226475D01*
X139640Y225394D01*
X139782Y224312D01*
X140200Y223304D01*
X140864Y222439D01*
X141729Y221775D01*
X142737Y221357D01*
X143819Y221215D01*
X144901Y221357D01*
X145908Y221775D01*
X146774Y222439D01*
X147438Y223304D01*
X147855Y224312D01*
X147998Y225394D01*
X147855Y226475D01*
X147438Y227483D01*
X146774Y228349D01*
X145908Y229013D01*
X144901Y229430D01*
X143819Y229573D01*
D02*
G37*
G36*
X138362Y224894D02*
X134319D01*
Y220850D01*
X138362D01*
Y224894D01*
D02*
G37*
G36*
X133319D02*
X129276D01*
Y220850D01*
X133319D01*
Y224894D01*
D02*
G37*
G36*
X48576Y222126D02*
X47289D01*
Y221726D01*
X37453D01*
Y217343D01*
X37387Y217299D01*
X36887Y217567D01*
Y219248D01*
X32254D01*
Y214811D01*
X34662D01*
X34854Y214349D01*
X34247Y213742D01*
X33893Y213213D01*
X33769Y212588D01*
Y208324D01*
X29734D01*
Y209065D01*
X27101D01*
X23953Y212213D01*
X23828Y212296D01*
Y213628D01*
X17117D01*
Y208491D01*
X23061D01*
X24597Y206954D01*
Y204321D01*
X29734D01*
Y205062D01*
X35031D01*
X35146Y204946D01*
X35676Y204593D01*
X36300Y204469D01*
X36904D01*
X37263Y204110D01*
X37473Y203694D01*
X37473D01*
X37473Y203694D01*
Y200132D01*
X41429D01*
X41468Y199648D01*
Y198460D01*
X41330Y198321D01*
X37832D01*
Y196969D01*
X36427D01*
Y198435D01*
X31290D01*
Y193691D01*
X36427D01*
Y194930D01*
X37832D01*
Y193578D01*
X42968D01*
Y197076D01*
X43209Y197316D01*
X43279Y197422D01*
X43851Y197525D01*
X43895Y197512D01*
X44331Y197076D01*
Y193578D01*
X49468D01*
Y194930D01*
X50975D01*
Y193691D01*
X56112D01*
Y198435D01*
X50975D01*
Y196969D01*
X49468D01*
Y198321D01*
X45970D01*
X45307Y198984D01*
Y199732D01*
X46825D01*
Y202700D01*
Y205668D01*
X45399D01*
X45345Y206169D01*
X46789Y207612D01*
X49303D01*
Y211174D01*
X46789D01*
X44991Y212972D01*
Y215211D01*
X47289D01*
Y214811D01*
X48576D01*
Y218468D01*
Y222126D01*
D02*
G37*
G36*
X184298Y218913D02*
X182026D01*
Y216445D01*
X184298D01*
Y218913D01*
D02*
G37*
G36*
X199992D02*
X197721D01*
Y216445D01*
X199992D01*
Y218913D01*
D02*
G37*
G36*
X181026D02*
X178754D01*
Y216445D01*
X181026D01*
Y218913D01*
D02*
G37*
G36*
X205224Y217885D02*
Y216445D01*
X206664D01*
X206608Y216725D01*
X206166Y217387D01*
X205505Y217829D01*
X205224Y217885D01*
D02*
G37*
G36*
X61297Y219248D02*
X56663D01*
Y214811D01*
X61297D01*
Y219248D01*
D02*
G37*
G36*
X31254D02*
X26620D01*
Y214811D01*
X31254D01*
Y219248D01*
D02*
G37*
G36*
X206664Y215445D02*
X205224D01*
Y214005D01*
X205505Y214061D01*
X206166Y214503D01*
X206608Y215164D01*
X206664Y215445D01*
D02*
G37*
G36*
X203264Y218913D02*
X200992D01*
Y215945D01*
X200492D01*
D01*
X200992D01*
Y212976D01*
X203264D01*
Y213914D01*
X203764Y214181D01*
X203944Y214061D01*
X204224Y214005D01*
Y215945D01*
Y217885D01*
X203944Y217829D01*
X203764Y217708D01*
X203264Y217976D01*
Y218913D01*
D02*
G37*
G36*
X199992Y215445D02*
X197721D01*
Y212976D01*
X199992D01*
Y215445D01*
D02*
G37*
G36*
X184298D02*
X181526D01*
X178754D01*
Y212976D01*
X180061D01*
X180297Y212535D01*
X180203Y212394D01*
X180147Y212114D01*
X184026D01*
X183971Y212394D01*
X183876Y212535D01*
X184112Y212976D01*
X184298D01*
Y215445D01*
D02*
G37*
G36*
X305118Y215221D02*
X304439Y215131D01*
X303807Y214869D01*
X303264Y214453D01*
X302847Y213910D01*
X302585Y213277D01*
X302496Y212598D01*
X302585Y211920D01*
X302847Y211287D01*
X303264Y210744D01*
X303807Y210327D01*
X304439Y210065D01*
X305118Y209976D01*
X305797Y210065D01*
X306429Y210327D01*
X306973Y210744D01*
X307389Y211287D01*
X307651Y211920D01*
X307740Y212598D01*
X307651Y213277D01*
X307389Y213910D01*
X306973Y214453D01*
X306429Y214869D01*
X305797Y215131D01*
X305118Y215221D01*
D02*
G37*
G36*
X184026Y211114D02*
X182587D01*
Y209674D01*
X182867Y209730D01*
X183528Y210172D01*
X183971Y210834D01*
X184026Y211114D01*
D02*
G37*
G36*
X181587D02*
X180147D01*
X180203Y210834D01*
X180645Y210172D01*
X181306Y209730D01*
X181587Y209674D01*
Y211114D01*
D02*
G37*
G36*
X87785Y213153D02*
X83742D01*
Y209110D01*
X87785D01*
Y213153D01*
D02*
G37*
G36*
X20980Y207791D02*
X18217D01*
Y204437D01*
X20980D01*
Y207791D01*
D02*
G37*
G36*
X17217D02*
X14453D01*
Y204437D01*
X17217D01*
Y207791D01*
D02*
G37*
G36*
X87785Y208110D02*
X83742D01*
Y204067D01*
X87785D01*
Y208110D01*
D02*
G37*
G36*
X138756Y205921D02*
X134713D01*
Y201878D01*
X138756D01*
Y205921D01*
D02*
G37*
G36*
X133713D02*
X129669D01*
Y201878D01*
X133713D01*
Y205921D01*
D02*
G37*
G36*
X30134Y203165D02*
X27665D01*
Y200894D01*
X30134D01*
Y203165D01*
D02*
G37*
G36*
X26665D02*
X24197D01*
Y200894D01*
X26665D01*
Y203165D01*
D02*
G37*
G36*
X215264Y202530D02*
Y200590D01*
X214264D01*
Y202530D01*
X213983Y202474D01*
X213322Y202032D01*
X212880Y201371D01*
X212725Y200591D01*
X212495Y200311D01*
X211894D01*
Y200102D01*
X211394Y200002D01*
X211286Y200262D01*
X210827Y200453D01*
X204527D01*
X204068Y200262D01*
X203878Y199803D01*
Y187598D01*
X204068Y187139D01*
X204527Y186949D01*
X207610D01*
X207751Y186619D01*
X207788Y186449D01*
X207368Y185820D01*
X207216Y185055D01*
X206480D01*
Y182587D01*
X209252D01*
X212023D01*
Y185055D01*
X211288D01*
X211136Y185820D01*
X210715Y186449D01*
X210776Y186725D01*
X210868Y186966D01*
X211286Y187139D01*
X211476Y187598D01*
Y192797D01*
X211894Y192996D01*
X211976Y192996D01*
X212392D01*
X212736Y192520D01*
Y187008D01*
X212927Y186549D01*
X213386Y186358D01*
X223819D01*
X224278Y186549D01*
X224468Y187008D01*
Y192520D01*
X224278Y192979D01*
X223819Y193169D01*
X217634D01*
Y196153D01*
X214764D01*
Y197153D01*
X217634D01*
Y200311D01*
X217032D01*
X216803Y200591D01*
X216648Y201371D01*
X216206Y202032D01*
X215544Y202474D01*
X215264Y202530D01*
D02*
G37*
G36*
X49703Y205668D02*
X47825D01*
Y202700D01*
Y199732D01*
X49703D01*
Y200472D01*
X50000Y200716D01*
X50780Y200871D01*
X51442Y201314D01*
X51884Y201975D01*
X51940Y202256D01*
X50000D01*
Y203256D01*
X51940D01*
X51884Y203536D01*
X51442Y204197D01*
X50780Y204640D01*
X50000Y204795D01*
X49703Y205038D01*
Y205668D01*
D02*
G37*
G36*
X224721Y202083D02*
X221957D01*
Y198728D01*
X224721D01*
Y202083D01*
D02*
G37*
G36*
X220957D02*
X218193D01*
Y198728D01*
X220957D01*
Y202083D01*
D02*
G37*
G36*
X189657Y199598D02*
X188218D01*
X188274Y199318D01*
X188716Y198656D01*
X189377Y198214D01*
X189657Y198159D01*
Y199598D01*
D02*
G37*
G36*
X30134Y199894D02*
X27665D01*
Y197622D01*
X30134D01*
Y199894D01*
D02*
G37*
G36*
X26665D02*
X24197D01*
Y197622D01*
X26665D01*
Y199894D01*
D02*
G37*
G36*
X144213Y205557D02*
X143131Y205415D01*
X142123Y204997D01*
X141258Y204333D01*
X140593Y203467D01*
X140176Y202460D01*
X140033Y201378D01*
X140176Y200296D01*
X140593Y199288D01*
X141258Y198423D01*
X142123Y197759D01*
X143131Y197341D01*
X144213Y197199D01*
X145294Y197341D01*
X146302Y197759D01*
X147168Y198423D01*
X147832Y199288D01*
X148249Y200296D01*
X148392Y201378D01*
X148249Y202460D01*
X147832Y203467D01*
X147168Y204333D01*
X146302Y204997D01*
X145294Y205415D01*
X144213Y205557D01*
D02*
G37*
G36*
X20980Y203437D02*
X17717D01*
X14453D01*
Y200083D01*
X14453D01*
X14534Y199812D01*
X14217Y199425D01*
X13764D01*
Y196957D01*
X16535D01*
X19307D01*
Y199425D01*
X19204D01*
X18887Y199925D01*
X18962Y200083D01*
X20980D01*
Y203437D01*
D02*
G37*
G36*
X138756Y200878D02*
X134713D01*
Y196835D01*
X138756D01*
Y200878D01*
D02*
G37*
G36*
X133713D02*
X129669D01*
Y196835D01*
X133713D01*
Y200878D01*
D02*
G37*
G36*
X117821Y196475D02*
Y195035D01*
X119261D01*
X119205Y195315D01*
X118763Y195977D01*
X118101Y196419D01*
X117821Y196475D01*
D02*
G37*
G36*
X112195Y199078D02*
X109333D01*
Y195035D01*
X112195D01*
Y199078D01*
D02*
G37*
G36*
X94010D02*
X91148D01*
Y195035D01*
X94010D01*
Y199078D01*
D02*
G37*
G36*
X90148D02*
X87286D01*
Y195035D01*
X90148D01*
Y199078D01*
D02*
G37*
G36*
X301847Y201630D02*
X288846D01*
Y194634D01*
X301847D01*
Y201630D01*
D02*
G37*
G36*
X287846D02*
X274847D01*
Y194634D01*
X287846D01*
Y201630D01*
D02*
G37*
G36*
X224721Y197728D02*
X221957D01*
Y194374D01*
X224721D01*
Y197728D01*
D02*
G37*
G36*
X220957D02*
X218193D01*
Y194374D01*
X220957D01*
Y197728D01*
D02*
G37*
G36*
X19307Y195957D02*
X17035D01*
Y193488D01*
X19307D01*
Y195957D01*
D02*
G37*
G36*
X16035D02*
X13764D01*
Y193488D01*
X16035D01*
Y195957D01*
D02*
G37*
G36*
X119261Y194035D02*
X117821D01*
Y192595D01*
X118101Y192651D01*
X118763Y193093D01*
X119205Y193755D01*
X119261Y194035D01*
D02*
G37*
G36*
X116057Y199078D02*
X113195D01*
Y194535D01*
Y189992D01*
X116057D01*
Y192387D01*
X116468Y192660D01*
X116557Y192648D01*
X116821Y192595D01*
Y194535D01*
Y196475D01*
X116557Y196422D01*
X116468Y196411D01*
X116057Y196683D01*
Y199078D01*
D02*
G37*
G36*
X196761Y193710D02*
X186113D01*
Y191574D01*
X175689D01*
X175689Y191574D01*
X175260Y191489D01*
X174896Y191246D01*
X174896Y191246D01*
X168498Y184848D01*
X168255Y184484D01*
X168170Y184055D01*
X168170Y184055D01*
Y162276D01*
X158591Y152696D01*
X105755D01*
Y153159D01*
X101012D01*
Y148022D01*
X101810D01*
Y127765D01*
X100953D01*
Y121841D01*
X104909D01*
Y127765D01*
X104053D01*
Y148022D01*
X105755D01*
Y150453D01*
X159055D01*
X159055Y150453D01*
X159484Y150539D01*
X159848Y150782D01*
X170084Y161018D01*
X170084Y161018D01*
X170327Y161382D01*
X170413Y161811D01*
X170413Y161811D01*
Y183591D01*
X176154Y189331D01*
X186113D01*
Y187195D01*
X191595D01*
Y186390D01*
X188089Y182884D01*
X184144D01*
Y177353D01*
X189675D01*
Y181297D01*
X193510Y185132D01*
X193510Y185132D01*
X193654Y185348D01*
X194154Y185197D01*
Y182884D01*
X193199D01*
Y177353D01*
X198730D01*
Y182884D01*
X196397D01*
Y187195D01*
X196761D01*
Y193710D01*
D02*
G37*
G36*
X19004Y192885D02*
Y191445D01*
X20444D01*
X20388Y191725D01*
X19946Y192387D01*
X19284Y192829D01*
X19004Y192885D01*
D02*
G37*
G36*
X18004D02*
X17724Y192829D01*
X17062Y192387D01*
X16620Y191725D01*
X16564Y191445D01*
X18004D01*
Y192885D01*
D02*
G37*
G36*
X56512Y192535D02*
X54043D01*
Y190264D01*
X56512D01*
Y192535D01*
D02*
G37*
G36*
X36827D02*
X34358D01*
Y190264D01*
X36827D01*
Y192535D01*
D02*
G37*
G36*
X53043D02*
X50575D01*
Y190264D01*
X53043D01*
Y192535D01*
D02*
G37*
G36*
X112195Y194035D02*
X109333D01*
Y189992D01*
X112195D01*
Y194035D01*
D02*
G37*
G36*
X90148D02*
X87286D01*
Y189992D01*
X90148D01*
Y194035D01*
D02*
G37*
G36*
X163819Y229573D02*
X162737Y229430D01*
X161729Y229013D01*
X160864Y228349D01*
X160200Y227483D01*
X159782Y226475D01*
X159640Y225394D01*
X159782Y224312D01*
X160200Y223304D01*
X160864Y222439D01*
X161729Y221775D01*
X162737Y221357D01*
X162799Y221349D01*
Y205277D01*
X162123Y204997D01*
X161258Y204333D01*
X160593Y203467D01*
X160176Y202460D01*
X160034Y201378D01*
X160176Y200296D01*
X160593Y199288D01*
X161258Y198423D01*
X162123Y197759D01*
X162799Y197479D01*
Y189832D01*
X160995Y188028D01*
X133932D01*
X132954Y189005D01*
X133200Y189466D01*
X133366Y189433D01*
X153362D01*
X153752Y189511D01*
X154083Y189732D01*
X154934Y190582D01*
X155155Y190913D01*
X155232Y191303D01*
Y197333D01*
X155294Y197341D01*
X156302Y197759D01*
X157168Y198423D01*
X157832Y199288D01*
X158249Y200296D01*
X158392Y201378D01*
X158249Y202460D01*
X157832Y203467D01*
X157168Y204333D01*
X156302Y204997D01*
X155294Y205415D01*
X155232Y205423D01*
Y221494D01*
X155908Y221775D01*
X156774Y222439D01*
X157438Y223304D01*
X157855Y224312D01*
X157998Y225394D01*
X157855Y226475D01*
X157438Y227483D01*
X156774Y228349D01*
X155908Y229013D01*
X154901Y229430D01*
X153819Y229573D01*
X152737Y229430D01*
X151729Y229013D01*
X150864Y228349D01*
X150200Y227483D01*
X149782Y226475D01*
X149640Y225394D01*
X149782Y224312D01*
X150200Y223304D01*
X150864Y222439D01*
X151729Y221775D01*
X152737Y221357D01*
X153193Y221297D01*
Y205423D01*
X153131Y205415D01*
X152123Y204997D01*
X151258Y204333D01*
X150593Y203467D01*
X150176Y202460D01*
X150033Y201378D01*
X150176Y200296D01*
X150593Y199288D01*
X151258Y198423D01*
X152123Y197759D01*
X153131Y197341D01*
X153193Y197333D01*
Y191726D01*
X152940Y191472D01*
X133789D01*
X123067Y202194D01*
Y210530D01*
X122989Y210920D01*
X122768Y211250D01*
X117747Y216272D01*
X117416Y216493D01*
X117026Y216571D01*
X106299D01*
X105909Y216493D01*
X105578Y216272D01*
X103313Y214006D01*
X103092Y213676D01*
X103014Y213285D01*
Y212655D01*
X102952Y212647D01*
X101944Y212229D01*
X101078Y211565D01*
X100414Y210699D01*
X100347Y210536D01*
X99847D01*
X99779Y210699D01*
X99115Y211565D01*
X98249Y212229D01*
X97241Y212647D01*
X96159Y212789D01*
X95078Y212647D01*
X94070Y212229D01*
X93329Y211660D01*
X92829Y211838D01*
Y213153D01*
X88785D01*
Y208610D01*
Y204067D01*
X92829D01*
Y205382D01*
X93329Y205559D01*
X94070Y204991D01*
X95078Y204573D01*
X96159Y204431D01*
X97241Y204573D01*
X98249Y204991D01*
X99115Y205655D01*
X99779Y206520D01*
X99847Y206684D01*
X100347D01*
X100414Y206520D01*
X101078Y205655D01*
X101944Y204991D01*
X102952Y204573D01*
X103014Y204565D01*
Y188245D01*
X101984D01*
X101859Y188245D01*
X101484D01*
X101359Y188245D01*
X101219D01*
X100981Y188745D01*
X101210Y189088D01*
X101334Y189712D01*
X101210Y190337D01*
X100856Y190866D01*
X100327Y191219D01*
X99703Y191344D01*
X99079Y191219D01*
X98549Y190866D01*
X98196Y190337D01*
X98071Y189712D01*
X98196Y189088D01*
X98238Y189025D01*
X97890Y188645D01*
X95396D01*
X95321Y188740D01*
X95426Y189411D01*
X95633Y189550D01*
X96075Y190211D01*
X96131Y190492D01*
X94191D01*
Y191492D01*
X96131D01*
X96075Y191772D01*
X95633Y192434D01*
X94971Y192876D01*
X94191Y193031D01*
X94010Y193180D01*
Y194035D01*
X91148D01*
Y189992D01*
X92454D01*
X92749Y189550D01*
X93411Y189108D01*
X93467Y189097D01*
X93585Y188645D01*
X93585Y188563D01*
Y185094D01*
X95766D01*
Y184594D01*
X96266D01*
Y180543D01*
X97947D01*
Y180943D01*
X101359D01*
X101484Y180943D01*
X101859D01*
X101984Y180943D01*
X102620D01*
Y180292D01*
X100065Y177736D01*
X99844Y177406D01*
X99766Y177015D01*
Y175245D01*
X99345Y175161D01*
X99079Y174984D01*
X97863D01*
X96193Y176654D01*
X95863Y176875D01*
X95472Y176952D01*
X94594D01*
Y178501D01*
X93242D01*
Y178689D01*
X93164Y179079D01*
X92943Y179410D01*
X88219Y184134D01*
X87888Y184355D01*
X87498Y184433D01*
X84526D01*
X84300Y184976D01*
X83803Y185624D01*
X83156Y186121D01*
X82402Y186433D01*
X81593Y186540D01*
X80783Y186433D01*
X80029Y186121D01*
X79382Y185624D01*
X78885Y184976D01*
X78572Y184222D01*
X78466Y183413D01*
X78572Y182604D01*
X78885Y181850D01*
X79382Y181202D01*
X80029Y180705D01*
X80783Y180393D01*
X81593Y180286D01*
X82402Y180393D01*
X83156Y180705D01*
X83803Y181202D01*
X84300Y181850D01*
X84526Y182393D01*
X87076D01*
X90506Y178963D01*
X90315Y178501D01*
X89851D01*
Y173364D01*
X92463D01*
Y127765D01*
X91504D01*
Y121841D01*
X95460D01*
Y127765D01*
X94502D01*
Y147622D01*
X95370D01*
X95558Y147122D01*
X95201Y146587D01*
X95145Y146307D01*
X99024D01*
X98969Y146587D01*
X98611Y147122D01*
X98800Y147622D01*
X99856D01*
Y150091D01*
X97085D01*
Y150591D01*
X96585D01*
Y153559D01*
X94502D01*
Y169504D01*
X95002Y169554D01*
X95063Y169247D01*
X95505Y168585D01*
X96166Y168143D01*
X96447Y168087D01*
Y170027D01*
X97447D01*
Y168087D01*
X97727Y168143D01*
X98389Y168585D01*
X98425Y168640D01*
X98636Y168823D01*
X99189Y168453D01*
X99841Y168324D01*
X100285D01*
Y170027D01*
X101285D01*
Y168324D01*
X101730D01*
X102343Y168446D01*
X102419Y168439D01*
X102843Y168246D01*
X102843Y168246D01*
X102843Y168246D01*
X106799D01*
Y168756D01*
X111072D01*
Y169008D01*
X116229D01*
Y167065D01*
X120972D01*
Y172202D01*
X116229D01*
Y171047D01*
X111072D01*
Y171298D01*
X106799D01*
Y172578D01*
X107299Y172845D01*
X107416Y172767D01*
X107911Y172669D01*
X109801D01*
X110297Y172767D01*
X110717Y173048D01*
X110998Y173468D01*
X111097Y173964D01*
X111088Y174007D01*
X111120Y174301D01*
X111744Y174425D01*
X112274Y174779D01*
X112363Y174913D01*
X116229D01*
Y173364D01*
X120972D01*
Y176900D01*
X121117Y177117D01*
X121195Y177507D01*
Y180086D01*
X121739Y180312D01*
X122386Y180808D01*
X122883Y181456D01*
X123195Y182210D01*
X123302Y183019D01*
X123195Y183829D01*
X122883Y184583D01*
X122386Y185230D01*
X121739Y185727D01*
X120984Y186039D01*
X120175Y186146D01*
X119366Y186039D01*
X118612Y185727D01*
X117964Y185230D01*
X117467Y184583D01*
X117155Y183829D01*
X117049Y183019D01*
X117155Y182210D01*
X117467Y181456D01*
X117964Y180808D01*
X118612Y180312D01*
X119156Y180086D01*
Y178501D01*
X116229D01*
Y176952D01*
X112363D01*
X112274Y177086D01*
X111744Y177440D01*
X111120Y177564D01*
X110496Y177440D01*
X110200Y177242D01*
X109949Y177098D01*
X109554Y177366D01*
X108596Y178323D01*
Y180943D01*
X109358D01*
Y188245D01*
X108596D01*
Y199920D01*
X112628Y203952D01*
X112849Y204283D01*
X112905Y204562D01*
X112989Y204573D01*
X113997Y204991D01*
X114047Y205029D01*
X132789Y186287D01*
X133119Y186066D01*
X133510Y185988D01*
X161417D01*
X161808Y186066D01*
X162138Y186287D01*
X164540Y188689D01*
X164761Y189019D01*
X164839Y189409D01*
Y197281D01*
X165294Y197341D01*
X166302Y197759D01*
X167168Y198423D01*
X167832Y199288D01*
X168249Y200296D01*
X168392Y201378D01*
X168249Y202460D01*
X167832Y203467D01*
X167168Y204333D01*
X166302Y204997D01*
X165294Y205415D01*
X164839Y205475D01*
Y221349D01*
X164901Y221357D01*
X165908Y221775D01*
X166774Y222439D01*
X167438Y223304D01*
X167856Y224312D01*
X167998Y225394D01*
X167856Y226475D01*
X167438Y227483D01*
X166774Y228349D01*
X165908Y229013D01*
X164901Y229430D01*
X163819Y229573D01*
D02*
G37*
G36*
X20762Y190445D02*
X16246D01*
X16185Y190370D01*
X15732D01*
Y187902D01*
X18504D01*
X21276D01*
Y190370D01*
X20823D01*
X20762Y190445D01*
D02*
G37*
G36*
X36827Y189264D02*
X34358D01*
Y186992D01*
X36827D01*
Y189264D01*
D02*
G37*
G36*
X33358Y192535D02*
X30890D01*
Y191952D01*
X30709Y191803D01*
X29928Y191648D01*
X29267Y191206D01*
X28825Y190544D01*
X28769Y190264D01*
X30709D01*
Y189264D01*
X28769D01*
X28825Y188983D01*
X29267Y188322D01*
X29928Y187880D01*
X30709Y187725D01*
X30890Y187576D01*
Y186992D01*
X33358D01*
Y189764D01*
Y192535D01*
D02*
G37*
G36*
X301847Y193634D02*
X288846D01*
Y186638D01*
X301847D01*
Y193634D01*
D02*
G37*
G36*
X287846D02*
X274847D01*
Y186638D01*
X287846D01*
Y193634D01*
D02*
G37*
G36*
X56512Y189264D02*
X53543D01*
X50575D01*
Y186992D01*
X51587D01*
X51898Y186614D01*
X52053Y185833D01*
X52495Y185172D01*
X53157Y184730D01*
X53437Y184674D01*
Y186614D01*
X54437D01*
Y184674D01*
X54717Y184730D01*
X55379Y185172D01*
X55821Y185833D01*
X55976Y186614D01*
X56287Y186992D01*
X56512D01*
Y189264D01*
D02*
G37*
G36*
X21276Y186902D02*
X19004D01*
Y184433D01*
X21276D01*
Y186902D01*
D02*
G37*
G36*
X18004D02*
X15732D01*
Y184433D01*
X18004D01*
Y186902D01*
D02*
G37*
G36*
X231407Y201683D02*
X225679D01*
Y194774D01*
X226790D01*
Y192529D01*
X225778D01*
Y187392D01*
X226790D01*
Y184655D01*
X225778D01*
Y180759D01*
X225316Y180568D01*
X224222Y181662D01*
Y184655D01*
X219479D01*
Y179518D01*
X222472D01*
X224411Y177579D01*
Y176963D01*
X224213Y176830D01*
X217692D01*
Y179518D01*
X217923D01*
Y184655D01*
X213179D01*
Y179518D01*
X213410D01*
Y176830D01*
X207480D01*
X207361Y176781D01*
X206880D01*
Y176301D01*
X206831Y176181D01*
Y173228D01*
X206880Y173109D01*
Y172038D01*
X211523D01*
X211641Y172038D01*
X212066Y171587D01*
X212066Y171581D01*
X212063Y171446D01*
X211148Y170531D01*
X207480D01*
X207361Y170482D01*
X206880D01*
Y170001D01*
X206831Y169882D01*
Y126227D01*
X207021Y125767D01*
X207480Y125577D01*
X221260D01*
X221507Y125680D01*
X222549D01*
Y132194D01*
X221909D01*
Y138681D01*
X221719Y139140D01*
X218661Y142198D01*
Y169509D01*
X218727Y169564D01*
X219161Y169731D01*
X219692Y169376D01*
X219972Y169320D01*
Y171260D01*
X220972D01*
Y169079D01*
X221256Y168867D01*
X221337Y168459D01*
X221779Y167798D01*
X222425Y167366D01*
Y167110D01*
X223319D01*
Y170078D01*
X224319D01*
Y167110D01*
X224453D01*
X224608Y166610D01*
X224516Y166472D01*
X224411Y165945D01*
Y153150D01*
X224516Y152623D01*
X224547Y152576D01*
Y150591D01*
X224738Y150131D01*
X231880Y142989D01*
Y141329D01*
X238660D01*
X238779Y141280D01*
X239961D01*
X240080Y141329D01*
X240364D01*
Y141447D01*
X240420Y141470D01*
X240610Y141929D01*
Y160630D01*
X240420Y161089D01*
X235203Y166306D01*
X234744Y166496D01*
X227043D01*
X226909Y166696D01*
Y167510D01*
X228750D01*
Y168430D01*
X237414Y175379D01*
X237432Y175412D01*
X237467Y175427D01*
X237550Y175626D01*
X237653Y175815D01*
X237643Y175851D01*
X237657Y175886D01*
X237657Y188681D01*
X237657Y200787D01*
X237467Y201247D01*
X237008Y201437D01*
X231407D01*
Y201683D01*
D02*
G37*
G36*
X95266Y184094D02*
X93585D01*
Y180543D01*
X95266D01*
Y184094D01*
D02*
G37*
G36*
X212023Y181587D02*
X209752D01*
Y179118D01*
X212023D01*
Y181587D01*
D02*
G37*
G36*
X208752D02*
X206480D01*
Y179118D01*
X208752D01*
Y181587D01*
D02*
G37*
G36*
X76096Y178901D02*
X73825D01*
Y176433D01*
X76096D01*
Y178901D01*
D02*
G37*
G36*
X81996Y178501D02*
X77252D01*
Y173364D01*
X78503D01*
Y171968D01*
X78454Y171948D01*
X77807Y171451D01*
X77310Y170803D01*
X76998Y170049D01*
X76891Y169240D01*
X76998Y168430D01*
X77310Y167676D01*
X77807Y167029D01*
X78454Y166532D01*
X79208Y166220D01*
X80018Y166113D01*
X80827Y166220D01*
X81581Y166532D01*
X82229Y167029D01*
X82726Y167676D01*
X83038Y168430D01*
X83144Y169240D01*
X83038Y170049D01*
X82726Y170803D01*
X82229Y171451D01*
X81581Y171948D01*
X80827Y172260D01*
X80746Y172271D01*
Y173364D01*
X81996D01*
Y173973D01*
X82496Y174357D01*
X82774Y174301D01*
X83052Y174357D01*
X83552Y173973D01*
Y173364D01*
X88295D01*
Y178501D01*
X83552D01*
Y177893D01*
X83052Y177509D01*
X82774Y177564D01*
X82496Y177509D01*
X81996Y177893D01*
Y178501D01*
D02*
G37*
G36*
X76096Y175433D02*
X73825D01*
Y172964D01*
X76096D01*
Y175433D01*
D02*
G37*
G36*
X72825Y178901D02*
X70553D01*
Y178282D01*
X70175Y177972D01*
X69395Y177817D01*
X68733Y177375D01*
X68291Y176713D01*
X68235Y176433D01*
X70175D01*
Y175433D01*
X68235D01*
X68291Y175152D01*
X68733Y174491D01*
X69395Y174049D01*
X70175Y173893D01*
X70553Y173583D01*
Y172964D01*
X72825D01*
Y175933D01*
Y178901D01*
D02*
G37*
G36*
X261354Y177614D02*
X252862D01*
Y170618D01*
X261354D01*
Y177614D01*
D02*
G37*
G36*
X251862D02*
X243370D01*
Y170618D01*
X251862D01*
Y177614D01*
D02*
G37*
G36*
X182588Y182884D02*
X177058D01*
Y177353D01*
X178701D01*
Y174813D01*
X177058D01*
Y169676D01*
X181801D01*
Y174813D01*
X180944D01*
Y177353D01*
X182588D01*
Y182884D01*
D02*
G37*
G36*
X127271Y178501D02*
X122528D01*
Y173364D01*
X122990D01*
X123307Y172978D01*
X123268Y172783D01*
X123307Y172589D01*
X122990Y172202D01*
X122528D01*
Y167065D01*
X127271D01*
Y172202D01*
X126809D01*
X126492Y172589D01*
X126531Y172783D01*
X126492Y172978D01*
X126809Y173364D01*
X127271D01*
Y178501D01*
D02*
G37*
G36*
X21276Y166823D02*
X19004D01*
Y164354D01*
X21276D01*
Y166823D01*
D02*
G37*
G36*
X303150Y171265D02*
X302078Y171124D01*
X301080Y170711D01*
X300223Y170053D01*
X299565Y169196D01*
X299151Y168197D01*
X299010Y167126D01*
X299151Y166055D01*
X299565Y165056D01*
X300223Y164199D01*
X301080Y163541D01*
X302078Y163128D01*
X303150Y162987D01*
X304221Y163128D01*
X305219Y163541D01*
X306077Y164199D01*
X306734Y165056D01*
X307148Y166055D01*
X307289Y167126D01*
X307148Y168197D01*
X306734Y169196D01*
X306077Y170053D01*
X305219Y170711D01*
X304221Y171124D01*
X303150Y171265D01*
D02*
G37*
G36*
X198730Y175797D02*
X193199D01*
Y170266D01*
X194843D01*
Y167529D01*
X193396D01*
Y162786D01*
X198533D01*
Y167529D01*
X197086D01*
Y170266D01*
X198730D01*
Y175797D01*
D02*
G37*
G36*
X261354Y169618D02*
X252862D01*
Y162622D01*
X261354D01*
Y169618D01*
D02*
G37*
G36*
X251862D02*
X243370D01*
Y162622D01*
X251862D01*
Y169618D01*
D02*
G37*
G36*
X45346Y163986D02*
X39421D01*
Y162400D01*
X37805D01*
Y163592D01*
X33061D01*
Y158455D01*
X37805D01*
Y159647D01*
X39421D01*
Y158061D01*
X45346D01*
Y163986D01*
D02*
G37*
G36*
X198933Y161630D02*
X196465D01*
Y159358D01*
X198933D01*
Y161630D01*
D02*
G37*
G36*
X195465D02*
X192996D01*
Y159358D01*
X195465D01*
Y161630D01*
D02*
G37*
G36*
X188100Y174813D02*
X183357D01*
Y169676D01*
X184607D01*
Y168673D01*
X180112Y164179D01*
X179869Y163815D01*
X179786Y163395D01*
X177156D01*
Y156290D01*
X184655D01*
Y163395D01*
X183154D01*
X182963Y163857D01*
X186521Y167416D01*
X186765Y167779D01*
X186850Y168209D01*
X186850Y168209D01*
Y169676D01*
X188100D01*
Y174813D01*
D02*
G37*
G36*
X198933Y158358D02*
X192996D01*
Y156087D01*
X193615D01*
X193925Y155708D01*
X194080Y154928D01*
X194522Y154266D01*
X195184Y153824D01*
X195464Y153769D01*
Y155708D01*
X196464D01*
Y153769D01*
X196745Y153824D01*
X197406Y154266D01*
X197848Y154928D01*
X198003Y155708D01*
X198314Y156087D01*
X198933D01*
Y158358D01*
D02*
G37*
G36*
X99856Y153559D02*
X97585D01*
Y151091D01*
X99856D01*
Y153559D01*
D02*
G37*
G36*
X188204Y150409D02*
X185342D01*
Y147547D01*
X188204D01*
Y150409D01*
D02*
G37*
G36*
X184342D02*
X181480D01*
Y147547D01*
X184342D01*
Y150409D01*
D02*
G37*
G36*
X179930Y150009D02*
X174006D01*
Y148169D01*
X157775D01*
X157346Y148083D01*
X156982Y147840D01*
X156982Y147840D01*
X148026Y138884D01*
X147783Y138520D01*
X147697Y138091D01*
X147697Y138091D01*
Y134192D01*
X143976D01*
X143965Y134274D01*
X143653Y135028D01*
X143156Y135676D01*
X142508Y136172D01*
X141754Y136485D01*
X140945Y136591D01*
X140136Y136485D01*
X139382Y136172D01*
X138734Y135676D01*
X138237Y135028D01*
X137925Y134274D01*
X137818Y133465D01*
X137925Y132655D01*
X138108Y132213D01*
X129904Y124009D01*
X124707D01*
X124540Y124010D01*
X124269Y124303D01*
X122329D01*
Y121441D01*
X124040D01*
X124207Y121441D01*
X124540Y121079D01*
Y120054D01*
X130464D01*
Y121398D01*
X139694Y130627D01*
X140136Y130444D01*
X140945Y130338D01*
X141754Y130444D01*
X142508Y130757D01*
X143156Y131254D01*
X143653Y131901D01*
X143673Y131949D01*
X148819D01*
X149248Y132035D01*
X149612Y132278D01*
X149855Y132642D01*
X149940Y133071D01*
Y137626D01*
X158240Y145926D01*
X174006D01*
Y144085D01*
X179930D01*
Y150009D01*
D02*
G37*
G36*
X99024Y145307D02*
X97585D01*
Y143867D01*
X97865Y143923D01*
X98527Y144365D01*
X98969Y145027D01*
X99024Y145307D01*
D02*
G37*
G36*
X96585D02*
X95145D01*
X95201Y145027D01*
X95643Y144365D01*
X96304Y143923D01*
X96585Y143867D01*
Y145307D01*
D02*
G37*
G36*
X188204Y146547D02*
X184842D01*
X181480D01*
Y143685D01*
X182573D01*
X182803Y143405D01*
X182958Y142625D01*
X183400Y141963D01*
X184062Y141521D01*
X184342Y141465D01*
Y143405D01*
X185342D01*
Y141465D01*
X185623Y141521D01*
X186284Y141963D01*
X186726Y142625D01*
X186881Y143405D01*
X187111Y143685D01*
X188204D01*
Y146547D01*
D02*
G37*
G36*
X301447Y149911D02*
X275247D01*
Y133711D01*
X301447D01*
Y149911D01*
D02*
G37*
G36*
X122835Y138166D02*
X122025Y138060D01*
X121271Y137747D01*
X120624Y137250D01*
X120127Y136603D01*
X119814Y135849D01*
X119708Y135039D01*
X119814Y134230D01*
X119998Y133788D01*
X116311Y130102D01*
X116068Y129738D01*
X115983Y129309D01*
X115983Y129309D01*
Y127765D01*
X115126D01*
Y121841D01*
X118951D01*
X119082Y121841D01*
X119451Y121523D01*
Y121441D01*
X121329D01*
Y124803D01*
X121829D01*
Y125303D01*
X124207D01*
Y128022D01*
X119380D01*
X119082Y127765D01*
X118951Y127765D01*
X118226D01*
Y128844D01*
X121584Y132202D01*
X122025Y132019D01*
X122835Y131913D01*
X123644Y132019D01*
X124398Y132332D01*
X125046Y132828D01*
X125542Y133476D01*
X125855Y134230D01*
X125961Y135039D01*
X125855Y135849D01*
X125542Y136603D01*
X125046Y137250D01*
X124398Y137747D01*
X123644Y138060D01*
X122835Y138166D01*
D02*
G37*
G36*
X230499Y131861D02*
Y130421D01*
X231939D01*
X231883Y130702D01*
X231441Y131363D01*
X230779Y131805D01*
X230499Y131861D01*
D02*
G37*
G36*
X225878Y132595D02*
X223508D01*
Y129437D01*
X225878D01*
Y132595D01*
D02*
G37*
G36*
X122329Y130461D02*
Y129022D01*
X123768D01*
X123713Y129302D01*
X123271Y129964D01*
X122609Y130406D01*
X122329Y130461D01*
D02*
G37*
G36*
X121329D02*
X121048Y130406D01*
X120387Y129964D01*
X119945Y129302D01*
X119889Y129022D01*
X121329D01*
Y130461D01*
D02*
G37*
G36*
X231939Y129421D02*
X230499D01*
Y127981D01*
X230779Y128037D01*
X231441Y128479D01*
X231883Y129141D01*
X231939Y129421D01*
D02*
G37*
G36*
X205512Y131555D02*
X195669D01*
X195550Y131506D01*
X194479D01*
Y126368D01*
X195020D01*
Y125963D01*
X195210Y125503D01*
X195669Y125313D01*
X205512D01*
X205971Y125503D01*
X206161Y125963D01*
Y130905D01*
X205971Y131365D01*
X205718Y131470D01*
Y131506D01*
X205631D01*
X205512Y131555D01*
D02*
G37*
G36*
X31565Y128165D02*
X29687D01*
Y125303D01*
X31565D01*
Y128165D01*
D02*
G37*
G36*
X229248Y132595D02*
X226878D01*
Y128937D01*
Y125279D01*
X229248D01*
Y127637D01*
X229499Y127843D01*
Y129921D01*
Y131999D01*
X229248Y132205D01*
Y132595D01*
D02*
G37*
G36*
X225878Y128437D02*
X223508D01*
Y125279D01*
X225878D01*
Y128437D01*
D02*
G37*
G36*
X154618Y125016D02*
X152347D01*
Y122547D01*
X154618D01*
Y125016D01*
D02*
G37*
G36*
X111811Y138560D02*
X111002Y138453D01*
X110248Y138141D01*
X109600Y137644D01*
X109103Y136996D01*
X108791Y136242D01*
X108684Y135433D01*
X108791Y134624D01*
X109103Y133870D01*
X109600Y133222D01*
X110248Y132725D01*
X111002Y132413D01*
X111258Y132379D01*
Y127765D01*
X110402D01*
Y121841D01*
X114358D01*
Y127765D01*
X113502D01*
Y132823D01*
X114022Y133222D01*
X114519Y133870D01*
X114831Y134624D01*
X114938Y135433D01*
X114831Y136242D01*
X114519Y136996D01*
X114022Y137644D01*
X113374Y138141D01*
X112620Y138453D01*
X111811Y138560D01*
D02*
G37*
G36*
X109633Y127765D02*
X105677D01*
Y121841D01*
X109633D01*
Y127765D01*
D02*
G37*
G36*
X89467Y172052D02*
X88842Y171928D01*
X88313Y171574D01*
X87959Y171045D01*
X87835Y170421D01*
X87880Y170198D01*
X87816Y170102D01*
X87738Y169712D01*
Y127765D01*
X86780D01*
Y121841D01*
X90736D01*
Y127765D01*
X89777D01*
Y168851D01*
X90091Y168914D01*
X90620Y169267D01*
X90974Y169797D01*
X91098Y170421D01*
X90974Y171045D01*
X90620Y171574D01*
X90091Y171928D01*
X89467Y172052D01*
D02*
G37*
G36*
X86011Y127765D02*
X82055D01*
Y121841D01*
X86011D01*
Y127765D01*
D02*
G37*
G36*
X62389D02*
X58434D01*
Y121841D01*
X62389D01*
Y127765D01*
D02*
G37*
G36*
X57665D02*
X53709D01*
Y121841D01*
X57665D01*
Y127765D01*
D02*
G37*
G36*
X52940D02*
X48985D01*
Y121841D01*
X52940D01*
Y127765D01*
D02*
G37*
G36*
X48216D02*
X44260D01*
Y121841D01*
X48216D01*
Y127765D01*
D02*
G37*
G36*
X43492D02*
X39536D01*
Y121841D01*
X43492D01*
Y127765D01*
D02*
G37*
G36*
X13592Y213628D02*
X6880D01*
Y208491D01*
X8605D01*
Y207391D01*
X7766D01*
Y200483D01*
X8999D01*
Y199025D01*
X7865D01*
Y193888D01*
X8999D01*
Y183263D01*
X8692Y182863D01*
X8379Y182108D01*
X8273Y181299D01*
X8379Y180490D01*
X8692Y179736D01*
X9189Y179088D01*
X9786Y178630D01*
Y164961D01*
X9910Y164336D01*
X10264Y163807D01*
X14201Y159870D01*
X14730Y159517D01*
X15354Y159392D01*
X26762D01*
Y158455D01*
X31506D01*
Y163592D01*
X30153D01*
Y164538D01*
X32474Y166859D01*
X32695Y167190D01*
X32773Y167580D01*
Y173928D01*
X34702Y175856D01*
X35130Y175830D01*
X35156Y175795D01*
X38128D01*
Y174795D01*
X35546D01*
X35558Y174734D01*
X35876Y174259D01*
X36069Y174129D01*
X35935Y173929D01*
X35855Y173524D01*
X35935Y173119D01*
X36165Y172775D01*
X36508Y172546D01*
X36913Y172465D01*
X37006D01*
Y168959D01*
X37006Y168959D01*
X37092Y168529D01*
X37335Y168166D01*
X39758Y165742D01*
X39758Y165742D01*
X40122Y165499D01*
X40551Y165414D01*
X40551Y165414D01*
X44675D01*
X47689Y162400D01*
Y158061D01*
X53613D01*
Y163986D01*
X49275D01*
X45932Y167329D01*
X45569Y167572D01*
X45139Y167657D01*
X45139Y167657D01*
X41016D01*
X39250Y169423D01*
Y171517D01*
X39453Y171933D01*
X43201D01*
Y177953D01*
X44201D01*
Y171933D01*
X47949D01*
Y172375D01*
X48059Y172465D01*
X48956D01*
X49274Y172402D01*
X55146D01*
X64014Y163533D01*
Y149511D01*
X63758Y149477D01*
X63004Y149164D01*
X62356Y148668D01*
X61859Y148020D01*
X61547Y147266D01*
X61440Y146457D01*
X61547Y145647D01*
X61859Y144893D01*
X62356Y144246D01*
X63004Y143749D01*
X63758Y143437D01*
X64014Y143403D01*
Y127765D01*
X63158D01*
Y121841D01*
X67114D01*
Y127765D01*
X66257D01*
Y143846D01*
X66778Y144246D01*
X67275Y144893D01*
X67587Y145647D01*
X67694Y146457D01*
X67587Y147266D01*
X67275Y148020D01*
X66778Y148668D01*
X66257Y149067D01*
Y163998D01*
X66172Y164427D01*
X65929Y164791D01*
X65929Y164791D01*
X56403Y174317D01*
X56382Y174331D01*
X56487Y174862D01*
X56530Y174870D01*
X57059Y175224D01*
X57413Y175753D01*
X57537Y176378D01*
X57413Y177002D01*
X57269Y177217D01*
X57536Y177717D01*
X58394D01*
X60099Y176012D01*
Y172244D01*
X60099Y172244D01*
X60184Y171815D01*
X60427Y171451D01*
X68739Y163140D01*
Y143791D01*
X68515Y143698D01*
X67868Y143201D01*
X67371Y142554D01*
X67058Y141800D01*
X66952Y140990D01*
X67058Y140181D01*
X67371Y139427D01*
X67868Y138779D01*
X68515Y138283D01*
X68739Y138190D01*
Y127765D01*
X67882D01*
Y121841D01*
X71707D01*
X71838Y121841D01*
X72207Y121523D01*
Y121441D01*
X72781D01*
X73018Y120941D01*
X72701Y120465D01*
X72645Y120185D01*
X76524D01*
X76469Y120465D01*
X76151Y120941D01*
X76388Y121441D01*
X76963D01*
Y121523D01*
X77331Y121841D01*
X77463Y121841D01*
X81287D01*
Y127765D01*
X77463D01*
X77331Y127765D01*
X76963Y128083D01*
Y128165D01*
X75085D01*
Y124803D01*
X74085D01*
Y128165D01*
X72207D01*
Y128083D01*
X71838Y127765D01*
X71707Y127765D01*
X70982D01*
Y138009D01*
X71642Y138283D01*
X72290Y138779D01*
X72787Y139427D01*
X73099Y140181D01*
X73206Y140990D01*
X73099Y141800D01*
X72787Y142554D01*
X72290Y143201D01*
X71642Y143698D01*
X70982Y143972D01*
Y163604D01*
X70982Y163604D01*
X70896Y164033D01*
X70653Y164397D01*
X70653Y164397D01*
X62342Y172709D01*
Y176476D01*
X62342Y176476D01*
X62257Y176906D01*
X62014Y177269D01*
X59651Y179632D01*
X59288Y179875D01*
X58858Y179960D01*
X58858Y179960D01*
X51858D01*
X51517Y180460D01*
X51547Y180610D01*
X51466Y181015D01*
X51237Y181359D01*
Y181634D01*
X51466Y181977D01*
X51547Y182382D01*
X51466Y182787D01*
X51237Y183130D01*
X50894Y183360D01*
X50489Y183440D01*
X49657D01*
X47484Y185613D01*
X47154Y185834D01*
X46763Y185912D01*
X45570D01*
Y187267D01*
X45627Y187279D01*
X49468D01*
Y192022D01*
X44331D01*
Y189022D01*
X44298Y189000D01*
X43975Y188677D01*
X43650Y188583D01*
X43325Y188677D01*
X43002Y189000D01*
X42968Y189022D01*
Y192022D01*
X37832D01*
Y187279D01*
X41673D01*
X41730Y187267D01*
Y185948D01*
X41694Y185912D01*
X40638D01*
X40248Y185834D01*
X39917Y185613D01*
X37724Y183420D01*
X35875D01*
Y181630D01*
X27175D01*
Y183277D01*
X25921D01*
Y184833D01*
X27175D01*
Y189970D01*
X22432D01*
Y184833D01*
X23882D01*
Y183277D01*
X22432D01*
Y178140D01*
X23784D01*
Y176978D01*
X22432D01*
Y173082D01*
X21970Y172890D01*
X20876Y173984D01*
Y176978D01*
X16132D01*
Y171841D01*
X19126D01*
X20213Y170753D01*
X20022Y170291D01*
X19004D01*
Y167823D01*
X21276D01*
Y169038D01*
X21737Y169229D01*
X22432Y168535D01*
Y164754D01*
X27175D01*
Y167132D01*
X27734Y167691D01*
X27892Y167660D01*
X28516Y167784D01*
X29045Y168138D01*
X29399Y168667D01*
X29523Y169291D01*
X29489Y169461D01*
X29682Y169750D01*
X29760Y170140D01*
Y175956D01*
X31623Y177819D01*
X33073D01*
X33280Y177319D01*
X31033Y175071D01*
X30812Y174741D01*
X30734Y174350D01*
Y168003D01*
X28413Y165682D01*
X28192Y165351D01*
X28114Y164961D01*
Y163592D01*
X26762D01*
Y162655D01*
X16030D01*
X13049Y165636D01*
Y166294D01*
X13549Y166425D01*
X13912Y165881D01*
X14574Y165438D01*
X15354Y165283D01*
X15732Y164973D01*
Y164354D01*
X18004D01*
Y167323D01*
Y170291D01*
X15732D01*
Y169672D01*
X15354Y169362D01*
X14574Y169207D01*
X13912Y168764D01*
X13549Y168220D01*
X13049Y168351D01*
Y178657D01*
X13596Y179077D01*
X16132D01*
Y178140D01*
X20876D01*
Y183277D01*
X16132D01*
Y182340D01*
X14324D01*
X14107Y182863D01*
X13611Y183510D01*
X12963Y184007D01*
X12261Y184298D01*
Y193888D01*
X12608D01*
Y199025D01*
X12261D01*
Y200483D01*
X13494D01*
Y207391D01*
X11868D01*
Y208491D01*
X13592D01*
Y213628D01*
D02*
G37*
G36*
X34443Y128165D02*
X32565D01*
Y124803D01*
X32065D01*
Y124303D01*
X29687D01*
Y121441D01*
X31087D01*
X31268Y120978D01*
X31261Y120941D01*
X30623Y120515D01*
X30181Y119853D01*
X30125Y119573D01*
X34005D01*
X33949Y119853D01*
X33507Y120515D01*
X32869Y120941D01*
X32862Y120978D01*
X33043Y121441D01*
X34443D01*
Y121523D01*
X34811Y121841D01*
X34943Y121841D01*
X38767D01*
Y127765D01*
X34943D01*
X34811Y127765D01*
X34443Y128083D01*
Y128165D01*
D02*
G37*
G36*
X145285Y125578D02*
X136605D01*
Y120059D01*
X134974Y118429D01*
X130464D01*
Y119285D01*
X124540D01*
Y115329D01*
X130464D01*
Y116185D01*
X135439D01*
X135439Y116185D01*
X135868Y116271D01*
X136232Y116514D01*
X139766Y120048D01*
X145285D01*
Y120926D01*
X146447D01*
Y119479D01*
X151190D01*
Y124616D01*
X146447D01*
Y123169D01*
X145285D01*
Y125578D01*
D02*
G37*
G36*
X76524Y119185D02*
X75085D01*
Y117745D01*
X75365Y117801D01*
X76027Y118243D01*
X76469Y118905D01*
X76524Y119185D01*
D02*
G37*
G36*
X74085D02*
X72645D01*
X72701Y118905D01*
X73143Y118243D01*
X73804Y117801D01*
X74085Y117745D01*
Y119185D01*
D02*
G37*
G36*
X191929Y131555D02*
X186221D01*
X185761Y131365D01*
X185571Y130905D01*
Y118110D01*
X185761Y117651D01*
X186221Y117461D01*
X191929D01*
X192388Y117651D01*
X192579Y118110D01*
Y126368D01*
X192923D01*
Y131506D01*
X192049D01*
X191929Y131555D01*
D02*
G37*
G36*
X34005Y118573D02*
X32565D01*
Y117133D01*
X32845Y117189D01*
X33507Y117631D01*
X33949Y118292D01*
X34005Y118573D01*
D02*
G37*
G36*
X31565D02*
X30125D01*
X30181Y118292D01*
X30623Y117631D01*
X31285Y117189D01*
X31565Y117133D01*
Y118573D01*
D02*
G37*
G36*
X100185Y127765D02*
X96229D01*
Y121841D01*
X97085D01*
Y118356D01*
X94811Y116082D01*
X85827D01*
X85827Y116082D01*
X85398Y115997D01*
X85034Y115754D01*
X85034Y115754D01*
X80309Y111029D01*
X80066Y110665D01*
X79981Y110236D01*
X79981Y110236D01*
Y87789D01*
X79949Y87768D01*
X79595Y87239D01*
X79471Y86614D01*
X79595Y85990D01*
X79949Y85461D01*
X80478Y85107D01*
X81102Y84983D01*
X81727Y85107D01*
X82256Y85461D01*
X82609Y85990D01*
X82734Y86614D01*
X82609Y87239D01*
X82256Y87768D01*
X82224Y87789D01*
Y109772D01*
X86291Y113839D01*
X95275D01*
X95276Y113839D01*
X95705Y113925D01*
X96069Y114168D01*
X99000Y117099D01*
X99000Y117099D01*
X99243Y117463D01*
X99328Y117892D01*
X99328Y117892D01*
Y121841D01*
X100185D01*
Y127765D01*
D02*
G37*
G36*
X157890Y125016D02*
X155618D01*
Y122047D01*
X155118D01*
Y121547D01*
X152347D01*
Y119079D01*
X154229D01*
X154381Y118579D01*
X154070Y118371D01*
X153628Y117710D01*
X153473Y116929D01*
X153324Y116748D01*
X152347D01*
Y114279D01*
X155118D01*
X157890D01*
Y116429D01*
X155512D01*
Y117429D01*
X157451D01*
X157396Y117710D01*
X156954Y118371D01*
X156643Y118579D01*
X156795Y119079D01*
X157890D01*
Y119698D01*
X158267Y120008D01*
X159048Y120163D01*
X159709Y120605D01*
X160151Y121267D01*
X160207Y121547D01*
X158267D01*
Y122547D01*
X160207D01*
X160151Y122827D01*
X159709Y123489D01*
X159048Y123931D01*
X158267Y124086D01*
X157890Y124396D01*
Y125016D01*
D02*
G37*
G36*
X151190Y116348D02*
X146447D01*
Y113704D01*
X145285D01*
Y115736D01*
X136605D01*
Y113704D01*
X130464D01*
Y114561D01*
X124540D01*
Y110605D01*
X130464D01*
Y111461D01*
X136605D01*
Y110205D01*
X145285D01*
Y111461D01*
X146447D01*
Y111211D01*
X151190D01*
Y116348D01*
D02*
G37*
G36*
X154618Y113279D02*
X152347D01*
Y110811D01*
X154618D01*
Y113279D01*
D02*
G37*
G36*
X171153Y112024D02*
X168882D01*
Y109555D01*
X171153D01*
Y112024D01*
D02*
G37*
G36*
X167726Y118316D02*
X162983D01*
Y113180D01*
X164233D01*
Y111624D01*
X162983D01*
Y108980D01*
X161159D01*
X160976Y109422D01*
X160479Y110069D01*
X159831Y110566D01*
X159077Y110879D01*
X158268Y110985D01*
X158266Y110985D01*
X157890Y111314D01*
Y113279D01*
X155618D01*
Y110811D01*
X156202D01*
X156372Y110311D01*
X156057Y110069D01*
X155560Y109422D01*
X155377Y108980D01*
X130464D01*
Y109836D01*
X124540D01*
Y105880D01*
X130464D01*
Y106737D01*
X148277D01*
X148422Y106287D01*
X148418Y106237D01*
X147789Y105754D01*
X147292Y105107D01*
X146980Y104353D01*
X146967Y104255D01*
X130464D01*
Y105112D01*
X124540D01*
Y101156D01*
X130464D01*
Y102012D01*
X141584D01*
X141729Y101562D01*
X141725Y101512D01*
X141096Y101030D01*
X140599Y100382D01*
X140287Y99628D01*
X140274Y99531D01*
X130464D01*
Y100387D01*
X124540D01*
Y96431D01*
X130464D01*
Y97288D01*
X140586D01*
X140599Y97255D01*
X141096Y96608D01*
X141744Y96111D01*
X142498Y95799D01*
X143307Y95692D01*
X144116Y95799D01*
X144870Y96111D01*
X145518Y96608D01*
X146015Y97255D01*
X146198Y97697D01*
X153079D01*
X155487Y95289D01*
X155482Y95245D01*
X155262Y94807D01*
X153285D01*
X153102Y95248D01*
X152605Y95896D01*
X151957Y96393D01*
X151203Y96705D01*
X150394Y96812D01*
X149584Y96705D01*
X148830Y96393D01*
X148183Y95896D01*
X147686Y95248D01*
X147503Y94807D01*
X130464D01*
Y95663D01*
X124540D01*
Y91707D01*
X130464D01*
Y92563D01*
X142973D01*
X143006Y92063D01*
X142498Y91997D01*
X141744Y91684D01*
X141096Y91187D01*
X140599Y90540D01*
X140410Y90082D01*
X130464D01*
Y90939D01*
X124540D01*
Y86983D01*
X130464D01*
Y87839D01*
X140423D01*
X140599Y87413D01*
X141096Y86765D01*
X141744Y86269D01*
X142498Y85956D01*
X143307Y85850D01*
X144116Y85956D01*
X144870Y86269D01*
X145518Y86765D01*
X145750Y87067D01*
X156228D01*
X205463Y37833D01*
X205455Y37795D01*
X205579Y37171D01*
X205933Y36642D01*
X206462Y36288D01*
X207087Y36164D01*
X207711Y36288D01*
X208240Y36642D01*
X208594Y37171D01*
X208718Y37795D01*
X208642Y38179D01*
X209102Y38426D01*
X210414Y37114D01*
Y27918D01*
X210234Y27844D01*
X209695Y27431D01*
X209313Y26933D01*
X209035Y26899D01*
X208758Y26933D01*
X208376Y27431D01*
X207837Y27844D01*
X207209Y28104D01*
X206535Y28193D01*
X205862Y28104D01*
X205234Y27844D01*
X204695Y27431D01*
X204282Y26892D01*
X204022Y26264D01*
X203933Y25591D01*
X204022Y24917D01*
X204282Y24289D01*
X204695Y23751D01*
X204800Y23671D01*
X204630Y23171D01*
X203955D01*
Y21710D01*
X196171D01*
Y23336D01*
X191231D01*
Y16821D01*
X196171D01*
Y18447D01*
X203955D01*
Y18011D01*
X209115D01*
Y18061D01*
X209615Y18308D01*
X210033Y17988D01*
X210757Y17687D01*
X211035Y17651D01*
Y20591D01*
X212035D01*
Y17651D01*
X212313Y17687D01*
X213038Y17988D01*
X213661Y18465D01*
X213785Y18628D01*
X214285D01*
X214410Y18465D01*
X215033Y17988D01*
X215757Y17687D01*
X216035Y17651D01*
Y20591D01*
X217035D01*
Y17651D01*
X217313Y17687D01*
X218038Y17988D01*
X218661Y18465D01*
X218972Y18871D01*
X219536Y18911D01*
X219591Y18887D01*
X219695Y18751D01*
X220234Y18337D01*
X220862Y18077D01*
X221535Y17988D01*
X222209Y18077D01*
X222837Y18337D01*
X223376Y18751D01*
X223480Y18887D01*
X223535Y18911D01*
X224098Y18871D01*
X224410Y18465D01*
X225033Y17988D01*
X225758Y17687D01*
X226035Y17651D01*
Y20591D01*
X226535D01*
Y21091D01*
X229475D01*
X229439Y21369D01*
X229138Y22093D01*
X228661Y22716D01*
X228255Y23028D01*
X228215Y23591D01*
X228239Y23646D01*
X228376Y23751D01*
X228789Y24289D01*
X228863Y24469D01*
X232668D01*
Y23416D01*
X233918D01*
Y21860D01*
X232668D01*
Y16723D01*
X237411D01*
Y21860D01*
X236161D01*
Y23416D01*
X237411D01*
Y28553D01*
X236161D01*
Y29715D01*
X237411D01*
Y34852D01*
X232668D01*
Y29715D01*
X233918D01*
Y28553D01*
X232668D01*
Y26712D01*
X228863D01*
X228789Y26892D01*
X228376Y27431D01*
X227837Y27844D01*
X227209Y28104D01*
X226535Y28193D01*
X225862Y28104D01*
X225234Y27844D01*
X224695Y27431D01*
X224313Y26933D01*
X224035Y26899D01*
X223758Y26933D01*
X223376Y27431D01*
X222837Y27844D01*
X222209Y28104D01*
X221535Y28193D01*
X220862Y28104D01*
X220234Y27844D01*
X219695Y27431D01*
X219313Y26933D01*
X219035Y26899D01*
X218758Y26933D01*
X218375Y27431D01*
X217837Y27844D01*
X217209Y28104D01*
X216535Y28193D01*
X215862Y28104D01*
X215234Y27844D01*
X214695Y27431D01*
X214313Y26933D01*
X214035Y26899D01*
X213758Y26933D01*
X213375Y27431D01*
X212837Y27844D01*
X212657Y27918D01*
Y37412D01*
X213096Y37631D01*
X213140Y37637D01*
X216595Y34181D01*
Y33458D01*
X216563Y33437D01*
X216209Y32908D01*
X216085Y32283D01*
X216209Y31659D01*
X216563Y31130D01*
X217092Y30776D01*
X217717Y30652D01*
X218341Y30776D01*
X218870Y31130D01*
X219224Y31659D01*
X219348Y32283D01*
X219224Y32908D01*
X218870Y33437D01*
X218838Y33458D01*
Y34646D01*
X218753Y35075D01*
X218510Y35439D01*
X218510Y35439D01*
X154336Y99612D01*
X153972Y99855D01*
X153543Y99941D01*
X153543Y99940D01*
X150287D01*
X150212Y99972D01*
X150181Y100440D01*
X150301Y100456D01*
X150809Y100523D01*
X151563Y100836D01*
X152211Y101332D01*
X152708Y101980D01*
X152721Y102012D01*
X162983D01*
Y100187D01*
X164233D01*
Y99025D01*
X162983D01*
Y93888D01*
X167726D01*
Y99025D01*
X166476D01*
Y100187D01*
X167726D01*
Y105324D01*
X162983D01*
Y104255D01*
X158555D01*
X158480Y104287D01*
X158449Y104755D01*
X158569Y104771D01*
X159077Y104838D01*
X159831Y105150D01*
X160479Y105647D01*
X160976Y106295D01*
X161159Y106737D01*
X162983D01*
Y106487D01*
X167726D01*
Y111624D01*
X166476D01*
Y113180D01*
X167726D01*
Y118316D01*
D02*
G37*
G36*
X107100Y106664D02*
X102663D01*
Y104013D01*
X102362Y103766D01*
X101797Y103654D01*
X101297Y103976D01*
Y106664D01*
X96860D01*
Y101727D01*
Y96790D01*
X101297D01*
Y99477D01*
X101797Y99800D01*
X102362Y99688D01*
X102663Y99440D01*
Y96790D01*
X107100D01*
Y101727D01*
Y106664D01*
D02*
G37*
G36*
X174425Y108555D02*
X171653D01*
X168882D01*
Y106224D01*
X168882Y106087D01*
X168882D01*
Y105724D01*
X168882D01*
Y103256D01*
X171653D01*
X174425D01*
Y105724D01*
X174425Y105724D01*
Y106087D01*
X174425D01*
X174425Y106224D01*
Y108555D01*
D02*
G37*
G36*
X64498Y104478D02*
Y103038D01*
X65937D01*
X65882Y103318D01*
X65439Y103980D01*
X64778Y104422D01*
X64498Y104478D01*
D02*
G37*
G36*
X47608Y107475D02*
X43171D01*
Y103038D01*
X47608D01*
Y107475D01*
D02*
G37*
G36*
X61778D02*
X57341D01*
Y102538D01*
X56340D01*
Y107475D01*
X48608D01*
Y102538D01*
X48108D01*
Y102038D01*
X43171D01*
Y97601D01*
Y94447D01*
X48108D01*
Y93947D01*
X48608D01*
Y89010D01*
X56340D01*
Y93947D01*
X57341D01*
Y89010D01*
X61778D01*
Y92664D01*
X62278Y92816D01*
X62485Y92505D01*
X63146Y92063D01*
X63427Y92007D01*
Y93947D01*
Y95887D01*
X63146Y95831D01*
X62485Y95389D01*
X62278Y95079D01*
X61778Y95231D01*
Y97601D01*
Y101360D01*
X62278Y101512D01*
X62556Y101096D01*
X63217Y100654D01*
X63498Y100598D01*
Y102538D01*
Y104478D01*
X63217Y104422D01*
X62556Y103980D01*
X62278Y103563D01*
X61778Y103715D01*
Y107475D01*
D02*
G37*
G36*
X112537Y106664D02*
X108100D01*
Y102227D01*
X112537D01*
Y106664D01*
D02*
G37*
G36*
X95860D02*
X91423D01*
Y102227D01*
X95860D01*
Y106664D01*
D02*
G37*
G36*
X65937Y102038D02*
X64498D01*
Y100598D01*
X64778Y100654D01*
X65439Y101096D01*
X65882Y101757D01*
X65937Y102038D01*
D02*
G37*
G36*
X174425Y102256D02*
X172153D01*
Y99787D01*
X174425D01*
Y102256D01*
D02*
G37*
G36*
X171153D02*
X168882D01*
Y99787D01*
X171153D01*
Y102256D01*
D02*
G37*
G36*
X112537Y101227D02*
X108100D01*
Y96790D01*
X112537D01*
Y101227D01*
D02*
G37*
G36*
X95860D02*
X91423D01*
Y96790D01*
X95860D01*
Y101227D01*
D02*
G37*
G36*
X64427Y95887D02*
Y94447D01*
X65867D01*
X65811Y94728D01*
X65369Y95389D01*
X64707Y95831D01*
X64427Y95887D01*
D02*
G37*
G36*
X310449Y95472D02*
X307587D01*
Y92610D01*
X310449D01*
Y95472D01*
D02*
G37*
G36*
X306587D02*
X303724D01*
Y92610D01*
X306587D01*
Y95472D01*
D02*
G37*
G36*
X107100Y95152D02*
X102663D01*
Y92501D01*
X102362Y92254D01*
X101797Y92142D01*
X101297Y92464D01*
Y95152D01*
X96860D01*
Y90215D01*
Y85278D01*
X101297D01*
Y87966D01*
X101797Y88288D01*
X102362Y88176D01*
X102663Y87929D01*
Y85278D01*
X107100D01*
Y90215D01*
Y95152D01*
D02*
G37*
G36*
X65867Y93447D02*
X64427D01*
Y92007D01*
X64707Y92063D01*
X65369Y92505D01*
X65811Y93167D01*
X65867Y93447D01*
D02*
G37*
G36*
X112537Y95152D02*
X108100D01*
Y90715D01*
X112537D01*
Y95152D01*
D02*
G37*
G36*
X95860D02*
X91423D01*
Y90715D01*
X95860D01*
Y95152D01*
D02*
G37*
G36*
X47608Y93447D02*
X43171D01*
Y89010D01*
X47608D01*
Y93447D01*
D02*
G37*
G36*
X310449Y91610D02*
X307587D01*
Y88748D01*
X310449D01*
Y91610D01*
D02*
G37*
G36*
X306587D02*
X303724D01*
Y88748D01*
X306587D01*
Y91610D01*
D02*
G37*
G36*
X112537Y89715D02*
X108100D01*
Y85278D01*
X112537D01*
Y89715D01*
D02*
G37*
G36*
X95860D02*
X91423D01*
Y85278D01*
X95860D01*
Y89715D01*
D02*
G37*
G36*
X130464Y86214D02*
X124540D01*
Y82258D01*
X130464D01*
Y86214D01*
D02*
G37*
G36*
X307087Y87224D02*
X306313Y87122D01*
X305593Y86824D01*
X304974Y86349D01*
X304499Y85730D01*
X304201Y85009D01*
X304099Y84236D01*
X304201Y83463D01*
X304499Y82742D01*
X304974Y82124D01*
X305593Y81649D01*
X306313Y81350D01*
X307087Y81248D01*
X307860Y81350D01*
X308580Y81649D01*
X309199Y82124D01*
X309674Y82742D01*
X309973Y83463D01*
X310074Y84236D01*
X309973Y85009D01*
X309674Y85730D01*
X309199Y86349D01*
X308580Y86824D01*
X307860Y87122D01*
X307087Y87224D01*
D02*
G37*
G36*
X32565Y80068D02*
Y78628D01*
X34005D01*
X33949Y78908D01*
X33507Y79570D01*
X32845Y80012D01*
X32565Y80068D01*
D02*
G37*
G36*
X31565D02*
X31285Y80012D01*
X30623Y79570D01*
X30181Y78908D01*
X30125Y78628D01*
X31565D01*
Y80068D01*
D02*
G37*
G36*
X108156Y78536D02*
Y77096D01*
X109595D01*
X109539Y77377D01*
X109097Y78038D01*
X108436Y78480D01*
X108156Y78536D01*
D02*
G37*
G36*
X107156D02*
X106875Y78480D01*
X106214Y78038D01*
X105772Y77377D01*
X105716Y77096D01*
X107156D01*
Y78536D01*
D02*
G37*
G36*
X75085Y78099D02*
Y76659D01*
X76524D01*
X76469Y76940D01*
X76027Y77601D01*
X75365Y78043D01*
X75085Y78099D01*
D02*
G37*
G36*
X74085D02*
X73804Y78043D01*
X73143Y77601D01*
X72701Y76940D01*
X72645Y76659D01*
X74085D01*
Y78099D01*
D02*
G37*
G36*
X34005Y77628D02*
X32565D01*
Y76188D01*
X32845Y76244D01*
X33507Y76686D01*
X33949Y77348D01*
X34005Y77628D01*
D02*
G37*
G36*
X31565D02*
X30125D01*
X30181Y77348D01*
X30623Y76686D01*
X31285Y76244D01*
X31565Y76188D01*
Y77628D01*
D02*
G37*
G36*
X307087Y79350D02*
X306313Y79248D01*
X305593Y78950D01*
X304974Y78475D01*
X304499Y77856D01*
X304201Y77135D01*
X304099Y76362D01*
X304201Y75589D01*
X304499Y74868D01*
X304974Y74250D01*
X305593Y73775D01*
X306313Y73476D01*
X307087Y73374D01*
X307860Y73476D01*
X308580Y73775D01*
X309199Y74250D01*
X309674Y74868D01*
X309973Y75589D01*
X310074Y76362D01*
X309973Y77135D01*
X309674Y77856D01*
X309199Y78475D01*
X308580Y78950D01*
X307860Y79248D01*
X307087Y79350D01*
D02*
G37*
G36*
X174025Y99025D02*
X169282D01*
Y93888D01*
X174025D01*
Y95335D01*
X222945D01*
X243455Y74825D01*
X243447Y74787D01*
X243572Y74163D01*
X243925Y73634D01*
X244454Y73280D01*
X245079Y73156D01*
X245703Y73280D01*
X246232Y73634D01*
X246586Y74163D01*
X246710Y74787D01*
X246586Y75412D01*
X246232Y75941D01*
X245703Y76295D01*
X245079Y76419D01*
X245041Y76411D01*
X224202Y97250D01*
X223839Y97493D01*
X223410Y97578D01*
X223409Y97578D01*
X174025D01*
Y99025D01*
D02*
G37*
G36*
X31565Y75410D02*
X29687D01*
Y72547D01*
X31565D01*
Y75410D01*
D02*
G37*
G36*
X130464Y76765D02*
X124540D01*
Y75771D01*
X124207Y75410D01*
X124040Y75410D01*
X122329D01*
Y72547D01*
X124299D01*
X124540Y72809D01*
X124707Y72809D01*
X130464D01*
Y73156D01*
X134932D01*
Y70758D01*
X141446D01*
Y75698D01*
X138026D01*
X137784Y75941D01*
X137254Y76295D01*
X136630Y76419D01*
X130464D01*
Y76765D01*
D02*
G37*
G36*
X100185Y75010D02*
X96229D01*
Y69085D01*
X100185D01*
Y75010D01*
D02*
G37*
G36*
X95460D02*
X91504D01*
Y69085D01*
X95460D01*
Y75010D01*
D02*
G37*
G36*
X90736D02*
X86780D01*
Y69085D01*
X90736D01*
Y75010D01*
D02*
G37*
G36*
X60411Y78053D02*
X59787Y77928D01*
X59258Y77575D01*
X58904Y77046D01*
X58780Y76421D01*
X58904Y75797D01*
X59096Y75510D01*
X58829Y75010D01*
X58434D01*
Y69085D01*
X62389D01*
Y75010D01*
X61994D01*
X61726Y75510D01*
X61919Y75797D01*
X62043Y76421D01*
X61919Y77046D01*
X61565Y77575D01*
X61036Y77928D01*
X60411Y78053D01*
D02*
G37*
G36*
X57665Y75010D02*
X53709D01*
Y69085D01*
X57665D01*
Y75010D01*
D02*
G37*
G36*
X52940D02*
X48985D01*
Y69085D01*
X52940D01*
Y75010D01*
D02*
G37*
G36*
X48216D02*
X44260D01*
Y69085D01*
X48216D01*
Y75010D01*
D02*
G37*
G36*
X43492D02*
X39536D01*
Y69085D01*
X43492D01*
Y75010D01*
D02*
G37*
G36*
X109595Y76096D02*
X105716D01*
X105753Y75910D01*
X105488Y75410D01*
X105278D01*
Y75327D01*
X104909Y75010D01*
X104778Y75010D01*
X100953D01*
Y69085D01*
X101810D01*
Y68356D01*
X93236Y59783D01*
X69291D01*
X68862Y59698D01*
X68498Y59455D01*
X68498Y59454D01*
X52685Y43641D01*
X51645D01*
Y44695D01*
X47295D01*
Y40345D01*
X51645D01*
Y41398D01*
X53150D01*
X53150Y41398D01*
X53579Y41484D01*
X53943Y41727D01*
X69756Y57540D01*
X93701D01*
X93701Y57540D01*
X94130Y57625D01*
X94494Y57868D01*
X103724Y67099D01*
X103724Y67099D01*
X103967Y67462D01*
X104053Y67892D01*
X104053Y67892D01*
Y69085D01*
X104778D01*
X104909Y69085D01*
X105278Y68768D01*
Y68685D01*
X107156D01*
Y72047D01*
X108156D01*
Y68685D01*
X110033D01*
Y68768D01*
X110402Y69085D01*
X110533Y69085D01*
X114358D01*
Y75010D01*
X110533D01*
X110402Y75010D01*
X110033Y75327D01*
Y75410D01*
X109823D01*
X109558Y75910D01*
X109595Y76096D01*
D02*
G37*
G36*
X34443Y75410D02*
X32565D01*
Y72047D01*
Y68685D01*
X34443D01*
Y68768D01*
X34811Y69085D01*
X34943Y69085D01*
X38767D01*
Y75010D01*
X34943D01*
X34811Y75010D01*
X34443Y75327D01*
Y75410D01*
D02*
G37*
G36*
X31565Y71547D02*
X29687D01*
Y68685D01*
X31565D01*
Y71547D01*
D02*
G37*
G36*
X121329Y75410D02*
X119451D01*
Y75327D01*
X119082Y75010D01*
X118951Y75010D01*
X115126D01*
Y69085D01*
X118951D01*
X119082Y69085D01*
X119451Y68768D01*
Y68685D01*
X119878D01*
X120145Y68185D01*
X119945Y67885D01*
X119889Y67604D01*
X123768D01*
X123713Y67885D01*
X123512Y68185D01*
X123779Y68685D01*
X124207D01*
Y71547D01*
X121829D01*
Y72047D01*
X121329D01*
Y75410D01*
D02*
G37*
G36*
X141847Y69799D02*
X138689D01*
Y67429D01*
X141847D01*
Y69799D01*
D02*
G37*
G36*
X137689D02*
X134531D01*
Y67429D01*
X137689D01*
Y69799D01*
D02*
G37*
G36*
X123768Y66604D02*
X122329D01*
Y65165D01*
X122609Y65220D01*
X123271Y65662D01*
X123713Y66324D01*
X123768Y66604D01*
D02*
G37*
G36*
X121329D02*
X119889D01*
X119945Y66324D01*
X120387Y65662D01*
X121048Y65220D01*
X121329Y65165D01*
Y66604D01*
D02*
G37*
G36*
X76664Y75659D02*
X72506D01*
X72301Y75410D01*
X72207D01*
Y75327D01*
X71838Y75010D01*
X71707Y75010D01*
X67882D01*
Y69085D01*
X71707D01*
X71838Y69085D01*
X72207Y68768D01*
Y68685D01*
X74085D01*
Y72047D01*
X75085D01*
Y68685D01*
X76803D01*
X77044Y68219D01*
X75301Y66476D01*
X67716D01*
X67287Y66391D01*
X66923Y66147D01*
X66923Y66147D01*
X57606Y56830D01*
X53159D01*
Y58277D01*
X48416D01*
Y53140D01*
X53159D01*
Y54587D01*
X58071D01*
X58071Y54587D01*
X58500Y54672D01*
X58864Y54916D01*
X68181Y64233D01*
X75766D01*
X75766Y64233D01*
X76195Y64318D01*
X76559Y64561D01*
X80102Y68105D01*
X80102Y68105D01*
X80345Y68468D01*
X80431Y68898D01*
X80861Y69085D01*
X81287D01*
Y75010D01*
X77463D01*
X77331Y75010D01*
X76963Y75327D01*
Y75410D01*
X76869D01*
X76664Y75659D01*
D02*
G37*
G36*
X67114Y75010D02*
X63158D01*
Y69085D01*
X64014D01*
Y67175D01*
X60362Y63523D01*
X53159D01*
Y64970D01*
X48416D01*
Y59833D01*
X53159D01*
Y61280D01*
X60827D01*
X60827Y61280D01*
X61256Y61365D01*
X61620Y61608D01*
X65929Y65918D01*
X65929Y65918D01*
X66172Y66281D01*
X66257Y66711D01*
X66257Y66711D01*
Y69085D01*
X67114D01*
Y75010D01*
D02*
G37*
G36*
X141847Y66429D02*
X138189D01*
X134531D01*
Y64059D01*
X135920D01*
X136150Y63779D01*
X136305Y62999D01*
X136747Y62338D01*
X137409Y61896D01*
X137689Y61840D01*
Y63779D01*
X138689D01*
Y61840D01*
X138969Y61896D01*
X139631Y62338D01*
X140073Y62999D01*
X140228Y63779D01*
X140458Y64059D01*
X141847D01*
Y66429D01*
D02*
G37*
G36*
X86011Y75010D02*
X82055D01*
Y69085D01*
X82912D01*
Y68356D01*
X77882Y63326D01*
X68504D01*
X68075Y63241D01*
X67711Y62998D01*
X67711Y62998D01*
X55047Y50334D01*
X53159D01*
Y51781D01*
X48416D01*
Y46644D01*
X53159D01*
Y48091D01*
X55512D01*
X55512Y48091D01*
X55941Y48176D01*
X56305Y48419D01*
X68968Y61083D01*
X78346D01*
X78347Y61083D01*
X78776Y61168D01*
X79140Y61412D01*
X84826Y67099D01*
X84826Y67099D01*
X85070Y67462D01*
X85155Y67892D01*
X85155Y67892D01*
Y69085D01*
X86011D01*
Y75010D01*
D02*
G37*
G36*
X130464Y81490D02*
X124540D01*
Y77534D01*
X130464D01*
Y78390D01*
X147583D01*
X153603Y72370D01*
Y65954D01*
X152353D01*
Y60817D01*
X157096D01*
Y65954D01*
X155846D01*
Y72835D01*
X155761Y73264D01*
X155517Y73628D01*
X155517Y73628D01*
X148840Y80305D01*
X148476Y80548D01*
X148047Y80633D01*
X148047Y80633D01*
X130464D01*
Y81490D01*
D02*
G37*
G36*
X35433Y65725D02*
X34624Y65619D01*
X33870Y65306D01*
X33222Y64809D01*
X32725Y64162D01*
X32413Y63408D01*
X32306Y62598D01*
X32413Y61789D01*
X32596Y61347D01*
X29128Y57880D01*
X28885Y57516D01*
X28800Y57087D01*
X28800Y57087D01*
Y54402D01*
X24548Y50150D01*
X24305Y49786D01*
X24220Y49357D01*
X24220Y49357D01*
Y29777D01*
X24220Y29777D01*
X24305Y29348D01*
X24548Y28984D01*
X33853Y19679D01*
X33853Y19679D01*
X34216Y19436D01*
X34646Y19351D01*
X71189D01*
X76534Y14006D01*
Y9677D01*
X72061D01*
Y12833D01*
X69258D01*
Y8289D01*
Y3746D01*
X72061D01*
Y4146D01*
X79313D01*
Y3746D01*
X81486D01*
Y6911D01*
X82486D01*
Y3746D01*
X84659D01*
Y4146D01*
X105913D01*
Y9677D01*
X102074D01*
X101882Y10139D01*
X104795Y13052D01*
X129981D01*
Y11552D01*
X129539Y11369D01*
X128891Y10872D01*
X128394Y10225D01*
X128082Y9471D01*
X127976Y8661D01*
X128082Y7852D01*
X128394Y7098D01*
X128891Y6451D01*
X129539Y5954D01*
X130293Y5641D01*
X131102Y5535D01*
X131912Y5641D01*
X132666Y5954D01*
X133313Y6451D01*
X133810Y7098D01*
X134123Y7852D01*
X134229Y8661D01*
X134123Y9471D01*
X133810Y10225D01*
X133313Y10872D01*
X132666Y11369D01*
X132224Y11552D01*
Y13180D01*
X132687D01*
Y18316D01*
X127943D01*
Y15295D01*
X104331D01*
X103902Y15209D01*
X103538Y14966D01*
X103538Y14966D01*
X101190Y12618D01*
X100728Y12810D01*
Y18904D01*
X100760Y18925D01*
X101113Y19454D01*
X101238Y20079D01*
X101113Y20703D01*
X100760Y21232D01*
X100231Y21586D01*
X99606Y21710D01*
X98982Y21586D01*
X98453Y21232D01*
X98099Y20703D01*
X97975Y20079D01*
X98099Y19454D01*
X98453Y18925D01*
X98485Y18904D01*
Y9898D01*
X98337Y9677D01*
X95706D01*
Y24022D01*
X95738Y24043D01*
X96092Y24573D01*
X96216Y25197D01*
X96092Y25821D01*
X95738Y26350D01*
X95209Y26704D01*
X94585Y26828D01*
X93960Y26704D01*
X93431Y26350D01*
X93077Y25821D01*
X92953Y25197D01*
X93077Y24573D01*
X93431Y24043D01*
X93463Y24022D01*
Y9677D01*
X91769D01*
Y13296D01*
X91801Y13317D01*
X92155Y13846D01*
X92279Y14470D01*
X92155Y15095D01*
X91801Y15624D01*
X91272Y15978D01*
X90648Y16102D01*
X90023Y15978D01*
X89494Y15624D01*
X89140Y15095D01*
X89016Y14470D01*
X89140Y13846D01*
X89494Y13317D01*
X89526Y13296D01*
Y9677D01*
X87438D01*
Y19589D01*
X87353Y20018D01*
X87110Y20382D01*
X87110Y20382D01*
X77958Y29533D01*
X77595Y29776D01*
X77165Y29862D01*
X77165Y29862D01*
X38654D01*
X36948Y31567D01*
Y46322D01*
X37390Y46505D01*
X38038Y47002D01*
X38535Y47649D01*
X38718Y48091D01*
X42116D01*
Y46644D01*
X46860D01*
Y51781D01*
X42116D01*
Y50334D01*
X38718D01*
X38535Y50776D01*
X38038Y51424D01*
X37390Y51920D01*
X36636Y52233D01*
X35827Y52339D01*
X35017Y52233D01*
X34263Y51920D01*
X33991Y51711D01*
X33710Y51810D01*
X33516Y51977D01*
X33520Y52013D01*
X34649Y53142D01*
X35017Y52989D01*
X35827Y52882D01*
X36636Y52989D01*
X37390Y53301D01*
X38038Y53798D01*
X38535Y54446D01*
X38593Y54587D01*
X42116D01*
Y53140D01*
X46860D01*
Y58277D01*
X42116D01*
Y56830D01*
X38842D01*
X38535Y57573D01*
X38038Y58220D01*
X37390Y58717D01*
X36636Y59029D01*
X36270Y59078D01*
X36242Y59578D01*
X36996Y59891D01*
X37644Y60387D01*
X38141Y61035D01*
X38242Y61280D01*
X42116D01*
Y59833D01*
X46860D01*
Y64970D01*
X42116D01*
Y63523D01*
X38405D01*
X38141Y64162D01*
X37644Y64809D01*
X36996Y65306D01*
X36242Y65619D01*
X35433Y65725D01*
D02*
G37*
G36*
X163395Y65954D02*
X158652D01*
Y60817D01*
X159902D01*
Y59065D01*
X159242D01*
Y57815D01*
X157687D01*
Y59065D01*
X152550D01*
Y54321D01*
X157687D01*
Y55571D01*
X159242D01*
Y54321D01*
X164380D01*
Y59065D01*
X162145D01*
Y60817D01*
X163395D01*
Y65954D01*
D02*
G37*
G36*
X138295Y60551D02*
Y57587D01*
X141260D01*
X141205Y58000D01*
X140852Y58852D01*
X140292Y59583D01*
X139560Y60144D01*
X138709Y60496D01*
X138295Y60551D01*
D02*
G37*
G36*
X137295D02*
X136882Y60496D01*
X136030Y60144D01*
X135299Y59583D01*
X134738Y58852D01*
X134385Y58000D01*
X134331Y57587D01*
X137295D01*
Y60551D01*
D02*
G37*
G36*
X141260Y56587D02*
X138295D01*
Y53622D01*
X138709Y53677D01*
X139560Y54029D01*
X140292Y54590D01*
X140852Y55322D01*
X141205Y56173D01*
X141260Y56587D01*
D02*
G37*
G36*
X137295D02*
X134331D01*
X134385Y56173D01*
X134738Y55322D01*
X135299Y54590D01*
X136030Y54029D01*
X136882Y53677D01*
X137295Y53622D01*
Y56587D01*
D02*
G37*
G36*
X165854Y52333D02*
Y50894D01*
X167294D01*
X167238Y51174D01*
X166796Y51836D01*
X166135Y52278D01*
X165854Y52333D01*
D02*
G37*
G36*
X161311Y53165D02*
X158843D01*
Y50894D01*
X161311D01*
Y53165D01*
D02*
G37*
G36*
X265264Y53113D02*
Y50287D01*
X268089D01*
X268039Y50665D01*
X267701Y51483D01*
X267162Y52185D01*
X266459Y52724D01*
X265641Y53063D01*
X265264Y53113D01*
D02*
G37*
G36*
X264264D02*
X263886Y53063D01*
X263068Y52724D01*
X262366Y52185D01*
X261827Y51483D01*
X261488Y50665D01*
X261438Y50287D01*
X264264D01*
Y53113D01*
D02*
G37*
G36*
X167294Y49894D02*
X165854D01*
Y48454D01*
X166135Y48510D01*
X166796Y48952D01*
X167238Y49613D01*
X167294Y49894D01*
D02*
G37*
G36*
X164779Y53165D02*
X162311D01*
Y50394D01*
Y47622D01*
X164779D01*
Y48075D01*
X164854Y48136D01*
Y50394D01*
Y52651D01*
X164779Y52713D01*
Y53165D01*
D02*
G37*
G36*
X161311Y49894D02*
X158843D01*
Y47622D01*
X161311D01*
Y49894D01*
D02*
G37*
G36*
X280512Y52775D02*
X279738Y52673D01*
X279018Y52375D01*
X278399Y51900D01*
X277924Y51281D01*
X277626Y50561D01*
X277524Y49787D01*
X277626Y49014D01*
X277924Y48294D01*
X278399Y47675D01*
X279018Y47200D01*
X279738Y46901D01*
X280512Y46800D01*
X281285Y46901D01*
X282006Y47200D01*
X282625Y47675D01*
X283099Y48294D01*
X283398Y49014D01*
X283500Y49787D01*
X283398Y50561D01*
X283099Y51281D01*
X282625Y51900D01*
X282006Y52375D01*
X281285Y52673D01*
X280512Y52775D01*
D02*
G37*
G36*
X174025Y118316D02*
X169282D01*
Y113180D01*
X172636D01*
X173330Y112486D01*
X173139Y112024D01*
X172153D01*
Y109555D01*
X174425D01*
Y110737D01*
X174887Y110928D01*
X180309Y105506D01*
X180673Y105263D01*
X181102Y105178D01*
X181102Y105178D01*
X221976D01*
X271516Y55638D01*
Y52529D01*
X271144Y52375D01*
X270525Y51900D01*
X270050Y51281D01*
X269752Y50561D01*
X269650Y49787D01*
X269752Y49014D01*
X270050Y48294D01*
X270525Y47675D01*
X271144Y47200D01*
X271865Y46901D01*
X272638Y46800D01*
X273411Y46901D01*
X274132Y47200D01*
X274750Y47675D01*
X275225Y48294D01*
X275524Y49014D01*
X275626Y49787D01*
X275524Y50561D01*
X275225Y51281D01*
X274750Y51900D01*
X274132Y52375D01*
X273759Y52529D01*
Y56102D01*
X273759Y56102D01*
X273674Y56532D01*
X273431Y56895D01*
X273431Y56895D01*
X223234Y107092D01*
X222870Y107335D01*
X222441Y107421D01*
X222441Y107421D01*
X181567D01*
X174025Y114962D01*
Y118316D01*
D02*
G37*
G36*
X268089Y49287D02*
X265264D01*
Y46462D01*
X265641Y46512D01*
X266459Y46850D01*
X267162Y47389D01*
X267701Y48092D01*
X268039Y48910D01*
X268089Y49287D01*
D02*
G37*
G36*
X264264D02*
X261438D01*
X261488Y48910D01*
X261827Y48092D01*
X262366Y47389D01*
X263068Y46850D01*
X263886Y46512D01*
X264264Y46462D01*
Y49287D01*
D02*
G37*
G36*
X104574Y52787D02*
X95894D01*
Y46272D01*
X104574D01*
Y52787D01*
D02*
G37*
G36*
X81071D02*
X72390D01*
Y46272D01*
X81071D01*
Y52787D01*
D02*
G37*
G36*
X113514Y48659D02*
X110652D01*
Y46191D01*
X113514D01*
Y48659D01*
D02*
G37*
G36*
X117376D02*
X114514D01*
Y45691D01*
Y42722D01*
X117376D01*
Y43390D01*
X117695Y43652D01*
X118475Y43807D01*
X119137Y44249D01*
X119579Y44911D01*
X119635Y45191D01*
X117695D01*
Y46191D01*
X119635D01*
X119579Y46471D01*
X119137Y47133D01*
X118475Y47575D01*
X117695Y47730D01*
X117376Y47992D01*
Y48659D01*
D02*
G37*
G36*
X113514Y45191D02*
X110652D01*
Y42722D01*
X113514D01*
Y45191D01*
D02*
G37*
G36*
X52846Y39576D02*
X48103D01*
Y34439D01*
X52846D01*
Y35005D01*
X53346Y35416D01*
X53543Y35377D01*
X54168Y35501D01*
X54697Y35854D01*
X55050Y36384D01*
X55175Y37008D01*
X55050Y37632D01*
X54697Y38161D01*
X54168Y38515D01*
X53543Y38639D01*
X53346Y38600D01*
X52846Y39010D01*
Y39576D01*
D02*
G37*
G36*
X45739Y44695D02*
X41390D01*
Y40345D01*
X43054D01*
Y39576D01*
X41804D01*
Y34439D01*
X46547D01*
Y39576D01*
X45297D01*
Y40345D01*
X45739D01*
Y44695D01*
D02*
G37*
G36*
X267929Y36433D02*
X266150D01*
Y33866D01*
X267929D01*
Y36433D01*
D02*
G37*
G36*
X265150D02*
X263370D01*
Y33866D01*
X265150D01*
Y36433D01*
D02*
G37*
G36*
X157687Y52765D02*
X152550D01*
Y48022D01*
X153997D01*
Y39576D01*
X152746D01*
Y33652D01*
X158671D01*
Y39576D01*
X156240D01*
Y48022D01*
X157687D01*
Y52765D01*
D02*
G37*
G36*
X240839Y35252D02*
X238567D01*
Y32783D01*
X240839D01*
Y35252D01*
D02*
G37*
G36*
X129921Y34623D02*
X129112Y34516D01*
X128358Y34204D01*
X127710Y33707D01*
X127213Y33059D01*
X126901Y32305D01*
X126893Y32246D01*
X116976D01*
Y33692D01*
X111052D01*
Y28556D01*
X116976D01*
Y30002D01*
X127184D01*
X127213Y29933D01*
X127710Y29285D01*
X128358Y28788D01*
X128428Y28759D01*
Y27372D01*
X127550D01*
Y22235D01*
X132293D01*
Y27372D01*
X130671D01*
Y28468D01*
X130730Y28476D01*
X131485Y28788D01*
X132132Y29285D01*
X132629Y29933D01*
X132941Y30687D01*
X133048Y31496D01*
X132941Y32305D01*
X132629Y33059D01*
X132132Y33707D01*
X131485Y34204D01*
X130730Y34516D01*
X129921Y34623D01*
D02*
G37*
G36*
X267929Y32866D02*
X266150D01*
Y30299D01*
X267929D01*
Y32866D01*
D02*
G37*
G36*
X265150D02*
X263370D01*
Y30299D01*
X265150D01*
Y32866D01*
D02*
G37*
G36*
X244110Y35252D02*
X241839D01*
Y32283D01*
Y29315D01*
X244110D01*
Y29541D01*
X244488Y29851D01*
X245268Y30006D01*
X245930Y30448D01*
X246372Y31109D01*
X246427Y31390D01*
X244488D01*
Y32390D01*
X246427D01*
X246372Y32670D01*
X245930Y33332D01*
X245268Y33774D01*
X244488Y33929D01*
X244110Y34239D01*
Y35252D01*
D02*
G37*
G36*
X240839Y31784D02*
X238567D01*
Y29315D01*
X240839D01*
Y31784D01*
D02*
G37*
G36*
X259065Y36033D02*
X255306D01*
Y30699D01*
X256064D01*
Y27106D01*
X243710D01*
Y28553D01*
X238967D01*
Y23416D01*
X243710D01*
Y24863D01*
X256064D01*
Y19694D01*
X255306D01*
Y14361D01*
X259065D01*
Y19694D01*
X258307D01*
Y25984D01*
Y30699D01*
X259065D01*
Y36033D01*
D02*
G37*
G36*
X187902Y27924D02*
Y26484D01*
X189341D01*
X189286Y26765D01*
X188844Y27426D01*
X188182Y27868D01*
X187902Y27924D01*
D02*
G37*
G36*
X186902D02*
X186621Y27868D01*
X185960Y27426D01*
X185518Y26765D01*
X185462Y26484D01*
X186902D01*
Y27924D01*
D02*
G37*
G36*
X143701Y27930D02*
X142892Y27823D01*
X142137Y27511D01*
X141490Y27014D01*
X140993Y26366D01*
X140810Y25925D01*
X138592D01*
Y27372D01*
X133849D01*
Y22235D01*
X135493D01*
Y21254D01*
X135461Y21232D01*
X135107Y20703D01*
X134983Y20079D01*
X135107Y19454D01*
X135461Y18925D01*
X135493Y18904D01*
Y18316D01*
X134242D01*
Y13180D01*
X138986D01*
Y18316D01*
X137736D01*
Y18904D01*
X137768Y18925D01*
X138121Y19454D01*
X138245Y20079D01*
X138121Y20703D01*
X137768Y21232D01*
X137736Y21254D01*
Y22235D01*
X138592D01*
Y23682D01*
X140810D01*
X140993Y23240D01*
X141490Y22592D01*
X142137Y22095D01*
X142892Y21783D01*
X143701Y21676D01*
X144510Y21783D01*
X145264Y22095D01*
X145912Y22592D01*
X146409Y23240D01*
X146721Y23994D01*
X146827Y24803D01*
X146721Y25612D01*
X146409Y26366D01*
X145912Y27014D01*
X145264Y27511D01*
X144510Y27823D01*
X143701Y27930D01*
D02*
G37*
G36*
X158677Y26590D02*
X156898D01*
Y24024D01*
X158677D01*
Y26590D01*
D02*
G37*
G36*
X155898D02*
X154118D01*
Y24024D01*
X155898D01*
Y26590D01*
D02*
G37*
G36*
X305118Y26245D02*
X304439Y26155D01*
X303807Y25893D01*
X303264Y25476D01*
X302847Y24933D01*
X302585Y24301D01*
X302496Y23622D01*
X302585Y22943D01*
X302847Y22311D01*
X303264Y21768D01*
X303807Y21351D01*
X304439Y21089D01*
X305118Y21000D01*
X305797Y21089D01*
X306429Y21351D01*
X306973Y21768D01*
X307389Y22311D01*
X307651Y22943D01*
X307740Y23622D01*
X307651Y24301D01*
X307389Y24933D01*
X306973Y25476D01*
X306429Y25893D01*
X305797Y26155D01*
X305118Y26245D01*
D02*
G37*
G36*
X9843D02*
X9164Y26155D01*
X8531Y25893D01*
X7988Y25476D01*
X7571Y24933D01*
X7309Y24301D01*
X7220Y23622D01*
X7309Y22943D01*
X7571Y22311D01*
X7988Y21768D01*
X8531Y21351D01*
X9164Y21089D01*
X9843Y21000D01*
X10521Y21089D01*
X11154Y21351D01*
X11697Y21768D01*
X12114Y22311D01*
X12376Y22943D01*
X12465Y23622D01*
X12376Y24301D01*
X12114Y24933D01*
X11697Y25476D01*
X11154Y25893D01*
X10521Y26155D01*
X9843Y26245D01*
D02*
G37*
G36*
X189341Y25484D02*
X185462D01*
X185518Y25204D01*
X185960Y24542D01*
X186418Y24236D01*
X186266Y23736D01*
X184531D01*
Y20579D01*
X187402D01*
X190272D01*
Y23736D01*
X188537D01*
X188385Y24236D01*
X188844Y24542D01*
X189286Y25204D01*
X189341Y25484D01*
D02*
G37*
G36*
X158677Y23024D02*
X156898D01*
Y20457D01*
X158677D01*
Y23024D01*
D02*
G37*
G36*
X155898D02*
X154118D01*
Y20457D01*
X155898D01*
Y23024D01*
D02*
G37*
G36*
X229475Y20090D02*
X227035D01*
Y17651D01*
X227313Y17687D01*
X228038Y17988D01*
X228661Y18465D01*
X229138Y19088D01*
X229439Y19813D01*
X229475Y20090D01*
D02*
G37*
G36*
X267929Y20095D02*
X266150D01*
Y17528D01*
X267929D01*
Y20095D01*
D02*
G37*
G36*
X265150D02*
X263370D01*
Y17528D01*
X265150D01*
Y20095D01*
D02*
G37*
G36*
X190272Y19579D02*
X187902D01*
Y16421D01*
X190272D01*
Y19579D01*
D02*
G37*
G36*
X186902D02*
X184531D01*
Y16421D01*
X186902D01*
Y19579D01*
D02*
G37*
G36*
X156898Y16113D02*
Y14673D01*
X158337D01*
X158282Y14954D01*
X157840Y15615D01*
X157178Y16057D01*
X156898Y16113D01*
D02*
G37*
G36*
X155898D02*
X155617Y16057D01*
X154956Y15615D01*
X154514Y14954D01*
X154458Y14673D01*
X155898D01*
Y16113D01*
D02*
G37*
G36*
X243710Y21860D02*
X238967D01*
Y16723D01*
X240217D01*
Y15117D01*
X239775Y14934D01*
X239128Y14437D01*
X238631Y13790D01*
X238569Y13641D01*
X238497Y13591D01*
X237977Y13482D01*
X237632Y13712D01*
X237008Y13836D01*
X236384Y13712D01*
X236336Y13680D01*
X235836Y13948D01*
Y14773D01*
X231093D01*
Y9636D01*
X235836D01*
Y10462D01*
X236336Y10729D01*
X236384Y10698D01*
X237008Y10573D01*
X237632Y10698D01*
X237995Y10940D01*
X238494Y10837D01*
X238582Y10781D01*
X238631Y10663D01*
X239128Y10015D01*
X239775Y9518D01*
X240529Y9206D01*
X241339Y9100D01*
X242148Y9206D01*
X242902Y9518D01*
X243549Y10015D01*
X244046Y10663D01*
X244359Y11417D01*
X244465Y12226D01*
X244359Y13036D01*
X244046Y13790D01*
X243549Y14437D01*
X242902Y14934D01*
X242460Y15117D01*
Y16723D01*
X243710D01*
Y21860D01*
D02*
G37*
G36*
X267929Y16528D02*
X265650D01*
X263370D01*
Y13961D01*
X263624D01*
X263860Y13520D01*
X263766Y13379D01*
X263710Y13098D01*
X267589D01*
X267534Y13379D01*
X267439Y13520D01*
X267675Y13961D01*
X267929D01*
Y16528D01*
D02*
G37*
G36*
X229937Y15173D02*
X227665D01*
Y12705D01*
X229937D01*
Y15173D01*
D02*
G37*
G36*
X226665D02*
X224394D01*
Y12705D01*
X226665D01*
Y15173D01*
D02*
G37*
G36*
X158337Y13673D02*
X156898D01*
Y12234D01*
X157178Y12289D01*
X157840Y12731D01*
X158282Y13393D01*
X158337Y13673D01*
D02*
G37*
G36*
X155898D02*
X154458D01*
X154514Y13393D01*
X154956Y12731D01*
X155617Y12289D01*
X155898Y12234D01*
Y13673D01*
D02*
G37*
G36*
X68258Y12833D02*
X65455D01*
Y10162D01*
X64955Y9895D01*
X64538Y10173D01*
X64258Y10229D01*
Y8289D01*
Y6350D01*
X64538Y6405D01*
X64955Y6684D01*
X65455Y6416D01*
Y3746D01*
X68258D01*
Y8289D01*
Y12833D01*
D02*
G37*
G36*
X229937Y11705D02*
X227665D01*
Y9236D01*
X229937D01*
Y11705D01*
D02*
G37*
G36*
X226665D02*
X224394D01*
Y9236D01*
X226665D01*
Y11705D01*
D02*
G37*
G36*
X267589Y12098D02*
X263710D01*
X263740Y11944D01*
X263195Y11719D01*
X262464Y11158D01*
X261903Y10426D01*
X261551Y9575D01*
X261496Y9161D01*
X264961D01*
X268425D01*
X268371Y9575D01*
X268018Y10426D01*
X267457Y11158D01*
X267216Y11343D01*
X267534Y11818D01*
X267589Y12098D01*
D02*
G37*
G36*
X63258Y10229D02*
X62977Y10173D01*
X62316Y9731D01*
X61874Y9070D01*
X61818Y8789D01*
X63258D01*
Y10229D01*
D02*
G37*
G36*
X112825Y11061D02*
X109274D01*
Y7904D01*
X112825D01*
Y11061D01*
D02*
G37*
G36*
X158677Y10252D02*
X156898D01*
Y7685D01*
X158677D01*
Y10252D01*
D02*
G37*
G36*
X155898D02*
X154118D01*
Y7685D01*
X155898D01*
Y10252D01*
D02*
G37*
G36*
X63258Y7789D02*
X61818D01*
X61874Y7509D01*
X62316Y6848D01*
X62977Y6405D01*
X63258Y6350D01*
Y7789D01*
D02*
G37*
G36*
X117376Y11061D02*
X113825D01*
Y7404D01*
Y3746D01*
X117376D01*
Y5053D01*
X117762Y5370D01*
X117793Y5364D01*
X118574Y5520D01*
X119235Y5962D01*
X119677Y6623D01*
X119733Y6904D01*
X117793D01*
Y7903D01*
X119733D01*
X119677Y8184D01*
X119235Y8845D01*
X118574Y9287D01*
X117793Y9443D01*
X117762Y9437D01*
X117376Y9754D01*
Y11061D01*
D02*
G37*
G36*
X268425Y8162D02*
X265461D01*
Y5197D01*
X265874Y5252D01*
X266726Y5604D01*
X267457Y6165D01*
X268018Y6896D01*
X268371Y7748D01*
X268425Y8162D01*
D02*
G37*
G36*
X264461D02*
X261496D01*
X261551Y7748D01*
X261903Y6896D01*
X262464Y6165D01*
X263195Y5604D01*
X264047Y5252D01*
X264461Y5197D01*
Y8162D01*
D02*
G37*
G36*
X166939Y39576D02*
X161014D01*
Y33652D01*
X163741D01*
Y26191D01*
X162983D01*
Y20857D01*
X163741D01*
Y9852D01*
X162983D01*
Y4518D01*
X166742D01*
Y9852D01*
X165984D01*
Y20857D01*
X166742D01*
Y26191D01*
X165984D01*
Y33652D01*
X166939D01*
Y39576D01*
D02*
G37*
G36*
X158677Y6685D02*
X156898D01*
Y4118D01*
X158677D01*
Y6685D01*
D02*
G37*
G36*
X155898D02*
X154118D01*
Y4118D01*
X155898D01*
Y6685D01*
D02*
G37*
G36*
X112825Y6904D02*
X109274D01*
Y3746D01*
X112825D01*
Y6904D01*
D02*
G37*
%LPD*%
G36*
X192066Y225333D02*
X192602Y224922D01*
X192776Y224850D01*
Y218513D01*
X191821D01*
Y213376D01*
X192776D01*
Y211157D01*
X192776Y211157D01*
X192861Y210728D01*
X193105Y210364D01*
X193708Y209761D01*
X193500Y209261D01*
X192043D01*
Y209661D01*
X190657D01*
Y206004D01*
X189657D01*
Y209897D01*
X189564Y210123D01*
X189769Y210329D01*
X189769Y210329D01*
X190013Y210693D01*
X190098Y211122D01*
X190098Y211122D01*
Y213376D01*
X190197D01*
Y218513D01*
X190098D01*
Y224597D01*
X191545D01*
Y225191D01*
X192045Y225361D01*
X192066Y225333D01*
D02*
G37*
G36*
X237008Y188681D02*
X237008Y175886D01*
X227559Y168307D01*
X227440D01*
Y200471D01*
X227756Y200787D01*
X237008D01*
X237008Y188681D01*
D02*
G37*
G36*
X239961Y160630D02*
Y141929D01*
X238779D01*
X237992Y142717D01*
X233071D01*
X225197Y150591D01*
Y165847D01*
X234744D01*
X239961Y160630D01*
D02*
G37*
G36*
X218012Y170064D02*
Y141929D01*
X221260Y138681D01*
Y126227D01*
X207480D01*
Y169882D01*
X211417D01*
X213385Y171850D01*
X216226D01*
X218012Y170064D01*
D02*
G37*
G36*
X34624Y59578D02*
X34990Y59530D01*
X35017Y59029D01*
X34263Y58717D01*
X33616Y58220D01*
X33119Y57573D01*
X32807Y56818D01*
X32700Y56009D01*
X32807Y55200D01*
X33020Y54685D01*
X28341Y50006D01*
X28098Y49642D01*
X28012Y49213D01*
X28012Y49213D01*
Y31496D01*
X28012Y31496D01*
X28098Y31067D01*
X28341Y30703D01*
X34640Y24404D01*
X34640Y24404D01*
X35004Y24161D01*
X35433Y24075D01*
X35433Y24075D01*
X73234D01*
X73256Y24043D01*
X73785Y23690D01*
X74410Y23565D01*
X75034Y23690D01*
X75563Y24043D01*
X75917Y24573D01*
X76041Y25197D01*
X75917Y25821D01*
X75563Y26350D01*
X75034Y26704D01*
X74410Y26828D01*
X73785Y26704D01*
X73256Y26350D01*
X73234Y26318D01*
X35898D01*
X30255Y31961D01*
Y48748D01*
X33027Y51519D01*
X33062Y51523D01*
X33230Y51329D01*
X33328Y51048D01*
X33119Y50776D01*
X32807Y50022D01*
X32700Y49213D01*
X32807Y48403D01*
X33119Y47649D01*
X33616Y47002D01*
X34263Y46505D01*
X34705Y46322D01*
Y31102D01*
X34705Y31102D01*
X34791Y30673D01*
X35034Y30309D01*
X37396Y27947D01*
X37760Y27704D01*
X38189Y27619D01*
X38189Y27619D01*
X76701D01*
X85195Y19124D01*
Y9677D01*
X84659D01*
Y10077D01*
X84250D01*
X83917Y10577D01*
X83926Y10620D01*
X80046D01*
X80055Y10577D01*
X79722Y10077D01*
X79313D01*
Y9677D01*
X78777D01*
Y14470D01*
X78777Y14470D01*
X78692Y14900D01*
X78449Y15263D01*
X78449Y15263D01*
X72447Y21265D01*
X72083Y21509D01*
X71653Y21594D01*
X71653Y21594D01*
X35110D01*
X26463Y30241D01*
Y48893D01*
X30714Y53144D01*
X30957Y53508D01*
X31043Y53937D01*
X31043Y53937D01*
Y56622D01*
X34182Y59761D01*
X34624Y59578D01*
D02*
G37*
%LPC*%
G36*
X82486Y13060D02*
Y11620D01*
X83926D01*
X83870Y11900D01*
X83428Y12562D01*
X82767Y13004D01*
X82486Y13060D01*
D02*
G37*
G36*
X81486D02*
X81206Y13004D01*
X80544Y12562D01*
X80102Y11900D01*
X80046Y11620D01*
X81486D01*
Y13060D01*
D02*
G37*
%LPD*%
D13*
X45325Y94522D02*
Y103113D01*
X38128Y168959D02*
Y173524D01*
Y168959D02*
X40551Y166535D01*
X45139D01*
X50651Y161024D01*
X49274Y173524D02*
X55610D01*
X65136Y163998D01*
Y124803D02*
Y163998D01*
X69860Y124803D02*
Y163604D01*
X58858Y178839D02*
X61221Y176476D01*
Y172244D02*
Y176476D01*
Y172244D02*
X69860Y163604D01*
X49274Y178839D02*
X58858D01*
X65136Y66711D02*
Y72047D01*
X60827Y62402D02*
X65136Y66711D01*
X50787Y62402D02*
X60827D01*
X50787Y55709D02*
X58071D01*
X67716Y65354D01*
X75766D01*
X79309Y68898D01*
Y72047D01*
X50787Y49213D02*
X55512D01*
X68504Y62205D01*
X78347D01*
X84034Y67892D01*
Y72047D01*
X49470Y42520D02*
X53150D01*
X69291Y58661D01*
X93701D01*
X102931Y67892D01*
Y72047D01*
X35630Y62402D02*
X44488D01*
X35433Y62598D02*
X35630Y62402D01*
X29921Y57087D02*
X35433Y62598D01*
X25341Y49357D02*
X29921Y53937D01*
Y57087D01*
X29134Y49213D02*
X35630Y55709D01*
X44488D01*
X35827Y49213D02*
X44488D01*
X44175Y37008D02*
Y41909D01*
X43565Y42520D02*
X44175Y41909D01*
X35827Y31102D02*
Y49213D01*
Y31102D02*
X38189Y28740D01*
X77165D01*
X86317Y19589D01*
Y6911D02*
Y19589D01*
X29134Y31496D02*
X35433Y25197D01*
X74410D01*
X94585Y7305D02*
Y25197D01*
Y7305D02*
X94978Y6911D01*
X29134Y31496D02*
Y49213D01*
X90648Y6911D02*
Y14470D01*
X25341Y29777D02*
X34646Y20472D01*
X71653D01*
X77656Y14470D01*
Y6911D02*
Y14470D01*
X25341Y29777D02*
Y49357D01*
X98207Y117892D02*
Y124803D01*
X95276Y114961D02*
X98207Y117892D01*
X85827Y114961D02*
X95276D01*
X81102Y110236D02*
X85827Y114961D01*
X81102Y86614D02*
Y110236D01*
X99309Y6911D02*
Y9152D01*
X104331Y14173D02*
X130709D01*
X131102Y8661D02*
Y11811D01*
X99606Y9449D02*
Y20079D01*
X99309Y9152D02*
X99606Y9449D01*
X104331Y14173D01*
X130315Y15748D02*
X131102Y14961D01*
Y11811D02*
Y14961D01*
X114014Y31124D02*
X129549D01*
Y25175D02*
Y31124D01*
Y25175D02*
X129921Y24803D01*
X136221D02*
X143701D01*
X136221D02*
X136614Y24409D01*
X148047Y79512D02*
X154724Y72835D01*
Y63386D02*
Y72835D01*
X127502Y79512D02*
X148047D01*
X161024Y57480D02*
Y63386D01*
Y57480D02*
X161811Y56693D01*
X155118D02*
X161811D01*
X155118Y37205D02*
Y50394D01*
Y37205D02*
X155709Y36614D01*
X164862Y7185D02*
Y23524D01*
Y35728D01*
X148016Y112583D02*
X149213Y113779D01*
X127502Y112583D02*
X148016D01*
X127502Y117307D02*
X135439D01*
X140179Y122047D01*
X148819D01*
X165354Y109055D02*
Y115748D01*
X165354Y115748D01*
X127502Y107858D02*
X158268D01*
X164189D01*
X164976Y103134D02*
X165354Y102756D01*
X165354Y102756D01*
Y96457D02*
Y102756D01*
X127502Y103134D02*
X164976D01*
X127502Y93685D02*
X150394D01*
X143307Y98819D02*
X153543D01*
X127502Y98409D02*
X143307D01*
X226535Y25591D02*
X234646D01*
X235039Y25984D01*
Y32283D01*
Y19291D02*
Y25984D01*
Y19291D02*
X235039Y19291D01*
X241317Y12205D02*
X241339Y12226D01*
Y19291D01*
X241339Y25984D02*
X257185D01*
Y17028D02*
Y25984D01*
Y33366D01*
X127502Y122031D02*
X129512D01*
X140551Y133071D01*
X187598Y206004D02*
Y209744D01*
X188976Y211122D01*
Y227165D01*
X193898Y211157D02*
X195276Y209780D01*
Y206004D02*
Y209780D01*
X193898Y211157D02*
Y227165D01*
X117104Y124803D02*
Y129309D01*
X122835Y135039D01*
X112380Y124803D02*
Y134864D01*
X111811Y135433D02*
X112380Y134864D01*
X179823Y172638D02*
Y180118D01*
X179429Y172244D02*
X179823Y172638D01*
X180905Y159843D02*
Y163385D01*
X185728Y168209D01*
Y172244D01*
X176279Y146359D02*
X176968Y147047D01*
X195965Y173031D02*
X196358Y172638D01*
X195965Y165157D02*
Y173031D01*
X227362Y181299D02*
X228150Y182087D01*
Y197835D01*
X153543Y98819D02*
X217717Y34646D01*
Y32283D02*
Y34646D01*
X211535Y25591D02*
Y37579D01*
X155429Y93685D02*
X211535Y37579D01*
X150394Y93685D02*
X155429D01*
X156693Y88189D02*
X207087Y37795D01*
X144095Y88189D02*
X156693D01*
X143307Y88976D02*
X143323Y88961D01*
X144095Y88189D01*
X127502Y88961D02*
X143323D01*
X182087Y211614D02*
Y215551D01*
X201772Y215945D02*
X204724D01*
X214764Y196653D02*
Y200590D01*
X79624Y169633D02*
Y175933D01*
Y169633D02*
X80018Y169240D01*
X70175Y175933D02*
X73325D01*
X38128Y175295D02*
X38362Y175529D01*
X39980D01*
X42404Y177953D01*
X43701Y176656D01*
X53543Y189764D02*
X53937Y189370D01*
Y186614D02*
Y189370D01*
X49944Y202700D02*
X50000Y202755D01*
X47325Y202700D02*
X49944D01*
X45325Y103113D02*
X54057D01*
Y94522D02*
Y103113D01*
X233465Y12205D02*
X237008D01*
X241317D01*
X192717Y202461D02*
Y206004D01*
Y202461D02*
X193799Y201378D01*
X208858Y189961D02*
Y196260D01*
X82774Y175933D02*
X85923D01*
X79624D02*
X82774D01*
X60411Y72047D02*
Y76421D01*
X50474Y37008D02*
X53543D01*
X136614Y15748D02*
Y20079D01*
Y24409D01*
X272638Y49787D02*
Y56102D01*
X223410Y96457D02*
X245079Y74787D01*
X171653Y96457D02*
X223410D01*
X217520Y174409D02*
X223819D01*
X225787D02*
Y176279D01*
Y165945D02*
Y170078D01*
X148819Y133071D02*
Y138091D01*
X157775Y147047D01*
X176968D01*
X140551Y133071D02*
X148819D01*
X159055Y151575D02*
X169291Y161811D01*
X195276Y180807D02*
Y190453D01*
X195965Y180118D02*
Y180807D01*
X192717Y185925D02*
Y190453D01*
X186909Y180118D02*
X192717Y185925D01*
X169291Y184055D02*
X175689Y190453D01*
X187598D01*
X169291Y161811D02*
Y184055D01*
X102931Y124803D02*
Y150138D01*
X103384Y150591D01*
X104368Y151575D01*
X159055D01*
X171653Y115748D02*
X181102Y106299D01*
X222441D01*
X272638Y56102D01*
D17*
X41399Y215272D02*
X41787Y214884D01*
X41399Y215272D02*
Y218468D01*
X46763Y184892D02*
X49274Y182382D01*
X45019Y184892D02*
X46763D01*
X39451Y209393D02*
X39648D01*
X42171Y211916D01*
X43971Y212550D02*
Y217283D01*
X44288Y217600D01*
X43971Y212550D02*
X47128Y209393D01*
X41399Y218468D02*
X41787Y218081D01*
Y214884D02*
Y218081D01*
Y214884D02*
X42171Y214500D01*
Y211916D02*
Y214500D01*
X39648Y209393D02*
X42488Y206553D01*
X47128Y209393D02*
X47325D01*
X44288Y206553D02*
X47128Y209393D01*
X45528Y188279D02*
X46900Y189650D01*
X45019Y188279D02*
X45528D01*
X44550Y187810D02*
X45019Y188279D01*
X44550Y185361D02*
Y187810D01*
Y185361D02*
X45019Y184892D01*
X40400Y189650D02*
X41772Y188279D01*
X42281D01*
X42750Y187810D01*
Y185526D02*
Y187810D01*
X42116Y184892D02*
X42750Y185526D01*
X38128Y182382D02*
X40638Y184892D01*
X42116D01*
X24902Y180610D02*
X38128D01*
X24803Y187402D02*
X24902Y187303D01*
X24803Y174409D02*
Y180709D01*
X24902Y180610D02*
Y187303D01*
X31201Y178839D02*
X38128D01*
X28740Y176378D02*
X31201Y178839D01*
X33972Y195950D02*
X40400D01*
X33858Y196063D02*
X33972Y195950D01*
X46900D02*
X53430D01*
X53543Y196063D01*
X42488Y198037D02*
Y206553D01*
X40400Y195950D02*
X42488Y198037D01*
X44288Y198562D02*
Y206553D01*
Y198562D02*
X46900Y195950D01*
X34470Y177067D02*
X38128D01*
X31754Y167580D02*
Y174350D01*
X29134Y164961D02*
X31754Y167580D01*
X29134Y161024D02*
Y164961D01*
X31754Y174350D02*
X34470Y177067D01*
X55216D02*
X55905Y176378D01*
X49274Y177067D02*
X55216D01*
X24803Y167323D02*
X25923D01*
X28740Y170140D02*
Y176378D01*
X25923Y167323D02*
X27892Y169291D01*
X28740Y170140D01*
X111907Y204673D02*
Y208610D01*
X107577Y200342D02*
X111907Y204673D01*
X107577Y184594D02*
Y200342D01*
X104034Y184988D02*
Y208610D01*
X103640Y184594D02*
X104034Y184988D01*
X103640Y179870D02*
Y184594D01*
X100785Y177015D02*
X103640Y179870D01*
X100785Y173964D02*
Y177015D01*
X107577Y177901D02*
Y184594D01*
Y177901D02*
X108856Y176622D01*
Y173964D02*
Y176622D01*
Y173964D02*
X110825Y175933D01*
X120175Y177507D02*
Y183019D01*
X118600Y175933D02*
X120175Y177507D01*
X81593Y183413D02*
X87498D01*
X92222Y178689D01*
Y175933D02*
Y178689D01*
X108856Y170027D02*
X118207D01*
X111120Y175933D02*
X118600D01*
X124900Y169633D02*
X124900Y169633D01*
X49076Y218468D02*
X54883D01*
X56163Y219748D01*
X38840Y216028D02*
Y218468D01*
X124900Y169633D02*
Y172783D01*
X124900D02*
Y175933D01*
X99703Y184594D02*
Y189712D01*
X88758Y169712D02*
X89467Y170421D01*
X88758Y124803D02*
Y169712D01*
X92222Y175933D02*
X93482Y174673D01*
Y124803D02*
Y174673D01*
X95472Y175933D02*
X97441Y173964D01*
X92222Y175933D02*
X95472D01*
X97441Y173964D02*
X100785D01*
X111907Y208610D02*
X133510Y187008D01*
X161417D01*
X163819Y189409D01*
Y225394D01*
X104034Y208610D02*
Y213285D01*
X106299Y215551D01*
X117026D01*
X153362Y190453D02*
X154213Y191303D01*
Y201378D01*
Y225000D01*
X122047Y201772D02*
X133366Y190453D01*
X122047Y201772D02*
Y210530D01*
X117026Y215551D02*
X122047Y210530D01*
X133366Y190453D02*
X153362D01*
D21*
X40400Y195950D02*
D03*
Y189650D02*
D03*
X46900Y195950D02*
D03*
Y189650D02*
D03*
X155118Y56693D02*
D03*
Y50394D02*
D03*
X161811Y56693D02*
D03*
Y50394D02*
D03*
X209449Y174409D02*
D03*
Y168110D02*
D03*
X27165Y200394D02*
D03*
Y206693D02*
D03*
X33858Y189764D02*
D03*
Y196063D02*
D03*
X53543Y189764D02*
D03*
Y196063D02*
D03*
X195965Y158858D02*
D03*
Y165157D02*
D03*
D22*
X68758Y8289D02*
D03*
D23*
X73522Y6911D02*
D03*
D24*
X77656D02*
D03*
X81986D02*
D03*
X86317D02*
D03*
X90648D02*
D03*
X94978D02*
D03*
X99309D02*
D03*
X103640D02*
D03*
D25*
X113325Y7403D02*
D03*
D26*
X114014Y45691D02*
D03*
Y31124D02*
D03*
D27*
X100234Y49529D02*
D03*
X76730D02*
D03*
D28*
X38128Y182382D02*
D03*
D29*
Y180610D02*
D03*
Y178839D02*
D03*
Y177067D02*
D03*
Y175295D02*
D03*
Y173524D02*
D03*
X49274D02*
D03*
Y175295D02*
D03*
Y177067D02*
D03*
Y178839D02*
D03*
Y180610D02*
D03*
Y182382D02*
D03*
D30*
X39451Y209393D02*
D03*
X47325D02*
D03*
X39451Y201913D02*
D03*
D31*
X47325Y202700D02*
D03*
D32*
X161024Y63386D02*
D03*
X154724D02*
D03*
X24803Y180709D02*
D03*
X18504D02*
D03*
X24803Y187402D02*
D03*
X18504D02*
D03*
X24803Y174409D02*
D03*
X18504D02*
D03*
X35433Y161024D02*
D03*
X29134D02*
D03*
X16535Y196457D02*
D03*
X10236D02*
D03*
X24803Y167323D02*
D03*
X18504D02*
D03*
X124900Y169633D02*
D03*
X118600D02*
D03*
X118600Y175933D02*
D03*
X124900D02*
D03*
X44488Y62402D02*
D03*
X50787D02*
D03*
X44488Y55709D02*
D03*
X50787D02*
D03*
X136614Y15748D02*
D03*
X130315D02*
D03*
X44488Y49213D02*
D03*
X50787D02*
D03*
X136221Y24803D02*
D03*
X129921D02*
D03*
X241339Y25984D02*
D03*
X235039D02*
D03*
X241339Y19291D02*
D03*
X235039D02*
D03*
X235039Y32283D02*
D03*
X241339D02*
D03*
X171653Y109055D02*
D03*
X165354D02*
D03*
X165354Y115748D02*
D03*
X171653D02*
D03*
X165354Y96457D02*
D03*
X171653D02*
D03*
X171653Y102756D02*
D03*
X165354D02*
D03*
X194193Y215945D02*
D03*
X200492D02*
D03*
X97085Y150591D02*
D03*
X103384D02*
D03*
X221850Y189961D02*
D03*
X228150D02*
D03*
X209646Y128937D02*
D03*
X203346D02*
D03*
X196850D02*
D03*
X190551D02*
D03*
X187825Y215945D02*
D03*
X181526D02*
D03*
X79624Y175933D02*
D03*
X73325D02*
D03*
X44175Y37008D02*
D03*
X50474D02*
D03*
X148819Y122047D02*
D03*
X155118D02*
D03*
X148819Y113779D02*
D03*
X155118D02*
D03*
X185728Y172244D02*
D03*
X179429D02*
D03*
X215551Y182087D02*
D03*
X209252D02*
D03*
X208858Y189961D02*
D03*
X215158D02*
D03*
X221850Y182087D02*
D03*
X228150D02*
D03*
X233465Y12205D02*
D03*
X227165D02*
D03*
X85923Y175933D02*
D03*
X92222D02*
D03*
D33*
X70079Y140990D02*
D03*
X64567Y146457D02*
D03*
X11400Y181299D02*
D03*
X131102Y8661D02*
D03*
X35433Y62598D02*
D03*
X35827Y56009D02*
D03*
X241339Y12226D02*
D03*
X158268Y107858D02*
D03*
X143307Y88976D02*
D03*
X264961Y8661D02*
D03*
X137795Y57087D02*
D03*
X80018Y169240D02*
D03*
X35827Y49213D02*
D03*
X150394Y93685D02*
D03*
X143307Y98819D02*
D03*
X150000Y103543D02*
D03*
X140945Y133465D02*
D03*
X129921Y31496D02*
D03*
X143701Y24803D02*
D03*
X81593Y183413D02*
D03*
X120175Y183019D02*
D03*
X111811Y135433D02*
D03*
X122835Y135039D02*
D03*
D34*
X50651Y161024D02*
D03*
X42384D02*
D03*
X163976Y36614D02*
D03*
X155709D02*
D03*
X307087Y92110D02*
D03*
D35*
X20472Y211059D02*
D03*
X10236D02*
D03*
D36*
X17717Y203937D02*
D03*
X10630D02*
D03*
X228543Y198228D02*
D03*
X221457D02*
D03*
D37*
X43565Y42520D02*
D03*
X49470D02*
D03*
D38*
X164862Y7185D02*
D03*
Y23524D02*
D03*
X156398D02*
D03*
Y7185D02*
D03*
X265650Y17028D02*
D03*
Y33366D02*
D03*
X257185Y17028D02*
D03*
Y33366D02*
D03*
D39*
X252362Y170118D02*
D03*
D40*
X288347Y141811D02*
D03*
D41*
Y194134D02*
D03*
D42*
X215158Y170866D02*
D03*
Y174409D02*
D03*
D43*
X208465Y196653D02*
D03*
X214764D02*
D03*
X220079Y128937D02*
D03*
X226378D02*
D03*
X187402Y20079D02*
D03*
X193701D02*
D03*
D44*
X179823Y180118D02*
D03*
X186909D02*
D03*
D45*
X236122Y148622D02*
D03*
X214272D02*
D03*
D46*
X48108Y102538D02*
D03*
X56840D02*
D03*
X48108Y93947D02*
D03*
X56840D02*
D03*
X96360Y101727D02*
D03*
X107600D02*
D03*
X96360Y90215D02*
D03*
X107600D02*
D03*
D47*
X32065Y124803D02*
D03*
X36789D02*
D03*
X41514D02*
D03*
X46238D02*
D03*
X50963D02*
D03*
X55687D02*
D03*
X60411D02*
D03*
X74585D02*
D03*
X79309D02*
D03*
X84034D02*
D03*
X98207D02*
D03*
X107656D02*
D03*
X121829D02*
D03*
Y72047D02*
D03*
X117104D02*
D03*
X112380D02*
D03*
X107656D02*
D03*
X102931D02*
D03*
X98207D02*
D03*
X93482D02*
D03*
X88758D02*
D03*
X84034D02*
D03*
X79309D02*
D03*
X74585D02*
D03*
X69860D02*
D03*
X65136D02*
D03*
X60411D02*
D03*
X55687D02*
D03*
X50963D02*
D03*
X46238D02*
D03*
X41514D02*
D03*
X36789D02*
D03*
X32065D02*
D03*
X93482Y124803D02*
D03*
X88758D02*
D03*
X117104D02*
D03*
X102931D02*
D03*
X112380D02*
D03*
X69860D02*
D03*
X65136D02*
D03*
D48*
X127502Y98409D02*
D03*
Y93685D02*
D03*
Y88961D02*
D03*
Y84236D02*
D03*
Y74787D02*
D03*
Y122031D02*
D03*
Y107858D02*
D03*
Y103134D02*
D03*
Y79512D02*
D03*
Y117307D02*
D03*
Y112583D02*
D03*
D49*
X176968Y147047D02*
D03*
X184842D02*
D03*
D50*
X180905Y159843D02*
D03*
D51*
X195965Y173031D02*
D03*
Y180118D02*
D03*
D52*
X38840Y218468D02*
D03*
X41399D02*
D03*
X43958D02*
D03*
X46517D02*
D03*
X49076D02*
D03*
D53*
X31754Y219748D02*
D03*
X56163D02*
D03*
D54*
X27817Y229000D02*
D03*
X60100D02*
D03*
D55*
X40612D02*
D03*
X47305D02*
D03*
D56*
X140945Y112970D02*
D03*
Y122813D02*
D03*
D57*
X108856Y170027D02*
D03*
D58*
Y173964D02*
D03*
X100785D02*
D03*
Y170027D02*
D03*
D59*
X138189Y66929D02*
D03*
Y73228D02*
D03*
D60*
X187598Y206004D02*
D03*
X190157D02*
D03*
X192717D02*
D03*
X195276D02*
D03*
Y190453D02*
D03*
X192717D02*
D03*
X190157D02*
D03*
X187598D02*
D03*
D61*
X95766Y184594D02*
D03*
X99703D02*
D03*
X103640D02*
D03*
X107577D02*
D03*
D62*
X90648Y194535D02*
D03*
X112695D02*
D03*
D63*
X227756Y170078D02*
D03*
X225787D02*
D03*
X223819D02*
D03*
D64*
Y174409D02*
D03*
X225787D02*
D03*
X227756D02*
D03*
D72*
X43701Y177953D02*
D03*
D97*
X104821Y171996D02*
D03*
D106*
X188976Y227165D02*
D03*
D107*
X193898D02*
D03*
D108*
X303150Y167126D02*
D03*
D115*
X9843Y23622D02*
D03*
X305118Y212598D02*
D03*
Y23622D02*
D03*
D116*
X35400Y207000D02*
Y212588D01*
X39400Y201862D02*
X39451Y201913D01*
X39203Y201862D02*
X39400D01*
X39451Y201913D02*
Y204228D01*
X36300Y206100D02*
X37579D01*
X39451Y204228D01*
X35400Y207000D02*
X36300Y206100D01*
X20472Y211059D02*
X22799D01*
X27165Y206693D01*
X35093D01*
X35400Y207000D01*
X10630Y183071D02*
Y203937D01*
X10236D02*
Y211059D01*
X15354Y161024D02*
X29134D01*
X74585Y72047D02*
Y76159D01*
X107656Y72047D02*
Y76596D01*
X96360Y101727D02*
X102362D01*
X107600D01*
X96360Y90215D02*
X102362D01*
X107600D01*
X63758Y8289D02*
X68758D01*
X171653Y102756D02*
Y109055D01*
X155512Y113779D02*
Y116929D01*
X158267Y122047D02*
X158267Y122047D01*
X155118Y122047D02*
X158267D01*
X184842Y143405D02*
Y147047D01*
X226456Y129921D02*
X229999D01*
X195964Y155708D02*
X195965Y155709D01*
Y158858D01*
X209252Y181496D02*
Y185039D01*
X74585Y119685D02*
Y124803D01*
X48108Y102538D02*
X56840D01*
X63998D01*
X48108Y93947D02*
X56840D01*
X63927D01*
X32065Y72047D02*
Y78128D01*
X121829Y124803D02*
Y128522D01*
Y67104D02*
Y72047D01*
X127502Y74787D02*
X132299D01*
X136630D01*
X138189Y73228D01*
Y63779D02*
Y66929D01*
X137795Y57087D02*
Y63386D01*
X161811Y50394D02*
X165354D01*
X156398Y7185D02*
Y14173D01*
Y23524D01*
X187402Y20079D02*
Y25984D01*
X193701Y20079D02*
X206024D01*
X265650Y17028D02*
Y33366D01*
Y9350D02*
Y12598D01*
Y17028D01*
X241732Y31890D02*
X244488D01*
X241339Y32283D02*
X241732Y31890D01*
X226535Y12835D02*
Y20591D01*
X113325Y7403D02*
X117793D01*
X81986Y6911D02*
Y11120D01*
X114014Y45691D02*
X117695D01*
X35400Y212588D02*
X38840Y216028D01*
X11417Y164961D02*
X15354Y161024D01*
X11417Y164961D02*
Y180709D01*
X18504D01*
D117*
X10630Y183071D02*
X12992Y180709D01*
X18504Y174409D02*
X24803Y168110D01*
Y167323D02*
Y168110D01*
X35433Y161024D02*
X42384D01*
X96947Y170027D02*
X100785D01*
X95766Y184594D02*
Y189417D01*
X90648Y194535D02*
X94191Y190992D01*
X95766Y189417D01*
X112695Y194535D02*
X117321D01*
X190157Y200098D02*
Y206004D01*
X15354Y167323D02*
X15355Y167323D01*
X18504D01*
X221850Y182087D02*
X225787Y178150D01*
Y176279D02*
Y178150D01*
X230315Y148622D02*
X236122D01*
X225787Y153150D02*
X230315Y148622D01*
X225787Y153150D02*
Y165945D01*
X97085Y145807D02*
Y150591D01*
D118*
X215158Y189961D02*
X221850D01*
X35039Y229000D02*
X40612D01*
X47305D01*
X31754Y219748D02*
Y228689D01*
X27817Y229000D02*
X35039D01*
X47305D02*
X55118D01*
X60100D01*
Y223685D02*
Y229000D01*
X56163Y219748D02*
X60100Y223685D01*
X16535Y196457D02*
Y200000D01*
X16929Y200394D01*
X27165D01*
X18504Y187402D02*
Y190945D01*
X30709Y189764D02*
X33858D01*
X32065Y119073D02*
Y124803D01*
X215551Y174803D02*
Y182087D01*
D119*
X216339Y198228D02*
X221457D01*
D120*
X207677Y193701D02*
D03*
D121*
X218602Y189764D02*
D03*
D122*
X222049Y170202D02*
D03*
D123*
X215846Y174705D02*
D03*
D124*
X200590Y128434D02*
D03*
D125*
X189075Y124508D02*
D03*
D126*
X206535Y20591D02*
D03*
D127*
X211535D02*
D03*
X206535Y25591D02*
D03*
X211535D02*
D03*
X221535D02*
D03*
X216535D02*
D03*
X221535Y20591D02*
D03*
X216535D02*
D03*
X226535D02*
D03*
Y25591D02*
D03*
D128*
X305709Y226969D02*
D03*
X9252D02*
D03*
X305709Y9252D02*
D03*
X9252Y9252D02*
D03*
D129*
X307087Y84236D02*
D03*
Y76362D02*
D03*
X280512Y49787D02*
D03*
X272638D02*
D03*
X264764D02*
D03*
D130*
X111907Y208610D02*
D03*
X104034D02*
D03*
X96159D02*
D03*
X143819Y225394D02*
D03*
X153819D02*
D03*
X163819D02*
D03*
X144213Y201378D02*
D03*
X154213D02*
D03*
X164213D02*
D03*
D131*
X88285Y208610D02*
D03*
X133819Y225394D02*
D03*
X134213Y201378D02*
D03*
D132*
X187598Y125516D02*
D03*
X187402Y119685D02*
D03*
X190551D02*
D03*
X55905Y176378D02*
D03*
X27892Y169291D02*
D03*
X89467Y170421D02*
D03*
X111120Y175933D02*
D03*
X74585Y76159D02*
D03*
X107656Y76596D02*
D03*
X102362Y101727D02*
D03*
Y90215D02*
D03*
X74410Y25197D02*
D03*
X94585D02*
D03*
X90648Y14470D02*
D03*
X63758Y8289D02*
D03*
X81102Y86614D02*
D03*
X99606Y20079D02*
D03*
X207087Y37795D02*
D03*
X217717Y32283D02*
D03*
X172047Y106299D02*
D03*
X155512Y116929D02*
D03*
X158267Y122047D02*
D03*
X184842Y143405D02*
D03*
X229999Y129921D02*
D03*
X195964Y155708D02*
D03*
X209252Y185039D02*
D03*
X182087Y211614D02*
D03*
X214764Y200590D02*
D03*
X70175Y175933D02*
D03*
X43701Y177953D02*
D03*
Y180709D02*
D03*
Y175197D02*
D03*
X53937Y186614D02*
D03*
X50000Y202755D02*
D03*
X35039Y229000D02*
D03*
X55118D02*
D03*
X16535Y200000D02*
D03*
X18504Y190945D02*
D03*
X30709Y189764D02*
D03*
X32065Y119073D02*
D03*
X74585Y119685D02*
D03*
X63998Y102538D02*
D03*
X63927Y93947D02*
D03*
X32065Y78128D02*
D03*
X121829Y128522D02*
D03*
Y67104D02*
D03*
X132299Y74787D02*
D03*
X138189Y63779D02*
D03*
X165354Y50394D02*
D03*
X156398Y14173D02*
D03*
X187402Y25984D02*
D03*
X237008Y12205D02*
D03*
X265650Y12598D02*
D03*
X244488Y31890D02*
D03*
X117793Y7403D02*
D03*
X81986Y11120D02*
D03*
X117695Y45691D02*
D03*
X96947Y170027D02*
D03*
X94191Y190992D02*
D03*
X117321Y194535D02*
D03*
X190157Y200098D02*
D03*
X193799Y201378D02*
D03*
X209752Y192913D02*
D03*
X15354Y167323D02*
D03*
X124900Y172783D02*
D03*
X99703Y189712D02*
D03*
X82774Y175933D02*
D03*
X60411Y76421D02*
D03*
X53543Y37008D02*
D03*
X136614Y20079D02*
D03*
X289173Y140354D02*
D03*
X284842D02*
D03*
X293110D02*
D03*
X296260Y140748D02*
D03*
X280906Y140354D02*
D03*
X297047Y193898D02*
D03*
X280906Y193504D02*
D03*
X247835Y173031D02*
D03*
X248228Y165945D02*
D03*
X292717Y194134D02*
D03*
X285236D02*
D03*
X251378Y173819D02*
D03*
X251378Y165945D02*
D03*
X205512Y192913D02*
D03*
Y188681D02*
D03*
Y196850D02*
D03*
X245079Y74787D02*
D03*
X220472Y171260D02*
D03*
X223221Y169240D02*
D03*
X190551Y125963D02*
D03*
Y123031D02*
D03*
X97085Y145807D02*
D03*
X204724Y215945D02*
D03*
M02*
