G04*
G04 #@! TF.GenerationSoftware,Altium Limited,Altium Designer,21.1.1 (26)*
G04*
G04 Layer_Color=32896*
%FSLAX25Y25*%
%MOIN*%
G70*
G04*
G04 #@! TF.SameCoordinates,D31DAFBF-B6A6-4984-8A5A-3B2B1D04CFA6*
G04*
G04*
G04 #@! TF.FilePolarity,Positive*
G04*
G01*
G75*
%ADD10C,0.00787*%
%ADD146R,0.99410X0.43307*%
G36*
X294291Y124016D02*
X270669D01*
Y127953D01*
X294291D01*
Y124016D01*
D02*
G37*
%LPC*%
G36*
X287026Y126865D02*
Y126829D01*
X286777D01*
Y126593D01*
X286774Y126599D01*
X286764Y126612D01*
X286744Y126635D01*
X286721Y126662D01*
X286692Y126694D01*
X286655Y126727D01*
X286616Y126760D01*
X286570Y126789D01*
X286564Y126793D01*
X286547Y126803D01*
X286521Y126812D01*
X286485Y126829D01*
X286442Y126842D01*
X286393Y126852D01*
X286337Y126862D01*
X286278Y126865D01*
X287026D01*
X286278D01*
D01*
X286249D01*
X286213Y126862D01*
X286173Y126855D01*
X286124Y126845D01*
X286075Y126832D01*
X286026Y126812D01*
X285980Y126786D01*
X285973Y126783D01*
X285960Y126773D01*
X285941Y126757D01*
X285914Y126730D01*
X285888Y126701D01*
X285858Y126665D01*
X285832Y126622D01*
X285812Y126573D01*
X285809Y126576D01*
X285803Y126586D01*
X285793Y126599D01*
X285776Y126619D01*
X285757Y126642D01*
X285734Y126665D01*
X285708Y126691D01*
X285675Y126721D01*
X285639Y126747D01*
X285603Y126773D01*
X285560Y126796D01*
X285514Y126819D01*
X285465Y126839D01*
X285412Y126852D01*
X285360Y126862D01*
X285301Y126865D01*
X285528D01*
X284792D01*
X285278D01*
X285262Y126862D01*
X285239D01*
X285216Y126858D01*
X285160Y126848D01*
X285101Y126832D01*
X285038Y126806D01*
X284976Y126773D01*
X284924Y126727D01*
X284917Y126721D01*
X284904Y126701D01*
X284881Y126671D01*
X284871Y126648D01*
X284858Y126626D01*
X284845Y126596D01*
X284835Y126567D01*
X284822Y126534D01*
X284812Y126494D01*
X284806Y126455D01*
X284799Y126409D01*
X284792Y126363D01*
Y125182D01*
X285071D01*
Y126216D01*
Y126219D01*
Y126222D01*
Y126242D01*
Y126271D01*
X285074Y126307D01*
X285078Y126347D01*
X285081Y126386D01*
X285088Y126425D01*
X285098Y126455D01*
Y126458D01*
X285104Y126468D01*
X285111Y126481D01*
X285121Y126498D01*
X285134Y126517D01*
X285150Y126537D01*
X285170Y126557D01*
X285196Y126576D01*
X285199Y126580D01*
X285209Y126583D01*
X285222Y126589D01*
X285245Y126599D01*
X285268Y126609D01*
X285298Y126616D01*
X285327Y126619D01*
X285363Y126622D01*
X285380D01*
X285393Y126619D01*
X285425Y126616D01*
X285465Y126609D01*
X285511Y126593D01*
X285560Y126573D01*
X285609Y126543D01*
X285655Y126504D01*
X285658Y126498D01*
X285671Y126481D01*
X285691Y126455D01*
X285711Y126416D01*
X285734Y126363D01*
X285750Y126301D01*
X285763Y126225D01*
X285770Y126137D01*
Y125182D01*
X285537D01*
X286049D01*
Y126248D01*
Y126252D01*
Y126258D01*
Y126265D01*
Y126278D01*
X286052Y126314D01*
X286058Y126353D01*
X286065Y126399D01*
X286078Y126445D01*
X286095Y126488D01*
X286118Y126527D01*
X286121Y126530D01*
X286131Y126543D01*
X286147Y126557D01*
X286170Y126576D01*
X286200Y126593D01*
X286239Y126609D01*
X286285Y126619D01*
X286341Y126622D01*
X286360D01*
X286383Y126619D01*
X286409Y126616D01*
X286442Y126606D01*
X286482Y126596D01*
X286518Y126580D01*
X286557Y126560D01*
X286560Y126557D01*
X286574Y126547D01*
X286590Y126534D01*
X286613Y126514D01*
X286636Y126488D01*
X286659Y126455D01*
X286682Y126419D01*
X286701Y126376D01*
X286705Y126370D01*
X286708Y126353D01*
X286715Y126327D01*
X286724Y126291D01*
X286734Y126242D01*
X286741Y126183D01*
X286744Y126114D01*
X286747Y126035D01*
Y125182D01*
X286282D01*
X287026D01*
Y126865D01*
D02*
G37*
G36*
X288883Y126242D02*
Y126029D01*
D01*
Y126242D01*
D02*
G37*
G36*
X282070Y126829D02*
X281775D01*
X281431Y125874D01*
Y125871D01*
X281427Y125868D01*
X281424Y125858D01*
X281421Y125842D01*
X281414Y125825D01*
X281407Y125805D01*
X281391Y125760D01*
X281371Y125704D01*
X281352Y125638D01*
X281332Y125569D01*
X281312Y125494D01*
Y125497D01*
X281309Y125504D01*
X281306Y125514D01*
X281302Y125527D01*
X281299Y125543D01*
X281293Y125563D01*
X281280Y125612D01*
X281263Y125668D01*
X281240Y125733D01*
X281221Y125799D01*
X281194Y125868D01*
X280840Y126829D01*
X280561D01*
Y124516D01*
D01*
Y126829D01*
X281188Y125156D01*
Y125153D01*
X281191Y125143D01*
X281198Y125130D01*
X281204Y125113D01*
X281214Y125091D01*
X281224Y125064D01*
X281247Y125008D01*
X281270Y124946D01*
X281296Y124884D01*
X281322Y124828D01*
X281335Y124805D01*
X281345Y124782D01*
X281348Y124776D01*
X281358Y124759D01*
X281375Y124736D01*
X281394Y124707D01*
X281421Y124674D01*
X281450Y124641D01*
X281480Y124608D01*
X281516Y124582D01*
X281519Y124579D01*
X281532Y124572D01*
X281552Y124562D01*
X281581Y124549D01*
X281614Y124536D01*
X281653Y124526D01*
X281696Y124520D01*
X281745Y124516D01*
X280561D01*
X282070D01*
D01*
X281758D01*
X281775Y124520D01*
X281798D01*
X281824Y124526D01*
X281854Y124533D01*
X281886Y124539D01*
X281923Y124553D01*
X281952Y124812D01*
X281949D01*
X281936Y124808D01*
X281919Y124805D01*
X281899Y124799D01*
X281847Y124789D01*
X281795Y124785D01*
X281778D01*
X281762Y124789D01*
X281742D01*
X281693Y124799D01*
X281670Y124808D01*
X281647Y124818D01*
X281644D01*
X281637Y124825D01*
X281627Y124831D01*
X281614Y124841D01*
X281585Y124867D01*
X281558Y124904D01*
Y124907D01*
X281552Y124913D01*
X281545Y124926D01*
X281539Y124946D01*
X281526Y124972D01*
X281512Y125012D01*
X281493Y125058D01*
X281473Y125113D01*
Y125117D01*
X281467Y125130D01*
X281460Y125153D01*
X281447Y125182D01*
X282070Y126829D01*
D02*
G37*
G36*
X277111Y127452D02*
X275467D01*
Y127183D01*
X276809D01*
Y126491D01*
X275553D01*
Y126222D01*
X276809D01*
Y125451D01*
X275415D01*
Y127452D01*
D01*
Y125182D01*
X277111D01*
Y127452D01*
D02*
G37*
G36*
X275235D02*
X274318D01*
X274906D01*
X274316Y125802D01*
Y125799D01*
X274313Y125792D01*
X274310Y125783D01*
X274303Y125769D01*
X274300Y125750D01*
X274293Y125730D01*
X274277Y125681D01*
X274257Y125625D01*
X274237Y125563D01*
X274198Y125432D01*
Y125435D01*
X274195Y125441D01*
X274191Y125451D01*
X274188Y125464D01*
X274178Y125501D01*
X274162Y125550D01*
X274146Y125605D01*
X274126Y125668D01*
X274103Y125733D01*
X274077Y125802D01*
X273460Y127452D01*
X273155D01*
Y125182D01*
Y127452D01*
X274041Y125182D01*
X273155D01*
X274356D01*
X275235Y127452D01*
D01*
D02*
G37*
G36*
X288883Y126865D02*
X287364D01*
D01*
X288082D01*
X288059Y126862D01*
X288033Y126858D01*
X288000Y126852D01*
X287964Y126845D01*
X287922Y126835D01*
X287882Y126826D01*
X287836Y126809D01*
X287794Y126793D01*
X287748Y126770D01*
X287702Y126744D01*
X287656Y126714D01*
X287613Y126678D01*
X287574Y126639D01*
X287571Y126635D01*
X287564Y126629D01*
X287554Y126616D01*
X287541Y126596D01*
X287525Y126573D01*
X287508Y126547D01*
X287489Y126514D01*
X287469Y126475D01*
X287449Y126432D01*
X287430Y126386D01*
X287413Y126334D01*
X287397Y126278D01*
X287384Y126216D01*
X287374Y126150D01*
X287367Y126081D01*
X287364Y126006D01*
Y125146D01*
Y125966D01*
X287367Y125933D01*
X288597D01*
Y125930D01*
Y125920D01*
X288594Y125907D01*
Y125888D01*
X288591Y125865D01*
X288584Y125838D01*
X288574Y125779D01*
X288555Y125714D01*
X288528Y125642D01*
X288492Y125576D01*
X288446Y125517D01*
X288443D01*
X288440Y125510D01*
X288420Y125494D01*
X288391Y125471D01*
X288351Y125448D01*
X288299Y125422D01*
X288240Y125399D01*
X288174Y125382D01*
X288138Y125379D01*
X288099Y125376D01*
X288072D01*
X288043Y125379D01*
X288007Y125386D01*
X287967Y125396D01*
X287922Y125409D01*
X287879Y125428D01*
X287836Y125454D01*
X287833Y125458D01*
X287817Y125471D01*
X287797Y125491D01*
X287774Y125517D01*
X287748Y125553D01*
X287718Y125599D01*
X287689Y125651D01*
X287663Y125714D01*
X287374Y125678D01*
Y125674D01*
X287377Y125668D01*
X287380Y125655D01*
X287387Y125635D01*
X287397Y125615D01*
X287407Y125589D01*
X287433Y125533D01*
X287466Y125471D01*
X287512Y125405D01*
X287564Y125343D01*
X287630Y125284D01*
X287633D01*
X287639Y125277D01*
X287649Y125271D01*
X287663Y125261D01*
X287682Y125251D01*
X287702Y125241D01*
X287728Y125228D01*
X287758Y125215D01*
X287790Y125202D01*
X287823Y125189D01*
X287905Y125169D01*
X287997Y125153D01*
X288099Y125146D01*
X288135D01*
X288158Y125150D01*
X288187Y125153D01*
X288223Y125159D01*
X288263Y125166D01*
X288305Y125172D01*
X288397Y125199D01*
X288446Y125218D01*
X288492Y125238D01*
X288542Y125264D01*
X288587Y125294D01*
X288630Y125327D01*
X288673Y125366D01*
X288676Y125369D01*
X288683Y125376D01*
X288692Y125389D01*
X288705Y125409D01*
X288722Y125432D01*
X288738Y125458D01*
X288758Y125491D01*
X288778Y125527D01*
X288797Y125569D01*
X288817Y125615D01*
X288833Y125668D01*
X288850Y125724D01*
X288863Y125783D01*
X288873Y125848D01*
X288879Y125917D01*
X288883Y125989D01*
Y126029D01*
X288879Y126058D01*
X288876Y126094D01*
X288873Y126134D01*
X288866Y126179D01*
X288856Y126225D01*
X288830Y126330D01*
X288814Y126383D01*
X288794Y126438D01*
X288768Y126491D01*
X288738Y126540D01*
X288705Y126589D01*
X288669Y126635D01*
X288666Y126639D01*
X288660Y126645D01*
X288647Y126655D01*
X288630Y126671D01*
X288610Y126688D01*
X288584Y126707D01*
X288555Y126730D01*
X288519Y126750D01*
X288482Y126773D01*
X288440Y126793D01*
X288394Y126812D01*
X288345Y126829D01*
X288292Y126845D01*
X288236Y126855D01*
X288177Y126862D01*
X288115Y126865D01*
X288883D01*
D02*
G37*
G36*
X294291Y127452D02*
X292169D01*
Y125182D01*
Y127452D01*
X293097D01*
X292169Y125182D01*
X292510D01*
X292776Y125871D01*
X293727D01*
X293973Y125182D01*
X294291D01*
X293425Y127452D01*
X294291D01*
D01*
D02*
G37*
G36*
X284386D02*
X282959D01*
Y125146D01*
Y125989D01*
X282962Y125960D01*
X282965Y125924D01*
X282969Y125884D01*
X282975Y125838D01*
X282985Y125789D01*
X283011Y125684D01*
X283028Y125628D01*
X283048Y125576D01*
X283070Y125520D01*
X283100Y125471D01*
X283133Y125422D01*
X283169Y125376D01*
X283172Y125373D01*
X283179Y125366D01*
X283189Y125356D01*
X283205Y125340D01*
X283228Y125323D01*
X283251Y125304D01*
X283277Y125284D01*
X283310Y125261D01*
X283346Y125241D01*
X283382Y125218D01*
X283471Y125182D01*
X283517Y125166D01*
X283566Y125156D01*
X283618Y125150D01*
X283671Y125146D01*
X283684D01*
X283700Y125150D01*
X283720D01*
X283743Y125153D01*
X283772Y125159D01*
X283838Y125176D01*
X283874Y125189D01*
X283910Y125205D01*
X283949Y125225D01*
X283986Y125248D01*
X284025Y125277D01*
X284061Y125310D01*
X284094Y125346D01*
X284127Y125389D01*
Y125182D01*
X284386D01*
Y127452D01*
D02*
G37*
G36*
X282621D02*
X282342D01*
Y125182D01*
X282621D01*
Y127452D01*
D02*
G37*
G36*
X279400D02*
X278347D01*
X278321Y127449D01*
X278292D01*
X278223Y127445D01*
X278151Y127436D01*
X278072Y127426D01*
X278000Y127409D01*
X277963Y127400D01*
X277934Y127390D01*
X277931D01*
X277927Y127386D01*
X277908Y127377D01*
X277878Y127364D01*
X277842Y127340D01*
X277803Y127311D01*
X277760Y127272D01*
X277721Y127226D01*
X277681Y127173D01*
Y127170D01*
X277678Y127167D01*
X277665Y127147D01*
X277652Y127114D01*
X277632Y127072D01*
X277616Y127022D01*
X277599Y126963D01*
X277590Y126901D01*
X277586Y126832D01*
Y126829D01*
Y126822D01*
Y126809D01*
X277590Y126793D01*
Y126770D01*
X277593Y126747D01*
X277606Y126691D01*
X277626Y126626D01*
X277652Y126557D01*
X277691Y126488D01*
X277717Y126455D01*
X277744Y126422D01*
X277747Y126419D01*
X277750Y126416D01*
X277760Y126406D01*
X277773Y126396D01*
X277790Y126383D01*
X277809Y126370D01*
X277836Y126353D01*
X277862Y126334D01*
X277895Y126317D01*
X277931Y126301D01*
X277970Y126281D01*
X278013Y126265D01*
X278062Y126252D01*
X278111Y126235D01*
X278167Y126225D01*
X278226Y126216D01*
X278219Y126212D01*
X278206Y126206D01*
X278186Y126192D01*
X278160Y126179D01*
X278101Y126143D01*
X278072Y126120D01*
X278046Y126101D01*
X278039Y126094D01*
X278023Y126078D01*
X277996Y126051D01*
X277963Y126019D01*
X277927Y125973D01*
X277885Y125924D01*
X277842Y125865D01*
X277796Y125799D01*
X277406Y125182D01*
X277780D01*
X278078Y125655D01*
Y125658D01*
X278085Y125664D01*
X278091Y125674D01*
X278101Y125687D01*
X278124Y125724D01*
X278154Y125769D01*
X278190Y125819D01*
X278226Y125871D01*
X278262Y125920D01*
X278295Y125966D01*
X278298Y125970D01*
X278308Y125983D01*
X278324Y126002D01*
X278347Y126025D01*
X278397Y126075D01*
X278423Y126097D01*
X278449Y126117D01*
X278452Y126120D01*
X278459Y126124D01*
X278472Y126130D01*
X278492Y126140D01*
X278511Y126150D01*
X278534Y126160D01*
X278587Y126176D01*
X278590D01*
X278596Y126179D01*
X278610D01*
X278626Y126183D01*
X278649Y126186D01*
X278675D01*
X278711Y126189D01*
X279098D01*
Y125182D01*
X279400D01*
Y127452D01*
D02*
G37*
G36*
X277406D02*
D01*
Y125182D01*
Y127452D01*
D01*
D02*
G37*
G36*
X272840Y125501D02*
X272522D01*
Y125182D01*
X272840D01*
Y125501D01*
D02*
G37*
G36*
X292074Y126865D02*
X290706D01*
X291392D01*
X291356Y126862D01*
X291306Y126858D01*
X291254Y126852D01*
X291198Y126839D01*
X291139Y126826D01*
X291084Y126806D01*
X291080D01*
X291077Y126803D01*
X291060Y126796D01*
X291034Y126783D01*
X291002Y126767D01*
X290965Y126744D01*
X290929Y126717D01*
X290897Y126688D01*
X290867Y126655D01*
X290864Y126652D01*
X290857Y126639D01*
X290844Y126616D01*
X290828Y126589D01*
X290811Y126550D01*
X290795Y126507D01*
X290782Y126458D01*
X290769Y126402D01*
X291041Y126366D01*
Y126373D01*
X291044Y126386D01*
X291051Y126409D01*
X291060Y126438D01*
X291077Y126468D01*
X291097Y126501D01*
X291120Y126534D01*
X291152Y126563D01*
X291156Y126567D01*
X291169Y126573D01*
X291189Y126586D01*
X291218Y126599D01*
X291251Y126612D01*
X291293Y126626D01*
X291346Y126632D01*
X291402Y126635D01*
X291435D01*
X291467Y126632D01*
X291510Y126629D01*
X291552Y126619D01*
X291599Y126609D01*
X291641Y126593D01*
X291677Y126570D01*
X291681Y126567D01*
X291690Y126560D01*
X291703Y126547D01*
X291717Y126527D01*
X291733Y126507D01*
X291746Y126481D01*
X291756Y126452D01*
X291759Y126422D01*
Y126419D01*
Y126412D01*
X291756Y126402D01*
Y126389D01*
X291746Y126356D01*
X291726Y126324D01*
X291723Y126321D01*
X291720Y126317D01*
X291713Y126307D01*
X291700Y126297D01*
X291687Y126288D01*
X291667Y126275D01*
X291644Y126265D01*
X291618Y126252D01*
X291615D01*
X291608Y126248D01*
X291595Y126245D01*
X291572Y126235D01*
X291539Y126225D01*
X291497Y126216D01*
X291471Y126206D01*
X291441Y126199D01*
X291408Y126189D01*
X291372Y126179D01*
X291369D01*
X291359Y126176D01*
X291343Y126173D01*
X291323Y126166D01*
X291300Y126160D01*
X291270Y126153D01*
X291208Y126134D01*
X291139Y126114D01*
X291070Y126091D01*
X291008Y126068D01*
X290982Y126058D01*
X290959Y126048D01*
X290952Y126045D01*
X290939Y126038D01*
X290919Y126029D01*
X290890Y126012D01*
X290861Y125993D01*
X290831Y125966D01*
X290801Y125937D01*
X290775Y125904D01*
X290772Y125901D01*
X290765Y125888D01*
X290752Y125868D01*
X290739Y125838D01*
X290729Y125802D01*
X290716Y125763D01*
X290710Y125717D01*
X290706Y125664D01*
Y125642D01*
X290710Y125615D01*
X290716Y125579D01*
X290726Y125540D01*
X290742Y125497D01*
X290762Y125448D01*
X290788Y125402D01*
X290792Y125396D01*
X290805Y125382D01*
X290821Y125359D01*
X290847Y125333D01*
X290883Y125304D01*
X290923Y125271D01*
X290969Y125241D01*
X291024Y125212D01*
X291028D01*
X291031Y125208D01*
X291051Y125202D01*
X291084Y125192D01*
X291126Y125179D01*
X291179Y125166D01*
X291238Y125156D01*
X291300Y125150D01*
X291372Y125146D01*
X291402D01*
X291425Y125150D01*
X291451D01*
X291484Y125153D01*
X291516Y125156D01*
X291552Y125163D01*
X291631Y125179D01*
X291713Y125202D01*
X291792Y125235D01*
X291828Y125254D01*
X291861Y125277D01*
X291864Y125281D01*
X291867Y125284D01*
X291887Y125304D01*
X291917Y125333D01*
X291949Y125379D01*
X291986Y125435D01*
X292022Y125501D01*
X292051Y125582D01*
X292074Y125674D01*
X291798Y125717D01*
Y125714D01*
Y125710D01*
X291792Y125691D01*
X291785Y125658D01*
X291772Y125622D01*
X291756Y125582D01*
X291736Y125540D01*
X291707Y125497D01*
X291671Y125461D01*
X291664Y125458D01*
X291651Y125448D01*
X291625Y125435D01*
X291592Y125418D01*
X291549Y125402D01*
X291500Y125389D01*
X291441Y125379D01*
X291372Y125376D01*
X291339D01*
X291306Y125379D01*
X291264Y125386D01*
X291218Y125396D01*
X291169Y125409D01*
X291126Y125425D01*
X291087Y125451D01*
X291084Y125454D01*
X291070Y125464D01*
X291057Y125481D01*
X291038Y125504D01*
X291021Y125530D01*
X291005Y125563D01*
X290995Y125596D01*
X290992Y125635D01*
Y125638D01*
Y125651D01*
X290995Y125668D01*
X291002Y125691D01*
X291011Y125714D01*
X291028Y125737D01*
X291047Y125763D01*
X291077Y125783D01*
X291080Y125786D01*
X291090Y125789D01*
X291107Y125799D01*
X291133Y125809D01*
X291172Y125822D01*
X291195Y125832D01*
X291221Y125838D01*
X291251Y125848D01*
X291284Y125858D01*
X291320Y125868D01*
X291362Y125878D01*
X291366D01*
X291375Y125881D01*
X291392Y125884D01*
X291411Y125891D01*
X291438Y125897D01*
X291467Y125907D01*
X291530Y125924D01*
X291602Y125946D01*
X291671Y125966D01*
X291736Y125989D01*
X291766Y126002D01*
X291789Y126012D01*
X291795Y126015D01*
X291808Y126022D01*
X291828Y126035D01*
X291854Y126051D01*
X291884Y126075D01*
X291913Y126101D01*
X291943Y126130D01*
X291969Y126166D01*
X291972Y126170D01*
X291979Y126183D01*
X291989Y126206D01*
X291999Y126232D01*
X292008Y126265D01*
X292018Y126304D01*
X292025Y126343D01*
X292028Y126389D01*
Y126396D01*
Y126409D01*
X292025Y126429D01*
X292022Y126458D01*
X292015Y126488D01*
X292008Y126524D01*
X291995Y126557D01*
X291979Y126593D01*
X291976Y126596D01*
X291969Y126609D01*
X291959Y126626D01*
X291943Y126648D01*
X291923Y126671D01*
X291900Y126701D01*
X291874Y126727D01*
X291841Y126750D01*
X291838Y126753D01*
X291828Y126757D01*
X291815Y126767D01*
X291795Y126776D01*
X291769Y126789D01*
X291740Y126803D01*
X291703Y126816D01*
X291664Y126829D01*
X291657Y126832D01*
X291644Y126835D01*
X291621Y126842D01*
X291592Y126848D01*
X291556Y126855D01*
X291516Y126858D01*
X291471Y126865D01*
X292074D01*
D02*
G37*
G36*
X290487D02*
X289119D01*
X289804D01*
X289768Y126862D01*
X289719Y126858D01*
X289667Y126852D01*
X289611Y126839D01*
X289552Y126826D01*
X289496Y126806D01*
X289493D01*
X289489Y126803D01*
X289473Y126796D01*
X289447Y126783D01*
X289414Y126767D01*
X289378Y126744D01*
X289342Y126717D01*
X289309Y126688D01*
X289280Y126655D01*
X289276Y126652D01*
X289270Y126639D01*
X289257Y126616D01*
X289240Y126589D01*
X289224Y126550D01*
X289207Y126507D01*
X289194Y126458D01*
X289181Y126402D01*
X289453Y126366D01*
Y126373D01*
X289457Y126386D01*
X289463Y126409D01*
X289473Y126438D01*
X289489Y126468D01*
X289509Y126501D01*
X289532Y126534D01*
X289565Y126563D01*
X289568Y126567D01*
X289581Y126573D01*
X289601Y126586D01*
X289631Y126599D01*
X289663Y126612D01*
X289706Y126626D01*
X289758Y126632D01*
X289814Y126635D01*
X289847D01*
X289880Y126632D01*
X289922Y126629D01*
X289965Y126619D01*
X290011Y126609D01*
X290054Y126593D01*
X290090Y126570D01*
X290093Y126567D01*
X290103Y126560D01*
X290116Y126547D01*
X290129Y126527D01*
X290145Y126507D01*
X290159Y126481D01*
X290168Y126452D01*
X290172Y126422D01*
Y126419D01*
Y126412D01*
X290168Y126402D01*
Y126389D01*
X290159Y126356D01*
X290139Y126324D01*
X290136Y126321D01*
X290132Y126317D01*
X290126Y126307D01*
X290113Y126297D01*
X290100Y126288D01*
X290080Y126275D01*
X290057Y126265D01*
X290031Y126252D01*
X290027D01*
X290021Y126248D01*
X290008Y126245D01*
X289985Y126235D01*
X289952Y126225D01*
X289909Y126216D01*
X289883Y126206D01*
X289854Y126199D01*
X289821Y126189D01*
X289785Y126179D01*
X289781D01*
X289772Y126176D01*
X289755Y126173D01*
X289735Y126166D01*
X289713Y126160D01*
X289683Y126153D01*
X289621Y126134D01*
X289552Y126114D01*
X289483Y126091D01*
X289421Y126068D01*
X289394Y126058D01*
X289371Y126048D01*
X289365Y126045D01*
X289352Y126038D01*
X289332Y126029D01*
X289302Y126012D01*
X289273Y125993D01*
X289243Y125966D01*
X289214Y125937D01*
X289188Y125904D01*
X289184Y125901D01*
X289178Y125888D01*
X289165Y125868D01*
X289152Y125838D01*
X289142Y125802D01*
X289129Y125763D01*
X289122Y125717D01*
X289119Y125664D01*
Y125642D01*
X289122Y125615D01*
X289129Y125579D01*
X289139Y125540D01*
X289155Y125497D01*
X289175Y125448D01*
X289201Y125402D01*
X289204Y125396D01*
X289217Y125382D01*
X289234Y125359D01*
X289260Y125333D01*
X289296Y125304D01*
X289335Y125271D01*
X289381Y125241D01*
X289437Y125212D01*
X289440D01*
X289443Y125208D01*
X289463Y125202D01*
X289496Y125192D01*
X289539Y125179D01*
X289591Y125166D01*
X289650Y125156D01*
X289713Y125150D01*
X289785Y125146D01*
X289814D01*
X289837Y125150D01*
X289863D01*
X289896Y125153D01*
X289929Y125156D01*
X289965Y125163D01*
X290044Y125179D01*
X290126Y125202D01*
X290205Y125235D01*
X290241Y125254D01*
X290273Y125277D01*
X290277Y125281D01*
X290280Y125284D01*
X290300Y125304D01*
X290329Y125333D01*
X290362Y125379D01*
X290398Y125435D01*
X290434Y125501D01*
X290464Y125582D01*
X290487Y125674D01*
X290211Y125717D01*
Y125714D01*
Y125710D01*
X290205Y125691D01*
X290198Y125658D01*
X290185Y125622D01*
X290168Y125582D01*
X290149Y125540D01*
X290119Y125497D01*
X290083Y125461D01*
X290076Y125458D01*
X290063Y125448D01*
X290037Y125435D01*
X290004Y125418D01*
X289962Y125402D01*
X289913Y125389D01*
X289854Y125379D01*
X289785Y125376D01*
X289752D01*
X289719Y125379D01*
X289676Y125386D01*
X289631Y125396D01*
X289581Y125409D01*
X289539Y125425D01*
X289499Y125451D01*
X289496Y125454D01*
X289483Y125464D01*
X289470Y125481D01*
X289450Y125504D01*
X289434Y125530D01*
X289417Y125563D01*
X289407Y125596D01*
X289404Y125635D01*
Y125638D01*
Y125651D01*
X289407Y125668D01*
X289414Y125691D01*
X289424Y125714D01*
X289440Y125737D01*
X289460Y125763D01*
X289489Y125783D01*
X289493Y125786D01*
X289503Y125789D01*
X289519Y125799D01*
X289545Y125809D01*
X289584Y125822D01*
X289608Y125832D01*
X289634Y125838D01*
X289663Y125848D01*
X289696Y125858D01*
X289732Y125868D01*
X289775Y125878D01*
X289778D01*
X289788Y125881D01*
X289804Y125884D01*
X289824Y125891D01*
X289850Y125897D01*
X289880Y125907D01*
X289942Y125924D01*
X290014Y125946D01*
X290083Y125966D01*
X290149Y125989D01*
X290178Y126002D01*
X290201Y126012D01*
X290208Y126015D01*
X290221Y126022D01*
X290241Y126035D01*
X290267Y126051D01*
X290296Y126075D01*
X290326Y126101D01*
X290355Y126130D01*
X290382Y126166D01*
X290385Y126170D01*
X290391Y126183D01*
X290401Y126206D01*
X290411Y126232D01*
X290421Y126265D01*
X290431Y126304D01*
X290437Y126343D01*
X290441Y126389D01*
Y126396D01*
Y126409D01*
X290437Y126429D01*
X290434Y126458D01*
X290427Y126488D01*
X290421Y126524D01*
X290408Y126557D01*
X290391Y126593D01*
X290388Y126596D01*
X290382Y126609D01*
X290372Y126626D01*
X290355Y126648D01*
X290336Y126671D01*
X290313Y126701D01*
X290286Y126727D01*
X290254Y126750D01*
X290250Y126753D01*
X290241Y126757D01*
X290227Y126767D01*
X290208Y126776D01*
X290181Y126789D01*
X290152Y126803D01*
X290116Y126816D01*
X290076Y126829D01*
X290070Y126832D01*
X290057Y126835D01*
X290034Y126842D01*
X290004Y126848D01*
X289968Y126855D01*
X289929Y126858D01*
X289883Y126865D01*
X290487D01*
D02*
G37*
%LPD*%
G36*
X288145Y126632D02*
X288181Y126629D01*
X288223Y126619D01*
X288276Y126602D01*
X288332Y126580D01*
X288384Y126547D01*
X288437Y126504D01*
X288443Y126498D01*
X288456Y126481D01*
X288479Y126452D01*
X288502Y126412D01*
X288528Y126366D01*
X288551Y126307D01*
X288571Y126238D01*
X288581Y126163D01*
X287659D01*
Y126166D01*
Y126173D01*
X287663Y126183D01*
Y126196D01*
X287669Y126235D01*
X287679Y126278D01*
X287695Y126330D01*
X287712Y126380D01*
X287738Y126429D01*
X287767Y126471D01*
Y126475D01*
X287774Y126478D01*
X287790Y126498D01*
X287820Y126524D01*
X287859Y126553D01*
X287909Y126583D01*
X287967Y126609D01*
X288036Y126629D01*
X288072Y126632D01*
X288112Y126635D01*
X288131D01*
X288145Y126632D01*
D02*
G37*
G36*
X293268Y127213D02*
X293271Y127206D01*
Y127193D01*
X293278Y127180D01*
X293281Y127157D01*
X293288Y127134D01*
X293301Y127078D01*
X293317Y127013D01*
X293340Y126940D01*
X293363Y126862D01*
X293393Y126780D01*
X293639Y126117D01*
X292871D01*
X293107Y126740D01*
Y126744D01*
X293110Y126753D01*
X293117Y126770D01*
X293124Y126789D01*
X293133Y126812D01*
X293143Y126842D01*
X293153Y126875D01*
X293166Y126908D01*
X293193Y126983D01*
X293219Y127062D01*
X293245Y127140D01*
X293268Y127216D01*
Y127213D01*
D02*
G37*
G36*
X284107Y126642D02*
X284104Y126645D01*
X284100Y126652D01*
X284090Y126662D01*
X284074Y126678D01*
X284058Y126694D01*
X284038Y126714D01*
X284012Y126734D01*
X283986Y126753D01*
X283920Y126796D01*
X283844Y126829D01*
X283802Y126845D01*
X283756Y126855D01*
X283707Y126862D01*
X283658Y126865D01*
X283631D01*
X283602Y126862D01*
X283566Y126858D01*
X283523Y126848D01*
X283474Y126839D01*
X283421Y126822D01*
X283372Y126803D01*
X283366Y126799D01*
X283349Y126793D01*
X283323Y126776D01*
X283294Y126757D01*
X283257Y126734D01*
X283221Y126704D01*
X283182Y126668D01*
X283149Y126629D01*
X283146Y126626D01*
X283136Y126609D01*
X283120Y126586D01*
X283100Y126557D01*
X283077Y126517D01*
X283054Y126471D01*
X283031Y126419D01*
X283011Y126363D01*
Y126360D01*
X283008Y126356D01*
X283005Y126347D01*
X283002Y126337D01*
X282995Y126304D01*
X282985Y126261D01*
X282975Y126212D01*
X282965Y126156D01*
X282962Y126094D01*
X282959Y126029D01*
Y127452D01*
X284107D01*
Y126642D01*
D02*
G37*
G36*
X283713Y126632D02*
X283749Y126626D01*
X283792Y126616D01*
X283841Y126596D01*
X283894Y126567D01*
X283920Y126550D01*
X283946Y126527D01*
X283973Y126504D01*
X283999Y126475D01*
Y126471D01*
X284005Y126468D01*
X284012Y126458D01*
X284018Y126445D01*
X284028Y126429D01*
X284041Y126409D01*
X284051Y126386D01*
X284064Y126360D01*
X284077Y126327D01*
X284087Y126294D01*
X284100Y126255D01*
X284110Y126216D01*
X284117Y126170D01*
X284123Y126120D01*
X284130Y126071D01*
Y126015D01*
Y126012D01*
Y126002D01*
Y125986D01*
Y125966D01*
X284127Y125943D01*
Y125914D01*
X284120Y125851D01*
X284110Y125783D01*
X284097Y125710D01*
X284077Y125645D01*
X284064Y125615D01*
X284051Y125589D01*
Y125586D01*
X284045Y125579D01*
X284038Y125569D01*
X284028Y125556D01*
X283999Y125520D01*
X283956Y125484D01*
X283907Y125445D01*
X283844Y125409D01*
X283812Y125396D01*
X283772Y125386D01*
X283736Y125379D01*
X283694Y125376D01*
X283677D01*
X283664Y125379D01*
X283628Y125386D01*
X283585Y125396D01*
X283536Y125415D01*
X283484Y125441D01*
X283431Y125481D01*
X283405Y125507D01*
X283379Y125533D01*
Y125537D01*
X283372Y125540D01*
X283366Y125550D01*
X283359Y125563D01*
X283346Y125579D01*
X283336Y125599D01*
X283323Y125625D01*
X283310Y125651D01*
X283300Y125684D01*
X283287Y125717D01*
X283274Y125756D01*
X283264Y125799D01*
X283257Y125845D01*
X283251Y125894D01*
X283244Y125950D01*
Y126006D01*
Y126009D01*
Y126019D01*
Y126035D01*
X283248Y126058D01*
Y126084D01*
X283251Y126117D01*
X283261Y126186D01*
X283274Y126261D01*
X283297Y126343D01*
X283330Y126416D01*
X283349Y126452D01*
X283372Y126481D01*
Y126484D01*
X283379Y126488D01*
X283395Y126504D01*
X283421Y126530D01*
X283457Y126560D01*
X283503Y126586D01*
X283556Y126612D01*
X283618Y126629D01*
X283651Y126635D01*
X283700D01*
X283713Y126632D01*
D02*
G37*
G36*
X279098Y126448D02*
X278423D01*
X278383Y126452D01*
X278337Y126455D01*
X278285Y126458D01*
X278233Y126465D01*
X278180Y126475D01*
X278134Y126488D01*
X278128Y126491D01*
X278114Y126498D01*
X278095Y126507D01*
X278068Y126521D01*
X278039Y126540D01*
X278009Y126563D01*
X277980Y126593D01*
X277957Y126626D01*
X277954Y126629D01*
X277947Y126642D01*
X277937Y126662D01*
X277924Y126688D01*
X277914Y126717D01*
X277905Y126750D01*
X277898Y126789D01*
X277895Y126829D01*
Y126832D01*
Y126835D01*
X277898Y126855D01*
X277901Y126885D01*
X277908Y126924D01*
X277924Y126963D01*
X277944Y127009D01*
X277973Y127052D01*
X278013Y127094D01*
X278019Y127098D01*
X278036Y127111D01*
X278062Y127127D01*
X278104Y127147D01*
X278154Y127167D01*
X278219Y127183D01*
X278295Y127196D01*
X278383Y127199D01*
X279098D01*
Y126448D01*
D02*
G37*
D10*
X260567Y154602D02*
X258206D01*
X259386D01*
Y151060D01*
X255254D02*
X256434D01*
X257025Y151650D01*
Y152831D01*
X256434Y153421D01*
X255254D01*
X254663Y152831D01*
Y152241D01*
X257025D01*
X252892Y153421D02*
X251712D01*
X251121Y152831D01*
Y151060D01*
X252892D01*
X253483Y151650D01*
X252892Y152241D01*
X251121D01*
X249940Y151060D02*
Y153421D01*
X249350D01*
X248760Y152831D01*
Y151060D01*
Y152831D01*
X248169Y153421D01*
X247579Y152831D01*
Y151060D01*
X240495Y154012D02*
X241085Y154602D01*
X242266D01*
X242856Y154012D01*
Y151650D01*
X242266Y151060D01*
X241085D01*
X240495Y151650D01*
X236952Y151060D02*
X237543Y151650D01*
X238133Y151060D01*
X238724D01*
X239314Y151650D01*
Y152241D01*
X238724Y152831D01*
X239314Y153421D01*
Y154012D01*
X238724Y154602D01*
X238133D01*
X237543Y154012D01*
Y153421D01*
X238133Y152831D01*
X237543Y152241D01*
Y151650D01*
X236952Y152831D02*
X237543Y152241D01*
X238724Y152831D02*
X238133D01*
X235772Y154602D02*
Y151060D01*
Y152241D01*
X233410Y154602D01*
X235181Y152831D01*
X233410Y151060D01*
X228688D02*
Y154602D01*
X226916D01*
X226326Y154012D01*
Y152831D01*
X226916Y152241D01*
X228688D01*
X222784Y154012D02*
X223374Y154602D01*
X224555D01*
X225145Y154012D01*
Y151650D01*
X224555Y151060D01*
X223374D01*
X222784Y151650D01*
X221603Y154602D02*
Y151060D01*
X219832D01*
X219242Y151650D01*
Y152241D01*
X219832Y152831D01*
X221603D01*
X219832D01*
X219242Y153421D01*
Y154012D01*
X219832Y154602D01*
X221603D01*
X258206Y147871D02*
X258796Y148462D01*
X259977D01*
X260567Y147871D01*
Y147281D01*
X259977Y146691D01*
X258796D01*
X258206Y146100D01*
Y145510D01*
X258796Y144920D01*
X259977D01*
X260567Y145510D01*
X257025Y144920D02*
X255844D01*
X256434D01*
Y147281D01*
X257025D01*
X254073Y144920D02*
Y147281D01*
X253483D01*
X252892Y146691D01*
Y144920D01*
Y146691D01*
X252302Y147281D01*
X251712Y146691D01*
Y144920D01*
X249940D02*
X248760D01*
X248169Y145510D01*
Y146691D01*
X248760Y147281D01*
X249940D01*
X250531Y146691D01*
Y145510D01*
X249940Y144920D01*
X246989D02*
Y147281D01*
X245218D01*
X244627Y146691D01*
Y144920D01*
X237543Y147871D02*
X238133Y148462D01*
X239314D01*
X239904Y147871D01*
Y147281D01*
X239314Y146691D01*
X238133D01*
X237543Y146100D01*
Y145510D01*
X238133Y144920D01*
X239314D01*
X239904Y145510D01*
X235772Y147281D02*
X234591D01*
X234001Y146691D01*
Y144920D01*
X235772D01*
X236362Y145510D01*
X235772Y146100D01*
X234001D01*
X232820Y147281D02*
Y145510D01*
X232230Y144920D01*
X230459D01*
Y144329D01*
X231049Y143739D01*
X231639D01*
X230459Y144920D02*
Y147281D01*
X229278Y144920D02*
X227507D01*
X226916Y145510D01*
X227507Y146100D01*
X228688D01*
X229278Y146691D01*
X228688Y147281D01*
X226916D01*
X219832Y147871D02*
X220422Y148462D01*
X221603D01*
X222194Y147871D01*
Y145510D01*
X221603Y144920D01*
X220422D01*
X219832Y145510D01*
Y146691D01*
X221013D01*
X218061Y147281D02*
X216880D01*
X216290Y146691D01*
Y144920D01*
X218061D01*
X218651Y145510D01*
X218061Y146100D01*
X216290D01*
X215109Y144920D02*
Y147281D01*
X214519D01*
X213929Y146691D01*
Y144920D01*
Y146691D01*
X213338Y147281D01*
X212748Y146691D01*
Y144920D01*
X209796D02*
X210977D01*
X211567Y145510D01*
Y146691D01*
X210977Y147281D01*
X209796D01*
X209206Y146691D01*
Y146100D01*
X211567D01*
X260567Y137598D02*
Y141141D01*
X258796D01*
X258206Y140550D01*
Y139369D01*
X258796Y138779D01*
X260567D01*
X259386D02*
X258206Y137598D01*
X254663Y141141D02*
X257025D01*
Y137598D01*
X254663D01*
X257025Y139369D02*
X255844D01*
X253483Y141141D02*
Y138779D01*
X252302Y137598D01*
X251121Y138779D01*
Y141141D01*
X249940Y137598D02*
Y138189D01*
X249350D01*
Y137598D01*
X249940D01*
X246989D02*
X245808D01*
X246398D01*
Y141141D01*
X246989Y140550D01*
X244037Y137598D02*
Y138189D01*
X243446D01*
Y137598D01*
X244037D01*
X241085Y140550D02*
X240495Y141141D01*
X239314D01*
X238724Y140550D01*
Y138189D01*
X239314Y137598D01*
X240495D01*
X241085Y138189D01*
Y140550D01*
X237543Y137598D02*
Y138189D01*
X236952D01*
Y137598D01*
X237543D01*
X234591Y140550D02*
X234001Y141141D01*
X232820D01*
X232230Y140550D01*
Y138189D01*
X232820Y137598D01*
X234001D01*
X234591Y138189D01*
Y140550D01*
D146*
X244587Y101378D02*
D03*
M02*
