G04*
G04 #@! TF.GenerationSoftware,Altium Limited,Altium Designer,21.1.1 (26)*
G04*
G04 Layer_Color=8388736*
%FSLAX25Y25*%
%MOIN*%
G70*
G04*
G04 #@! TF.SameCoordinates,969F4329-1E93-4840-8548-A094FB753E80*
G04*
G04*
G04 #@! TF.FilePolarity,Negative*
G04*
G01*
G75*
%ADD28R,0.03306X0.00876*%
G04:AMPARAMS|DCode=29|XSize=33.06mil|YSize=8.76mil|CornerRadius=4.38mil|HoleSize=0mil|Usage=FLASHONLY|Rotation=0.000|XOffset=0mil|YOffset=0mil|HoleType=Round|Shape=RoundedRectangle|*
%AMROUNDEDRECTD29*
21,1,0.03306,0.00000,0,0,0.0*
21,1,0.02430,0.00876,0,0,0.0*
1,1,0.00876,0.01215,0.00000*
1,1,0.00876,-0.01215,0.00000*
1,1,0.00876,-0.01215,0.00000*
1,1,0.00876,0.01215,0.00000*
%
%ADD29ROUNDEDRECTD29*%
%ADD33C,0.05000*%
%ADD39R,0.15984X0.12992*%
%ADD40R,0.25000X0.15000*%
%ADD41R,0.25000X0.12992*%
%ADD45R,0.07284X0.13386*%
%ADD57R,0.03231X0.01341*%
G04:AMPARAMS|DCode=58|XSize=32.31mil|YSize=13.41mil|CornerRadius=6.71mil|HoleSize=0mil|Usage=FLASHONLY|Rotation=180.000|XOffset=0mil|YOffset=0mil|HoleType=Round|Shape=RoundedRectangle|*
%AMROUNDEDRECTD58*
21,1,0.03231,0.00000,0,0,180.0*
21,1,0.01890,0.01341,0,0,180.0*
1,1,0.01341,-0.00945,0.00000*
1,1,0.01341,0.00945,0.00000*
1,1,0.01341,0.00945,0.00000*
1,1,0.01341,-0.00945,0.00000*
%
%ADD58ROUNDEDRECTD58*%
%ADD60R,0.01772X0.05315*%
%ADD65R,0.04337X0.03943*%
%ADD66R,0.05006X0.07487*%
%ADD67R,0.03353X0.04731*%
%ADD68R,0.03747X0.04731*%
%ADD69R,0.06502X0.05715*%
%ADD70R,0.05124X0.04337*%
%ADD71R,0.07880X0.05715*%
%ADD72R,0.06496X0.10039*%
%ADD73R,0.03156X0.02762*%
%ADD74R,0.03156X0.04337*%
%ADD75R,0.03943X0.04337*%
%ADD76C,0.10000*%
%ADD77R,0.05124X0.05124*%
%ADD78R,0.05912X0.04337*%
%ADD79R,0.04928X0.06109*%
%ADD80R,0.03550X0.03550*%
%ADD81R,0.02959X0.04534*%
%ADD82R,0.02565X0.02172*%
%ADD83R,0.04140X0.05715*%
%ADD84R,0.04731X0.04731*%
%ADD85R,0.08874X0.08874*%
%ADD86R,0.08274X0.08274*%
%ADD87R,0.03156X0.05124*%
%ADD88R,0.05124X0.03156*%
%ADD89R,0.05124X0.05124*%
%ADD90R,0.06699X0.06306*%
%ADD91R,0.04731X0.04731*%
%ADD92R,0.01975X0.05715*%
%ADD93R,0.08668X0.08274*%
%ADD94R,0.06699X0.07880*%
%ADD95R,0.05124X0.07880*%
%ADD96R,0.07880X0.04731*%
%ADD97R,0.02756X0.06299*%
%ADD98R,0.05715X0.04140*%
%ADD99R,0.02762X0.06502*%
%ADD100R,0.05124X0.07487*%
%ADD101R,0.01187X0.04337*%
%ADD102R,0.01384X0.02762*%
%ADD103R,0.04360X0.04360*%
%ADD104C,0.04360*%
%ADD105C,0.14573*%
%ADD106R,0.03937X0.03937*%
%ADD107C,0.03937*%
%ADD108C,0.07008*%
%ADD109C,0.05124*%
%ADD110C,0.07717*%
%ADD111R,0.07717X0.07717*%
%ADD112R,0.07487X0.07487*%
%ADD113C,0.07487*%
%ADD114C,0.02400*%
D28*
X38128Y182382D02*
D03*
D29*
Y180610D02*
D03*
Y178839D02*
D03*
Y177067D02*
D03*
Y175295D02*
D03*
Y173524D02*
D03*
X49274D02*
D03*
Y175295D02*
D03*
Y177067D02*
D03*
Y178839D02*
D03*
Y180610D02*
D03*
Y182382D02*
D03*
D33*
X70079Y140990D02*
D03*
X64567Y146457D02*
D03*
X11400Y181299D02*
D03*
X131102Y8661D02*
D03*
X35433Y62598D02*
D03*
X35827Y56009D02*
D03*
X241339Y12226D02*
D03*
X158268Y107858D02*
D03*
X143307Y88976D02*
D03*
X264961Y8661D02*
D03*
X137795Y57087D02*
D03*
X80018Y169240D02*
D03*
X35827Y49213D02*
D03*
X150394Y93685D02*
D03*
X143307Y98819D02*
D03*
X150000Y103543D02*
D03*
X140945Y133465D02*
D03*
X129921Y31496D02*
D03*
X143701Y24803D02*
D03*
X81593Y183413D02*
D03*
X120175Y183019D02*
D03*
X111811Y135433D02*
D03*
X122835Y135039D02*
D03*
D39*
X252362Y170118D02*
D03*
D40*
X288347Y141811D02*
D03*
D41*
Y194134D02*
D03*
D45*
X236122Y148622D02*
D03*
X214272D02*
D03*
D57*
X108856Y170027D02*
D03*
D58*
Y173964D02*
D03*
X100785D02*
D03*
Y170027D02*
D03*
D60*
X187598Y206004D02*
D03*
X190157D02*
D03*
X192717D02*
D03*
X195276D02*
D03*
Y190453D02*
D03*
X192717D02*
D03*
X190157D02*
D03*
X187598D02*
D03*
D65*
X40400Y195950D02*
D03*
Y189650D02*
D03*
X46900Y195950D02*
D03*
Y189650D02*
D03*
X155118Y56693D02*
D03*
Y50394D02*
D03*
X161811Y56693D02*
D03*
Y50394D02*
D03*
X209449Y174409D02*
D03*
Y168110D02*
D03*
X27165Y200394D02*
D03*
Y206693D02*
D03*
X33858Y189764D02*
D03*
Y196063D02*
D03*
X53543Y189764D02*
D03*
Y196063D02*
D03*
X195965Y158858D02*
D03*
Y165157D02*
D03*
D66*
X68758Y8289D02*
D03*
D67*
X73522Y6911D02*
D03*
D68*
X77656D02*
D03*
X81986D02*
D03*
X86317D02*
D03*
X90648D02*
D03*
X94978D02*
D03*
X99309D02*
D03*
X103640D02*
D03*
D69*
X113325Y7403D02*
D03*
D70*
X114014Y45691D02*
D03*
Y31124D02*
D03*
D71*
X100234Y49529D02*
D03*
X76730D02*
D03*
D72*
X43701Y177953D02*
D03*
D73*
X39451Y209393D02*
D03*
X47325D02*
D03*
X39451Y201913D02*
D03*
D74*
X47325Y202700D02*
D03*
D75*
X161024Y63386D02*
D03*
X154724D02*
D03*
X24803Y180709D02*
D03*
X18504D02*
D03*
X24803Y187402D02*
D03*
X18504D02*
D03*
X24803Y174409D02*
D03*
X18504D02*
D03*
X35433Y161024D02*
D03*
X29134D02*
D03*
X16535Y196457D02*
D03*
X10236D02*
D03*
X24803Y167323D02*
D03*
X18504D02*
D03*
X124900Y169633D02*
D03*
X118600D02*
D03*
X118600Y175933D02*
D03*
X124900D02*
D03*
X44488Y62402D02*
D03*
X50787D02*
D03*
X44488Y55709D02*
D03*
X50787D02*
D03*
X136614Y15748D02*
D03*
X130315D02*
D03*
X44488Y49213D02*
D03*
X50787D02*
D03*
X136221Y24803D02*
D03*
X129921D02*
D03*
X241339Y25984D02*
D03*
X235039D02*
D03*
X241339Y19291D02*
D03*
X235039D02*
D03*
X235039Y32283D02*
D03*
X241339D02*
D03*
X171653Y109055D02*
D03*
X165354D02*
D03*
X165354Y115748D02*
D03*
X171653D02*
D03*
X165354Y96457D02*
D03*
X171653D02*
D03*
X171653Y102756D02*
D03*
X165354D02*
D03*
X194193Y215945D02*
D03*
X200492D02*
D03*
X97085Y150591D02*
D03*
X103384D02*
D03*
X221850Y189961D02*
D03*
X228150D02*
D03*
X209646Y128937D02*
D03*
X203346D02*
D03*
X196850D02*
D03*
X190551D02*
D03*
X187825Y215945D02*
D03*
X181526D02*
D03*
X79624Y175933D02*
D03*
X73325D02*
D03*
X44175Y37008D02*
D03*
X50474D02*
D03*
X148819Y122047D02*
D03*
X155118D02*
D03*
X148819Y113779D02*
D03*
X155118D02*
D03*
X185728Y172244D02*
D03*
X179429D02*
D03*
X215551Y182087D02*
D03*
X209252D02*
D03*
X208858Y189961D02*
D03*
X215158D02*
D03*
X221850Y182087D02*
D03*
X228150D02*
D03*
X233465Y12205D02*
D03*
X227165D02*
D03*
X85923Y175933D02*
D03*
X92222D02*
D03*
D76*
X9843Y23622D02*
D03*
X305118Y212598D02*
D03*
Y23622D02*
D03*
D77*
X50651Y161024D02*
D03*
X42384D02*
D03*
X163976Y36614D02*
D03*
X155709D02*
D03*
X307087Y92110D02*
D03*
D78*
X20472Y211059D02*
D03*
X10236D02*
D03*
D79*
X17717Y203937D02*
D03*
X10630D02*
D03*
X228543Y198228D02*
D03*
X221457D02*
D03*
D80*
X43565Y42520D02*
D03*
X49470D02*
D03*
D81*
X164862Y7185D02*
D03*
Y23524D02*
D03*
X156398D02*
D03*
Y7185D02*
D03*
X265650Y17028D02*
D03*
Y33366D02*
D03*
X257185Y17028D02*
D03*
Y33366D02*
D03*
D82*
X215158Y170866D02*
D03*
Y174409D02*
D03*
D83*
X208465Y196653D02*
D03*
X214764D02*
D03*
X220079Y128937D02*
D03*
X226378D02*
D03*
X187402Y20079D02*
D03*
X193701D02*
D03*
D84*
X179823Y180118D02*
D03*
X186909D02*
D03*
D85*
X48108Y102538D02*
D03*
X56840D02*
D03*
X48108Y93947D02*
D03*
X56840D02*
D03*
D86*
X96360Y101727D02*
D03*
X107600D02*
D03*
X96360Y90215D02*
D03*
X107600D02*
D03*
D87*
X32065Y124803D02*
D03*
X36789D02*
D03*
X41514D02*
D03*
X46238D02*
D03*
X50963D02*
D03*
X55687D02*
D03*
X60411D02*
D03*
X74585D02*
D03*
X79309D02*
D03*
X84034D02*
D03*
X98207D02*
D03*
X107656D02*
D03*
X121829D02*
D03*
Y72047D02*
D03*
X117104D02*
D03*
X112380D02*
D03*
X107656D02*
D03*
X102931D02*
D03*
X98207D02*
D03*
X93482D02*
D03*
X88758D02*
D03*
X84034D02*
D03*
X79309D02*
D03*
X74585D02*
D03*
X69860D02*
D03*
X65136D02*
D03*
X60411D02*
D03*
X55687D02*
D03*
X50963D02*
D03*
X46238D02*
D03*
X41514D02*
D03*
X36789D02*
D03*
X32065D02*
D03*
X93482Y124803D02*
D03*
X88758D02*
D03*
X117104D02*
D03*
X102931D02*
D03*
X112380D02*
D03*
X69860D02*
D03*
X65136D02*
D03*
D88*
X127502Y98409D02*
D03*
Y93685D02*
D03*
Y88961D02*
D03*
Y84236D02*
D03*
Y74787D02*
D03*
Y122031D02*
D03*
Y107858D02*
D03*
Y103134D02*
D03*
Y79512D02*
D03*
Y117307D02*
D03*
Y112583D02*
D03*
D89*
X176968Y147047D02*
D03*
X184842D02*
D03*
D90*
X180905Y159843D02*
D03*
D91*
X195965Y173031D02*
D03*
Y180118D02*
D03*
D92*
X38840Y218468D02*
D03*
X41399D02*
D03*
X43958D02*
D03*
X46517D02*
D03*
X49076D02*
D03*
D93*
X31754Y219748D02*
D03*
X56163D02*
D03*
D94*
X27817Y229000D02*
D03*
X60100D02*
D03*
D95*
X40612D02*
D03*
X47305D02*
D03*
D96*
X140945Y112970D02*
D03*
Y122813D02*
D03*
D97*
X104821Y171996D02*
D03*
D98*
X138189Y66929D02*
D03*
Y73228D02*
D03*
D99*
X95766Y184594D02*
D03*
X99703D02*
D03*
X103640D02*
D03*
X107577D02*
D03*
D100*
X90648Y194535D02*
D03*
X112695D02*
D03*
D101*
X227756Y170078D02*
D03*
X225787D02*
D03*
X223819D02*
D03*
D102*
Y174409D02*
D03*
X225787D02*
D03*
X227756D02*
D03*
D103*
X206535Y20591D02*
D03*
D104*
X211535D02*
D03*
X206535Y25591D02*
D03*
X211535D02*
D03*
X221535D02*
D03*
X216535D02*
D03*
X221535Y20591D02*
D03*
X216535D02*
D03*
X226535D02*
D03*
Y25591D02*
D03*
D105*
X305709Y226969D02*
D03*
X9252D02*
D03*
X305709Y9252D02*
D03*
X9252Y9252D02*
D03*
D106*
X188976Y227165D02*
D03*
D107*
X193898D02*
D03*
D108*
X303150Y167126D02*
D03*
D109*
X307087Y84236D02*
D03*
Y76362D02*
D03*
X280512Y49787D02*
D03*
X272638D02*
D03*
X264764D02*
D03*
D110*
X111907Y208610D02*
D03*
X104034D02*
D03*
X96159D02*
D03*
D111*
X88285D02*
D03*
D112*
X133819Y225394D02*
D03*
X134213Y201378D02*
D03*
D113*
X143819Y225394D02*
D03*
X153819D02*
D03*
X163819D02*
D03*
X144213Y201378D02*
D03*
X154213D02*
D03*
X164213D02*
D03*
D114*
X187598Y125516D02*
D03*
X187402Y119685D02*
D03*
X190551D02*
D03*
X55905Y176378D02*
D03*
X27892Y169291D02*
D03*
X89467Y170421D02*
D03*
X111120Y175933D02*
D03*
X74585Y76159D02*
D03*
X107656Y76596D02*
D03*
X102362Y101727D02*
D03*
Y90215D02*
D03*
X74410Y25197D02*
D03*
X94585D02*
D03*
X90648Y14470D02*
D03*
X63758Y8289D02*
D03*
X81102Y86614D02*
D03*
X99606Y20079D02*
D03*
X207087Y37795D02*
D03*
X217717Y32283D02*
D03*
X172047Y106299D02*
D03*
X155512Y116929D02*
D03*
X158267Y122047D02*
D03*
X184842Y143405D02*
D03*
X229999Y129921D02*
D03*
X195964Y155708D02*
D03*
X209252Y185039D02*
D03*
X182087Y211614D02*
D03*
X214764Y200590D02*
D03*
X70175Y175933D02*
D03*
X43701Y177953D02*
D03*
Y180709D02*
D03*
Y175197D02*
D03*
X53937Y186614D02*
D03*
X50000Y202755D02*
D03*
X35039Y229000D02*
D03*
X55118D02*
D03*
X16535Y200000D02*
D03*
X18504Y190945D02*
D03*
X30709Y189764D02*
D03*
X32065Y119073D02*
D03*
X74585Y119685D02*
D03*
X63998Y102538D02*
D03*
X63927Y93947D02*
D03*
X32065Y78128D02*
D03*
X121829Y128522D02*
D03*
Y67104D02*
D03*
X132299Y74787D02*
D03*
X138189Y63779D02*
D03*
X165354Y50394D02*
D03*
X156398Y14173D02*
D03*
X187402Y25984D02*
D03*
X237008Y12205D02*
D03*
X265650Y12598D02*
D03*
X244488Y31890D02*
D03*
X117793Y7403D02*
D03*
X81986Y11120D02*
D03*
X117695Y45691D02*
D03*
X96947Y170027D02*
D03*
X94191Y190992D02*
D03*
X117321Y194535D02*
D03*
X190157Y200098D02*
D03*
X193799Y201378D02*
D03*
X209752Y192913D02*
D03*
X15354Y167323D02*
D03*
X124900Y172783D02*
D03*
X99703Y189712D02*
D03*
X82774Y175933D02*
D03*
X60411Y76421D02*
D03*
X53543Y37008D02*
D03*
X136614Y20079D02*
D03*
X289173Y140354D02*
D03*
X284842D02*
D03*
X293110D02*
D03*
X296260Y140748D02*
D03*
X280906Y140354D02*
D03*
X297047Y193898D02*
D03*
X280906Y193504D02*
D03*
X247835Y173031D02*
D03*
X248228Y165945D02*
D03*
X292717Y194134D02*
D03*
X285236D02*
D03*
X251378Y173819D02*
D03*
X251378Y165945D02*
D03*
X205512Y192913D02*
D03*
Y188681D02*
D03*
Y196850D02*
D03*
X245079Y74787D02*
D03*
X220472Y171260D02*
D03*
X223221Y169240D02*
D03*
X190551Y125963D02*
D03*
Y123031D02*
D03*
X97085Y145807D02*
D03*
X204724Y215945D02*
D03*
M02*
