G04*
G04 #@! TF.GenerationSoftware,Altium Limited,Altium Designer,21.1.1 (26)*
G04*
G04 Layer_Color=32896*
%FSLAX25Y25*%
%MOIN*%
G70*
G04*
G04 #@! TF.SameCoordinates,969F4329-1E93-4840-8548-A094FB753E80*
G04*
G04*
G04 #@! TF.FilePolarity,Positive*
G04*
G01*
G75*
%ADD10C,0.00787*%
%ADD146R,0.99410X0.43307*%
G36*
X291300Y175942D02*
X291303Y175935D01*
Y175922D01*
X291309Y175909D01*
X291313Y175886D01*
X291319Y175863D01*
X291332Y175807D01*
X291349Y175742D01*
X291372Y175669D01*
X291395Y175591D01*
X291424Y175509D01*
X291670Y174846D01*
X290903D01*
X291139Y175469D01*
Y175473D01*
X291142Y175482D01*
X291149Y175499D01*
X291155Y175519D01*
X291165Y175541D01*
X291175Y175571D01*
X291185Y175604D01*
X291198Y175637D01*
X291224Y175712D01*
X291250Y175791D01*
X291277Y175870D01*
X291300Y175945D01*
Y175942D01*
D02*
G37*
G36*
X292323Y172244D02*
X268701D01*
Y176181D01*
X292323D01*
X290201D01*
Y173911D01*
Y176181D01*
X291129D01*
X290201Y173911D01*
X290542D01*
X290808Y174600D01*
X291759D01*
X292005Y173911D01*
X292323D01*
X291457Y176181D01*
X292323D01*
D01*
Y172244D01*
D02*
G37*
%LPC*%
G36*
X285058Y175594D02*
Y175558D01*
X284808D01*
Y175322D01*
X284805Y175328D01*
X284795Y175341D01*
X284776Y175364D01*
X284753Y175391D01*
X284723Y175423D01*
X284687Y175456D01*
X284648Y175489D01*
X284602Y175519D01*
X284595Y175522D01*
X284579Y175532D01*
X284553Y175541D01*
X284516Y175558D01*
X284474Y175571D01*
X284425Y175581D01*
X284369Y175591D01*
X284310Y175594D01*
X285058D01*
X284310D01*
D01*
X284280D01*
X284244Y175591D01*
X284205Y175584D01*
X284156Y175574D01*
X284106Y175561D01*
X284057Y175541D01*
X284011Y175515D01*
X284005Y175512D01*
X283992Y175502D01*
X283972Y175486D01*
X283946Y175460D01*
X283920Y175430D01*
X283890Y175394D01*
X283864Y175351D01*
X283844Y175302D01*
X283841Y175305D01*
X283834Y175315D01*
X283824Y175328D01*
X283808Y175348D01*
X283788Y175371D01*
X283765Y175394D01*
X283739Y175420D01*
X283706Y175450D01*
X283670Y175476D01*
X283634Y175502D01*
X283592Y175525D01*
X283546Y175548D01*
X283496Y175568D01*
X283444Y175581D01*
X283391Y175591D01*
X283332Y175594D01*
X283559D01*
X282824D01*
X283309D01*
X283293Y175591D01*
X283270D01*
X283247Y175587D01*
X283191Y175578D01*
X283132Y175561D01*
X283070Y175535D01*
X283008Y175502D01*
X282955Y175456D01*
X282949Y175450D01*
X282936Y175430D01*
X282912Y175400D01*
X282903Y175378D01*
X282890Y175355D01*
X282876Y175325D01*
X282867Y175295D01*
X282854Y175263D01*
X282844Y175223D01*
X282837Y175184D01*
X282831Y175138D01*
X282824Y175092D01*
Y173911D01*
X283103D01*
Y174944D01*
Y174948D01*
Y174951D01*
Y174971D01*
Y175000D01*
X283106Y175036D01*
X283109Y175076D01*
X283113Y175115D01*
X283119Y175154D01*
X283129Y175184D01*
Y175187D01*
X283136Y175197D01*
X283142Y175210D01*
X283152Y175227D01*
X283165Y175246D01*
X283182Y175266D01*
X283201Y175286D01*
X283227Y175305D01*
X283231Y175309D01*
X283241Y175312D01*
X283254Y175319D01*
X283277Y175328D01*
X283299Y175338D01*
X283329Y175345D01*
X283359Y175348D01*
X283395Y175351D01*
X283411D01*
X283424Y175348D01*
X283457Y175345D01*
X283496Y175338D01*
X283542Y175322D01*
X283592Y175302D01*
X283641Y175273D01*
X283687Y175233D01*
X283690Y175227D01*
X283703Y175210D01*
X283723Y175184D01*
X283742Y175145D01*
X283765Y175092D01*
X283782Y175030D01*
X283795Y174954D01*
X283801Y174866D01*
Y173911D01*
X283569D01*
X284080D01*
Y174977D01*
Y174981D01*
Y174987D01*
Y174994D01*
Y175007D01*
X284084Y175043D01*
X284090Y175082D01*
X284097Y175128D01*
X284110Y175174D01*
X284126Y175217D01*
X284149Y175256D01*
X284152Y175259D01*
X284162Y175273D01*
X284179Y175286D01*
X284202Y175305D01*
X284231Y175322D01*
X284270Y175338D01*
X284316Y175348D01*
X284372Y175351D01*
X284392D01*
X284415Y175348D01*
X284441Y175345D01*
X284474Y175335D01*
X284513Y175325D01*
X284549Y175309D01*
X284589Y175289D01*
X284592Y175286D01*
X284605Y175276D01*
X284621Y175263D01*
X284644Y175243D01*
X284667Y175217D01*
X284690Y175184D01*
X284713Y175148D01*
X284733Y175105D01*
X284736Y175099D01*
X284739Y175082D01*
X284746Y175056D01*
X284756Y175020D01*
X284766Y174971D01*
X284772Y174912D01*
X284776Y174843D01*
X284779Y174764D01*
Y173911D01*
X284313D01*
X285058D01*
Y175594D01*
D02*
G37*
G36*
X286914Y174971D02*
Y174758D01*
D01*
Y174971D01*
D02*
G37*
G36*
X280101Y175558D02*
X279806D01*
X279462Y174603D01*
Y174600D01*
X279459Y174597D01*
X279455Y174587D01*
X279452Y174571D01*
X279446Y174554D01*
X279439Y174534D01*
X279423Y174489D01*
X279403Y174433D01*
X279383Y174367D01*
X279363Y174298D01*
X279344Y174223D01*
Y174226D01*
X279341Y174233D01*
X279337Y174243D01*
X279334Y174256D01*
X279331Y174272D01*
X279324Y174292D01*
X279311Y174341D01*
X279295Y174397D01*
X279272Y174462D01*
X279252Y174528D01*
X279226Y174597D01*
X278871Y175558D01*
X278593D01*
Y173246D01*
D01*
Y175558D01*
X279219Y173885D01*
Y173882D01*
X279222Y173872D01*
X279229Y173859D01*
X279236Y173843D01*
X279245Y173819D01*
X279255Y173793D01*
X279278Y173738D01*
X279301Y173675D01*
X279328Y173613D01*
X279354Y173557D01*
X279367Y173534D01*
X279377Y173511D01*
X279380Y173505D01*
X279390Y173488D01*
X279406Y173465D01*
X279426Y173436D01*
X279452Y173403D01*
X279482Y173370D01*
X279511Y173337D01*
X279547Y173311D01*
X279551Y173308D01*
X279564Y173301D01*
X279583Y173291D01*
X279613Y173278D01*
X279646Y173265D01*
X279685Y173255D01*
X279728Y173249D01*
X279777Y173246D01*
X278593D01*
X280101D01*
D01*
X279790D01*
X279806Y173249D01*
X279829D01*
X279855Y173255D01*
X279885Y173262D01*
X279918Y173268D01*
X279954Y173282D01*
X279983Y173541D01*
X279980D01*
X279967Y173537D01*
X279951Y173534D01*
X279931Y173528D01*
X279878Y173518D01*
X279826Y173514D01*
X279810D01*
X279793Y173518D01*
X279773D01*
X279724Y173528D01*
X279701Y173537D01*
X279678Y173547D01*
X279675D01*
X279669Y173554D01*
X279659Y173560D01*
X279646Y173570D01*
X279616Y173597D01*
X279590Y173633D01*
Y173636D01*
X279583Y173642D01*
X279577Y173655D01*
X279570Y173675D01*
X279557Y173701D01*
X279544Y173741D01*
X279524Y173787D01*
X279505Y173843D01*
Y173846D01*
X279498Y173859D01*
X279491Y173882D01*
X279478Y173911D01*
X280101Y175558D01*
D02*
G37*
G36*
X275142Y176181D02*
X273499D01*
Y175912D01*
X274840D01*
Y175220D01*
X273584D01*
Y174951D01*
X274840D01*
Y174180D01*
X273446D01*
Y176181D01*
D01*
Y173911D01*
X275142D01*
Y176181D01*
D02*
G37*
G36*
X286914Y175594D02*
X285396D01*
D01*
X286114D01*
X286091Y175591D01*
X286065Y175587D01*
X286032Y175581D01*
X285996Y175574D01*
X285953Y175565D01*
X285914Y175555D01*
X285868Y175538D01*
X285825Y175522D01*
X285779Y175499D01*
X285733Y175473D01*
X285687Y175443D01*
X285645Y175407D01*
X285605Y175368D01*
X285602Y175364D01*
X285596Y175358D01*
X285586Y175345D01*
X285573Y175325D01*
X285556Y175302D01*
X285540Y175276D01*
X285520Y175243D01*
X285500Y175204D01*
X285481Y175161D01*
X285461Y175115D01*
X285445Y175063D01*
X285428Y175007D01*
X285415Y174944D01*
X285405Y174879D01*
X285399Y174810D01*
X285396Y174735D01*
Y173875D01*
Y174695D01*
X285399Y174662D01*
X286629D01*
Y174659D01*
Y174649D01*
X286626Y174636D01*
Y174617D01*
X286622Y174594D01*
X286616Y174567D01*
X286606Y174508D01*
X286586Y174443D01*
X286560Y174371D01*
X286524Y174305D01*
X286478Y174246D01*
X286475D01*
X286471Y174239D01*
X286452Y174223D01*
X286422Y174200D01*
X286383Y174177D01*
X286330Y174151D01*
X286271Y174128D01*
X286206Y174111D01*
X286170Y174108D01*
X286130Y174105D01*
X286104D01*
X286074Y174108D01*
X286038Y174115D01*
X285999Y174125D01*
X285953Y174138D01*
X285910Y174157D01*
X285868Y174184D01*
X285864Y174187D01*
X285848Y174200D01*
X285828Y174220D01*
X285806Y174246D01*
X285779Y174282D01*
X285750Y174328D01*
X285720Y174380D01*
X285694Y174443D01*
X285405Y174407D01*
Y174403D01*
X285409Y174397D01*
X285412Y174384D01*
X285418Y174364D01*
X285428Y174344D01*
X285438Y174318D01*
X285464Y174262D01*
X285497Y174200D01*
X285543Y174134D01*
X285596Y174072D01*
X285661Y174013D01*
X285664D01*
X285671Y174006D01*
X285681Y174000D01*
X285694Y173990D01*
X285714Y173980D01*
X285733Y173970D01*
X285759Y173957D01*
X285789Y173944D01*
X285822Y173931D01*
X285855Y173918D01*
X285937Y173898D01*
X286029Y173882D01*
X286130Y173875D01*
X286166D01*
X286189Y173879D01*
X286219Y173882D01*
X286255Y173888D01*
X286294Y173895D01*
X286337Y173901D01*
X286429Y173928D01*
X286478Y173947D01*
X286524Y173967D01*
X286573Y173993D01*
X286619Y174023D01*
X286662Y174056D01*
X286704Y174095D01*
X286707Y174098D01*
X286714Y174105D01*
X286724Y174118D01*
X286737Y174138D01*
X286753Y174161D01*
X286770Y174187D01*
X286789Y174220D01*
X286809Y174256D01*
X286829Y174298D01*
X286848Y174344D01*
X286865Y174397D01*
X286881Y174452D01*
X286894Y174512D01*
X286904Y174577D01*
X286911Y174646D01*
X286914Y174718D01*
Y174758D01*
X286911Y174787D01*
X286908Y174823D01*
X286904Y174863D01*
X286898Y174908D01*
X286888Y174954D01*
X286862Y175059D01*
X286845Y175112D01*
X286826Y175168D01*
X286799Y175220D01*
X286770Y175269D01*
X286737Y175319D01*
X286701Y175364D01*
X286698Y175368D01*
X286691Y175374D01*
X286678Y175384D01*
X286662Y175400D01*
X286642Y175417D01*
X286616Y175436D01*
X286586Y175460D01*
X286550Y175479D01*
X286514Y175502D01*
X286471Y175522D01*
X286425Y175541D01*
X286376Y175558D01*
X286324Y175574D01*
X286268Y175584D01*
X286209Y175591D01*
X286147Y175594D01*
X286914D01*
D02*
G37*
G36*
X282417Y176181D02*
X280990D01*
Y173875D01*
Y174718D01*
X280994Y174689D01*
X280997Y174653D01*
X281000Y174613D01*
X281007Y174567D01*
X281017Y174518D01*
X281043Y174413D01*
X281059Y174357D01*
X281079Y174305D01*
X281102Y174249D01*
X281132Y174200D01*
X281164Y174151D01*
X281200Y174105D01*
X281204Y174102D01*
X281210Y174095D01*
X281220Y174085D01*
X281236Y174069D01*
X281259Y174052D01*
X281282Y174033D01*
X281309Y174013D01*
X281341Y173990D01*
X281378Y173970D01*
X281414Y173947D01*
X281502Y173911D01*
X281548Y173895D01*
X281597Y173885D01*
X281650Y173879D01*
X281702Y173875D01*
X281715D01*
X281732Y173879D01*
X281751D01*
X281774Y173882D01*
X281804Y173888D01*
X281870Y173905D01*
X281906Y173918D01*
X281942Y173934D01*
X281981Y173954D01*
X282017Y173977D01*
X282056Y174006D01*
X282092Y174039D01*
X282125Y174075D01*
X282158Y174118D01*
Y173911D01*
X282417D01*
Y176181D01*
D02*
G37*
G36*
X280653D02*
X280374D01*
Y173911D01*
X280653D01*
Y176181D01*
D02*
G37*
G36*
X277432D02*
X276379D01*
X276353Y176178D01*
X276323D01*
X276254Y176174D01*
X276182Y176165D01*
X276103Y176155D01*
X276031Y176138D01*
X275995Y176129D01*
X275965Y176119D01*
X275962D01*
X275959Y176116D01*
X275939Y176106D01*
X275910Y176093D01*
X275874Y176070D01*
X275834Y176040D01*
X275792Y176001D01*
X275752Y175955D01*
X275713Y175902D01*
Y175899D01*
X275710Y175896D01*
X275696Y175876D01*
X275683Y175843D01*
X275664Y175801D01*
X275647Y175751D01*
X275631Y175692D01*
X275621Y175630D01*
X275618Y175561D01*
Y175558D01*
Y175551D01*
Y175538D01*
X275621Y175522D01*
Y175499D01*
X275624Y175476D01*
X275638Y175420D01*
X275657Y175355D01*
X275683Y175286D01*
X275723Y175217D01*
X275749Y175184D01*
X275775Y175151D01*
X275779Y175148D01*
X275782Y175145D01*
X275792Y175135D01*
X275805Y175125D01*
X275821Y175112D01*
X275841Y175099D01*
X275867Y175082D01*
X275893Y175063D01*
X275926Y175046D01*
X275962Y175030D01*
X276002Y175010D01*
X276044Y174994D01*
X276093Y174981D01*
X276143Y174964D01*
X276198Y174954D01*
X276257Y174944D01*
X276251Y174941D01*
X276238Y174935D01*
X276218Y174922D01*
X276192Y174908D01*
X276133Y174872D01*
X276103Y174849D01*
X276077Y174830D01*
X276070Y174823D01*
X276054Y174807D01*
X276028Y174780D01*
X275995Y174748D01*
X275959Y174702D01*
X275916Y174653D01*
X275874Y174594D01*
X275828Y174528D01*
X275437Y173911D01*
X275811D01*
X276110Y174384D01*
Y174387D01*
X276116Y174393D01*
X276123Y174403D01*
X276133Y174416D01*
X276156Y174452D01*
X276185Y174498D01*
X276221Y174548D01*
X276257Y174600D01*
X276293Y174649D01*
X276326Y174695D01*
X276330Y174698D01*
X276339Y174712D01*
X276356Y174731D01*
X276379Y174754D01*
X276428Y174803D01*
X276454Y174827D01*
X276480Y174846D01*
X276484Y174849D01*
X276490Y174853D01*
X276503Y174859D01*
X276523Y174869D01*
X276543Y174879D01*
X276566Y174889D01*
X276618Y174905D01*
X276622D01*
X276628Y174908D01*
X276641D01*
X276658Y174912D01*
X276680Y174915D01*
X276707D01*
X276743Y174918D01*
X277130D01*
Y173911D01*
X277432D01*
Y176181D01*
D02*
G37*
G36*
X275437D02*
D01*
Y173911D01*
Y176181D01*
D01*
D02*
G37*
G36*
X273266D02*
X271186D01*
Y173911D01*
Y176181D01*
X272072Y173911D01*
X272387D01*
X273266Y176181D01*
D01*
D02*
G37*
G36*
X270872Y174230D02*
X270553D01*
Y173911D01*
X270872D01*
Y174230D01*
D02*
G37*
G36*
X290106Y175594D02*
X288738D01*
X289423D01*
X289387Y175591D01*
X289338Y175587D01*
X289286Y175581D01*
X289230Y175568D01*
X289171Y175555D01*
X289115Y175535D01*
X289112D01*
X289108Y175532D01*
X289092Y175525D01*
X289066Y175512D01*
X289033Y175496D01*
X288997Y175473D01*
X288961Y175446D01*
X288928Y175417D01*
X288898Y175384D01*
X288895Y175381D01*
X288889Y175368D01*
X288876Y175345D01*
X288859Y175319D01*
X288843Y175279D01*
X288826Y175236D01*
X288813Y175187D01*
X288800Y175131D01*
X289072Y175095D01*
Y175102D01*
X289076Y175115D01*
X289082Y175138D01*
X289092Y175168D01*
X289108Y175197D01*
X289128Y175230D01*
X289151Y175263D01*
X289184Y175292D01*
X289187Y175295D01*
X289200Y175302D01*
X289220Y175315D01*
X289249Y175328D01*
X289282Y175341D01*
X289325Y175355D01*
X289377Y175361D01*
X289433Y175364D01*
X289466D01*
X289499Y175361D01*
X289541Y175358D01*
X289584Y175348D01*
X289630Y175338D01*
X289673Y175322D01*
X289709Y175299D01*
X289712Y175295D01*
X289722Y175289D01*
X289735Y175276D01*
X289748Y175256D01*
X289764Y175236D01*
X289778Y175210D01*
X289787Y175181D01*
X289791Y175151D01*
Y175148D01*
Y175141D01*
X289787Y175131D01*
Y175118D01*
X289778Y175086D01*
X289758Y175053D01*
X289755Y175049D01*
X289751Y175046D01*
X289745Y175036D01*
X289732Y175027D01*
X289719Y175017D01*
X289699Y175004D01*
X289676Y174994D01*
X289650Y174981D01*
X289646D01*
X289640Y174977D01*
X289627Y174974D01*
X289604Y174964D01*
X289571Y174954D01*
X289528Y174944D01*
X289502Y174935D01*
X289473Y174928D01*
X289440Y174918D01*
X289404Y174908D01*
X289400D01*
X289390Y174905D01*
X289374Y174902D01*
X289354Y174895D01*
X289332Y174889D01*
X289302Y174882D01*
X289240Y174863D01*
X289171Y174843D01*
X289102Y174820D01*
X289040Y174797D01*
X289013Y174787D01*
X288990Y174777D01*
X288984Y174774D01*
X288971Y174767D01*
X288951Y174758D01*
X288921Y174741D01*
X288892Y174722D01*
X288862Y174695D01*
X288833Y174666D01*
X288807Y174633D01*
X288803Y174630D01*
X288797Y174617D01*
X288784Y174597D01*
X288771Y174567D01*
X288761Y174531D01*
X288748Y174492D01*
X288741Y174446D01*
X288738Y174393D01*
Y174371D01*
X288741Y174344D01*
X288748Y174308D01*
X288757Y174269D01*
X288774Y174226D01*
X288794Y174177D01*
X288820Y174131D01*
X288823Y174125D01*
X288836Y174111D01*
X288853Y174089D01*
X288879Y174062D01*
X288915Y174033D01*
X288954Y174000D01*
X289000Y173970D01*
X289056Y173941D01*
X289059D01*
X289062Y173938D01*
X289082Y173931D01*
X289115Y173921D01*
X289158Y173908D01*
X289210Y173895D01*
X289269Y173885D01*
X289332Y173879D01*
X289404Y173875D01*
X289433D01*
X289456Y173879D01*
X289482D01*
X289515Y173882D01*
X289548Y173885D01*
X289584Y173892D01*
X289663Y173908D01*
X289745Y173931D01*
X289824Y173964D01*
X289860Y173984D01*
X289892Y174006D01*
X289896Y174010D01*
X289899Y174013D01*
X289919Y174033D01*
X289948Y174062D01*
X289981Y174108D01*
X290017Y174164D01*
X290053Y174230D01*
X290083Y174311D01*
X290106Y174403D01*
X289830Y174446D01*
Y174443D01*
Y174439D01*
X289824Y174420D01*
X289817Y174387D01*
X289804Y174351D01*
X289787Y174311D01*
X289768Y174269D01*
X289738Y174226D01*
X289702Y174190D01*
X289696Y174187D01*
X289682Y174177D01*
X289656Y174164D01*
X289623Y174147D01*
X289581Y174131D01*
X289532Y174118D01*
X289473Y174108D01*
X289404Y174105D01*
X289371D01*
X289338Y174108D01*
X289295Y174115D01*
X289249Y174125D01*
X289200Y174138D01*
X289158Y174154D01*
X289118Y174180D01*
X289115Y174184D01*
X289102Y174193D01*
X289089Y174210D01*
X289069Y174233D01*
X289053Y174259D01*
X289036Y174292D01*
X289026Y174325D01*
X289023Y174364D01*
Y174367D01*
Y174380D01*
X289026Y174397D01*
X289033Y174420D01*
X289043Y174443D01*
X289059Y174466D01*
X289079Y174492D01*
X289108Y174512D01*
X289112Y174515D01*
X289122Y174518D01*
X289138Y174528D01*
X289164Y174538D01*
X289204Y174551D01*
X289227Y174561D01*
X289253Y174567D01*
X289282Y174577D01*
X289315Y174587D01*
X289351Y174597D01*
X289394Y174607D01*
X289397D01*
X289407Y174610D01*
X289423Y174613D01*
X289443Y174620D01*
X289469Y174626D01*
X289499Y174636D01*
X289561Y174653D01*
X289633Y174676D01*
X289702Y174695D01*
X289768Y174718D01*
X289797Y174731D01*
X289820Y174741D01*
X289827Y174744D01*
X289840Y174751D01*
X289860Y174764D01*
X289886Y174780D01*
X289915Y174803D01*
X289945Y174830D01*
X289974Y174859D01*
X290001Y174895D01*
X290004Y174899D01*
X290010Y174912D01*
X290020Y174935D01*
X290030Y174961D01*
X290040Y174994D01*
X290050Y175033D01*
X290056Y175073D01*
X290060Y175118D01*
Y175125D01*
Y175138D01*
X290056Y175158D01*
X290053Y175187D01*
X290047Y175217D01*
X290040Y175253D01*
X290027Y175286D01*
X290010Y175322D01*
X290007Y175325D01*
X290001Y175338D01*
X289991Y175355D01*
X289974Y175378D01*
X289955Y175400D01*
X289932Y175430D01*
X289906Y175456D01*
X289873Y175479D01*
X289869Y175482D01*
X289860Y175486D01*
X289846Y175496D01*
X289827Y175505D01*
X289801Y175519D01*
X289771Y175532D01*
X289735Y175545D01*
X289696Y175558D01*
X289689Y175561D01*
X289676Y175565D01*
X289653Y175571D01*
X289623Y175578D01*
X289587Y175584D01*
X289548Y175587D01*
X289502Y175594D01*
X290106D01*
D02*
G37*
G36*
X288518D02*
X287150D01*
X287836D01*
X287800Y175591D01*
X287751Y175587D01*
X287698Y175581D01*
X287642Y175568D01*
X287583Y175555D01*
X287527Y175535D01*
X287524D01*
X287521Y175532D01*
X287505Y175525D01*
X287478Y175512D01*
X287445Y175496D01*
X287409Y175473D01*
X287373Y175446D01*
X287340Y175417D01*
X287311Y175384D01*
X287308Y175381D01*
X287301Y175368D01*
X287288Y175345D01*
X287272Y175319D01*
X287255Y175279D01*
X287239Y175236D01*
X287226Y175187D01*
X287213Y175131D01*
X287485Y175095D01*
Y175102D01*
X287488Y175115D01*
X287495Y175138D01*
X287505Y175168D01*
X287521Y175197D01*
X287541Y175230D01*
X287563Y175263D01*
X287596Y175292D01*
X287600Y175295D01*
X287613Y175302D01*
X287632Y175315D01*
X287662Y175328D01*
X287695Y175341D01*
X287737Y175355D01*
X287790Y175361D01*
X287846Y175364D01*
X287878D01*
X287911Y175361D01*
X287954Y175358D01*
X287997Y175348D01*
X288042Y175338D01*
X288085Y175322D01*
X288121Y175299D01*
X288124Y175295D01*
X288134Y175289D01*
X288147Y175276D01*
X288160Y175256D01*
X288177Y175236D01*
X288190Y175210D01*
X288200Y175181D01*
X288203Y175151D01*
Y175148D01*
Y175141D01*
X288200Y175131D01*
Y175118D01*
X288190Y175086D01*
X288170Y175053D01*
X288167Y175049D01*
X288164Y175046D01*
X288157Y175036D01*
X288144Y175027D01*
X288131Y175017D01*
X288111Y175004D01*
X288088Y174994D01*
X288062Y174981D01*
X288059D01*
X288052Y174977D01*
X288039Y174974D01*
X288016Y174964D01*
X287983Y174954D01*
X287941Y174944D01*
X287914Y174935D01*
X287885Y174928D01*
X287852Y174918D01*
X287816Y174908D01*
X287813D01*
X287803Y174905D01*
X287787Y174902D01*
X287767Y174895D01*
X287744Y174889D01*
X287714Y174882D01*
X287652Y174863D01*
X287583Y174843D01*
X287514Y174820D01*
X287452Y174797D01*
X287426Y174787D01*
X287403Y174777D01*
X287396Y174774D01*
X287383Y174767D01*
X287364Y174758D01*
X287334Y174741D01*
X287304Y174722D01*
X287275Y174695D01*
X287245Y174666D01*
X287219Y174633D01*
X287216Y174630D01*
X287209Y174617D01*
X287196Y174597D01*
X287183Y174567D01*
X287173Y174531D01*
X287160Y174492D01*
X287154Y174446D01*
X287150Y174393D01*
Y174371D01*
X287154Y174344D01*
X287160Y174308D01*
X287170Y174269D01*
X287186Y174226D01*
X287206Y174177D01*
X287232Y174131D01*
X287236Y174125D01*
X287249Y174111D01*
X287265Y174089D01*
X287291Y174062D01*
X287327Y174033D01*
X287367Y174000D01*
X287413Y173970D01*
X287468Y173941D01*
X287472D01*
X287475Y173938D01*
X287495Y173931D01*
X287527Y173921D01*
X287570Y173908D01*
X287623Y173895D01*
X287682Y173885D01*
X287744Y173879D01*
X287816Y173875D01*
X287846D01*
X287869Y173879D01*
X287895D01*
X287928Y173882D01*
X287960Y173885D01*
X287997Y173892D01*
X288075Y173908D01*
X288157Y173931D01*
X288236Y173964D01*
X288272Y173984D01*
X288305Y174006D01*
X288308Y174010D01*
X288311Y174013D01*
X288331Y174033D01*
X288361Y174062D01*
X288393Y174108D01*
X288429Y174164D01*
X288465Y174230D01*
X288495Y174311D01*
X288518Y174403D01*
X288243Y174446D01*
Y174443D01*
Y174439D01*
X288236Y174420D01*
X288229Y174387D01*
X288216Y174351D01*
X288200Y174311D01*
X288180Y174269D01*
X288151Y174226D01*
X288115Y174190D01*
X288108Y174187D01*
X288095Y174177D01*
X288069Y174164D01*
X288036Y174147D01*
X287993Y174131D01*
X287944Y174118D01*
X287885Y174108D01*
X287816Y174105D01*
X287783D01*
X287751Y174108D01*
X287708Y174115D01*
X287662Y174125D01*
X287613Y174138D01*
X287570Y174154D01*
X287531Y174180D01*
X287527Y174184D01*
X287514Y174193D01*
X287501Y174210D01*
X287482Y174233D01*
X287465Y174259D01*
X287449Y174292D01*
X287439Y174325D01*
X287436Y174364D01*
Y174367D01*
Y174380D01*
X287439Y174397D01*
X287445Y174420D01*
X287455Y174443D01*
X287472Y174466D01*
X287491Y174492D01*
X287521Y174512D01*
X287524Y174515D01*
X287534Y174518D01*
X287550Y174528D01*
X287577Y174538D01*
X287616Y174551D01*
X287639Y174561D01*
X287665Y174567D01*
X287695Y174577D01*
X287728Y174587D01*
X287764Y174597D01*
X287806Y174607D01*
X287809D01*
X287819Y174610D01*
X287836Y174613D01*
X287856Y174620D01*
X287882Y174626D01*
X287911Y174636D01*
X287973Y174653D01*
X288046Y174676D01*
X288115Y174695D01*
X288180Y174718D01*
X288210Y174731D01*
X288233Y174741D01*
X288239Y174744D01*
X288252Y174751D01*
X288272Y174764D01*
X288298Y174780D01*
X288328Y174803D01*
X288357Y174830D01*
X288387Y174859D01*
X288413Y174895D01*
X288416Y174899D01*
X288423Y174912D01*
X288433Y174935D01*
X288443Y174961D01*
X288452Y174994D01*
X288462Y175033D01*
X288469Y175073D01*
X288472Y175118D01*
Y175125D01*
Y175138D01*
X288469Y175158D01*
X288465Y175187D01*
X288459Y175217D01*
X288452Y175253D01*
X288439Y175286D01*
X288423Y175322D01*
X288420Y175325D01*
X288413Y175338D01*
X288403Y175355D01*
X288387Y175378D01*
X288367Y175400D01*
X288344Y175430D01*
X288318Y175456D01*
X288285Y175479D01*
X288282Y175482D01*
X288272Y175486D01*
X288259Y175496D01*
X288239Y175505D01*
X288213Y175519D01*
X288183Y175532D01*
X288147Y175545D01*
X288108Y175558D01*
X288102Y175561D01*
X288088Y175565D01*
X288065Y175571D01*
X288036Y175578D01*
X288000Y175584D01*
X287960Y175587D01*
X287914Y175594D01*
X288518D01*
D02*
G37*
%LPD*%
G36*
X286176Y175361D02*
X286212Y175358D01*
X286255Y175348D01*
X286307Y175332D01*
X286363Y175309D01*
X286416Y175276D01*
X286468Y175233D01*
X286475Y175227D01*
X286488Y175210D01*
X286511Y175181D01*
X286534Y175141D01*
X286560Y175095D01*
X286583Y175036D01*
X286602Y174968D01*
X286612Y174892D01*
X285691D01*
Y174895D01*
Y174902D01*
X285694Y174912D01*
Y174925D01*
X285700Y174964D01*
X285710Y175007D01*
X285727Y175059D01*
X285743Y175109D01*
X285769Y175158D01*
X285799Y175200D01*
Y175204D01*
X285806Y175207D01*
X285822Y175227D01*
X285851Y175253D01*
X285891Y175282D01*
X285940Y175312D01*
X285999Y175338D01*
X286068Y175358D01*
X286104Y175361D01*
X286143Y175364D01*
X286163D01*
X286176Y175361D01*
D02*
G37*
G36*
X282138Y175371D02*
X282135Y175374D01*
X282132Y175381D01*
X282122Y175391D01*
X282106Y175407D01*
X282089Y175423D01*
X282069Y175443D01*
X282043Y175463D01*
X282017Y175482D01*
X281951Y175525D01*
X281876Y175558D01*
X281833Y175574D01*
X281787Y175584D01*
X281738Y175591D01*
X281689Y175594D01*
X281663D01*
X281633Y175591D01*
X281597Y175587D01*
X281555Y175578D01*
X281505Y175568D01*
X281453Y175551D01*
X281404Y175532D01*
X281397Y175528D01*
X281381Y175522D01*
X281354Y175505D01*
X281325Y175486D01*
X281289Y175463D01*
X281253Y175433D01*
X281213Y175397D01*
X281181Y175358D01*
X281177Y175355D01*
X281168Y175338D01*
X281151Y175315D01*
X281132Y175286D01*
X281108Y175246D01*
X281086Y175200D01*
X281063Y175148D01*
X281043Y175092D01*
Y175089D01*
X281040Y175086D01*
X281036Y175076D01*
X281033Y175066D01*
X281027Y175033D01*
X281017Y174990D01*
X281007Y174941D01*
X280997Y174885D01*
X280994Y174823D01*
X280990Y174758D01*
Y176181D01*
X282138D01*
Y175371D01*
D02*
G37*
G36*
X281745Y175361D02*
X281781Y175355D01*
X281823Y175345D01*
X281873Y175325D01*
X281925Y175295D01*
X281951Y175279D01*
X281978Y175256D01*
X282004Y175233D01*
X282030Y175204D01*
Y175200D01*
X282037Y175197D01*
X282043Y175187D01*
X282050Y175174D01*
X282060Y175158D01*
X282073Y175138D01*
X282083Y175115D01*
X282096Y175089D01*
X282109Y175056D01*
X282119Y175023D01*
X282132Y174984D01*
X282142Y174944D01*
X282148Y174899D01*
X282155Y174849D01*
X282161Y174800D01*
Y174744D01*
Y174741D01*
Y174731D01*
Y174715D01*
Y174695D01*
X282158Y174672D01*
Y174643D01*
X282152Y174581D01*
X282142Y174512D01*
X282129Y174439D01*
X282109Y174374D01*
X282096Y174344D01*
X282083Y174318D01*
Y174315D01*
X282076Y174308D01*
X282069Y174298D01*
X282060Y174285D01*
X282030Y174249D01*
X281988Y174213D01*
X281938Y174174D01*
X281876Y174138D01*
X281843Y174125D01*
X281804Y174115D01*
X281768Y174108D01*
X281725Y174105D01*
X281709D01*
X281696Y174108D01*
X281660Y174115D01*
X281617Y174125D01*
X281568Y174144D01*
X281515Y174170D01*
X281463Y174210D01*
X281436Y174236D01*
X281410Y174262D01*
Y174266D01*
X281404Y174269D01*
X281397Y174279D01*
X281391Y174292D01*
X281378Y174308D01*
X281368Y174328D01*
X281354Y174354D01*
X281341Y174380D01*
X281332Y174413D01*
X281318Y174446D01*
X281305Y174485D01*
X281295Y174528D01*
X281289Y174574D01*
X281282Y174623D01*
X281276Y174679D01*
Y174735D01*
Y174738D01*
Y174748D01*
Y174764D01*
X281279Y174787D01*
Y174813D01*
X281282Y174846D01*
X281292Y174915D01*
X281305Y174990D01*
X281328Y175073D01*
X281361Y175145D01*
X281381Y175181D01*
X281404Y175210D01*
Y175214D01*
X281410Y175217D01*
X281427Y175233D01*
X281453Y175259D01*
X281489Y175289D01*
X281535Y175315D01*
X281587Y175341D01*
X281650Y175358D01*
X281682Y175364D01*
X281732D01*
X281745Y175361D01*
D02*
G37*
G36*
X277130Y175177D02*
X276454D01*
X276415Y175181D01*
X276369Y175184D01*
X276316Y175187D01*
X276264Y175194D01*
X276212Y175204D01*
X276166Y175217D01*
X276159Y175220D01*
X276146Y175227D01*
X276126Y175236D01*
X276100Y175250D01*
X276070Y175269D01*
X276041Y175292D01*
X276011Y175322D01*
X275988Y175355D01*
X275985Y175358D01*
X275979Y175371D01*
X275969Y175391D01*
X275956Y175417D01*
X275946Y175446D01*
X275936Y175479D01*
X275929Y175519D01*
X275926Y175558D01*
Y175561D01*
Y175565D01*
X275929Y175584D01*
X275933Y175614D01*
X275939Y175653D01*
X275956Y175692D01*
X275975Y175738D01*
X276005Y175781D01*
X276044Y175824D01*
X276051Y175827D01*
X276067Y175840D01*
X276093Y175856D01*
X276136Y175876D01*
X276185Y175896D01*
X276251Y175912D01*
X276326Y175925D01*
X276415Y175928D01*
X277130D01*
Y175177D01*
D02*
G37*
G36*
X272348Y174531D02*
Y174528D01*
X272344Y174521D01*
X272341Y174512D01*
X272335Y174498D01*
X272331Y174479D01*
X272325Y174459D01*
X272308Y174410D01*
X272289Y174354D01*
X272269Y174292D01*
X272230Y174161D01*
Y174164D01*
X272226Y174170D01*
X272223Y174180D01*
X272220Y174193D01*
X272210Y174230D01*
X272194Y174279D01*
X272177Y174335D01*
X272157Y174397D01*
X272134Y174462D01*
X272108Y174531D01*
X271492Y176181D01*
X272938D01*
X272348Y174531D01*
D02*
G37*
D10*
X260567Y154602D02*
X258206D01*
X259386D01*
Y151060D01*
X255254D02*
X256434D01*
X257025Y151650D01*
Y152831D01*
X256434Y153421D01*
X255254D01*
X254663Y152831D01*
Y152241D01*
X257025D01*
X252892Y153421D02*
X251712D01*
X251121Y152831D01*
Y151060D01*
X252892D01*
X253483Y151650D01*
X252892Y152241D01*
X251121D01*
X249940Y151060D02*
Y153421D01*
X249350D01*
X248760Y152831D01*
Y151060D01*
Y152831D01*
X248169Y153421D01*
X247579Y152831D01*
Y151060D01*
X240495Y154012D02*
X241085Y154602D01*
X242266D01*
X242856Y154012D01*
Y151650D01*
X242266Y151060D01*
X241085D01*
X240495Y151650D01*
X236952Y151060D02*
X237543Y151650D01*
X238133Y151060D01*
X238724D01*
X239314Y151650D01*
Y152241D01*
X238724Y152831D01*
X239314Y153421D01*
Y154012D01*
X238724Y154602D01*
X238133D01*
X237543Y154012D01*
Y153421D01*
X238133Y152831D01*
X237543Y152241D01*
Y151650D01*
X236952Y152831D02*
X237543Y152241D01*
X238724Y152831D02*
X238133D01*
X235772Y154602D02*
Y151060D01*
Y152241D01*
X233410Y154602D01*
X235181Y152831D01*
X233410Y151060D01*
X228688D02*
Y154602D01*
X226916D01*
X226326Y154012D01*
Y152831D01*
X226916Y152241D01*
X228688D01*
X222784Y154012D02*
X223374Y154602D01*
X224555D01*
X225145Y154012D01*
Y151650D01*
X224555Y151060D01*
X223374D01*
X222784Y151650D01*
X221603Y154602D02*
Y151060D01*
X219832D01*
X219242Y151650D01*
Y152241D01*
X219832Y152831D01*
X221603D01*
X219832D01*
X219242Y153421D01*
Y154012D01*
X219832Y154602D01*
X221603D01*
X258206Y147871D02*
X258796Y148462D01*
X259977D01*
X260567Y147871D01*
Y147281D01*
X259977Y146691D01*
X258796D01*
X258206Y146100D01*
Y145510D01*
X258796Y144920D01*
X259977D01*
X260567Y145510D01*
X257025Y144920D02*
X255844D01*
X256434D01*
Y147281D01*
X257025D01*
X254073Y144920D02*
Y147281D01*
X253483D01*
X252892Y146691D01*
Y144920D01*
Y146691D01*
X252302Y147281D01*
X251712Y146691D01*
Y144920D01*
X249940D02*
X248760D01*
X248169Y145510D01*
Y146691D01*
X248760Y147281D01*
X249940D01*
X250531Y146691D01*
Y145510D01*
X249940Y144920D01*
X246989D02*
Y147281D01*
X245218D01*
X244627Y146691D01*
Y144920D01*
X237543Y147871D02*
X238133Y148462D01*
X239314D01*
X239904Y147871D01*
Y147281D01*
X239314Y146691D01*
X238133D01*
X237543Y146100D01*
Y145510D01*
X238133Y144920D01*
X239314D01*
X239904Y145510D01*
X235772Y147281D02*
X234591D01*
X234001Y146691D01*
Y144920D01*
X235772D01*
X236362Y145510D01*
X235772Y146100D01*
X234001D01*
X232820Y147281D02*
Y145510D01*
X232230Y144920D01*
X230459D01*
Y144329D01*
X231049Y143739D01*
X231639D01*
X230459Y144920D02*
Y147281D01*
X229278Y144920D02*
X227507D01*
X226916Y145510D01*
X227507Y146100D01*
X228688D01*
X229278Y146691D01*
X228688Y147281D01*
X226916D01*
X219832Y147871D02*
X220422Y148462D01*
X221603D01*
X222194Y147871D01*
Y145510D01*
X221603Y144920D01*
X220422D01*
X219832Y145510D01*
Y146691D01*
X221013D01*
X218061Y147281D02*
X216880D01*
X216290Y146691D01*
Y144920D01*
X218061D01*
X218651Y145510D01*
X218061Y146100D01*
X216290D01*
X215109Y144920D02*
Y147281D01*
X214519D01*
X213929Y146691D01*
Y144920D01*
Y146691D01*
X213338Y147281D01*
X212748Y146691D01*
Y144920D01*
X209796D02*
X210977D01*
X211567Y145510D01*
Y146691D01*
X210977Y147281D01*
X209796D01*
X209206Y146691D01*
Y146100D01*
X211567D01*
X260567Y137598D02*
Y141141D01*
X258796D01*
X258206Y140550D01*
Y139369D01*
X258796Y138779D01*
X260567D01*
X259386D02*
X258206Y137598D01*
X254663Y141141D02*
X257025D01*
Y137598D01*
X254663D01*
X257025Y139369D02*
X255844D01*
X253483Y141141D02*
Y138779D01*
X252302Y137598D01*
X251121Y138779D01*
Y141141D01*
X249940Y137598D02*
Y138189D01*
X249350D01*
Y137598D01*
X249940D01*
X246989D02*
X245808D01*
X246398D01*
Y141141D01*
X246989Y140550D01*
X244037Y137598D02*
Y138189D01*
X243446D01*
Y137598D01*
X244037D01*
X241085Y140550D02*
X240495Y141141D01*
X239314D01*
X238724Y140550D01*
Y138189D01*
X239314Y137598D01*
X240495D01*
X241085Y138189D01*
Y140550D01*
X237543Y137598D02*
Y138189D01*
X236952D01*
Y137598D01*
X237543D01*
X234591Y140550D02*
X234001Y141141D01*
X232820D01*
X232230Y140550D01*
Y138189D01*
X232820Y137598D01*
X234001D01*
X234591Y138189D01*
Y140550D01*
D146*
X244587Y101378D02*
D03*
M02*
