G04*
G04 #@! TF.GenerationSoftware,Altium Limited,Altium Designer,21.1.1 (26)*
G04*
G04 Layer_Color=65535*
%FSLAX25Y25*%
%MOIN*%
G70*
G04*
G04 #@! TF.SameCoordinates,969F4329-1E93-4840-8548-A094FB753E80*
G04*
G04*
G04 #@! TF.FilePolarity,Positive*
G04*
G01*
G75*
%ADD10C,0.00787*%
%ADD11C,0.00984*%
%ADD12C,0.00394*%
%ADD13C,0.01000*%
%ADD14C,0.00945*%
%ADD15C,0.00600*%
%ADD16C,0.01575*%
%ADD17C,0.00800*%
%ADD18C,0.00500*%
G36*
X205909Y86493D02*
X206283D01*
Y86418D01*
X206433D01*
Y86343D01*
X206583D01*
Y86268D01*
X206733D01*
Y86193D01*
X206808D01*
Y86118D01*
X206958D01*
Y86043D01*
X207033D01*
Y85968D01*
X207108D01*
Y85893D01*
X207183D01*
Y85818D01*
X207258D01*
Y85743D01*
Y85668D01*
X207333D01*
Y85593D01*
X207408D01*
Y85518D01*
Y85443D01*
X207483D01*
Y85369D01*
Y85294D01*
X207558D01*
Y85219D01*
Y85144D01*
Y85069D01*
X207633D01*
Y84994D01*
Y84919D01*
Y84844D01*
Y84769D01*
Y84694D01*
X207708D01*
Y84619D01*
Y84544D01*
Y84469D01*
Y84394D01*
Y84319D01*
Y84244D01*
Y84169D01*
Y84094D01*
Y84019D01*
Y83944D01*
Y83869D01*
Y83794D01*
Y83719D01*
Y83644D01*
Y83569D01*
Y83494D01*
Y83419D01*
Y83344D01*
Y83269D01*
Y83194D01*
Y83119D01*
Y83044D01*
Y82969D01*
Y82894D01*
Y82819D01*
Y82744D01*
Y82670D01*
Y82595D01*
Y82520D01*
Y82445D01*
Y82370D01*
Y82295D01*
Y82220D01*
Y82145D01*
Y82070D01*
Y81995D01*
Y81920D01*
Y81845D01*
Y81770D01*
Y81695D01*
Y81620D01*
Y81545D01*
Y81470D01*
Y81395D01*
Y81320D01*
Y81245D01*
Y81170D01*
Y81095D01*
Y81020D01*
Y80945D01*
Y80870D01*
Y80795D01*
Y80720D01*
Y80645D01*
Y80570D01*
Y80495D01*
Y80420D01*
Y80345D01*
Y80270D01*
Y80195D01*
Y80120D01*
Y80045D01*
Y79971D01*
Y79896D01*
Y79821D01*
Y79746D01*
Y79671D01*
Y79596D01*
Y79521D01*
Y79446D01*
Y79371D01*
Y79296D01*
Y79221D01*
Y79146D01*
Y79071D01*
Y78996D01*
Y78921D01*
Y78846D01*
Y78771D01*
X213631D01*
Y78696D01*
X214006D01*
Y78621D01*
X214230D01*
Y78546D01*
X214381D01*
Y78471D01*
X214530D01*
Y78396D01*
X214605D01*
Y78321D01*
X214755D01*
Y78246D01*
X214830D01*
Y78171D01*
X214905D01*
Y78096D01*
X214980D01*
Y78021D01*
X215055D01*
Y77946D01*
Y77871D01*
X215130D01*
Y77796D01*
X215205D01*
Y77721D01*
Y77646D01*
X215280D01*
Y77571D01*
Y77496D01*
X215355D01*
Y77421D01*
Y77346D01*
X215430D01*
Y77271D01*
Y77197D01*
Y77122D01*
Y77047D01*
Y76972D01*
X215505D01*
Y76897D01*
Y76822D01*
Y76747D01*
Y76672D01*
Y76597D01*
Y76522D01*
Y76447D01*
Y76372D01*
Y76297D01*
Y76222D01*
Y76147D01*
Y76072D01*
Y75997D01*
Y75922D01*
Y75847D01*
Y75772D01*
Y75697D01*
Y75622D01*
Y75547D01*
Y75472D01*
Y75397D01*
Y75322D01*
Y75247D01*
Y75172D01*
Y75097D01*
Y75022D01*
Y74947D01*
Y74872D01*
Y74797D01*
Y74722D01*
Y74647D01*
Y74572D01*
Y74497D01*
Y74423D01*
Y74348D01*
Y74273D01*
Y74198D01*
Y74123D01*
Y74048D01*
Y73973D01*
Y73898D01*
Y73823D01*
Y73748D01*
Y73673D01*
Y73598D01*
Y73523D01*
Y73448D01*
Y73373D01*
Y73298D01*
Y73223D01*
Y73148D01*
Y73073D01*
Y72998D01*
Y72923D01*
Y72848D01*
Y72773D01*
Y72698D01*
Y72623D01*
Y72548D01*
Y72473D01*
Y72398D01*
Y72323D01*
Y72248D01*
Y72173D01*
Y72098D01*
Y72023D01*
Y71948D01*
Y71873D01*
Y71798D01*
Y71724D01*
Y71649D01*
Y71574D01*
X215430D01*
Y71499D01*
Y71424D01*
Y71349D01*
Y71274D01*
X215355D01*
Y71199D01*
Y71124D01*
Y71049D01*
X215280D01*
Y70974D01*
Y70899D01*
X215205D01*
Y70824D01*
Y70749D01*
X215130D01*
Y70674D01*
X215055D01*
Y70599D01*
Y70524D01*
X214980D01*
Y70449D01*
X214905D01*
Y70374D01*
X214830D01*
Y70299D01*
X214680D01*
Y70224D01*
X214605D01*
Y70149D01*
X214530D01*
Y70074D01*
X214381D01*
Y69999D01*
X214230D01*
Y69924D01*
X214006D01*
Y69849D01*
X207708D01*
Y69774D01*
Y69699D01*
Y69624D01*
Y69549D01*
Y69474D01*
Y69399D01*
Y69324D01*
Y69249D01*
Y69174D01*
Y69099D01*
Y69024D01*
Y68950D01*
Y68875D01*
Y68800D01*
Y68725D01*
Y68650D01*
Y68575D01*
Y68500D01*
Y68425D01*
Y68350D01*
Y68275D01*
Y68200D01*
Y68125D01*
Y68050D01*
Y67975D01*
Y67900D01*
Y67825D01*
Y67750D01*
Y67675D01*
Y67600D01*
Y67525D01*
Y67450D01*
Y67375D01*
Y67300D01*
Y67225D01*
Y67150D01*
Y67075D01*
Y67000D01*
Y66925D01*
Y66850D01*
Y66775D01*
Y66700D01*
Y66625D01*
Y66550D01*
Y66475D01*
Y66400D01*
Y66325D01*
Y66250D01*
Y66176D01*
Y66101D01*
Y66026D01*
Y65951D01*
Y65876D01*
Y65801D01*
Y65726D01*
Y65651D01*
Y65576D01*
Y65501D01*
Y65426D01*
Y65351D01*
Y65276D01*
Y65201D01*
Y65126D01*
Y65051D01*
Y64976D01*
Y64901D01*
Y64826D01*
Y64751D01*
Y64676D01*
Y64601D01*
Y64526D01*
Y64451D01*
Y64376D01*
Y64301D01*
Y64226D01*
Y64151D01*
Y64076D01*
Y64001D01*
Y63926D01*
Y63851D01*
Y63776D01*
Y63701D01*
Y63626D01*
Y63551D01*
Y63477D01*
Y63402D01*
Y63327D01*
Y63252D01*
Y63177D01*
Y63102D01*
Y63027D01*
Y62952D01*
Y62877D01*
Y62802D01*
Y62727D01*
Y62652D01*
Y62577D01*
Y62502D01*
Y62427D01*
Y62352D01*
Y62277D01*
Y62202D01*
Y62127D01*
Y62052D01*
Y61977D01*
Y61902D01*
Y61827D01*
Y61752D01*
Y61677D01*
Y61602D01*
Y61527D01*
Y61452D01*
Y61377D01*
Y61302D01*
Y61227D01*
Y61152D01*
Y61077D01*
Y61002D01*
Y60927D01*
Y60852D01*
Y60778D01*
Y60703D01*
Y60628D01*
Y60553D01*
Y60478D01*
Y60403D01*
Y60328D01*
Y60253D01*
Y60178D01*
Y60103D01*
Y60028D01*
Y59953D01*
Y59878D01*
Y59803D01*
Y59728D01*
Y59653D01*
Y59578D01*
Y59503D01*
Y59428D01*
Y59353D01*
Y59278D01*
Y59203D01*
Y59128D01*
Y59053D01*
Y58978D01*
Y58903D01*
Y58828D01*
Y58753D01*
Y58678D01*
Y58603D01*
Y58528D01*
Y58453D01*
Y58378D01*
Y58303D01*
Y58228D01*
Y58153D01*
Y58078D01*
Y58004D01*
Y57929D01*
Y57854D01*
Y57779D01*
Y57704D01*
Y57629D01*
Y57554D01*
Y57479D01*
Y57404D01*
Y57329D01*
Y57254D01*
Y57179D01*
Y57104D01*
Y57029D01*
Y56954D01*
Y56879D01*
Y56804D01*
Y56729D01*
Y56654D01*
Y56579D01*
Y56504D01*
Y56429D01*
Y56354D01*
Y56279D01*
Y56204D01*
Y56129D01*
Y56054D01*
X207633D01*
Y55979D01*
Y55904D01*
Y55829D01*
Y55754D01*
Y55679D01*
X207558D01*
Y55604D01*
Y55529D01*
Y55454D01*
X207483D01*
Y55379D01*
Y55305D01*
X207408D01*
Y55230D01*
Y55155D01*
X207333D01*
Y55080D01*
X207258D01*
Y55005D01*
Y54930D01*
X207183D01*
Y54855D01*
X207108D01*
Y54780D01*
X207033D01*
Y54705D01*
X206958D01*
Y54630D01*
X206808D01*
Y54555D01*
X206733D01*
Y54480D01*
X206583D01*
Y54405D01*
X206433D01*
Y54330D01*
X206283D01*
Y54255D01*
X205909D01*
Y54180D01*
X200511D01*
Y54255D01*
X200211D01*
Y54330D01*
X199986D01*
Y54405D01*
X199836D01*
Y54480D01*
X199686D01*
Y54555D01*
X199611D01*
Y54630D01*
X199461D01*
Y54705D01*
X199386D01*
Y54780D01*
X199311D01*
Y54855D01*
X199236D01*
Y54930D01*
Y55005D01*
X199161D01*
Y55080D01*
X199086D01*
Y55155D01*
X199011D01*
Y55230D01*
Y55305D01*
X198936D01*
Y55379D01*
Y55454D01*
X198861D01*
Y55529D01*
Y55604D01*
Y55679D01*
X198786D01*
Y55754D01*
Y55829D01*
Y55904D01*
Y55979D01*
Y56054D01*
Y56129D01*
Y56204D01*
Y56279D01*
Y56354D01*
Y56429D01*
Y56504D01*
Y56579D01*
Y56654D01*
Y56729D01*
Y56804D01*
Y56879D01*
Y56954D01*
Y57029D01*
Y57104D01*
Y57179D01*
Y57254D01*
Y57329D01*
Y57404D01*
Y57479D01*
Y57554D01*
Y57629D01*
Y57704D01*
Y57779D01*
Y57854D01*
Y57929D01*
Y58004D01*
Y58078D01*
Y58153D01*
Y58228D01*
Y58303D01*
Y58378D01*
Y58453D01*
Y58528D01*
Y58603D01*
Y58678D01*
Y58753D01*
Y58828D01*
Y58903D01*
Y58978D01*
Y59053D01*
Y59128D01*
Y59203D01*
Y59278D01*
Y59353D01*
Y59428D01*
Y59503D01*
Y59578D01*
Y59653D01*
Y59728D01*
Y59803D01*
Y59878D01*
Y59953D01*
Y60028D01*
Y60103D01*
Y60178D01*
Y60253D01*
Y60328D01*
Y60403D01*
Y60478D01*
Y60553D01*
Y60628D01*
Y60703D01*
Y60778D01*
Y60852D01*
Y60927D01*
Y61002D01*
Y61077D01*
Y61152D01*
Y61227D01*
Y61302D01*
Y61377D01*
Y61452D01*
Y61527D01*
Y61602D01*
Y61677D01*
Y61752D01*
Y61827D01*
Y61902D01*
Y61977D01*
Y62052D01*
Y62127D01*
Y62202D01*
Y62277D01*
Y62352D01*
Y62427D01*
Y62502D01*
Y62577D01*
Y62652D01*
Y62727D01*
Y62802D01*
Y62877D01*
Y62952D01*
Y63027D01*
Y63102D01*
Y63177D01*
Y63252D01*
Y63327D01*
Y63402D01*
Y63477D01*
Y63551D01*
Y63626D01*
Y63701D01*
Y63776D01*
Y63851D01*
Y63926D01*
Y64001D01*
Y64076D01*
Y64151D01*
Y64226D01*
Y64301D01*
Y64376D01*
Y64451D01*
Y64526D01*
Y64601D01*
Y64676D01*
Y64751D01*
Y64826D01*
Y64901D01*
Y64976D01*
Y65051D01*
Y65126D01*
Y65201D01*
Y65276D01*
Y65351D01*
Y65426D01*
Y65501D01*
Y65576D01*
Y65651D01*
Y65726D01*
Y65801D01*
Y65876D01*
Y65951D01*
Y66026D01*
Y66101D01*
Y66176D01*
Y66250D01*
Y66325D01*
Y66400D01*
Y66475D01*
Y66550D01*
Y66625D01*
Y66700D01*
Y66775D01*
Y66850D01*
Y66925D01*
Y67000D01*
Y67075D01*
Y67150D01*
Y67225D01*
Y67300D01*
Y67375D01*
Y67450D01*
Y67525D01*
Y67600D01*
Y67675D01*
Y67750D01*
Y67825D01*
Y67900D01*
Y67975D01*
Y68050D01*
Y68125D01*
Y68200D01*
Y68275D01*
Y68350D01*
Y68425D01*
Y68500D01*
Y68575D01*
Y68650D01*
Y68725D01*
Y68800D01*
Y68875D01*
Y68950D01*
Y69024D01*
Y69099D01*
Y69174D01*
Y69249D01*
Y69324D01*
Y69399D01*
Y69474D01*
Y69549D01*
Y69624D01*
Y69699D01*
Y69774D01*
X198711D01*
Y69849D01*
X192114D01*
Y69774D01*
X192039D01*
Y69699D01*
Y69624D01*
Y69549D01*
Y69474D01*
Y69399D01*
Y69324D01*
Y69249D01*
Y69174D01*
Y69099D01*
Y69024D01*
Y68950D01*
Y68875D01*
Y68800D01*
Y68725D01*
Y68650D01*
Y68575D01*
Y68500D01*
Y68425D01*
Y68350D01*
Y68275D01*
Y68200D01*
Y68125D01*
Y68050D01*
Y67975D01*
Y67900D01*
Y67825D01*
Y67750D01*
Y67675D01*
Y67600D01*
Y67525D01*
Y67450D01*
Y67375D01*
Y67300D01*
Y67225D01*
Y67150D01*
Y67075D01*
Y67000D01*
Y66925D01*
Y66850D01*
Y66775D01*
Y66700D01*
Y66625D01*
Y66550D01*
Y66475D01*
Y66400D01*
Y66325D01*
Y66250D01*
Y66176D01*
Y66101D01*
Y66026D01*
Y65951D01*
Y65876D01*
Y65801D01*
Y65726D01*
Y65651D01*
Y65576D01*
Y65501D01*
Y65426D01*
Y65351D01*
Y65276D01*
Y65201D01*
Y65126D01*
Y65051D01*
Y64976D01*
Y64901D01*
Y64826D01*
Y64751D01*
Y64676D01*
Y64601D01*
Y64526D01*
Y64451D01*
Y64376D01*
Y64301D01*
Y64226D01*
Y64151D01*
Y64076D01*
Y64001D01*
Y63926D01*
Y63851D01*
Y63776D01*
Y63701D01*
Y63626D01*
Y63551D01*
X191964D01*
Y63477D01*
Y63402D01*
Y63327D01*
X191889D01*
Y63252D01*
Y63177D01*
X191814D01*
Y63102D01*
Y63027D01*
X191739D01*
Y62952D01*
Y62877D01*
X191664D01*
Y62802D01*
X191589D01*
Y62727D01*
X191514D01*
Y62652D01*
X191439D01*
Y62577D01*
X191364D01*
Y62502D01*
X191289D01*
Y62427D01*
X191214D01*
Y62352D01*
X191064D01*
Y62277D01*
X190989D01*
Y62202D01*
X190764D01*
Y62127D01*
X190614D01*
Y62052D01*
X190239D01*
Y61977D01*
X184991D01*
Y62052D01*
X184616D01*
Y62127D01*
X184391D01*
Y62202D01*
X184242D01*
Y62277D01*
X184092D01*
Y62352D01*
X184017D01*
Y62427D01*
X183867D01*
Y62502D01*
X183792D01*
Y62577D01*
X183717D01*
Y62652D01*
X183642D01*
Y62727D01*
X183567D01*
Y62802D01*
Y62877D01*
X183492D01*
Y62952D01*
X183417D01*
Y63027D01*
Y63102D01*
X183342D01*
Y63177D01*
Y63252D01*
X183267D01*
Y63327D01*
Y63402D01*
X183192D01*
Y63477D01*
Y63551D01*
Y63626D01*
Y63701D01*
Y63776D01*
X183117D01*
Y63851D01*
Y63926D01*
Y64001D01*
Y64076D01*
Y64151D01*
Y64226D01*
Y64301D01*
Y64376D01*
Y64451D01*
Y64526D01*
Y64601D01*
Y64676D01*
Y64751D01*
Y64826D01*
Y64901D01*
Y64976D01*
Y65051D01*
Y65126D01*
Y65201D01*
Y65276D01*
Y65351D01*
Y65426D01*
Y65501D01*
Y65576D01*
Y65651D01*
Y65726D01*
Y65801D01*
Y65876D01*
Y65951D01*
Y66026D01*
Y66101D01*
Y66176D01*
Y66250D01*
Y66325D01*
Y66400D01*
Y66475D01*
Y66550D01*
Y66625D01*
Y66700D01*
Y66775D01*
Y66850D01*
Y66925D01*
Y67000D01*
Y67075D01*
Y67150D01*
Y67225D01*
Y67300D01*
Y67375D01*
Y67450D01*
Y67525D01*
Y67600D01*
Y67675D01*
Y67750D01*
Y67825D01*
Y67900D01*
Y67975D01*
Y68050D01*
Y68125D01*
Y68200D01*
Y68275D01*
Y68350D01*
Y68425D01*
Y68500D01*
Y68575D01*
Y68650D01*
Y68725D01*
Y68800D01*
Y68875D01*
Y68950D01*
Y69024D01*
Y69099D01*
Y69174D01*
Y69249D01*
Y69324D01*
Y69399D01*
Y69474D01*
Y69549D01*
Y69624D01*
Y69699D01*
Y69774D01*
Y69849D01*
Y69924D01*
Y69999D01*
Y70074D01*
Y70149D01*
Y70224D01*
Y70299D01*
Y70374D01*
Y70449D01*
Y70524D01*
Y70599D01*
Y70674D01*
Y70749D01*
Y70824D01*
Y70899D01*
Y70974D01*
Y71049D01*
Y71124D01*
Y71199D01*
Y71274D01*
Y71349D01*
Y71424D01*
Y71499D01*
Y71574D01*
Y71649D01*
Y71724D01*
Y71798D01*
Y71873D01*
Y71948D01*
Y72023D01*
Y72098D01*
Y72173D01*
Y72248D01*
Y72323D01*
Y72398D01*
Y72473D01*
Y72548D01*
Y72623D01*
Y72698D01*
Y72773D01*
Y72848D01*
Y72923D01*
Y72998D01*
Y73073D01*
Y73148D01*
Y73223D01*
Y73298D01*
Y73373D01*
Y73448D01*
Y73523D01*
Y73598D01*
Y73673D01*
Y73748D01*
Y73823D01*
Y73898D01*
Y73973D01*
Y74048D01*
Y74123D01*
Y74198D01*
Y74273D01*
Y74348D01*
Y74423D01*
Y74497D01*
Y74572D01*
Y74647D01*
Y74722D01*
Y74797D01*
Y74872D01*
Y74947D01*
Y75022D01*
Y75097D01*
Y75172D01*
Y75247D01*
Y75322D01*
Y75397D01*
Y75472D01*
Y75547D01*
Y75622D01*
Y75697D01*
Y75772D01*
Y75847D01*
Y75922D01*
Y75997D01*
Y76072D01*
Y76147D01*
Y76222D01*
Y76297D01*
Y76372D01*
Y76447D01*
Y76522D01*
Y76597D01*
Y76672D01*
Y76747D01*
Y76822D01*
Y76897D01*
Y76972D01*
X183192D01*
Y77047D01*
Y77122D01*
Y77197D01*
Y77271D01*
Y77346D01*
X183267D01*
Y77421D01*
Y77496D01*
X183342D01*
Y77571D01*
Y77646D01*
X183417D01*
Y77721D01*
Y77796D01*
X183492D01*
Y77871D01*
X183567D01*
Y77946D01*
Y78021D01*
X183642D01*
Y78096D01*
X183717D01*
Y78171D01*
X183792D01*
Y78246D01*
X183867D01*
Y78321D01*
X184017D01*
Y78396D01*
X184092D01*
Y78471D01*
X184242D01*
Y78546D01*
X184391D01*
Y78621D01*
X184616D01*
Y78696D01*
X184991D01*
Y78771D01*
X198786D01*
Y78846D01*
Y78921D01*
Y78996D01*
Y79071D01*
Y79146D01*
Y79221D01*
Y79296D01*
Y79371D01*
Y79446D01*
Y79521D01*
Y79596D01*
Y79671D01*
Y79746D01*
Y79821D01*
Y79896D01*
Y79971D01*
Y80045D01*
Y80120D01*
Y80195D01*
Y80270D01*
Y80345D01*
Y80420D01*
Y80495D01*
Y80570D01*
Y80645D01*
Y80720D01*
Y80795D01*
Y80870D01*
Y80945D01*
Y81020D01*
Y81095D01*
Y81170D01*
Y81245D01*
Y81320D01*
Y81395D01*
Y81470D01*
Y81545D01*
Y81620D01*
Y81695D01*
Y81770D01*
Y81845D01*
Y81920D01*
Y81995D01*
Y82070D01*
Y82145D01*
Y82220D01*
Y82295D01*
Y82370D01*
Y82445D01*
Y82520D01*
Y82595D01*
Y82670D01*
Y82744D01*
Y82819D01*
Y82894D01*
Y82969D01*
Y83044D01*
Y83119D01*
Y83194D01*
Y83269D01*
Y83344D01*
Y83419D01*
Y83494D01*
Y83569D01*
Y83644D01*
Y83719D01*
Y83794D01*
Y83869D01*
Y83944D01*
Y84019D01*
Y84094D01*
Y84169D01*
Y84244D01*
Y84319D01*
Y84394D01*
Y84469D01*
Y84544D01*
Y84619D01*
Y84694D01*
Y84769D01*
Y84844D01*
Y84919D01*
Y84994D01*
Y85069D01*
X198861D01*
Y85144D01*
Y85219D01*
Y85294D01*
X198936D01*
Y85369D01*
Y85443D01*
X199011D01*
Y85518D01*
Y85593D01*
X199086D01*
Y85668D01*
X199161D01*
Y85743D01*
X199236D01*
Y85818D01*
Y85893D01*
X199311D01*
Y85968D01*
X199386D01*
Y86043D01*
X199461D01*
Y86118D01*
X199611D01*
Y86193D01*
X199686D01*
Y86268D01*
X199836D01*
Y86343D01*
X199986D01*
Y86418D01*
X200211D01*
Y86493D01*
X200511D01*
Y86568D01*
X205909D01*
Y86493D01*
D02*
G37*
G36*
X216330Y89492D02*
X216705D01*
Y89417D01*
X216855D01*
Y89342D01*
X217079D01*
Y89267D01*
X217229D01*
Y89192D01*
X217304D01*
Y89117D01*
X217454D01*
Y89042D01*
X217529D01*
Y88967D01*
X217604D01*
Y88892D01*
X217679D01*
Y88817D01*
X217754D01*
Y88742D01*
X217829D01*
Y88667D01*
X217904D01*
Y88592D01*
X217979D01*
Y88517D01*
X218054D01*
Y88442D01*
Y88367D01*
X218129D01*
Y88292D01*
X218204D01*
Y88217D01*
Y88143D01*
X218279D01*
Y88068D01*
Y87993D01*
Y87918D01*
X218354D01*
Y87843D01*
Y87768D01*
X218429D01*
Y87693D01*
Y87618D01*
Y87543D01*
Y87468D01*
Y87393D01*
X218504D01*
Y87318D01*
Y87243D01*
Y87168D01*
Y87093D01*
Y87018D01*
Y86943D01*
Y86868D01*
Y86793D01*
Y86718D01*
Y86643D01*
Y86568D01*
Y86493D01*
Y86418D01*
Y86343D01*
Y86268D01*
Y86193D01*
Y86118D01*
Y86043D01*
Y85968D01*
Y85893D01*
Y85818D01*
Y85743D01*
Y85668D01*
Y85593D01*
Y85518D01*
Y85443D01*
Y85369D01*
Y85294D01*
Y85219D01*
Y85144D01*
Y85069D01*
Y84994D01*
Y84919D01*
Y84844D01*
Y84769D01*
Y84694D01*
Y84619D01*
Y84544D01*
Y84469D01*
Y84394D01*
Y84319D01*
Y84244D01*
Y84169D01*
Y84094D01*
Y84019D01*
Y83944D01*
Y83869D01*
Y83794D01*
Y83719D01*
Y83644D01*
Y83569D01*
Y83494D01*
Y83419D01*
Y83344D01*
Y83269D01*
Y83194D01*
Y83119D01*
Y83044D01*
Y82969D01*
Y82894D01*
Y82819D01*
Y82744D01*
Y82670D01*
Y82595D01*
Y82520D01*
Y82445D01*
Y82370D01*
Y82295D01*
Y82220D01*
Y82145D01*
Y82070D01*
Y81995D01*
Y81920D01*
Y81845D01*
Y81770D01*
Y81695D01*
Y81620D01*
Y81545D01*
Y81470D01*
Y81395D01*
Y81320D01*
Y81245D01*
Y81170D01*
Y81095D01*
Y81020D01*
Y80945D01*
Y80870D01*
Y80795D01*
Y80720D01*
Y80645D01*
Y80570D01*
Y80495D01*
Y80420D01*
Y80345D01*
Y80270D01*
Y80195D01*
Y80120D01*
Y80045D01*
Y79971D01*
Y79896D01*
Y79821D01*
Y79746D01*
Y79671D01*
Y79596D01*
Y79521D01*
Y79446D01*
Y79371D01*
Y79296D01*
Y79221D01*
Y79146D01*
Y79071D01*
Y78996D01*
Y78921D01*
Y78846D01*
Y78771D01*
Y78696D01*
Y78621D01*
Y78546D01*
Y78471D01*
Y78396D01*
Y78321D01*
Y78246D01*
Y78171D01*
Y78096D01*
Y78021D01*
Y77946D01*
Y77871D01*
Y77796D01*
Y77721D01*
Y77646D01*
Y77571D01*
Y77496D01*
Y77421D01*
Y77346D01*
Y77271D01*
Y77197D01*
Y77122D01*
Y77047D01*
Y76972D01*
Y76897D01*
Y76822D01*
Y76747D01*
Y76672D01*
Y76597D01*
Y76522D01*
Y76447D01*
Y76372D01*
Y76297D01*
Y76222D01*
Y76147D01*
Y76072D01*
Y75997D01*
Y75922D01*
Y75847D01*
Y75772D01*
Y75697D01*
Y75622D01*
Y75547D01*
Y75472D01*
Y75397D01*
Y75322D01*
Y75247D01*
Y75172D01*
Y75097D01*
Y75022D01*
Y74947D01*
Y74872D01*
Y74797D01*
Y74722D01*
Y74647D01*
Y74572D01*
Y74497D01*
Y74423D01*
Y74348D01*
Y74273D01*
Y74198D01*
Y74123D01*
Y74048D01*
Y73973D01*
Y73898D01*
Y73823D01*
Y73748D01*
Y73673D01*
Y73598D01*
Y73523D01*
Y73448D01*
Y73373D01*
Y73298D01*
Y73223D01*
Y73148D01*
Y73073D01*
Y72998D01*
Y72923D01*
Y72848D01*
Y72773D01*
Y72698D01*
Y72623D01*
Y72548D01*
Y72473D01*
Y72398D01*
Y72323D01*
Y72248D01*
Y72173D01*
Y72098D01*
Y72023D01*
Y71948D01*
Y71873D01*
Y71798D01*
Y71724D01*
Y71649D01*
Y71574D01*
Y71499D01*
Y71424D01*
Y71349D01*
Y71274D01*
Y71199D01*
Y71124D01*
Y71049D01*
Y70974D01*
Y70899D01*
Y70824D01*
Y70749D01*
Y70674D01*
Y70599D01*
Y70524D01*
Y70449D01*
Y70374D01*
Y70299D01*
Y70224D01*
Y70149D01*
Y70074D01*
Y69999D01*
Y69924D01*
Y69849D01*
Y69774D01*
Y69699D01*
Y69624D01*
Y69549D01*
Y69474D01*
Y69399D01*
Y69324D01*
Y69249D01*
Y69174D01*
Y69099D01*
Y69024D01*
Y68950D01*
Y68875D01*
Y68800D01*
Y68725D01*
Y68650D01*
Y68575D01*
Y68500D01*
Y68425D01*
Y68350D01*
Y68275D01*
Y68200D01*
Y68125D01*
Y68050D01*
Y67975D01*
Y67900D01*
Y67825D01*
Y67750D01*
Y67675D01*
Y67600D01*
Y67525D01*
Y67450D01*
Y67375D01*
Y67300D01*
Y67225D01*
Y67150D01*
Y67075D01*
Y67000D01*
Y66925D01*
Y66850D01*
Y66775D01*
Y66700D01*
Y66625D01*
Y66550D01*
Y66475D01*
Y66400D01*
Y66325D01*
Y66250D01*
Y66176D01*
Y66101D01*
Y66026D01*
Y65951D01*
Y65876D01*
Y65801D01*
Y65726D01*
Y65651D01*
Y65576D01*
Y65501D01*
Y65426D01*
Y65351D01*
Y65276D01*
Y65201D01*
Y65126D01*
Y65051D01*
Y64976D01*
Y64901D01*
Y64826D01*
Y64751D01*
Y64676D01*
Y64601D01*
Y64526D01*
Y64451D01*
Y64376D01*
Y64301D01*
Y64226D01*
Y64151D01*
Y64076D01*
Y64001D01*
Y63926D01*
Y63851D01*
Y63776D01*
Y63701D01*
Y63626D01*
Y63551D01*
Y63477D01*
Y63402D01*
Y63327D01*
Y63252D01*
Y63177D01*
Y63102D01*
Y63027D01*
Y62952D01*
Y62877D01*
Y62802D01*
Y62727D01*
Y62652D01*
Y62577D01*
Y62502D01*
Y62427D01*
Y62352D01*
Y62277D01*
Y62202D01*
Y62127D01*
Y62052D01*
Y61977D01*
Y61902D01*
Y61827D01*
Y61752D01*
Y61677D01*
Y61602D01*
Y61527D01*
Y61452D01*
Y61377D01*
Y61302D01*
Y61227D01*
Y61152D01*
Y61077D01*
Y61002D01*
Y60927D01*
Y60852D01*
Y60778D01*
Y60703D01*
Y60628D01*
Y60553D01*
Y60478D01*
Y60403D01*
Y60328D01*
Y60253D01*
Y60178D01*
Y60103D01*
Y60028D01*
Y59953D01*
Y59878D01*
Y59803D01*
Y59728D01*
Y59653D01*
Y59578D01*
Y59503D01*
Y59428D01*
Y59353D01*
Y59278D01*
Y59203D01*
Y59128D01*
Y59053D01*
Y58978D01*
Y58903D01*
Y58828D01*
Y58753D01*
Y58678D01*
Y58603D01*
Y58528D01*
Y58453D01*
Y58378D01*
Y58303D01*
Y58228D01*
Y58153D01*
Y58078D01*
Y58004D01*
Y57929D01*
Y57854D01*
Y57779D01*
Y57704D01*
Y57629D01*
Y57554D01*
Y57479D01*
Y57404D01*
Y57329D01*
Y57254D01*
Y57179D01*
Y57104D01*
Y57029D01*
Y56954D01*
Y56879D01*
Y56804D01*
Y56729D01*
Y56654D01*
Y56579D01*
Y56504D01*
Y56429D01*
Y56354D01*
Y56279D01*
Y56204D01*
Y56129D01*
Y56054D01*
Y55979D01*
Y55904D01*
Y55829D01*
Y55754D01*
Y55679D01*
Y55604D01*
Y55529D01*
Y55454D01*
Y55379D01*
Y55305D01*
Y55230D01*
Y55155D01*
Y55080D01*
Y55005D01*
Y54930D01*
Y54855D01*
Y54780D01*
Y54705D01*
Y54630D01*
Y54555D01*
Y54480D01*
Y54405D01*
Y54330D01*
Y54255D01*
Y54180D01*
Y54105D01*
Y54030D01*
Y53955D01*
Y53880D01*
Y53805D01*
Y53730D01*
Y53655D01*
Y53580D01*
Y53505D01*
Y53430D01*
Y53355D01*
X218429D01*
Y53280D01*
Y53205D01*
Y53130D01*
Y53055D01*
Y52980D01*
X218354D01*
Y52905D01*
Y52830D01*
X218279D01*
Y52755D01*
Y52681D01*
Y52606D01*
X218204D01*
Y52531D01*
Y52456D01*
X218129D01*
Y52381D01*
X218054D01*
Y52306D01*
Y52231D01*
X217979D01*
Y52156D01*
X217904D01*
Y52081D01*
X217829D01*
Y52006D01*
X217754D01*
Y51931D01*
X217679D01*
Y51856D01*
X217604D01*
Y51781D01*
X217529D01*
Y51706D01*
X217454D01*
Y51631D01*
X217304D01*
Y51556D01*
X217229D01*
Y51481D01*
X217079D01*
Y51406D01*
X216855D01*
Y51331D01*
X216705D01*
Y51256D01*
X216330D01*
Y51181D01*
X210557D01*
Y51256D01*
X210407D01*
Y51331D01*
X210332D01*
Y51406D01*
X210257D01*
Y51481D01*
Y51556D01*
Y51631D01*
X210182D01*
Y51706D01*
Y51781D01*
Y51856D01*
X210257D01*
Y51931D01*
Y52006D01*
Y52081D01*
X210332D01*
Y52156D01*
X210407D01*
Y52231D01*
X210557D01*
Y52306D01*
X216255D01*
Y52381D01*
X216480D01*
Y52456D01*
X216630D01*
Y52531D01*
X216780D01*
Y52606D01*
X216855D01*
Y52681D01*
X216930D01*
Y52755D01*
X217004D01*
Y52830D01*
X217079D01*
Y52905D01*
X217154D01*
Y52980D01*
Y53055D01*
X217229D01*
Y53130D01*
Y53205D01*
X217304D01*
Y53280D01*
Y53355D01*
Y53430D01*
X217379D01*
Y53505D01*
Y53580D01*
Y53655D01*
Y53730D01*
Y53805D01*
Y53880D01*
Y53955D01*
Y54030D01*
Y54105D01*
Y54180D01*
Y54255D01*
Y54330D01*
Y54405D01*
Y54480D01*
Y54555D01*
Y54630D01*
Y54705D01*
Y54780D01*
Y54855D01*
Y54930D01*
Y55005D01*
Y55080D01*
Y55155D01*
Y55230D01*
Y55305D01*
Y55379D01*
Y55454D01*
Y55529D01*
Y55604D01*
Y55679D01*
Y55754D01*
Y55829D01*
Y55904D01*
Y55979D01*
Y56054D01*
Y56129D01*
Y56204D01*
Y56279D01*
Y56354D01*
Y56429D01*
Y56504D01*
Y56579D01*
Y56654D01*
Y56729D01*
Y56804D01*
Y56879D01*
Y56954D01*
Y57029D01*
Y57104D01*
Y57179D01*
Y57254D01*
Y57329D01*
Y57404D01*
Y57479D01*
Y57554D01*
Y57629D01*
Y57704D01*
Y57779D01*
Y57854D01*
Y57929D01*
Y58004D01*
Y58078D01*
Y58153D01*
Y58228D01*
Y58303D01*
Y58378D01*
Y58453D01*
Y58528D01*
Y58603D01*
Y58678D01*
Y58753D01*
Y58828D01*
Y58903D01*
Y58978D01*
Y59053D01*
Y59128D01*
Y59203D01*
Y59278D01*
Y59353D01*
Y59428D01*
Y59503D01*
Y59578D01*
Y59653D01*
Y59728D01*
Y59803D01*
Y59878D01*
Y59953D01*
Y60028D01*
Y60103D01*
Y60178D01*
Y60253D01*
Y60328D01*
Y60403D01*
Y60478D01*
Y60553D01*
Y60628D01*
Y60703D01*
Y60778D01*
Y60852D01*
Y60927D01*
Y61002D01*
Y61077D01*
Y61152D01*
Y61227D01*
Y61302D01*
Y61377D01*
Y61452D01*
Y61527D01*
Y61602D01*
Y61677D01*
Y61752D01*
Y61827D01*
Y61902D01*
Y61977D01*
Y62052D01*
Y62127D01*
Y62202D01*
Y62277D01*
Y62352D01*
Y62427D01*
Y62502D01*
Y62577D01*
Y62652D01*
Y62727D01*
Y62802D01*
Y62877D01*
Y62952D01*
Y63027D01*
Y63102D01*
Y63177D01*
Y63252D01*
Y63327D01*
Y63402D01*
Y63477D01*
Y63551D01*
Y63626D01*
Y63701D01*
Y63776D01*
Y63851D01*
Y63926D01*
Y64001D01*
Y64076D01*
Y64151D01*
Y64226D01*
Y64301D01*
Y64376D01*
Y64451D01*
Y64526D01*
Y64601D01*
Y64676D01*
Y64751D01*
Y64826D01*
Y64901D01*
Y64976D01*
Y65051D01*
Y65126D01*
Y65201D01*
Y65276D01*
Y65351D01*
Y65426D01*
Y65501D01*
Y65576D01*
Y65651D01*
Y65726D01*
Y65801D01*
Y65876D01*
Y65951D01*
Y66026D01*
Y66101D01*
Y66176D01*
Y66250D01*
Y66325D01*
Y66400D01*
Y66475D01*
Y66550D01*
Y66625D01*
Y66700D01*
Y66775D01*
Y66850D01*
Y66925D01*
Y67000D01*
Y67075D01*
Y67150D01*
Y67225D01*
Y67300D01*
Y67375D01*
Y67450D01*
Y67525D01*
Y67600D01*
Y67675D01*
Y67750D01*
Y67825D01*
Y67900D01*
Y67975D01*
Y68050D01*
Y68125D01*
Y68200D01*
Y68275D01*
Y68350D01*
Y68425D01*
Y68500D01*
Y68575D01*
Y68650D01*
Y68725D01*
Y68800D01*
Y68875D01*
Y68950D01*
Y69024D01*
Y69099D01*
Y69174D01*
Y69249D01*
Y69324D01*
Y69399D01*
Y69474D01*
Y69549D01*
Y69624D01*
Y69699D01*
Y69774D01*
Y69849D01*
Y69924D01*
Y69999D01*
Y70074D01*
Y70149D01*
Y70224D01*
Y70299D01*
Y70374D01*
Y70449D01*
Y70524D01*
Y70599D01*
Y70674D01*
Y70749D01*
Y70824D01*
Y70899D01*
Y70974D01*
Y71049D01*
Y71124D01*
Y71199D01*
Y71274D01*
Y71349D01*
Y71424D01*
Y71499D01*
Y71574D01*
Y71649D01*
Y71724D01*
Y71798D01*
Y71873D01*
Y71948D01*
Y72023D01*
Y72098D01*
Y72173D01*
Y72248D01*
Y72323D01*
Y72398D01*
Y72473D01*
Y72548D01*
Y72623D01*
Y72698D01*
Y72773D01*
Y72848D01*
Y72923D01*
Y72998D01*
Y73073D01*
Y73148D01*
Y73223D01*
Y73298D01*
Y73373D01*
Y73448D01*
Y73523D01*
Y73598D01*
Y73673D01*
Y73748D01*
Y73823D01*
Y73898D01*
Y73973D01*
Y74048D01*
Y74123D01*
Y74198D01*
Y74273D01*
Y74348D01*
Y74423D01*
Y74497D01*
Y74572D01*
Y74647D01*
Y74722D01*
Y74797D01*
Y74872D01*
Y74947D01*
Y75022D01*
Y75097D01*
Y75172D01*
Y75247D01*
Y75322D01*
Y75397D01*
Y75472D01*
Y75547D01*
Y75622D01*
Y75697D01*
Y75772D01*
Y75847D01*
Y75922D01*
Y75997D01*
Y76072D01*
Y76147D01*
Y76222D01*
Y76297D01*
Y76372D01*
Y76447D01*
Y76522D01*
Y76597D01*
Y76672D01*
Y76747D01*
Y76822D01*
Y76897D01*
Y76972D01*
Y77047D01*
Y77122D01*
Y77197D01*
Y77271D01*
Y77346D01*
Y77421D01*
Y77496D01*
Y77571D01*
Y77646D01*
Y77721D01*
Y77796D01*
Y77871D01*
Y77946D01*
Y78021D01*
Y78096D01*
Y78171D01*
Y78246D01*
Y78321D01*
Y78396D01*
Y78471D01*
Y78546D01*
Y78621D01*
Y78696D01*
Y78771D01*
Y78846D01*
Y78921D01*
Y78996D01*
Y79071D01*
Y79146D01*
Y79221D01*
Y79296D01*
Y79371D01*
Y79446D01*
Y79521D01*
Y79596D01*
Y79671D01*
Y79746D01*
Y79821D01*
Y79896D01*
Y79971D01*
Y80045D01*
Y80120D01*
Y80195D01*
Y80270D01*
Y80345D01*
Y80420D01*
Y80495D01*
Y80570D01*
Y80645D01*
Y80720D01*
Y80795D01*
Y80870D01*
Y80945D01*
Y81020D01*
Y81095D01*
Y81170D01*
Y81245D01*
Y81320D01*
Y81395D01*
Y81470D01*
Y81545D01*
Y81620D01*
Y81695D01*
Y81770D01*
Y81845D01*
Y81920D01*
Y81995D01*
Y82070D01*
Y82145D01*
Y82220D01*
Y82295D01*
Y82370D01*
Y82445D01*
Y82520D01*
Y82595D01*
Y82670D01*
Y82744D01*
Y82819D01*
Y82894D01*
Y82969D01*
Y83044D01*
Y83119D01*
Y83194D01*
Y83269D01*
Y83344D01*
Y83419D01*
Y83494D01*
Y83569D01*
Y83644D01*
Y83719D01*
Y83794D01*
Y83869D01*
Y83944D01*
Y84019D01*
Y84094D01*
Y84169D01*
Y84244D01*
Y84319D01*
Y84394D01*
Y84469D01*
Y84544D01*
Y84619D01*
Y84694D01*
Y84769D01*
Y84844D01*
Y84919D01*
Y84994D01*
Y85069D01*
Y85144D01*
Y85219D01*
Y85294D01*
Y85369D01*
Y85443D01*
Y85518D01*
Y85593D01*
Y85668D01*
Y85743D01*
Y85818D01*
Y85893D01*
Y85968D01*
Y86043D01*
Y86118D01*
Y86193D01*
Y86268D01*
Y86343D01*
Y86418D01*
Y86493D01*
Y86568D01*
Y86643D01*
Y86718D01*
Y86793D01*
Y86868D01*
Y86943D01*
Y87018D01*
Y87093D01*
Y87168D01*
Y87243D01*
Y87318D01*
X217304D01*
Y87393D01*
Y87468D01*
Y87543D01*
X217229D01*
Y87618D01*
Y87693D01*
X217154D01*
Y87768D01*
Y87843D01*
X217079D01*
Y87918D01*
X217004D01*
Y87993D01*
X216930D01*
Y88068D01*
X216855D01*
Y88143D01*
X216780D01*
Y88217D01*
X216630D01*
Y88292D01*
X216480D01*
Y88367D01*
X216255D01*
Y88442D01*
X182367D01*
Y88367D01*
X182142D01*
Y88292D01*
X181992D01*
Y88217D01*
X181843D01*
Y88143D01*
X181767D01*
Y88068D01*
X181693D01*
Y87993D01*
X181618D01*
Y87918D01*
X181543D01*
Y87843D01*
X181468D01*
Y87768D01*
Y87693D01*
X181393D01*
Y87618D01*
Y87543D01*
X181318D01*
Y87468D01*
Y87393D01*
Y87318D01*
X181243D01*
Y87243D01*
Y87168D01*
Y87093D01*
Y87018D01*
Y86943D01*
Y86868D01*
Y86793D01*
Y86718D01*
Y86643D01*
Y86568D01*
Y86493D01*
Y86418D01*
Y86343D01*
Y86268D01*
Y86193D01*
Y86118D01*
X181168D01*
Y86043D01*
Y85968D01*
X181093D01*
Y85893D01*
X181018D01*
Y85818D01*
X180868D01*
Y85743D01*
X180493D01*
Y85818D01*
X180343D01*
Y85893D01*
X180268D01*
Y85968D01*
X180193D01*
Y86043D01*
Y86118D01*
X180118D01*
Y86193D01*
Y86268D01*
Y86343D01*
Y86418D01*
Y86493D01*
Y86568D01*
Y86643D01*
Y86718D01*
Y86793D01*
Y86868D01*
Y86943D01*
Y87018D01*
Y87093D01*
Y87168D01*
Y87243D01*
Y87318D01*
Y87393D01*
X180193D01*
Y87468D01*
Y87543D01*
Y87618D01*
Y87693D01*
Y87768D01*
X180268D01*
Y87843D01*
Y87918D01*
X180343D01*
Y87993D01*
Y88068D01*
Y88143D01*
X180418D01*
Y88217D01*
Y88292D01*
X180493D01*
Y88367D01*
X180568D01*
Y88442D01*
Y88517D01*
X180643D01*
Y88592D01*
X180718D01*
Y88667D01*
X180793D01*
Y88742D01*
X180868D01*
Y88817D01*
X180943D01*
Y88892D01*
X181018D01*
Y88967D01*
X181093D01*
Y89042D01*
X181168D01*
Y89117D01*
X181318D01*
Y89192D01*
X181393D01*
Y89267D01*
X181543D01*
Y89342D01*
X181767D01*
Y89417D01*
X181918D01*
Y89492D01*
X182292D01*
Y89567D01*
X216330D01*
Y89492D01*
D02*
G37*
G36*
X180868Y84169D02*
X181018D01*
Y84094D01*
X181093D01*
Y84019D01*
X181168D01*
Y83944D01*
Y83869D01*
X181243D01*
Y83794D01*
Y83719D01*
Y83644D01*
Y83569D01*
Y83494D01*
Y83419D01*
Y83344D01*
Y83269D01*
Y83194D01*
Y83119D01*
Y83044D01*
Y82969D01*
Y82894D01*
Y82819D01*
Y82744D01*
Y82670D01*
Y82595D01*
Y82520D01*
Y82445D01*
Y82370D01*
Y82295D01*
Y82220D01*
Y82145D01*
Y82070D01*
Y81995D01*
Y81920D01*
Y81845D01*
Y81770D01*
Y81695D01*
Y81620D01*
Y81545D01*
Y81470D01*
Y81395D01*
Y81320D01*
Y81245D01*
Y81170D01*
Y81095D01*
Y81020D01*
Y80945D01*
Y80870D01*
Y80795D01*
Y80720D01*
Y80645D01*
Y80570D01*
Y80495D01*
Y80420D01*
Y80345D01*
Y80270D01*
Y80195D01*
Y80120D01*
Y80045D01*
Y79971D01*
Y79896D01*
Y79821D01*
Y79746D01*
Y79671D01*
Y79596D01*
Y79521D01*
Y79446D01*
Y79371D01*
Y79296D01*
Y79221D01*
Y79146D01*
Y79071D01*
Y78996D01*
Y78921D01*
Y78846D01*
Y78771D01*
Y78696D01*
Y78621D01*
Y78546D01*
Y78471D01*
Y78396D01*
Y78321D01*
Y78246D01*
Y78171D01*
Y78096D01*
Y78021D01*
Y77946D01*
Y77871D01*
Y77796D01*
Y77721D01*
Y77646D01*
Y77571D01*
Y77496D01*
Y77421D01*
Y77346D01*
Y77271D01*
Y77197D01*
Y77122D01*
Y77047D01*
Y76972D01*
Y76897D01*
Y76822D01*
Y76747D01*
Y76672D01*
Y76597D01*
Y76522D01*
Y76447D01*
Y76372D01*
Y76297D01*
Y76222D01*
Y76147D01*
Y76072D01*
Y75997D01*
Y75922D01*
Y75847D01*
Y75772D01*
Y75697D01*
Y75622D01*
Y75547D01*
Y75472D01*
Y75397D01*
Y75322D01*
Y75247D01*
Y75172D01*
Y75097D01*
Y75022D01*
Y74947D01*
Y74872D01*
Y74797D01*
Y74722D01*
Y74647D01*
Y74572D01*
Y74497D01*
Y74423D01*
Y74348D01*
Y74273D01*
Y74198D01*
Y74123D01*
Y74048D01*
Y73973D01*
Y73898D01*
Y73823D01*
Y73748D01*
Y73673D01*
Y73598D01*
Y73523D01*
Y73448D01*
Y73373D01*
Y73298D01*
Y73223D01*
Y73148D01*
Y73073D01*
Y72998D01*
Y72923D01*
Y72848D01*
Y72773D01*
Y72698D01*
Y72623D01*
Y72548D01*
Y72473D01*
Y72398D01*
Y72323D01*
Y72248D01*
Y72173D01*
Y72098D01*
Y72023D01*
Y71948D01*
Y71873D01*
Y71798D01*
Y71724D01*
Y71649D01*
Y71574D01*
Y71499D01*
Y71424D01*
Y71349D01*
Y71274D01*
Y71199D01*
Y71124D01*
Y71049D01*
Y70974D01*
Y70899D01*
Y70824D01*
Y70749D01*
Y70674D01*
Y70599D01*
Y70524D01*
Y70449D01*
Y70374D01*
Y70299D01*
Y70224D01*
Y70149D01*
Y70074D01*
Y69999D01*
Y69924D01*
Y69849D01*
Y69774D01*
Y69699D01*
Y69624D01*
Y69549D01*
Y69474D01*
Y69399D01*
Y69324D01*
Y69249D01*
Y69174D01*
Y69099D01*
Y69024D01*
Y68950D01*
Y68875D01*
Y68800D01*
Y68725D01*
Y68650D01*
Y68575D01*
Y68500D01*
Y68425D01*
Y68350D01*
Y68275D01*
Y68200D01*
Y68125D01*
Y68050D01*
Y67975D01*
Y67900D01*
Y67825D01*
Y67750D01*
Y67675D01*
Y67600D01*
Y67525D01*
Y67450D01*
Y67375D01*
Y67300D01*
Y67225D01*
Y67150D01*
Y67075D01*
Y67000D01*
Y66925D01*
Y66850D01*
Y66775D01*
Y66700D01*
Y66625D01*
Y66550D01*
Y66475D01*
Y66400D01*
Y66325D01*
Y66250D01*
Y66176D01*
Y66101D01*
Y66026D01*
Y65951D01*
Y65876D01*
Y65801D01*
Y65726D01*
Y65651D01*
Y65576D01*
Y65501D01*
Y65426D01*
Y65351D01*
Y65276D01*
Y65201D01*
Y65126D01*
Y65051D01*
Y64976D01*
Y64901D01*
Y64826D01*
Y64751D01*
Y64676D01*
Y64601D01*
Y64526D01*
Y64451D01*
Y64376D01*
Y64301D01*
Y64226D01*
Y64151D01*
Y64076D01*
Y64001D01*
Y63926D01*
Y63851D01*
Y63776D01*
Y63701D01*
Y63626D01*
Y63551D01*
Y63477D01*
Y63402D01*
Y63327D01*
Y63252D01*
Y63177D01*
Y63102D01*
Y63027D01*
Y62952D01*
Y62877D01*
Y62802D01*
Y62727D01*
Y62652D01*
Y62577D01*
Y62502D01*
Y62427D01*
Y62352D01*
Y62277D01*
Y62202D01*
Y62127D01*
Y62052D01*
Y61977D01*
Y61902D01*
Y61827D01*
Y61752D01*
Y61677D01*
Y61602D01*
Y61527D01*
Y61452D01*
Y61377D01*
Y61302D01*
Y61227D01*
Y61152D01*
Y61077D01*
Y61002D01*
Y60927D01*
Y60852D01*
Y60778D01*
Y60703D01*
Y60628D01*
Y60553D01*
Y60478D01*
Y60403D01*
Y60328D01*
Y60253D01*
Y60178D01*
Y60103D01*
Y60028D01*
Y59953D01*
Y59878D01*
Y59803D01*
Y59728D01*
Y59653D01*
Y59578D01*
Y59503D01*
Y59428D01*
Y59353D01*
Y59278D01*
Y59203D01*
Y59128D01*
Y59053D01*
Y58978D01*
Y58903D01*
Y58828D01*
Y58753D01*
Y58678D01*
Y58603D01*
Y58528D01*
Y58453D01*
Y58378D01*
Y58303D01*
Y58228D01*
Y58153D01*
Y58078D01*
Y58004D01*
Y57929D01*
Y57854D01*
Y57779D01*
Y57704D01*
Y57629D01*
Y57554D01*
Y57479D01*
Y57404D01*
Y57329D01*
Y57254D01*
Y57179D01*
Y57104D01*
Y57029D01*
Y56954D01*
Y56879D01*
Y56804D01*
Y56729D01*
Y56654D01*
Y56579D01*
Y56504D01*
Y56429D01*
Y56354D01*
Y56279D01*
Y56204D01*
Y56129D01*
Y56054D01*
Y55979D01*
Y55904D01*
Y55829D01*
Y55754D01*
Y55679D01*
Y55604D01*
Y55529D01*
Y55454D01*
Y55379D01*
Y55305D01*
Y55230D01*
Y55155D01*
Y55080D01*
Y55005D01*
Y54930D01*
Y54855D01*
Y54780D01*
Y54705D01*
Y54630D01*
Y54555D01*
Y54480D01*
Y54405D01*
Y54330D01*
Y54255D01*
Y54180D01*
Y54105D01*
Y54030D01*
Y53955D01*
Y53880D01*
Y53805D01*
Y53730D01*
Y53655D01*
Y53580D01*
Y53505D01*
Y53430D01*
X181318D01*
Y53355D01*
Y53280D01*
Y53205D01*
X181393D01*
Y53130D01*
Y53055D01*
X181468D01*
Y52980D01*
Y52905D01*
X181543D01*
Y52830D01*
X181618D01*
Y52755D01*
X181693D01*
Y52681D01*
X181767D01*
Y52606D01*
X181843D01*
Y52531D01*
X181992D01*
Y52456D01*
X182142D01*
Y52381D01*
X182367D01*
Y52306D01*
X208083D01*
Y52231D01*
X208233D01*
Y52156D01*
X208308D01*
Y52081D01*
X208383D01*
Y52006D01*
X208458D01*
Y51931D01*
Y51856D01*
Y51781D01*
Y51706D01*
Y51631D01*
Y51556D01*
Y51481D01*
X208383D01*
Y51406D01*
X208308D01*
Y51331D01*
X208233D01*
Y51256D01*
X208083D01*
Y51181D01*
X182292D01*
Y51256D01*
X181918D01*
Y51331D01*
X181767D01*
Y51406D01*
X181543D01*
Y51481D01*
X181393D01*
Y51556D01*
X181318D01*
Y51631D01*
X181168D01*
Y51706D01*
X181093D01*
Y51781D01*
X181018D01*
Y51856D01*
X180943D01*
Y51931D01*
X180868D01*
Y52006D01*
X180793D01*
Y52081D01*
X180718D01*
Y52156D01*
X180643D01*
Y52231D01*
X180568D01*
Y52306D01*
Y52381D01*
X180493D01*
Y52456D01*
X180418D01*
Y52531D01*
Y52606D01*
X180343D01*
Y52681D01*
Y52755D01*
Y52830D01*
X180268D01*
Y52905D01*
Y52980D01*
X180193D01*
Y53055D01*
Y53130D01*
Y53205D01*
Y53280D01*
Y53355D01*
X180118D01*
Y53430D01*
Y53505D01*
Y53580D01*
Y53655D01*
Y53730D01*
Y53805D01*
Y53880D01*
Y53955D01*
Y54030D01*
Y54105D01*
Y54180D01*
Y54255D01*
Y54330D01*
Y54405D01*
Y54480D01*
Y54555D01*
Y54630D01*
Y54705D01*
Y54780D01*
Y54855D01*
Y54930D01*
Y55005D01*
Y55080D01*
Y55155D01*
Y55230D01*
Y55305D01*
Y55379D01*
Y55454D01*
Y55529D01*
Y55604D01*
Y55679D01*
Y55754D01*
Y55829D01*
Y55904D01*
Y55979D01*
Y56054D01*
Y56129D01*
Y56204D01*
Y56279D01*
Y56354D01*
Y56429D01*
Y56504D01*
Y56579D01*
Y56654D01*
Y56729D01*
Y56804D01*
Y56879D01*
Y56954D01*
Y57029D01*
Y57104D01*
Y57179D01*
Y57254D01*
Y57329D01*
Y57404D01*
Y57479D01*
Y57554D01*
Y57629D01*
Y57704D01*
Y57779D01*
Y57854D01*
Y57929D01*
Y58004D01*
Y58078D01*
Y58153D01*
Y58228D01*
Y58303D01*
Y58378D01*
Y58453D01*
Y58528D01*
Y58603D01*
Y58678D01*
Y58753D01*
Y58828D01*
Y58903D01*
Y58978D01*
Y59053D01*
Y59128D01*
Y59203D01*
Y59278D01*
Y59353D01*
Y59428D01*
Y59503D01*
Y59578D01*
Y59653D01*
Y59728D01*
Y59803D01*
Y59878D01*
Y59953D01*
Y60028D01*
Y60103D01*
Y60178D01*
Y60253D01*
Y60328D01*
Y60403D01*
Y60478D01*
Y60553D01*
Y60628D01*
Y60703D01*
Y60778D01*
Y60852D01*
Y60927D01*
Y61002D01*
Y61077D01*
Y61152D01*
Y61227D01*
Y61302D01*
Y61377D01*
Y61452D01*
Y61527D01*
Y61602D01*
Y61677D01*
Y61752D01*
Y61827D01*
Y61902D01*
Y61977D01*
Y62052D01*
Y62127D01*
Y62202D01*
Y62277D01*
Y62352D01*
Y62427D01*
Y62502D01*
Y62577D01*
Y62652D01*
Y62727D01*
Y62802D01*
Y62877D01*
Y62952D01*
Y63027D01*
Y63102D01*
Y63177D01*
Y63252D01*
Y63327D01*
Y63402D01*
Y63477D01*
Y63551D01*
Y63626D01*
Y63701D01*
Y63776D01*
Y63851D01*
Y63926D01*
Y64001D01*
Y64076D01*
Y64151D01*
Y64226D01*
Y64301D01*
Y64376D01*
Y64451D01*
Y64526D01*
Y64601D01*
Y64676D01*
Y64751D01*
Y64826D01*
Y64901D01*
Y64976D01*
Y65051D01*
Y65126D01*
Y65201D01*
Y65276D01*
Y65351D01*
Y65426D01*
Y65501D01*
Y65576D01*
Y65651D01*
Y65726D01*
Y65801D01*
Y65876D01*
Y65951D01*
Y66026D01*
Y66101D01*
Y66176D01*
Y66250D01*
Y66325D01*
Y66400D01*
Y66475D01*
Y66550D01*
Y66625D01*
Y66700D01*
Y66775D01*
Y66850D01*
Y66925D01*
Y67000D01*
Y67075D01*
Y67150D01*
Y67225D01*
Y67300D01*
Y67375D01*
Y67450D01*
Y67525D01*
Y67600D01*
Y67675D01*
Y67750D01*
Y67825D01*
Y67900D01*
Y67975D01*
Y68050D01*
Y68125D01*
Y68200D01*
Y68275D01*
Y68350D01*
Y68425D01*
Y68500D01*
Y68575D01*
Y68650D01*
Y68725D01*
Y68800D01*
Y68875D01*
Y68950D01*
Y69024D01*
Y69099D01*
Y69174D01*
Y69249D01*
Y69324D01*
Y69399D01*
Y69474D01*
Y69549D01*
Y69624D01*
Y69699D01*
Y69774D01*
Y69849D01*
Y69924D01*
Y69999D01*
Y70074D01*
Y70149D01*
Y70224D01*
Y70299D01*
Y70374D01*
Y70449D01*
Y70524D01*
Y70599D01*
Y70674D01*
Y70749D01*
Y70824D01*
Y70899D01*
Y70974D01*
Y71049D01*
Y71124D01*
Y71199D01*
Y71274D01*
Y71349D01*
Y71424D01*
Y71499D01*
Y71574D01*
Y71649D01*
Y71724D01*
Y71798D01*
Y71873D01*
Y71948D01*
Y72023D01*
Y72098D01*
Y72173D01*
Y72248D01*
Y72323D01*
Y72398D01*
Y72473D01*
Y72548D01*
Y72623D01*
Y72698D01*
Y72773D01*
Y72848D01*
Y72923D01*
Y72998D01*
Y73073D01*
Y73148D01*
Y73223D01*
Y73298D01*
Y73373D01*
Y73448D01*
Y73523D01*
Y73598D01*
Y73673D01*
Y73748D01*
Y73823D01*
Y73898D01*
Y73973D01*
Y74048D01*
Y74123D01*
Y74198D01*
Y74273D01*
Y74348D01*
Y74423D01*
Y74497D01*
Y74572D01*
Y74647D01*
Y74722D01*
Y74797D01*
Y74872D01*
Y74947D01*
Y75022D01*
Y75097D01*
Y75172D01*
Y75247D01*
Y75322D01*
Y75397D01*
Y75472D01*
Y75547D01*
Y75622D01*
Y75697D01*
Y75772D01*
Y75847D01*
Y75922D01*
Y75997D01*
Y76072D01*
Y76147D01*
Y76222D01*
Y76297D01*
Y76372D01*
Y76447D01*
Y76522D01*
Y76597D01*
Y76672D01*
Y76747D01*
Y76822D01*
Y76897D01*
Y76972D01*
Y77047D01*
Y77122D01*
Y77197D01*
Y77271D01*
Y77346D01*
Y77421D01*
Y77496D01*
Y77571D01*
Y77646D01*
Y77721D01*
Y77796D01*
Y77871D01*
Y77946D01*
Y78021D01*
Y78096D01*
Y78171D01*
Y78246D01*
Y78321D01*
Y78396D01*
Y78471D01*
Y78546D01*
Y78621D01*
Y78696D01*
Y78771D01*
Y78846D01*
Y78921D01*
Y78996D01*
Y79071D01*
Y79146D01*
Y79221D01*
Y79296D01*
Y79371D01*
Y79446D01*
Y79521D01*
Y79596D01*
Y79671D01*
Y79746D01*
Y79821D01*
Y79896D01*
Y79971D01*
Y80045D01*
Y80120D01*
Y80195D01*
Y80270D01*
Y80345D01*
Y80420D01*
Y80495D01*
Y80570D01*
Y80645D01*
Y80720D01*
Y80795D01*
Y80870D01*
Y80945D01*
Y81020D01*
Y81095D01*
Y81170D01*
Y81245D01*
Y81320D01*
Y81395D01*
Y81470D01*
Y81545D01*
Y81620D01*
Y81695D01*
Y81770D01*
Y81845D01*
Y81920D01*
Y81995D01*
Y82070D01*
Y82145D01*
Y82220D01*
Y82295D01*
Y82370D01*
Y82445D01*
Y82520D01*
Y82595D01*
Y82670D01*
Y82744D01*
Y82819D01*
Y82894D01*
Y82969D01*
Y83044D01*
Y83119D01*
Y83194D01*
Y83269D01*
Y83344D01*
Y83419D01*
Y83494D01*
Y83569D01*
Y83644D01*
Y83719D01*
Y83794D01*
Y83869D01*
X180193D01*
Y83944D01*
Y84019D01*
X180268D01*
Y84094D01*
X180343D01*
Y84169D01*
X180418D01*
Y84244D01*
X180868D01*
Y84169D01*
D02*
G37*
%LPC*%
G36*
X205834Y85443D02*
X200586D01*
Y85369D01*
X200361D01*
Y85294D01*
X200286D01*
Y85219D01*
X200211D01*
Y85144D01*
X200136D01*
Y85069D01*
X200061D01*
Y84994D01*
X199986D01*
Y84919D01*
Y84844D01*
X199911D01*
Y84769D01*
Y84694D01*
Y84619D01*
Y84544D01*
Y84469D01*
X199836D01*
Y84394D01*
Y84319D01*
Y84244D01*
Y84169D01*
Y84094D01*
Y84019D01*
Y83944D01*
Y83869D01*
Y83794D01*
Y83719D01*
Y83644D01*
Y83569D01*
Y83494D01*
Y83419D01*
Y83344D01*
Y83269D01*
Y83194D01*
Y83119D01*
Y83044D01*
Y82969D01*
Y82894D01*
Y82819D01*
Y82744D01*
Y82670D01*
Y82595D01*
Y82520D01*
Y82445D01*
Y82370D01*
Y82295D01*
Y82220D01*
Y82145D01*
Y82070D01*
Y81995D01*
Y81920D01*
Y81845D01*
Y81770D01*
Y81695D01*
Y81620D01*
Y81545D01*
Y81470D01*
Y81395D01*
Y81320D01*
Y81245D01*
Y81170D01*
Y81095D01*
Y81020D01*
Y80945D01*
Y80870D01*
Y80795D01*
Y80720D01*
Y80645D01*
Y80570D01*
Y80495D01*
Y80420D01*
Y80345D01*
Y80270D01*
Y80195D01*
Y80120D01*
Y80045D01*
Y79971D01*
Y79896D01*
Y79821D01*
Y79746D01*
Y79671D01*
Y79596D01*
Y79521D01*
Y79446D01*
Y79371D01*
Y79296D01*
Y79221D01*
Y79146D01*
Y79071D01*
Y78996D01*
Y78921D01*
Y78846D01*
Y78771D01*
X206583D01*
Y78846D01*
Y78921D01*
Y78996D01*
Y79071D01*
Y79146D01*
Y79221D01*
Y79296D01*
Y79371D01*
Y79446D01*
Y79521D01*
Y79596D01*
Y79671D01*
Y79746D01*
Y79821D01*
Y79896D01*
Y79971D01*
Y80045D01*
Y80120D01*
Y80195D01*
Y80270D01*
Y80345D01*
Y80420D01*
Y80495D01*
Y80570D01*
Y80645D01*
Y80720D01*
Y80795D01*
Y80870D01*
Y80945D01*
Y81020D01*
Y81095D01*
Y81170D01*
Y81245D01*
Y81320D01*
Y81395D01*
Y81470D01*
Y81545D01*
Y81620D01*
Y81695D01*
Y81770D01*
Y81845D01*
Y81920D01*
Y81995D01*
Y82070D01*
Y82145D01*
Y82220D01*
Y82295D01*
Y82370D01*
Y82445D01*
Y82520D01*
Y82595D01*
Y82670D01*
Y82744D01*
Y82819D01*
Y82894D01*
Y82969D01*
Y83044D01*
Y83119D01*
Y83194D01*
Y83269D01*
Y83344D01*
Y83419D01*
Y83494D01*
Y83569D01*
Y83644D01*
Y83719D01*
Y83794D01*
Y83869D01*
Y83944D01*
Y84019D01*
Y84094D01*
Y84169D01*
Y84244D01*
Y84319D01*
Y84394D01*
Y84469D01*
Y84544D01*
Y84619D01*
X206508D01*
Y84694D01*
Y84769D01*
Y84844D01*
Y84919D01*
X206433D01*
Y84994D01*
X206358D01*
Y85069D01*
Y85144D01*
X206283D01*
Y85219D01*
X206134D01*
Y85294D01*
X206059D01*
Y85369D01*
X205834D01*
Y85443D01*
D02*
G37*
G36*
X213556Y77646D02*
X207708D01*
Y77571D01*
Y77496D01*
Y77421D01*
Y77346D01*
Y77271D01*
Y77197D01*
Y77122D01*
Y77047D01*
Y76972D01*
Y76897D01*
Y76822D01*
Y76747D01*
Y76672D01*
Y76597D01*
Y76522D01*
Y76447D01*
Y76372D01*
Y76297D01*
Y76222D01*
Y76147D01*
Y76072D01*
Y75997D01*
Y75922D01*
Y75847D01*
Y75772D01*
Y75697D01*
Y75622D01*
Y75547D01*
Y75472D01*
Y75397D01*
Y75322D01*
Y75247D01*
Y75172D01*
Y75097D01*
Y75022D01*
Y74947D01*
Y74872D01*
Y74797D01*
Y74722D01*
Y74647D01*
Y74572D01*
Y74497D01*
Y74423D01*
Y74348D01*
Y74273D01*
Y74198D01*
Y74123D01*
Y74048D01*
Y73973D01*
Y73898D01*
Y73823D01*
Y73748D01*
Y73673D01*
Y73598D01*
Y73523D01*
Y73448D01*
Y73373D01*
Y73298D01*
Y73223D01*
Y73148D01*
Y73073D01*
Y72998D01*
Y72923D01*
Y72848D01*
Y72773D01*
Y72698D01*
Y72623D01*
Y72548D01*
Y72473D01*
Y72398D01*
Y72323D01*
Y72248D01*
Y72173D01*
Y72098D01*
Y72023D01*
Y71948D01*
Y71873D01*
Y71798D01*
Y71724D01*
Y71649D01*
Y71574D01*
Y71499D01*
Y71424D01*
Y71349D01*
Y71274D01*
Y71199D01*
Y71124D01*
Y71049D01*
Y70974D01*
Y70899D01*
X213481D01*
Y70974D01*
X213781D01*
Y71049D01*
X213931D01*
Y71124D01*
X214006D01*
Y71199D01*
X214081D01*
Y71274D01*
X214156D01*
Y71349D01*
X214230D01*
Y71424D01*
X214305D01*
Y71499D01*
Y71574D01*
Y71649D01*
X214381D01*
Y71724D01*
Y71798D01*
Y71873D01*
Y71948D01*
Y72023D01*
Y72098D01*
Y72173D01*
Y72248D01*
Y72323D01*
Y72398D01*
Y72473D01*
Y72548D01*
Y72623D01*
Y72698D01*
Y72773D01*
Y72848D01*
Y72923D01*
Y72998D01*
Y73073D01*
Y73148D01*
Y73223D01*
Y73298D01*
Y73373D01*
Y73448D01*
Y73523D01*
Y73598D01*
Y73673D01*
Y73748D01*
Y73823D01*
Y73898D01*
Y73973D01*
Y74048D01*
Y74123D01*
Y74198D01*
Y74273D01*
Y74348D01*
Y74423D01*
Y74497D01*
Y74572D01*
Y74647D01*
Y74722D01*
Y74797D01*
Y74872D01*
Y74947D01*
Y75022D01*
Y75097D01*
Y75172D01*
Y75247D01*
Y75322D01*
Y75397D01*
Y75472D01*
Y75547D01*
Y75622D01*
Y75697D01*
Y75772D01*
Y75847D01*
Y75922D01*
Y75997D01*
Y76072D01*
Y76147D01*
Y76222D01*
Y76297D01*
Y76372D01*
Y76447D01*
Y76522D01*
Y76597D01*
Y76672D01*
Y76747D01*
Y76822D01*
Y76897D01*
X214305D01*
Y76972D01*
Y77047D01*
Y77122D01*
X214230D01*
Y77197D01*
X214156D01*
Y77271D01*
Y77346D01*
X214081D01*
Y77421D01*
X213931D01*
Y77496D01*
X213856D01*
Y77571D01*
X213556D01*
Y77646D01*
D02*
G37*
G36*
X206508D02*
X199911D01*
Y77571D01*
X199836D01*
Y77496D01*
Y77421D01*
Y77346D01*
Y77271D01*
Y77197D01*
Y77122D01*
Y77047D01*
Y76972D01*
Y76897D01*
Y76822D01*
Y76747D01*
Y76672D01*
Y76597D01*
Y76522D01*
Y76447D01*
Y76372D01*
Y76297D01*
Y76222D01*
Y76147D01*
Y76072D01*
Y75997D01*
Y75922D01*
Y75847D01*
Y75772D01*
Y75697D01*
Y75622D01*
Y75547D01*
Y75472D01*
Y75397D01*
Y75322D01*
Y75247D01*
Y75172D01*
Y75097D01*
Y75022D01*
Y74947D01*
Y74872D01*
Y74797D01*
Y74722D01*
Y74647D01*
Y74572D01*
Y74497D01*
Y74423D01*
Y74348D01*
Y74273D01*
Y74198D01*
Y74123D01*
Y74048D01*
Y73973D01*
Y73898D01*
Y73823D01*
Y73748D01*
Y73673D01*
Y73598D01*
Y73523D01*
Y73448D01*
Y73373D01*
Y73298D01*
Y73223D01*
Y73148D01*
Y73073D01*
Y72998D01*
Y72923D01*
Y72848D01*
Y72773D01*
Y72698D01*
Y72623D01*
Y72548D01*
Y72473D01*
Y72398D01*
Y72323D01*
Y72248D01*
Y72173D01*
Y72098D01*
Y72023D01*
Y71948D01*
Y71873D01*
Y71798D01*
Y71724D01*
Y71649D01*
Y71574D01*
Y71499D01*
Y71424D01*
Y71349D01*
Y71274D01*
Y71199D01*
Y71124D01*
Y71049D01*
Y70974D01*
X199911D01*
Y70899D01*
X206508D01*
Y70974D01*
X206583D01*
Y71049D01*
Y71124D01*
Y71199D01*
Y71274D01*
Y71349D01*
Y71424D01*
Y71499D01*
Y71574D01*
Y71649D01*
Y71724D01*
Y71798D01*
Y71873D01*
Y71948D01*
Y72023D01*
Y72098D01*
Y72173D01*
Y72248D01*
Y72323D01*
Y72398D01*
Y72473D01*
Y72548D01*
Y72623D01*
Y72698D01*
Y72773D01*
Y72848D01*
Y72923D01*
Y72998D01*
Y73073D01*
Y73148D01*
Y73223D01*
Y73298D01*
Y73373D01*
Y73448D01*
Y73523D01*
Y73598D01*
Y73673D01*
Y73748D01*
Y73823D01*
Y73898D01*
Y73973D01*
Y74048D01*
Y74123D01*
Y74198D01*
Y74273D01*
Y74348D01*
Y74423D01*
Y74497D01*
Y74572D01*
Y74647D01*
Y74722D01*
Y74797D01*
Y74872D01*
Y74947D01*
Y75022D01*
Y75097D01*
Y75172D01*
Y75247D01*
Y75322D01*
Y75397D01*
Y75472D01*
Y75547D01*
Y75622D01*
Y75697D01*
Y75772D01*
Y75847D01*
Y75922D01*
Y75997D01*
Y76072D01*
Y76147D01*
Y76222D01*
Y76297D01*
Y76372D01*
Y76447D01*
Y76522D01*
Y76597D01*
Y76672D01*
Y76747D01*
Y76822D01*
Y76897D01*
Y76972D01*
Y77047D01*
Y77122D01*
Y77197D01*
Y77271D01*
Y77346D01*
Y77421D01*
Y77496D01*
Y77571D01*
X206508D01*
Y77646D01*
D02*
G37*
G36*
X198711D02*
X192114D01*
Y77571D01*
X192039D01*
Y77496D01*
Y77421D01*
Y77346D01*
Y77271D01*
Y77197D01*
Y77122D01*
Y77047D01*
Y76972D01*
Y76897D01*
Y76822D01*
Y76747D01*
Y76672D01*
Y76597D01*
Y76522D01*
Y76447D01*
Y76372D01*
Y76297D01*
Y76222D01*
Y76147D01*
Y76072D01*
Y75997D01*
Y75922D01*
Y75847D01*
Y75772D01*
Y75697D01*
Y75622D01*
Y75547D01*
Y75472D01*
Y75397D01*
Y75322D01*
Y75247D01*
Y75172D01*
Y75097D01*
Y75022D01*
Y74947D01*
Y74872D01*
Y74797D01*
Y74722D01*
Y74647D01*
Y74572D01*
Y74497D01*
Y74423D01*
Y74348D01*
Y74273D01*
Y74198D01*
Y74123D01*
Y74048D01*
Y73973D01*
Y73898D01*
Y73823D01*
Y73748D01*
Y73673D01*
Y73598D01*
Y73523D01*
Y73448D01*
Y73373D01*
Y73298D01*
Y73223D01*
Y73148D01*
Y73073D01*
Y72998D01*
Y72923D01*
Y72848D01*
Y72773D01*
Y72698D01*
Y72623D01*
Y72548D01*
Y72473D01*
Y72398D01*
Y72323D01*
Y72248D01*
Y72173D01*
Y72098D01*
Y72023D01*
Y71948D01*
Y71873D01*
Y71798D01*
Y71724D01*
Y71649D01*
Y71574D01*
Y71499D01*
Y71424D01*
Y71349D01*
Y71274D01*
Y71199D01*
Y71124D01*
Y71049D01*
Y70974D01*
X192114D01*
Y70899D01*
X198711D01*
Y70974D01*
X198786D01*
Y71049D01*
Y71124D01*
Y71199D01*
Y71274D01*
Y71349D01*
Y71424D01*
Y71499D01*
Y71574D01*
Y71649D01*
Y71724D01*
Y71798D01*
Y71873D01*
Y71948D01*
Y72023D01*
Y72098D01*
Y72173D01*
Y72248D01*
Y72323D01*
Y72398D01*
Y72473D01*
Y72548D01*
Y72623D01*
Y72698D01*
Y72773D01*
Y72848D01*
Y72923D01*
Y72998D01*
Y73073D01*
Y73148D01*
Y73223D01*
Y73298D01*
Y73373D01*
Y73448D01*
Y73523D01*
Y73598D01*
Y73673D01*
Y73748D01*
Y73823D01*
Y73898D01*
Y73973D01*
Y74048D01*
Y74123D01*
Y74198D01*
Y74273D01*
Y74348D01*
Y74423D01*
Y74497D01*
Y74572D01*
Y74647D01*
Y74722D01*
Y74797D01*
Y74872D01*
Y74947D01*
Y75022D01*
Y75097D01*
Y75172D01*
Y75247D01*
Y75322D01*
Y75397D01*
Y75472D01*
Y75547D01*
Y75622D01*
Y75697D01*
Y75772D01*
Y75847D01*
Y75922D01*
Y75997D01*
Y76072D01*
Y76147D01*
Y76222D01*
Y76297D01*
Y76372D01*
Y76447D01*
Y76522D01*
Y76597D01*
Y76672D01*
Y76747D01*
Y76822D01*
Y76897D01*
Y76972D01*
Y77047D01*
Y77122D01*
Y77197D01*
Y77271D01*
Y77346D01*
Y77421D01*
Y77496D01*
Y77571D01*
X198711D01*
Y77646D01*
D02*
G37*
G36*
X190914D02*
X185066D01*
Y77571D01*
X184766D01*
Y77496D01*
X184691D01*
Y77421D01*
X184541D01*
Y77346D01*
X184467D01*
Y77271D01*
Y77197D01*
X184391D01*
Y77122D01*
X184317D01*
Y77047D01*
Y76972D01*
Y76897D01*
X184242D01*
Y76822D01*
Y76747D01*
Y76672D01*
Y76597D01*
Y76522D01*
Y76447D01*
Y76372D01*
Y76297D01*
Y76222D01*
Y76147D01*
Y76072D01*
Y75997D01*
Y75922D01*
Y75847D01*
Y75772D01*
Y75697D01*
Y75622D01*
Y75547D01*
Y75472D01*
Y75397D01*
Y75322D01*
Y75247D01*
Y75172D01*
Y75097D01*
Y75022D01*
Y74947D01*
Y74872D01*
Y74797D01*
Y74722D01*
Y74647D01*
Y74572D01*
Y74497D01*
Y74423D01*
Y74348D01*
Y74273D01*
Y74198D01*
Y74123D01*
Y74048D01*
Y73973D01*
Y73898D01*
Y73823D01*
Y73748D01*
Y73673D01*
Y73598D01*
Y73523D01*
Y73448D01*
Y73373D01*
Y73298D01*
Y73223D01*
Y73148D01*
Y73073D01*
Y72998D01*
Y72923D01*
Y72848D01*
Y72773D01*
Y72698D01*
Y72623D01*
Y72548D01*
Y72473D01*
Y72398D01*
Y72323D01*
Y72248D01*
Y72173D01*
Y72098D01*
Y72023D01*
Y71948D01*
Y71873D01*
Y71798D01*
Y71724D01*
Y71649D01*
Y71574D01*
Y71499D01*
Y71424D01*
Y71349D01*
Y71274D01*
Y71199D01*
Y71124D01*
Y71049D01*
Y70974D01*
X184317D01*
Y70899D01*
X190914D01*
Y70974D01*
Y71049D01*
Y71124D01*
Y71199D01*
Y71274D01*
Y71349D01*
Y71424D01*
Y71499D01*
Y71574D01*
Y71649D01*
Y71724D01*
Y71798D01*
Y71873D01*
Y71948D01*
Y72023D01*
Y72098D01*
Y72173D01*
Y72248D01*
Y72323D01*
Y72398D01*
Y72473D01*
Y72548D01*
Y72623D01*
Y72698D01*
Y72773D01*
Y72848D01*
Y72923D01*
Y72998D01*
Y73073D01*
Y73148D01*
Y73223D01*
Y73298D01*
Y73373D01*
Y73448D01*
Y73523D01*
Y73598D01*
Y73673D01*
Y73748D01*
Y73823D01*
Y73898D01*
Y73973D01*
Y74048D01*
Y74123D01*
Y74198D01*
Y74273D01*
Y74348D01*
Y74423D01*
Y74497D01*
Y74572D01*
Y74647D01*
Y74722D01*
Y74797D01*
Y74872D01*
Y74947D01*
Y75022D01*
Y75097D01*
Y75172D01*
Y75247D01*
Y75322D01*
Y75397D01*
Y75472D01*
Y75547D01*
Y75622D01*
Y75697D01*
Y75772D01*
Y75847D01*
Y75922D01*
Y75997D01*
Y76072D01*
Y76147D01*
Y76222D01*
Y76297D01*
Y76372D01*
Y76447D01*
Y76522D01*
Y76597D01*
Y76672D01*
Y76747D01*
Y76822D01*
Y76897D01*
Y76972D01*
Y77047D01*
Y77122D01*
Y77197D01*
Y77271D01*
Y77346D01*
Y77421D01*
Y77496D01*
Y77571D01*
Y77646D01*
D02*
G37*
G36*
X206508Y69849D02*
X199911D01*
Y69774D01*
X199836D01*
Y69699D01*
Y69624D01*
Y69549D01*
Y69474D01*
Y69399D01*
Y69324D01*
Y69249D01*
Y69174D01*
Y69099D01*
Y69024D01*
Y68950D01*
Y68875D01*
Y68800D01*
Y68725D01*
Y68650D01*
Y68575D01*
Y68500D01*
Y68425D01*
Y68350D01*
Y68275D01*
Y68200D01*
Y68125D01*
Y68050D01*
Y67975D01*
Y67900D01*
Y67825D01*
Y67750D01*
Y67675D01*
Y67600D01*
Y67525D01*
Y67450D01*
Y67375D01*
Y67300D01*
Y67225D01*
Y67150D01*
Y67075D01*
Y67000D01*
Y66925D01*
Y66850D01*
Y66775D01*
Y66700D01*
Y66625D01*
Y66550D01*
Y66475D01*
Y66400D01*
Y66325D01*
Y66250D01*
Y66176D01*
Y66101D01*
Y66026D01*
Y65951D01*
Y65876D01*
Y65801D01*
Y65726D01*
Y65651D01*
Y65576D01*
Y65501D01*
Y65426D01*
Y65351D01*
Y65276D01*
Y65201D01*
Y65126D01*
Y65051D01*
Y64976D01*
Y64901D01*
Y64826D01*
Y64751D01*
Y64676D01*
Y64601D01*
Y64526D01*
Y64451D01*
Y64376D01*
Y64301D01*
Y64226D01*
Y64151D01*
Y64076D01*
Y64001D01*
Y63926D01*
Y63851D01*
Y63776D01*
Y63701D01*
Y63626D01*
Y63551D01*
Y63477D01*
Y63402D01*
Y63327D01*
Y63252D01*
Y63177D01*
X199911D01*
Y63102D01*
X206508D01*
Y63177D01*
X206583D01*
Y63252D01*
Y63327D01*
Y63402D01*
Y63477D01*
Y63551D01*
Y63626D01*
Y63701D01*
Y63776D01*
Y63851D01*
Y63926D01*
Y64001D01*
Y64076D01*
Y64151D01*
Y64226D01*
Y64301D01*
Y64376D01*
Y64451D01*
Y64526D01*
Y64601D01*
Y64676D01*
Y64751D01*
Y64826D01*
Y64901D01*
Y64976D01*
Y65051D01*
Y65126D01*
Y65201D01*
Y65276D01*
Y65351D01*
Y65426D01*
Y65501D01*
Y65576D01*
Y65651D01*
Y65726D01*
Y65801D01*
Y65876D01*
Y65951D01*
Y66026D01*
Y66101D01*
Y66176D01*
Y66250D01*
Y66325D01*
Y66400D01*
Y66475D01*
Y66550D01*
Y66625D01*
Y66700D01*
Y66775D01*
Y66850D01*
Y66925D01*
Y67000D01*
Y67075D01*
Y67150D01*
Y67225D01*
Y67300D01*
Y67375D01*
Y67450D01*
Y67525D01*
Y67600D01*
Y67675D01*
Y67750D01*
Y67825D01*
Y67900D01*
Y67975D01*
Y68050D01*
Y68125D01*
Y68200D01*
Y68275D01*
Y68350D01*
Y68425D01*
Y68500D01*
Y68575D01*
Y68650D01*
Y68725D01*
Y68800D01*
Y68875D01*
Y68950D01*
Y69024D01*
Y69099D01*
Y69174D01*
Y69249D01*
Y69324D01*
Y69399D01*
Y69474D01*
Y69549D01*
Y69624D01*
Y69699D01*
Y69774D01*
X206508D01*
Y69849D01*
D02*
G37*
G36*
X190914D02*
X184317D01*
Y69774D01*
X184242D01*
Y69699D01*
Y69624D01*
Y69549D01*
Y69474D01*
Y69399D01*
Y69324D01*
Y69249D01*
Y69174D01*
Y69099D01*
Y69024D01*
Y68950D01*
Y68875D01*
Y68800D01*
Y68725D01*
Y68650D01*
Y68575D01*
Y68500D01*
Y68425D01*
Y68350D01*
Y68275D01*
Y68200D01*
Y68125D01*
Y68050D01*
Y67975D01*
Y67900D01*
Y67825D01*
Y67750D01*
Y67675D01*
Y67600D01*
Y67525D01*
Y67450D01*
Y67375D01*
Y67300D01*
Y67225D01*
Y67150D01*
Y67075D01*
Y67000D01*
Y66925D01*
Y66850D01*
Y66775D01*
Y66700D01*
Y66625D01*
Y66550D01*
Y66475D01*
Y66400D01*
Y66325D01*
Y66250D01*
Y66176D01*
Y66101D01*
Y66026D01*
Y65951D01*
Y65876D01*
Y65801D01*
Y65726D01*
Y65651D01*
Y65576D01*
Y65501D01*
Y65426D01*
Y65351D01*
Y65276D01*
Y65201D01*
Y65126D01*
Y65051D01*
Y64976D01*
Y64901D01*
Y64826D01*
Y64751D01*
Y64676D01*
Y64601D01*
Y64526D01*
Y64451D01*
Y64376D01*
Y64301D01*
Y64226D01*
Y64151D01*
Y64076D01*
Y64001D01*
Y63926D01*
Y63851D01*
X184317D01*
Y63776D01*
Y63701D01*
Y63626D01*
X184391D01*
Y63551D01*
X184467D01*
Y63477D01*
Y63402D01*
X184541D01*
Y63327D01*
X184691D01*
Y63252D01*
X184766D01*
Y63177D01*
X185066D01*
Y63102D01*
X190164D01*
Y63177D01*
X190389D01*
Y63252D01*
X190539D01*
Y63327D01*
X190614D01*
Y63402D01*
X190689D01*
Y63477D01*
X190764D01*
Y63551D01*
X190839D01*
Y63626D01*
Y63701D01*
X190914D01*
Y63776D01*
Y63851D01*
Y63926D01*
Y64001D01*
Y64076D01*
Y64151D01*
Y64226D01*
Y64301D01*
Y64376D01*
Y64451D01*
Y64526D01*
Y64601D01*
Y64676D01*
Y64751D01*
Y64826D01*
Y64901D01*
Y64976D01*
Y65051D01*
Y65126D01*
Y65201D01*
Y65276D01*
Y65351D01*
Y65426D01*
Y65501D01*
Y65576D01*
Y65651D01*
Y65726D01*
Y65801D01*
Y65876D01*
Y65951D01*
Y66026D01*
Y66101D01*
Y66176D01*
Y66250D01*
Y66325D01*
Y66400D01*
Y66475D01*
Y66550D01*
Y66625D01*
Y66700D01*
Y66775D01*
Y66850D01*
Y66925D01*
Y67000D01*
Y67075D01*
Y67150D01*
Y67225D01*
Y67300D01*
Y67375D01*
Y67450D01*
Y67525D01*
Y67600D01*
Y67675D01*
Y67750D01*
Y67825D01*
Y67900D01*
Y67975D01*
Y68050D01*
Y68125D01*
Y68200D01*
Y68275D01*
Y68350D01*
Y68425D01*
Y68500D01*
Y68575D01*
Y68650D01*
Y68725D01*
Y68800D01*
Y68875D01*
Y68950D01*
Y69024D01*
Y69099D01*
Y69174D01*
Y69249D01*
Y69324D01*
Y69399D01*
Y69474D01*
Y69549D01*
Y69624D01*
Y69699D01*
Y69774D01*
Y69849D01*
D02*
G37*
G36*
X206583Y61977D02*
X199836D01*
Y61902D01*
Y61827D01*
Y61752D01*
Y61677D01*
Y61602D01*
Y61527D01*
Y61452D01*
Y61377D01*
Y61302D01*
Y61227D01*
Y61152D01*
Y61077D01*
Y61002D01*
Y60927D01*
Y60852D01*
Y60778D01*
Y60703D01*
Y60628D01*
Y60553D01*
Y60478D01*
Y60403D01*
Y60328D01*
Y60253D01*
Y60178D01*
Y60103D01*
Y60028D01*
Y59953D01*
Y59878D01*
Y59803D01*
Y59728D01*
Y59653D01*
Y59578D01*
Y59503D01*
Y59428D01*
Y59353D01*
Y59278D01*
Y59203D01*
Y59128D01*
Y59053D01*
Y58978D01*
Y58903D01*
Y58828D01*
Y58753D01*
Y58678D01*
Y58603D01*
Y58528D01*
Y58453D01*
Y58378D01*
Y58303D01*
Y58228D01*
Y58153D01*
Y58078D01*
Y58004D01*
Y57929D01*
Y57854D01*
Y57779D01*
Y57704D01*
Y57629D01*
Y57554D01*
Y57479D01*
Y57404D01*
Y57329D01*
Y57254D01*
Y57179D01*
Y57104D01*
Y57029D01*
Y56954D01*
Y56879D01*
Y56804D01*
Y56729D01*
Y56654D01*
Y56579D01*
Y56504D01*
Y56429D01*
Y56354D01*
Y56279D01*
X199911D01*
Y56204D01*
Y56129D01*
Y56054D01*
Y55979D01*
Y55904D01*
X199986D01*
Y55829D01*
Y55754D01*
X200061D01*
Y55679D01*
X200136D01*
Y55604D01*
X200211D01*
Y55529D01*
X200286D01*
Y55454D01*
X200361D01*
Y55379D01*
X200586D01*
Y55305D01*
X205834D01*
Y55379D01*
X206059D01*
Y55454D01*
X206134D01*
Y55529D01*
X206283D01*
Y55604D01*
X206358D01*
Y55679D01*
Y55754D01*
X206433D01*
Y55829D01*
X206508D01*
Y55904D01*
Y55979D01*
Y56054D01*
Y56129D01*
X206583D01*
Y56204D01*
Y56279D01*
Y56354D01*
Y56429D01*
Y56504D01*
Y56579D01*
Y56654D01*
Y56729D01*
Y56804D01*
Y56879D01*
Y56954D01*
Y57029D01*
Y57104D01*
Y57179D01*
Y57254D01*
Y57329D01*
Y57404D01*
Y57479D01*
Y57554D01*
Y57629D01*
Y57704D01*
Y57779D01*
Y57854D01*
Y57929D01*
Y58004D01*
Y58078D01*
Y58153D01*
Y58228D01*
Y58303D01*
Y58378D01*
Y58453D01*
Y58528D01*
Y58603D01*
Y58678D01*
Y58753D01*
Y58828D01*
Y58903D01*
Y58978D01*
Y59053D01*
Y59128D01*
Y59203D01*
Y59278D01*
Y59353D01*
Y59428D01*
Y59503D01*
Y59578D01*
Y59653D01*
Y59728D01*
Y59803D01*
Y59878D01*
Y59953D01*
Y60028D01*
Y60103D01*
Y60178D01*
Y60253D01*
Y60328D01*
Y60403D01*
Y60478D01*
Y60553D01*
Y60628D01*
Y60703D01*
Y60778D01*
Y60852D01*
Y60927D01*
Y61002D01*
Y61077D01*
Y61152D01*
Y61227D01*
Y61302D01*
Y61377D01*
Y61452D01*
Y61527D01*
Y61602D01*
Y61677D01*
Y61752D01*
Y61827D01*
Y61902D01*
Y61977D01*
D02*
G37*
%LPD*%
G36*
X212731Y76072D02*
X212806D01*
Y75997D01*
X212881D01*
Y75922D01*
Y75847D01*
Y75772D01*
Y75697D01*
X212806D01*
Y75622D01*
Y75547D01*
X212731D01*
Y75472D01*
X212656D01*
Y75397D01*
X212506D01*
Y75322D01*
X212431D01*
Y75247D01*
X212356D01*
Y75172D01*
X212281D01*
Y75097D01*
X212206D01*
Y75022D01*
X212131D01*
Y74947D01*
X212056D01*
Y74872D01*
X211981D01*
Y74797D01*
X211906D01*
Y74722D01*
Y74647D01*
X211981D01*
Y74572D01*
Y74497D01*
X212056D01*
Y74423D01*
X212131D01*
Y74348D01*
Y74273D01*
X212206D01*
Y74198D01*
X212281D01*
Y74123D01*
Y74048D01*
X212356D01*
Y73973D01*
X212431D01*
Y73898D01*
X212506D01*
Y73823D01*
Y73748D01*
X212581D01*
Y73673D01*
X212656D01*
Y73598D01*
Y73523D01*
X212731D01*
Y73448D01*
X212806D01*
Y73373D01*
Y73298D01*
X212881D01*
Y73223D01*
X212956D01*
Y73148D01*
Y73073D01*
X213031D01*
Y72998D01*
Y72923D01*
Y72848D01*
Y72773D01*
Y72698D01*
X212956D01*
Y72623D01*
X212881D01*
Y72548D01*
X212506D01*
Y72623D01*
X212431D01*
Y72698D01*
X212356D01*
Y72773D01*
Y72848D01*
X212281D01*
Y72923D01*
X212206D01*
Y72998D01*
Y73073D01*
X212131D01*
Y73148D01*
X212056D01*
Y73223D01*
Y73298D01*
X211981D01*
Y73373D01*
Y73448D01*
X211906D01*
Y73523D01*
X211831D01*
Y73598D01*
Y73673D01*
X211756D01*
Y73748D01*
X211682D01*
Y73823D01*
Y73898D01*
X211607D01*
Y73973D01*
X211531D01*
Y74048D01*
Y74123D01*
X211456D01*
Y74198D01*
Y74273D01*
X211382D01*
Y74198D01*
X211307D01*
Y74123D01*
X211232D01*
Y74048D01*
X211157D01*
Y73973D01*
X211082D01*
Y73898D01*
X211007D01*
Y73823D01*
X210932D01*
Y73748D01*
X210857D01*
Y73673D01*
Y73598D01*
Y73523D01*
Y73448D01*
Y73373D01*
Y73298D01*
Y73223D01*
Y73148D01*
Y73073D01*
Y72998D01*
Y72923D01*
X210782D01*
Y72848D01*
Y72773D01*
Y72698D01*
X210707D01*
Y72623D01*
X210632D01*
Y72548D01*
X210332D01*
Y72623D01*
X210257D01*
Y72698D01*
X210182D01*
Y72773D01*
Y72848D01*
X210107D01*
Y72923D01*
Y72998D01*
Y73073D01*
Y73148D01*
Y73223D01*
Y73298D01*
Y73373D01*
Y73448D01*
Y73523D01*
Y73598D01*
Y73673D01*
Y73748D01*
Y73823D01*
Y73898D01*
Y73973D01*
Y74048D01*
Y74123D01*
Y74198D01*
Y74273D01*
Y74348D01*
Y74423D01*
Y74497D01*
Y74572D01*
Y74647D01*
Y74722D01*
Y74797D01*
Y74872D01*
Y74947D01*
Y75022D01*
Y75097D01*
Y75172D01*
Y75247D01*
Y75322D01*
Y75397D01*
Y75472D01*
Y75547D01*
Y75622D01*
Y75697D01*
Y75772D01*
Y75847D01*
X210182D01*
Y75922D01*
Y75997D01*
X210257D01*
Y76072D01*
X210332D01*
Y76147D01*
X210632D01*
Y76072D01*
X210707D01*
Y75997D01*
X210782D01*
Y75922D01*
Y75847D01*
Y75772D01*
X210857D01*
Y75697D01*
Y75622D01*
Y75547D01*
Y75472D01*
Y75397D01*
Y75322D01*
Y75247D01*
Y75172D01*
Y75097D01*
Y75022D01*
Y74947D01*
Y74872D01*
Y74797D01*
Y74722D01*
Y74647D01*
Y74572D01*
X210932D01*
Y74647D01*
X211007D01*
Y74722D01*
X211082D01*
Y74797D01*
X211157D01*
Y74872D01*
X211232D01*
Y74947D01*
X211307D01*
Y75022D01*
X211382D01*
Y75097D01*
X211456D01*
Y75172D01*
X211531D01*
Y75247D01*
X211607D01*
Y75322D01*
Y75397D01*
X211682D01*
Y75472D01*
X211756D01*
Y75547D01*
X211831D01*
Y75622D01*
X211906D01*
Y75697D01*
X211981D01*
Y75772D01*
X212056D01*
Y75847D01*
X212131D01*
Y75922D01*
X212206D01*
Y75997D01*
X212281D01*
Y76072D01*
X212356D01*
Y76147D01*
X212731D01*
Y76072D01*
D02*
G37*
G36*
X203360Y75997D02*
X203509D01*
Y75922D01*
X203659D01*
Y75847D01*
X203734D01*
Y75772D01*
X203809D01*
Y75697D01*
X203884D01*
Y75622D01*
Y75547D01*
X203959D01*
Y75472D01*
Y75397D01*
Y75322D01*
Y75247D01*
Y75172D01*
Y75097D01*
Y75022D01*
X203884D01*
Y74947D01*
Y74872D01*
X203809D01*
Y74797D01*
X203734D01*
Y74722D01*
X203659D01*
Y74647D01*
X203584D01*
Y74572D01*
X203509D01*
Y74497D01*
X203360D01*
Y74423D01*
X203285D01*
Y74348D01*
X203360D01*
Y74273D01*
X203434D01*
Y74198D01*
X203509D01*
Y74123D01*
Y74048D01*
X203584D01*
Y73973D01*
X203659D01*
Y73898D01*
X203734D01*
Y73823D01*
X203809D01*
Y73748D01*
X203884D01*
Y73823D01*
X203959D01*
Y73898D01*
Y73973D01*
Y74048D01*
X204034D01*
Y74123D01*
Y74198D01*
X204109D01*
Y74273D01*
X204484D01*
Y74198D01*
X204559D01*
Y74123D01*
Y74048D01*
Y73973D01*
Y73898D01*
Y73823D01*
X204484D01*
Y73748D01*
Y73673D01*
Y73598D01*
X204409D01*
Y73523D01*
Y73448D01*
X204334D01*
Y73373D01*
Y73298D01*
Y73223D01*
X204484D01*
Y73148D01*
X204559D01*
Y73073D01*
X204634D01*
Y72998D01*
X204709D01*
Y72923D01*
X204784D01*
Y72848D01*
X204859D01*
Y72773D01*
Y72698D01*
X204784D01*
Y72623D01*
Y72548D01*
X204709D01*
Y72473D01*
X204409D01*
Y72548D01*
X204259D01*
Y72623D01*
X204184D01*
Y72698D01*
X204109D01*
Y72773D01*
X203959D01*
Y72848D01*
X203809D01*
Y72773D01*
X203734D01*
Y72698D01*
X203584D01*
Y72623D01*
X203434D01*
Y72548D01*
X203210D01*
Y72473D01*
X202460D01*
Y72548D01*
X202235D01*
Y72623D01*
X202085D01*
Y72698D01*
X202010D01*
Y72773D01*
X201860D01*
Y72848D01*
X201785D01*
Y72923D01*
Y72998D01*
X201710D01*
Y73073D01*
Y73148D01*
X201635D01*
Y73223D01*
Y73298D01*
Y73373D01*
Y73448D01*
Y73523D01*
Y73598D01*
Y73673D01*
Y73748D01*
Y73823D01*
X201710D01*
Y73898D01*
Y73973D01*
X201785D01*
Y74048D01*
X201860D01*
Y74123D01*
X201935D01*
Y74198D01*
X202010D01*
Y74273D01*
X202085D01*
Y74348D01*
X202235D01*
Y74423D01*
X202385D01*
Y74497D01*
Y74572D01*
X202310D01*
Y74647D01*
Y74722D01*
X202235D01*
Y74797D01*
X202160D01*
Y74872D01*
Y74947D01*
X202085D01*
Y75022D01*
Y75097D01*
Y75172D01*
Y75247D01*
Y75322D01*
Y75397D01*
Y75472D01*
Y75547D01*
X202160D01*
Y75622D01*
Y75697D01*
X202235D01*
Y75772D01*
X202310D01*
Y75847D01*
X202385D01*
Y75922D01*
X202535D01*
Y75997D01*
X202685D01*
Y76072D01*
X203360D01*
Y75997D01*
D02*
G37*
%LPC*%
G36*
X203210Y75622D02*
X202835D01*
Y75547D01*
X202760D01*
Y75472D01*
X202685D01*
Y75397D01*
Y75322D01*
Y75247D01*
Y75172D01*
Y75097D01*
X202760D01*
Y75022D01*
Y74947D01*
X202835D01*
Y74872D01*
X202910D01*
Y74797D01*
X203060D01*
Y74872D01*
X203210D01*
Y74947D01*
X203285D01*
Y75022D01*
X203360D01*
Y75097D01*
Y75172D01*
X203434D01*
Y75247D01*
Y75322D01*
Y75397D01*
X203360D01*
Y75472D01*
X203285D01*
Y75547D01*
X203210D01*
Y75622D01*
D02*
G37*
G36*
X202760Y74123D02*
X202685D01*
Y74048D01*
X202535D01*
Y73973D01*
X202460D01*
Y73898D01*
X202385D01*
Y73823D01*
X202310D01*
Y73748D01*
Y73673D01*
X202235D01*
Y73598D01*
Y73523D01*
Y73448D01*
Y73373D01*
X202310D01*
Y73298D01*
Y73223D01*
Y73148D01*
X202385D01*
Y73073D01*
X202460D01*
Y72998D01*
X202610D01*
Y72923D01*
X203060D01*
Y72998D01*
X203210D01*
Y73073D01*
X203360D01*
Y73148D01*
X203434D01*
Y73223D01*
X203509D01*
Y73298D01*
X203434D01*
Y73373D01*
X203360D01*
Y73448D01*
X203285D01*
Y73523D01*
X203210D01*
Y73598D01*
X203135D01*
Y73673D01*
X203060D01*
Y73748D01*
X202985D01*
Y73823D01*
X202910D01*
Y73898D01*
X202835D01*
Y73973D01*
Y74048D01*
X202760D01*
Y74123D01*
D02*
G37*
%LPD*%
G36*
X195712Y75922D02*
X195937D01*
Y75847D01*
X196162D01*
Y75772D01*
X196237D01*
Y75697D01*
X196387D01*
Y75622D01*
X196462D01*
Y75547D01*
X196537D01*
Y75472D01*
X196612D01*
Y75397D01*
Y75322D01*
X196687D01*
Y75247D01*
Y75172D01*
X196762D01*
Y75097D01*
Y75022D01*
Y74947D01*
Y74872D01*
Y74797D01*
X196687D01*
Y74722D01*
X196612D01*
Y74647D01*
X196312D01*
Y74722D01*
X196237D01*
Y74797D01*
Y74872D01*
X196162D01*
Y74947D01*
X196087D01*
Y75022D01*
Y75097D01*
X196012D01*
Y75172D01*
X195937D01*
Y75247D01*
X195862D01*
Y75322D01*
X195787D01*
Y75397D01*
X195637D01*
Y75472D01*
X195113D01*
Y75397D01*
X194888D01*
Y75322D01*
X194813D01*
Y75247D01*
X194738D01*
Y75172D01*
X194663D01*
Y75097D01*
Y75022D01*
X194588D01*
Y74947D01*
Y74872D01*
X194513D01*
Y74797D01*
Y74722D01*
Y74647D01*
X194438D01*
Y74572D01*
Y74497D01*
Y74423D01*
Y74348D01*
Y74273D01*
Y74198D01*
Y74123D01*
Y74048D01*
Y73973D01*
Y73898D01*
Y73823D01*
Y73748D01*
Y73673D01*
X194513D01*
Y73598D01*
Y73523D01*
Y73448D01*
X194588D01*
Y73373D01*
Y73298D01*
X194663D01*
Y73223D01*
X194738D01*
Y73148D01*
X194813D01*
Y73073D01*
X194888D01*
Y72998D01*
X195113D01*
Y72923D01*
X195637D01*
Y72998D01*
X195787D01*
Y73073D01*
X195862D01*
Y73148D01*
X195937D01*
Y73223D01*
X196012D01*
Y73298D01*
X196087D01*
Y73373D01*
Y73448D01*
X196162D01*
Y73523D01*
Y73598D01*
X196237D01*
Y73673D01*
Y73748D01*
X196312D01*
Y73823D01*
X196687D01*
Y73748D01*
X196762D01*
Y73673D01*
Y73598D01*
Y73523D01*
Y73448D01*
Y73373D01*
Y73298D01*
Y73223D01*
X196687D01*
Y73148D01*
Y73073D01*
X196612D01*
Y72998D01*
X196537D01*
Y72923D01*
Y72848D01*
X196462D01*
Y72773D01*
X196387D01*
Y72698D01*
X196237D01*
Y72623D01*
X196162D01*
Y72548D01*
X196012D01*
Y72473D01*
X195712D01*
Y72398D01*
X194963D01*
Y72473D01*
X194663D01*
Y72548D01*
X194513D01*
Y72623D01*
X194363D01*
Y72698D01*
X194288D01*
Y72773D01*
X194213D01*
Y72848D01*
X194138D01*
Y72923D01*
X194063D01*
Y72998D01*
Y73073D01*
X193988D01*
Y73148D01*
X193913D01*
Y73223D01*
Y73298D01*
Y73373D01*
X193838D01*
Y73448D01*
Y73523D01*
Y73598D01*
X193763D01*
Y73673D01*
Y73748D01*
Y73823D01*
Y73898D01*
Y73973D01*
Y74048D01*
Y74123D01*
Y74198D01*
Y74273D01*
Y74348D01*
Y74423D01*
Y74497D01*
Y74572D01*
Y74647D01*
Y74722D01*
Y74797D01*
X193838D01*
Y74872D01*
Y74947D01*
Y75022D01*
X193913D01*
Y75097D01*
Y75172D01*
X193988D01*
Y75247D01*
Y75322D01*
X194063D01*
Y75397D01*
X194138D01*
Y75472D01*
X194213D01*
Y75547D01*
X194288D01*
Y75622D01*
X194363D01*
Y75697D01*
X194438D01*
Y75772D01*
X194588D01*
Y75847D01*
X194738D01*
Y75922D01*
X195038D01*
Y75997D01*
X195712D01*
Y75922D01*
D02*
G37*
D10*
X95078Y11439D02*
G03*
X94684Y11833I-394J0D01*
G01*
X84054D02*
G03*
X83661Y11439I0J-394D01*
G01*
X106889Y6470D02*
G03*
X108246Y5927I1357J1426D01*
G01*
X84448Y11439D02*
G03*
X84054Y11833I-394J0D01*
G01*
X94684D02*
G03*
X94291Y11439I0J-394D01*
G01*
X105922Y10600D02*
G03*
X104309Y11439I-1612J-1129D01*
G01*
X74152D02*
G03*
X72579Y10655I0J-1969D01*
G01*
X41975Y192603D02*
Y192997D01*
X38825Y192603D02*
Y192997D01*
X48475Y192603D02*
Y192997D01*
X45325Y192603D02*
Y192997D01*
X84448Y11439D02*
X94291D01*
X70352Y50809D02*
X71415D01*
X114467Y49549D02*
Y50809D01*
Y49549D02*
X114939D01*
X113738Y50809D02*
X114467D01*
X82045D02*
X94919D01*
X68364Y49549D02*
Y50809D01*
X67892Y13408D02*
Y49549D01*
X68364Y50809D02*
X70352D01*
X105549D02*
X113738D01*
X114939Y49234D02*
Y49549D01*
X74152Y11439D02*
X83661D01*
X67892Y49549D02*
X68364D01*
X95078Y11439D02*
X104309D01*
X114939Y34667D02*
Y42148D01*
X114915Y11636D02*
Y27581D01*
X108246Y5927D02*
X108699D01*
X37795Y184350D02*
X49606D01*
X37795Y171555D02*
X49606D01*
X41616Y199747D02*
X45159D01*
X41616Y211558D02*
X45159D01*
X46144Y205850D02*
Y207031D01*
X40632Y204275D02*
Y207031D01*
X157677Y64961D02*
X158071D01*
X157677Y61811D02*
X158071D01*
X21457Y182283D02*
X21850D01*
X21457Y179134D02*
X21850D01*
X21457Y188976D02*
X21850D01*
X21457Y185827D02*
X21850D01*
X21457Y175984D02*
X21850D01*
X21457Y172835D02*
X21850D01*
X44911Y164882D02*
Y169882D01*
Y164882D02*
X47411Y167382D01*
X44911Y169882D02*
X47411Y167382D01*
Y164882D02*
Y169882D01*
X46316Y163484D02*
X46718D01*
X46316Y158563D02*
X46718D01*
X32087Y159449D02*
X32480D01*
X32087Y162598D02*
X32480D01*
X13976Y201476D02*
X14370D01*
X13976Y206398D02*
X14370D01*
X13189Y194882D02*
X13583D01*
X13189Y198031D02*
X13583D01*
X21457Y168898D02*
X21850D01*
X21457Y165748D02*
X21850D01*
X121553Y171208D02*
X121947D01*
X121553Y168059D02*
X121947D01*
X121553Y174358D02*
X121947D01*
X121553Y177507D02*
X121947D01*
X47441Y60827D02*
X47835D01*
X47441Y63976D02*
X47835D01*
X47441Y54134D02*
X47835D01*
X47441Y57284D02*
X47835D01*
X133268Y17323D02*
X133661D01*
X133268Y14173D02*
X133661D01*
X47441Y47638D02*
X47835D01*
X47441Y50787D02*
X47835D01*
X132874Y26378D02*
X133268D01*
X132874Y23228D02*
X133268D01*
X159642Y34154D02*
X160043D01*
X159642Y39075D02*
X160043D01*
X160736Y40472D02*
Y45472D01*
X158236D02*
X160736Y42972D01*
X158236Y40472D02*
X160736Y42972D01*
X158236Y40472D02*
Y45472D01*
X153543Y53347D02*
Y53740D01*
X156693Y53347D02*
Y53740D01*
X160236Y53347D02*
Y53740D01*
X163386Y53347D02*
Y53740D01*
X237992Y24409D02*
X238386D01*
X237992Y27559D02*
X238386D01*
X237992Y20866D02*
X238386D01*
X237992Y17717D02*
X238386D01*
X237992Y33858D02*
X238386D01*
X237992Y30709D02*
X238386D01*
X168307Y110630D02*
X168701D01*
X168307Y107480D02*
X168701D01*
X168307Y114173D02*
X168701D01*
X168307Y117323D02*
X168701D01*
X168307Y94882D02*
X168701D01*
X168307Y98032D02*
X168701D01*
X168307Y104331D02*
X168701D01*
X168307Y101181D02*
X168701D01*
X182677Y222244D02*
X200197D01*
X182677D02*
Y235630D01*
X200197D01*
Y222244D02*
Y235630D01*
X197146Y214370D02*
X197539D01*
X197146Y217520D02*
X197539D01*
X257374Y148909D02*
Y162146D01*
Y178091D02*
Y185343D01*
Y148909D02*
X274606D01*
X257374Y185343D02*
X312008D01*
X302559Y148909D02*
X312008D01*
X211417Y198917D02*
X211811D01*
X211417Y194390D02*
X211811D01*
X183169Y181890D02*
X183563D01*
X183169Y178346D02*
X183563D01*
X100037Y149016D02*
X100431D01*
X100037Y152165D02*
X100431D01*
X224803Y188386D02*
X225197D01*
X224803Y191535D02*
X225197D01*
X206299Y130512D02*
X206693D01*
X206299Y127362D02*
X206693D01*
X211024Y171063D02*
Y171457D01*
X207874Y171063D02*
Y171457D01*
X223031Y131201D02*
X223425D01*
X223031Y126673D02*
X223425D01*
X193504Y130512D02*
X193898D01*
X193504Y127362D02*
X193898D01*
X210630Y135236D02*
X239764D01*
X210630Y156791D02*
Y162008D01*
Y135236D02*
Y140453D01*
Y162008D02*
X239764D01*
Y156791D02*
Y162008D01*
Y135236D02*
Y140453D01*
X184479Y214370D02*
X184872D01*
X184479Y217520D02*
X184872D01*
X76278Y177507D02*
X76671D01*
X76278Y174358D02*
X76671D01*
X25591Y203346D02*
Y203740D01*
X28740Y203346D02*
Y203740D01*
X32283Y192717D02*
Y193110D01*
X35433Y192717D02*
Y193110D01*
X51968Y192717D02*
Y193110D01*
X55118Y192717D02*
Y193110D01*
X47128Y35433D02*
X47522D01*
X47128Y38583D02*
X47522D01*
X151772Y120472D02*
X152165D01*
X151772Y123622D02*
X152165D01*
X151772Y115354D02*
X152165D01*
X151772Y112205D02*
X152165D01*
X182382Y170669D02*
X182776D01*
X182382Y173819D02*
X182776D01*
X187992Y150984D02*
Y160039D01*
X186811Y161221D02*
X187992Y160039D01*
X185630Y161221D02*
X186811D01*
X175000Y161221D02*
X176181D01*
X173819Y160039D02*
X175000Y161221D01*
X173819Y150984D02*
Y160039D01*
X194390Y161811D02*
Y162205D01*
X197539Y161811D02*
Y162205D01*
X194193Y176378D02*
Y176772D01*
X197736Y176378D02*
Y176772D01*
X212205Y183661D02*
X212598D01*
X212205Y180512D02*
X212598D01*
X211811Y191535D02*
X212205D01*
X211811Y188386D02*
X212205D01*
X224803Y180512D02*
X225197D01*
X224803Y183661D02*
X225197D01*
X224803Y195768D02*
X225197D01*
X224803Y200689D02*
X225197D01*
X312006Y44866D02*
X312008Y123606D01*
X233268Y44866D02*
X312006D01*
X233268Y123606D02*
X312006D01*
X233268Y44866D02*
Y123606D01*
X100884Y167271D02*
X108758D01*
X100884Y176720D02*
X108758D01*
X74506Y202704D02*
X125687D01*
X74506D02*
Y236169D01*
X125687D01*
Y202704D02*
Y236169D01*
X135925Y69882D02*
Y70276D01*
X140453Y69882D02*
Y70276D01*
X190354Y22343D02*
X190748D01*
X190354Y17815D02*
X190748D01*
X230118Y10630D02*
X230512D01*
X230118Y13780D02*
X230512D01*
X88876Y174358D02*
X89270D01*
X88876Y177507D02*
X89270D01*
X197539Y194587D02*
Y201870D01*
X185335Y194587D02*
Y201870D01*
X168819Y212874D02*
Y235394D01*
X128819D02*
X168819D01*
X128819Y212874D02*
Y235394D01*
Y212874D02*
X168819D01*
X169213Y188858D02*
Y211378D01*
X129213D02*
X169213D01*
X129213Y188858D02*
Y211378D01*
Y188858D02*
X169213D01*
X180448Y49229D02*
X182809D01*
X181629D01*
Y45687D01*
X185761D02*
X184580D01*
X183990Y46278D01*
Y47458D01*
X184580Y48049D01*
X185761D01*
X186351Y47458D01*
Y46868D01*
X183990D01*
X188122Y48049D02*
X189303D01*
X189894Y47458D01*
Y45687D01*
X188122D01*
X187532Y46278D01*
X188122Y46868D01*
X189894D01*
X191074Y45687D02*
Y48049D01*
X191665D01*
X192255Y47458D01*
Y45687D01*
Y47458D01*
X192845Y48049D01*
X193436Y47458D01*
Y45687D01*
X200520Y48639D02*
X199930Y49229D01*
X198749D01*
X198159Y48639D01*
Y46278D01*
X198749Y45687D01*
X199930D01*
X200520Y46278D01*
X204062Y45687D02*
X203472Y46278D01*
X202882Y45687D01*
X202291D01*
X201701Y46278D01*
Y46868D01*
X202291Y47458D01*
X201701Y48049D01*
Y48639D01*
X202291Y49229D01*
X202882D01*
X203472Y48639D01*
Y48049D01*
X202882Y47458D01*
X203472Y46868D01*
Y46278D01*
X204062Y47458D02*
X203472Y46868D01*
X202291Y47458D02*
X202882D01*
X205243Y49229D02*
Y45687D01*
Y46868D01*
X207604Y49229D01*
X205833Y47458D01*
X207604Y45687D01*
X182809Y42499D02*
X182219Y43089D01*
X181038D01*
X180448Y42499D01*
Y40137D01*
X181038Y39547D01*
X182219D01*
X182809Y40137D01*
X183990Y43089D02*
Y39547D01*
Y41318D01*
X184580Y41908D01*
X185761D01*
X186351Y41318D01*
Y39547D01*
X188122Y41908D02*
X189303D01*
X189894Y41318D01*
Y39547D01*
X188122D01*
X187532Y40137D01*
X188122Y40728D01*
X189894D01*
X191074Y39547D02*
Y41908D01*
X192845D01*
X193436Y41318D01*
Y39547D01*
X195797Y38366D02*
X196388D01*
X196978Y38956D01*
Y41908D01*
X195207D01*
X194616Y41318D01*
Y40137D01*
X195207Y39547D01*
X196978D01*
X198159Y41908D02*
Y39547D01*
Y40728D01*
X198749Y41318D01*
X199339Y41908D01*
X199930D01*
X202291D02*
X203472D01*
X204062Y41318D01*
Y39547D01*
X202291D01*
X201701Y40137D01*
X202291Y40728D01*
X204062D01*
X205243Y39547D02*
Y41908D01*
X207014D01*
X207604Y41318D01*
Y39547D01*
X212327Y43089D02*
Y39547D01*
X214689D01*
X215869D02*
X217050D01*
X216460D01*
Y41908D01*
X215869D01*
X218821D02*
Y40137D01*
X219412Y39547D01*
X221183D01*
Y41908D01*
X228267Y39547D02*
X227677Y40137D01*
X227086Y39547D01*
X226496D01*
X225906Y40137D01*
Y40728D01*
X226496Y41318D01*
X225906Y41908D01*
Y42499D01*
X226496Y43089D01*
X227086D01*
X227677Y42499D01*
Y41908D01*
X227086Y41318D01*
X227677Y40728D01*
Y40137D01*
X228267Y41318D02*
X227677Y40728D01*
X226496Y41318D02*
X227086D01*
X232990Y43089D02*
Y39547D01*
Y40728D01*
X235351Y43089D01*
X233580Y41318D01*
X235351Y39547D01*
X237122Y41908D02*
X238303D01*
X238894Y41318D01*
Y39547D01*
X237122D01*
X236532Y40137D01*
X237122Y40728D01*
X238894D01*
X240074Y39547D02*
X241255D01*
X240665D01*
Y41908D01*
X240074D01*
X243026D02*
Y40137D01*
X243616Y39547D01*
X244207Y40137D01*
X244797Y39547D01*
X245387Y40137D01*
Y41908D01*
X248339Y39547D02*
X247159D01*
X246568Y40137D01*
Y41318D01*
X247159Y41908D01*
X248339D01*
X248930Y41318D01*
Y40728D01*
X246568D01*
X250110Y39547D02*
Y41908D01*
X251881D01*
X252472Y41318D01*
Y39547D01*
X257195Y43089D02*
X259556D01*
Y42499D01*
X257195Y40137D01*
Y39547D01*
X259556D01*
X260737Y43089D02*
Y39547D01*
Y41318D01*
X261327Y41908D01*
X262508D01*
X263098Y41318D01*
Y39547D01*
X264869D02*
X266050D01*
X266640Y40137D01*
Y41318D01*
X266050Y41908D01*
X264869D01*
X264279Y41318D01*
Y40137D01*
X264869Y39547D01*
X267821Y41908D02*
Y40137D01*
X268411Y39547D01*
X270183D01*
Y41908D01*
D11*
X104132Y2581D02*
G03*
X104132Y2581I-492J0D01*
G01*
X34802Y182382D02*
G03*
X34802Y182382I-492J0D01*
G01*
X180807Y227165D02*
G03*
X180807Y227165I-492J0D01*
G01*
X177460Y142520D02*
G03*
X177460Y142520I-492J0D01*
G01*
X39317Y214051D02*
G03*
X39317Y214051I-492J0D01*
G01*
X141437Y108640D02*
G03*
X141437Y108640I-492J0D01*
G01*
X113228Y170027D02*
G03*
X113228Y170027I-492J0D01*
G01*
X79927Y204673D02*
G03*
X79927Y204673I-500J0D01*
G01*
X188091Y185531D02*
G03*
X188091Y185531I-492J0D01*
G01*
X126752Y225394D02*
G03*
X126752Y225394I-500J0D01*
G01*
X127146Y201378D02*
G03*
X127146Y201378I-500J0D01*
G01*
D12*
X47522Y199550D02*
G03*
X47522Y199550I-197J0D01*
G01*
X227756Y176968D02*
G03*
X227756Y176574I0J-197D01*
G01*
D02*
G03*
X227756Y176968I0J197D01*
G01*
X61458Y224234D02*
X63458D01*
X61458Y222734D02*
Y224234D01*
X26458Y222734D02*
Y224234D01*
X24458D02*
X26458D01*
X61458Y214734D02*
Y216734D01*
X59958Y214734D02*
X61458D01*
X26458D02*
X27958D01*
X26458D02*
Y216734D01*
D13*
X32447Y62528D02*
G03*
X32447Y62528I-1409J0D01*
G01*
X145669Y215551D02*
Y221549D01*
X148668D01*
X149668Y220550D01*
Y218550D01*
X148668Y217550D01*
X145669D01*
X151667Y221549D02*
X155666D01*
Y220550D01*
X151667Y216551D01*
Y215551D01*
X145669Y189417D02*
Y195415D01*
X148668D01*
X149668Y194415D01*
Y192416D01*
X148668Y191416D01*
X145669D01*
X151667Y194415D02*
X152667Y195415D01*
X154666D01*
X155666Y194415D01*
Y193416D01*
X154666Y192416D01*
X155666Y191416D01*
Y190417D01*
X154666Y189417D01*
X152667D01*
X151667Y190417D01*
Y191416D01*
X152667Y192416D01*
X151667Y193416D01*
Y194415D01*
X152667Y192416D02*
X154666D01*
D14*
X92695Y182626D02*
G03*
X92695Y182626I-472J0D01*
G01*
D15*
X204035Y29591D02*
X229035D01*
Y16091D02*
Y29591D01*
X204035Y16091D02*
X229035D01*
X204035D02*
Y29591D01*
D16*
X53013Y40945D02*
Y44094D01*
D17*
X154130Y10354D02*
Y20354D01*
X167130Y10354D02*
Y20354D01*
X159130Y6354D02*
X162130D01*
X159130Y24354D02*
X162130D01*
X267917Y20197D02*
Y30197D01*
X254917Y20197D02*
Y30197D01*
X259917Y34197D02*
X262917D01*
X259917Y16197D02*
X262917D01*
D18*
X89860Y185874D02*
Y189712D01*
Y185874D02*
X93010D01*
X113482D02*
Y189712D01*
X110333Y185874D02*
X113482D01*
X94585Y197291D02*
X108758D01*
X314287Y97638D02*
X315287D01*
X314787D01*
Y100637D01*
X314287Y100137D01*
X82774Y196292D02*
Y199291D01*
X84273D01*
X84773Y198791D01*
Y197791D01*
X84273Y197291D01*
X82774D01*
X85773Y196292D02*
X86772D01*
X86273D01*
Y199291D01*
X85773Y198791D01*
X30315Y192520D02*
X27316D01*
Y194019D01*
X27816Y194519D01*
X28815D01*
X29315Y194019D01*
Y192520D01*
Y193519D02*
X30315Y194519D01*
Y195519D02*
Y196518D01*
Y196019D01*
X27316D01*
X27816Y195519D01*
X60236Y190551D02*
X57237D01*
Y192051D01*
X57737Y192551D01*
X58737D01*
X59237Y192051D01*
Y190551D01*
Y191551D02*
X60236Y192551D01*
Y195550D02*
Y193550D01*
X58237Y195550D01*
X57737D01*
X57237Y195050D01*
Y194050D01*
X57737Y193550D01*
X60885Y28221D02*
X61385Y28721D01*
Y29721D01*
X60885Y30220D01*
X60385D01*
X59885Y29721D01*
Y28721D01*
X59386Y28221D01*
X58886D01*
X58386Y28721D01*
Y29721D01*
X58886Y30220D01*
X61385Y27221D02*
X58386D01*
Y25722D01*
X58886Y25222D01*
X60885D01*
X61385Y25722D01*
Y27221D01*
X58386Y24222D02*
Y23223D01*
Y23723D01*
X61385D01*
X60885Y24222D01*
X57087Y183708D02*
Y181209D01*
X57586Y180709D01*
X58586D01*
X59086Y181209D01*
Y183708D01*
X60086Y180709D02*
X61085D01*
X60585D01*
Y183708D01*
X60086Y183208D01*
X204732Y14810D02*
Y12311D01*
X205231Y11811D01*
X206231D01*
X206731Y12311D01*
Y14810D01*
X209730Y11811D02*
X207731D01*
X209730Y13810D01*
Y14310D01*
X209230Y14810D01*
X208230D01*
X207731Y14310D01*
X43565Y133905D02*
Y131405D01*
X44064Y130905D01*
X45064D01*
X45564Y131405D01*
Y133905D01*
X46564Y133405D02*
X47063Y133905D01*
X48063D01*
X48563Y133405D01*
Y132905D01*
X48063Y132405D01*
X47563D01*
X48063D01*
X48563Y131905D01*
Y131405D01*
X48063Y130905D01*
X47063D01*
X46564Y131405D01*
X30755Y201000D02*
X33754D01*
Y202500D01*
X33254Y202999D01*
X31254D01*
X30755Y202500D01*
Y201000D01*
X33754Y205998D02*
Y203999D01*
X31754Y205998D01*
X31254D01*
X30755Y205499D01*
Y204499D01*
X31254Y203999D01*
X66566Y219928D02*
X65567D01*
X66066D01*
Y217429D01*
X65567Y216929D01*
X65067D01*
X64567Y217429D01*
X69565Y216929D02*
X67566D01*
X69565Y218929D01*
Y219428D01*
X69065Y219928D01*
X68066D01*
X67566Y219428D01*
X272638Y24653D02*
Y21654D01*
X274137D01*
X274637Y22153D01*
Y22653D01*
X274137Y23153D01*
X272638D01*
X274137D01*
X274637Y23653D01*
Y24153D01*
X274137Y24653D01*
X272638D01*
X277636Y21654D02*
X275637D01*
X277636Y23653D01*
Y24153D01*
X277136Y24653D01*
X276137D01*
X275637Y24153D01*
X11055Y167853D02*
X10555Y168353D01*
X9555D01*
X9055Y167853D01*
Y165854D01*
X9555Y165354D01*
X10555D01*
X11055Y165854D01*
X12054Y165354D02*
X13054D01*
X12554D01*
Y168353D01*
X12054Y167853D01*
X27590Y213129D02*
X27090Y213629D01*
X26090D01*
X25591Y213129D01*
Y211130D01*
X26090Y210630D01*
X27090D01*
X27590Y211130D01*
X30589Y210630D02*
X28590D01*
X30589Y212629D01*
Y213129D01*
X30089Y213629D01*
X29089D01*
X28590Y213129D01*
X4194Y196192D02*
X3694Y195692D01*
Y194693D01*
X4194Y194193D01*
X6193D01*
X6693Y194693D01*
Y195692D01*
X6193Y196192D01*
X4194Y197192D02*
X3694Y197692D01*
Y198691D01*
X4194Y199191D01*
X4694D01*
X5193Y198691D01*
Y198192D01*
Y198691D01*
X5693Y199191D01*
X6193D01*
X6693Y198691D01*
Y197692D01*
X6193Y197192D01*
X4194Y204362D02*
X3694Y203862D01*
Y202862D01*
X4194Y202362D01*
X6193D01*
X6693Y202862D01*
Y203862D01*
X6193Y204362D01*
X6693Y206861D02*
X3694D01*
X5193Y205361D01*
Y207361D01*
X23351Y193732D02*
X22851Y193232D01*
Y192232D01*
X23351Y191732D01*
X25351D01*
X25850Y192232D01*
Y193232D01*
X25351Y193732D01*
X22851Y196731D02*
Y194731D01*
X24351D01*
X23851Y195731D01*
Y196231D01*
X24351Y196731D01*
X25351D01*
X25850Y196231D01*
Y195231D01*
X25351Y194731D01*
X62068Y192157D02*
X61568Y191657D01*
Y190657D01*
X62068Y190157D01*
X64067D01*
X64567Y190657D01*
Y191657D01*
X64067Y192157D01*
X61568Y195156D02*
X62068Y194156D01*
X63067Y193157D01*
X64067D01*
X64567Y193656D01*
Y194656D01*
X64067Y195156D01*
X63567D01*
X63067Y194656D01*
Y193157D01*
X10661Y187860D02*
X10161Y188360D01*
X9161D01*
X8661Y187860D01*
Y185861D01*
X9161Y185361D01*
X10161D01*
X10661Y185861D01*
X11660Y188360D02*
X13660D01*
Y187860D01*
X11660Y185861D01*
Y185361D01*
X167186Y52393D02*
X166686Y51893D01*
Y50893D01*
X167186Y50394D01*
X169185D01*
X169685Y50893D01*
Y51893D01*
X169185Y52393D01*
X167186Y53393D02*
X166686Y53893D01*
Y54892D01*
X167186Y55392D01*
X167686D01*
X168185Y54892D01*
X168685Y55392D01*
X169185D01*
X169685Y54892D01*
Y53893D01*
X169185Y53393D01*
X168685D01*
X168185Y53893D01*
X167686Y53393D01*
X167186D01*
X168185Y53893D02*
Y54892D01*
X139795Y79096D02*
X139295Y79596D01*
X138295D01*
X137795Y79096D01*
Y77096D01*
X138295Y76596D01*
X139295D01*
X139795Y77096D01*
X140794D02*
X141294Y76596D01*
X142294D01*
X142794Y77096D01*
Y79096D01*
X142294Y79596D01*
X141294D01*
X140794Y79096D01*
Y78596D01*
X141294Y78096D01*
X142794D01*
X189007Y14726D02*
X188507Y15225D01*
X187508D01*
X187008Y14726D01*
Y12726D01*
X187508Y12226D01*
X188507D01*
X189007Y12726D01*
X190007Y12226D02*
X191007D01*
X190507D01*
Y15225D01*
X190007Y14726D01*
X192506D02*
X193006Y15225D01*
X194006D01*
X194505Y14726D01*
Y12726D01*
X194006Y12226D01*
X193006D01*
X192506Y12726D01*
Y14726D01*
X248850Y34783D02*
X248350Y35282D01*
X247350D01*
X246850Y34783D01*
Y32783D01*
X247350Y32283D01*
X248350D01*
X248850Y32783D01*
X249849Y32283D02*
X250849D01*
X250349D01*
Y35282D01*
X249849Y34783D01*
X252349Y32283D02*
X253348D01*
X252849D01*
Y35282D01*
X252349Y34783D01*
X171653Y12842D02*
Y9843D01*
X173153D01*
X173653Y10342D01*
Y10842D01*
X173153Y11342D01*
X171653D01*
X173153D01*
X173653Y11842D01*
Y12342D01*
X173153Y12842D01*
X171653D01*
X174653Y9843D02*
X175652D01*
X175152D01*
Y12842D01*
X174653Y12342D01*
X159312Y112236D02*
X158812Y111736D01*
Y110736D01*
X159312Y110236D01*
X161311D01*
X161811Y110736D01*
Y111736D01*
X161311Y112236D01*
X161811Y113235D02*
Y114235D01*
Y113735D01*
X158812D01*
X159312Y113235D01*
X161811Y117734D02*
Y115734D01*
X159812Y117734D01*
X159312D01*
X158812Y117234D01*
Y116234D01*
X159312Y115734D01*
X163417Y124940D02*
X162917Y125440D01*
X161917D01*
X161417Y124940D01*
Y122941D01*
X161917Y122441D01*
X162917D01*
X163417Y122941D01*
X164416Y122441D02*
X165416D01*
X164916D01*
Y125440D01*
X164416Y124940D01*
X166916D02*
X167415Y125440D01*
X168415D01*
X168915Y124940D01*
Y124440D01*
X168415Y123941D01*
X167915D01*
X168415D01*
X168915Y123441D01*
Y122941D01*
X168415Y122441D01*
X167415D01*
X166916Y122941D01*
X228377Y7420D02*
X227877Y7920D01*
X226878D01*
X226378Y7420D01*
Y5421D01*
X226878Y4921D01*
X227877D01*
X228377Y5421D01*
X229377Y4921D02*
X230377D01*
X229877D01*
Y7920D01*
X229377Y7420D01*
X233376Y4921D02*
Y7920D01*
X231876Y6421D01*
X233875D01*
X236054Y199546D02*
X235555Y200046D01*
X234555D01*
X234055Y199546D01*
Y197547D01*
X234555Y197047D01*
X235555D01*
X236054Y197547D01*
X237054Y197047D02*
X238054D01*
X237554D01*
Y200046D01*
X237054Y199546D01*
X241553Y200046D02*
X240553Y199546D01*
X239553Y198547D01*
Y197547D01*
X240053Y197047D01*
X241053D01*
X241553Y197547D01*
Y198047D01*
X241053Y198547D01*
X239553D01*
X223456Y123562D02*
X222956Y124062D01*
X221956D01*
X221457Y123562D01*
Y121563D01*
X221956Y121063D01*
X222956D01*
X223456Y121563D01*
X224456Y121063D02*
X225455D01*
X224956D01*
Y124062D01*
X224456Y123562D01*
X226955Y124062D02*
X228954D01*
Y123562D01*
X226955Y121563D01*
Y121063D01*
X176606Y221987D02*
X176106Y222487D01*
X175106D01*
X174606Y221987D01*
Y219988D01*
X175106Y219488D01*
X176106D01*
X176606Y219988D01*
X177605Y219488D02*
X178605D01*
X178105D01*
Y222487D01*
X177605Y221987D01*
X180104D02*
X180604Y222487D01*
X181604D01*
X182104Y221987D01*
Y221487D01*
X181604Y220988D01*
X182104Y220488D01*
Y219988D01*
X181604Y219488D01*
X180604D01*
X180104Y219988D01*
Y220488D01*
X180604Y220988D01*
X180104Y221487D01*
Y221987D01*
X180604Y220988D02*
X181604D01*
X191771Y163158D02*
X192271Y163658D01*
Y164658D01*
X191771Y165157D01*
X189771D01*
X189272Y164658D01*
Y163658D01*
X189771Y163158D01*
X189272Y162158D02*
Y161159D01*
Y161659D01*
X192271D01*
X191771Y162158D01*
X189771Y159659D02*
X189272Y159159D01*
Y158160D01*
X189771Y157660D01*
X191771D01*
X192271Y158160D01*
Y159159D01*
X191771Y159659D01*
X191271D01*
X190771Y159159D01*
Y157660D01*
X210464Y208964D02*
X209964Y209464D01*
X208964D01*
X208465Y208964D01*
Y206965D01*
X208964Y206465D01*
X209964D01*
X210464Y206965D01*
X213463Y206465D02*
X211464D01*
X213463Y208464D01*
Y208964D01*
X212963Y209464D01*
X211963D01*
X211464Y208964D01*
X214463D02*
X214962Y209464D01*
X215962D01*
X216462Y208964D01*
Y206965D01*
X215962Y206465D01*
X214962D01*
X214463Y206965D01*
Y208964D01*
X170799Y173169D02*
X170299Y173668D01*
X169299D01*
X168799Y173169D01*
Y171169D01*
X169299Y170669D01*
X170299D01*
X170799Y171169D01*
X173798Y170669D02*
X171798D01*
X173798Y172669D01*
Y173169D01*
X173298Y173668D01*
X172298D01*
X171798Y173169D01*
X174797Y170669D02*
X175797D01*
X175297D01*
Y173668D01*
X174797Y173169D01*
X204657Y221987D02*
X204157Y222487D01*
X203157D01*
X202658Y221987D01*
Y219988D01*
X203157Y219488D01*
X204157D01*
X204657Y219988D01*
X207656Y219488D02*
X205657D01*
X207656Y221487D01*
Y221987D01*
X207156Y222487D01*
X206156D01*
X205657Y221987D01*
X210655Y219488D02*
X208656D01*
X210655Y221487D01*
Y221987D01*
X210155Y222487D01*
X209155D01*
X208656Y221987D01*
X72133Y182369D02*
X71633Y182869D01*
X70634D01*
X70134Y182369D01*
Y180369D01*
X70634Y179870D01*
X71633D01*
X72133Y180369D01*
X75132Y179870D02*
X73133D01*
X75132Y181869D01*
Y182369D01*
X74632Y182869D01*
X73633D01*
X73133Y182369D01*
X76132D02*
X76632Y182869D01*
X77631D01*
X78131Y182369D01*
Y181869D01*
X77631Y181369D01*
X77132D01*
X77631D01*
X78131Y180869D01*
Y180369D01*
X77631Y179870D01*
X76632D01*
X76132Y180369D01*
X200847Y169125D02*
X200347Y168625D01*
Y167626D01*
X200847Y167126D01*
X202847D01*
X203346Y167626D01*
Y168625D01*
X202847Y169125D01*
X203346Y170125D02*
Y171125D01*
Y170625D01*
X200347D01*
X200847Y170125D01*
X200347Y174624D02*
Y172624D01*
X201847D01*
X201347Y173624D01*
Y174124D01*
X201847Y174624D01*
X202847D01*
X203346Y174124D01*
Y173124D01*
X202847Y172624D01*
X46124Y156936D02*
Y153937D01*
X47623D01*
X48123Y154437D01*
Y156436D01*
X47623Y156936D01*
X46124D01*
X49123Y153937D02*
X50122D01*
X49622D01*
Y156936D01*
X49123Y156436D01*
X268353Y140717D02*
Y141717D01*
Y141217D01*
X265854D01*
X265354Y141717D01*
Y142217D01*
X265854Y142717D01*
X265354Y139717D02*
Y138718D01*
Y139218D01*
X268353D01*
X267853Y139717D01*
X205973Y226332D02*
X206973D01*
X206473D01*
Y228831D01*
X206973Y229331D01*
X207473D01*
X207972Y228831D01*
X203474Y229331D02*
Y226332D01*
X204973Y227831D01*
X202974D01*
X168110Y37251D02*
Y34252D01*
X169610D01*
X170110Y34752D01*
Y36751D01*
X169610Y37251D01*
X168110D01*
X171109Y36751D02*
X171609Y37251D01*
X172609D01*
X173109Y36751D01*
Y36251D01*
X172609Y35752D01*
X172109D01*
X172609D01*
X173109Y35252D01*
Y34752D01*
X172609Y34252D01*
X171609D01*
X171109Y34752D01*
X67222Y227311D02*
Y230310D01*
X68722D01*
X69222Y229810D01*
Y228810D01*
X68722Y228310D01*
X67222D01*
X72221Y227311D02*
X70222D01*
X72221Y229310D01*
Y229810D01*
X71721Y230310D01*
X70721D01*
X70222Y229810D01*
X33858Y44338D02*
Y41339D01*
X35358D01*
X35858Y41838D01*
Y43838D01*
X35358Y44338D01*
X33858D01*
X38857Y43838D02*
X38357Y44338D01*
X37357D01*
X36857Y43838D01*
Y43338D01*
X37357Y42838D01*
X38357D01*
X38857Y42338D01*
Y41838D01*
X38357Y41339D01*
X37357D01*
X36857Y41838D01*
X39856Y41339D02*
X40856D01*
X40356D01*
Y44338D01*
X39856Y43838D01*
X13417Y217960D02*
X11417D01*
Y216460D01*
X12417D01*
X11417D01*
Y214961D01*
X14416Y217960D02*
Y214961D01*
X15916D01*
X16416Y215460D01*
Y215960D01*
X15916Y216460D01*
X14416D01*
X15916D01*
X16416Y216960D01*
Y217460D01*
X15916Y217960D01*
X14416D01*
X17415Y214961D02*
X18415D01*
X17915D01*
Y217960D01*
X17415Y217460D01*
X202756Y147684D02*
Y144685D01*
X204755D01*
X205755D02*
X206755D01*
X206255D01*
Y147684D01*
X205755Y147184D01*
X31496Y152756D02*
Y155755D01*
X32996D01*
X33495Y155255D01*
Y154255D01*
X32996Y153756D01*
X31496D01*
X32496D02*
X33495Y152756D01*
X34495Y155255D02*
X34995Y155755D01*
X35995D01*
X36494Y155255D01*
Y154755D01*
X35995Y154255D01*
X35495D01*
X35995D01*
X36494Y153756D01*
Y153256D01*
X35995Y152756D01*
X34995D01*
X34495Y153256D01*
X9252Y169685D02*
Y172684D01*
X10751D01*
X11251Y172184D01*
Y171185D01*
X10751Y170685D01*
X9252D01*
X10252D02*
X11251Y169685D01*
X13750D02*
Y172684D01*
X12251Y171185D01*
X14250D01*
X9252Y174409D02*
Y177409D01*
X10751D01*
X11251Y176909D01*
Y175909D01*
X10751Y175409D01*
X9252D01*
X10252D02*
X11251Y174409D01*
X14250Y177409D02*
X12251D01*
Y175909D01*
X13251Y176409D01*
X13750D01*
X14250Y175909D01*
Y174909D01*
X13750Y174409D01*
X12751D01*
X12251Y174909D01*
X208465Y202474D02*
Y205473D01*
X209964D01*
X210464Y204974D01*
Y203974D01*
X209964Y203474D01*
X208465D01*
X209464D02*
X210464Y202474D01*
X213463Y205473D02*
X212463Y204974D01*
X211464Y203974D01*
Y202974D01*
X211963Y202474D01*
X212963D01*
X213463Y202974D01*
Y203474D01*
X212963Y203974D01*
X211464D01*
X32677Y35433D02*
Y38432D01*
X34177D01*
X34677Y37932D01*
Y36933D01*
X34177Y36433D01*
X32677D01*
X33677D02*
X34677Y35433D01*
X35676D02*
X36676D01*
X36176D01*
Y38432D01*
X35676Y37932D01*
X38175D02*
X38675Y38432D01*
X39675D01*
X40175Y37932D01*
Y35933D01*
X39675Y35433D01*
X38675D01*
X38175Y35933D01*
Y37932D01*
X55512Y53937D02*
Y56936D01*
X57011D01*
X57511Y56436D01*
Y55436D01*
X57011Y54937D01*
X55512D01*
X56511D02*
X57511Y53937D01*
X58511D02*
X59510D01*
X59011D01*
Y56936D01*
X58511Y56436D01*
X61010Y53937D02*
X62010D01*
X61510D01*
Y56936D01*
X61010Y56436D01*
X55118Y61024D02*
Y64023D01*
X56618D01*
X57117Y63523D01*
Y62523D01*
X56618Y62023D01*
X55118D01*
X56118D02*
X57117Y61024D01*
X58117D02*
X59117D01*
X58617D01*
Y64023D01*
X58117Y63523D01*
X62616Y61024D02*
X60616D01*
X62616Y63023D01*
Y63523D01*
X62116Y64023D01*
X61116D01*
X60616Y63523D01*
X55118Y48031D02*
Y51030D01*
X56618D01*
X57117Y50531D01*
Y49531D01*
X56618Y49031D01*
X55118D01*
X56118D02*
X57117Y48031D01*
X58117D02*
X59117D01*
X58617D01*
Y51030D01*
X58117Y50531D01*
X60616D02*
X61116Y51030D01*
X62116D01*
X62616Y50531D01*
Y50031D01*
X62116Y49531D01*
X61616D01*
X62116D01*
X62616Y49031D01*
Y48531D01*
X62116Y48031D01*
X61116D01*
X60616Y48531D01*
X246063Y17323D02*
Y20322D01*
X247563D01*
X248062Y19822D01*
Y18822D01*
X247563Y18323D01*
X246063D01*
X247063D02*
X248062Y17323D01*
X249062D02*
X250062D01*
X249562D01*
Y20322D01*
X249062Y19822D01*
X251561Y20322D02*
X253561D01*
Y19822D01*
X251561Y17823D01*
Y17323D01*
X246063Y24825D02*
Y27824D01*
X247563D01*
X248062Y27324D01*
Y26324D01*
X247563Y25824D01*
X246063D01*
X247063D02*
X248062Y24825D01*
X249062D02*
X250062D01*
X249562D01*
Y27824D01*
X249062Y27324D01*
X251561D02*
X252061Y27824D01*
X253061D01*
X253561Y27324D01*
Y26824D01*
X253061Y26324D01*
X253561Y25824D01*
Y25325D01*
X253061Y24825D01*
X252061D01*
X251561Y25325D01*
Y25824D01*
X252061Y26324D01*
X251561Y26824D01*
Y27324D01*
X252061Y26324D02*
X253061D01*
X117793Y15748D02*
Y18747D01*
X119293D01*
X119793Y18247D01*
Y17248D01*
X119293Y16748D01*
X117793D01*
X118793D02*
X119793Y15748D01*
X120792D02*
X121792D01*
X121292D01*
Y18747D01*
X120792Y18247D01*
X123292Y16248D02*
X123791Y15748D01*
X124791D01*
X125291Y16248D01*
Y18247D01*
X124791Y18747D01*
X123791D01*
X123292Y18247D01*
Y17747D01*
X123791Y17248D01*
X125291D01*
X117793Y23524D02*
Y26523D01*
X119293D01*
X119793Y26023D01*
Y25023D01*
X119293Y24523D01*
X117793D01*
X118793D02*
X119793Y23524D01*
X122792D02*
X120792D01*
X122792Y25523D01*
Y26023D01*
X122292Y26523D01*
X121292D01*
X120792Y26023D01*
X123791D02*
X124291Y26523D01*
X125291D01*
X125791Y26023D01*
Y24023D01*
X125291Y23524D01*
X124291D01*
X123791Y24023D01*
Y26023D01*
X150000Y50394D02*
X147001D01*
Y51893D01*
X147501Y52393D01*
X148501D01*
X149000Y51893D01*
Y50394D01*
Y51393D02*
X150000Y52393D01*
Y53393D02*
Y54392D01*
Y53893D01*
X147001D01*
X147501Y53393D01*
X147001Y57891D02*
Y55892D01*
X148501D01*
X148001Y56892D01*
Y57391D01*
X148501Y57891D01*
X149500D01*
X150000Y57391D01*
Y56392D01*
X149500Y55892D01*
X152394Y68964D02*
Y71963D01*
X153893D01*
X154393Y71463D01*
Y70463D01*
X153893Y69964D01*
X152394D01*
X153393D02*
X154393Y68964D01*
X155393D02*
X156392D01*
X155893D01*
Y71963D01*
X155393Y71463D01*
X159891Y71963D02*
X158892Y71463D01*
X157892Y70463D01*
Y69464D01*
X158392Y68964D01*
X159391D01*
X159891Y69464D01*
Y69964D01*
X159391Y70463D01*
X157892D01*
X207087Y167323D02*
X204088D01*
Y168822D01*
X204587Y169322D01*
X205587D01*
X206087Y168822D01*
Y167323D01*
Y168322D02*
X207087Y169322D01*
Y172321D02*
Y170322D01*
X205087Y172321D01*
X204587D01*
X204088Y171821D01*
Y170821D01*
X204587Y170322D01*
X204088Y175320D02*
Y173321D01*
X205587D01*
X205087Y174320D01*
Y174820D01*
X205587Y175320D01*
X206587D01*
X207087Y174820D01*
Y173820D01*
X206587Y173321D01*
X232087Y180118D02*
Y183117D01*
X233586D01*
X234086Y182617D01*
Y181618D01*
X233586Y181118D01*
X232087D01*
X233086D02*
X234086Y180118D01*
X237085D02*
X235086D01*
X237085Y182117D01*
Y182617D01*
X236585Y183117D01*
X235585D01*
X235086Y182617D01*
X240084Y183117D02*
X239084Y182617D01*
X238085Y181618D01*
Y180618D01*
X238584Y180118D01*
X239584D01*
X240084Y180618D01*
Y181118D01*
X239584Y181618D01*
X238085D01*
X205709Y178839D02*
X202710D01*
Y180338D01*
X203209Y180838D01*
X204209D01*
X204709Y180338D01*
Y178839D01*
Y179838D02*
X205709Y180838D01*
Y183837D02*
Y181838D01*
X203709Y183837D01*
X203209D01*
X202710Y183337D01*
Y182337D01*
X203209Y181838D01*
X202710Y184837D02*
Y186836D01*
X203209D01*
X205209Y184837D01*
X205709D01*
X192740Y172097D02*
X189741D01*
Y173596D01*
X190241Y174096D01*
X191241D01*
X191741Y173596D01*
Y172097D01*
Y173096D02*
X192740Y174096D01*
Y177095D02*
Y175095D01*
X190741Y177095D01*
X190241D01*
X189741Y176595D01*
Y175595D01*
X190241Y175095D01*
Y178094D02*
X189741Y178594D01*
Y179594D01*
X190241Y180094D01*
X190741D01*
X191241Y179594D01*
X191741Y180094D01*
X192240D01*
X192740Y179594D01*
Y178594D01*
X192240Y178094D01*
X191741D01*
X191241Y178594D01*
X190741Y178094D01*
X190241D01*
X191241Y178594D02*
Y179594D01*
X167640Y178543D02*
Y181542D01*
X169139D01*
X169639Y181043D01*
Y180043D01*
X169139Y179543D01*
X167640D01*
X168640D02*
X169639Y178543D01*
X172638D02*
X170639D01*
X172638Y180543D01*
Y181043D01*
X172138Y181542D01*
X171139D01*
X170639Y181043D01*
X173638Y179043D02*
X174138Y178543D01*
X175137D01*
X175637Y179043D01*
Y181043D01*
X175137Y181542D01*
X174138D01*
X173638Y181043D01*
Y180543D01*
X174138Y180043D01*
X175637D01*
X163819Y153543D02*
Y156542D01*
X165318D01*
X165818Y156043D01*
Y155043D01*
X165318Y154543D01*
X163819D01*
X164819D02*
X165818Y153543D01*
X166818Y156043D02*
X167318Y156542D01*
X168317D01*
X168817Y156043D01*
Y155543D01*
X168317Y155043D01*
X167818D01*
X168317D01*
X168817Y154543D01*
Y154043D01*
X168317Y153543D01*
X167318D01*
X166818Y154043D01*
X169817Y156043D02*
X170317Y156542D01*
X171317D01*
X171816Y156043D01*
Y154043D01*
X171317Y153543D01*
X170317D01*
X169817Y154043D01*
Y156043D01*
X232480Y188386D02*
Y191385D01*
X233980D01*
X234480Y190885D01*
Y189885D01*
X233980Y189385D01*
X232480D01*
X233480D02*
X234480Y188386D01*
X237479D02*
X235479D01*
X237479Y190385D01*
Y190885D01*
X236979Y191385D01*
X235979D01*
X235479Y190885D01*
X238478D02*
X238978Y191385D01*
X239978D01*
X240478Y190885D01*
Y190385D01*
X239978Y189885D01*
X239478D01*
X239978D01*
X240478Y189385D01*
Y188886D01*
X239978Y188386D01*
X238978D01*
X238478Y188886D01*
X202559Y122047D02*
Y125046D01*
X204059D01*
X204558Y124546D01*
Y123547D01*
X204059Y123047D01*
X202559D01*
X203559D02*
X204558Y122047D01*
X207557D02*
X205558D01*
X207557Y124047D01*
Y124546D01*
X207058Y125046D01*
X206058D01*
X205558Y124546D01*
X210057Y122047D02*
Y125046D01*
X208557Y123547D01*
X210556D01*
X2906Y177953D02*
Y179952D01*
Y178952D01*
X5906D01*
Y180952D02*
X2906D01*
Y182451D01*
X3406Y182951D01*
X4406D01*
X4906Y182451D01*
Y180952D01*
X5906Y183951D02*
Y184950D01*
Y184451D01*
X2906D01*
X3406Y183951D01*
X68063Y148942D02*
X70062D01*
X69063D01*
Y145943D01*
X71062D02*
Y148942D01*
X72562D01*
X73061Y148442D01*
Y147443D01*
X72562Y146943D01*
X71062D01*
X76060Y145943D02*
X74061D01*
X76060Y147942D01*
Y148442D01*
X75561Y148942D01*
X74561D01*
X74061Y148442D01*
X125000Y58708D02*
X126999D01*
X126000D01*
Y55709D01*
X127999D02*
Y58708D01*
X129499D01*
X129998Y58208D01*
Y57208D01*
X129499Y56708D01*
X127999D01*
X130998Y58208D02*
X131498Y58708D01*
X132498D01*
X132997Y58208D01*
Y57708D01*
X132498Y57208D01*
X131998D01*
X132498D01*
X132997Y56708D01*
Y56208D01*
X132498Y55709D01*
X131498D01*
X130998Y56208D01*
X62551Y154409D02*
X64551D01*
X63551D01*
Y151409D01*
X65550D02*
Y154409D01*
X67050D01*
X67550Y153909D01*
Y152909D01*
X67050Y152409D01*
X65550D01*
X70049Y151409D02*
Y154409D01*
X68549Y152909D01*
X70549D01*
X76081Y165743D02*
X78080D01*
X77080D01*
Y162744D01*
X79080D02*
Y165743D01*
X80579D01*
X81079Y165243D01*
Y164243D01*
X80579Y163743D01*
X79080D01*
X84078Y165743D02*
X82079D01*
Y164243D01*
X83078Y164743D01*
X83578D01*
X84078Y164243D01*
Y163244D01*
X83578Y162744D01*
X82579D01*
X82079Y163244D01*
X138779Y31739D02*
X140779D01*
X139779D01*
Y28740D01*
X141779D02*
Y31739D01*
X143278D01*
X143778Y31239D01*
Y30240D01*
X143278Y29740D01*
X141779D01*
X144778Y28740D02*
X145777D01*
X145277D01*
Y31739D01*
X144778Y31239D01*
X149276Y31739D02*
X148276Y31239D01*
X147277Y30240D01*
Y29240D01*
X147777Y28740D01*
X148776D01*
X149276Y29240D01*
Y29740D01*
X148776Y30240D01*
X147277D01*
X125000Y38727D02*
X126999D01*
X126000D01*
Y35728D01*
X127999D02*
Y38727D01*
X129499D01*
X129998Y38227D01*
Y37228D01*
X129499Y36728D01*
X127999D01*
X130998Y35728D02*
X131998D01*
X131498D01*
Y38727D01*
X130998Y38227D01*
X133497Y38727D02*
X135497D01*
Y38227D01*
X133497Y36228D01*
Y35728D01*
X26135Y51181D02*
Y53180D01*
Y52181D01*
X29134D01*
Y54180D02*
X26135D01*
Y55680D01*
X26635Y56179D01*
X27634D01*
X28134Y55680D01*
Y54180D01*
X29134Y57179D02*
Y58179D01*
Y57679D01*
X26135D01*
X26635Y57179D01*
Y59678D02*
X26135Y60178D01*
Y61178D01*
X26635Y61678D01*
X27134D01*
X27634Y61178D01*
X28134Y61678D01*
X28634D01*
X29134Y61178D01*
Y60178D01*
X28634Y59678D01*
X28134D01*
X27634Y60178D01*
X27134Y59678D01*
X26635D01*
X27634Y60178D02*
Y61178D01*
X30512Y68353D02*
X32511D01*
X31512D01*
Y65354D01*
X33511D02*
Y68353D01*
X35010D01*
X35510Y67853D01*
Y66854D01*
X35010Y66354D01*
X33511D01*
X36510Y65354D02*
X37510D01*
X37010D01*
Y68353D01*
X36510Y67853D01*
X39009Y65854D02*
X39509Y65354D01*
X40509D01*
X41008Y65854D01*
Y67853D01*
X40509Y68353D01*
X39509D01*
X39009Y67853D01*
Y67354D01*
X39509Y66854D01*
X41008D01*
X20866Y49849D02*
X22865D01*
X21866D01*
Y46850D01*
X23865D02*
Y49849D01*
X25365D01*
X25864Y49350D01*
Y48350D01*
X25365Y47850D01*
X23865D01*
X28863Y46850D02*
X26864D01*
X28863Y48850D01*
Y49350D01*
X28364Y49849D01*
X27364D01*
X26864Y49350D01*
X29863D02*
X30363Y49849D01*
X31363D01*
X31863Y49350D01*
Y47350D01*
X31363Y46850D01*
X30363D01*
X29863Y47350D01*
Y49350D01*
X139370Y10086D02*
X141369D01*
X140370D01*
Y7087D01*
X142369D02*
Y10086D01*
X143869D01*
X144369Y9586D01*
Y8586D01*
X143869Y8086D01*
X142369D01*
X147368Y7087D02*
X145368D01*
X147368Y9086D01*
Y9586D01*
X146868Y10086D01*
X145868D01*
X145368Y9586D01*
X148367Y7087D02*
X149367D01*
X148867D01*
Y10086D01*
X148367Y9586D01*
X245669Y13235D02*
X247669D01*
X246669D01*
Y10236D01*
X248668D02*
Y13235D01*
X250168D01*
X250668Y12735D01*
Y11736D01*
X250168Y11236D01*
X248668D01*
X251667Y10236D02*
X252667D01*
X252167D01*
Y13235D01*
X251667Y12735D01*
X254167Y10236D02*
X255166D01*
X254666D01*
Y13235D01*
X254167Y12735D01*
X270669Y9889D02*
X272669D01*
X271669D01*
Y6890D01*
X273668D02*
Y9889D01*
X275168D01*
X275668Y9389D01*
Y8389D01*
X275168Y7889D01*
X273668D01*
X276667Y6890D02*
X277667D01*
X277167D01*
Y9889D01*
X276667Y9389D01*
X281166Y6890D02*
X279167D01*
X281166Y8889D01*
Y9389D01*
X280666Y9889D01*
X279666D01*
X279167Y9389D01*
X132874Y95519D02*
X134873D01*
X133874D01*
Y92520D01*
X135873D02*
Y95519D01*
X137373D01*
X137872Y95019D01*
Y94019D01*
X137373Y93519D01*
X135873D01*
X138872Y92520D02*
X139872D01*
X139372D01*
Y95519D01*
X138872Y95019D01*
X141371D02*
X141871Y95519D01*
X142871D01*
X143371Y95019D01*
Y94519D01*
X142871Y94019D01*
X142371D01*
X142871D01*
X143371Y93519D01*
Y93019D01*
X142871Y92520D01*
X141871D01*
X141371Y93019D01*
X153543Y93214D02*
X155543D01*
X154543D01*
Y90215D01*
X156542D02*
Y93214D01*
X158042D01*
X158542Y92714D01*
Y91715D01*
X158042Y91215D01*
X156542D01*
X159541Y90215D02*
X160541D01*
X160041D01*
Y93214D01*
X159541Y92714D01*
X163540Y90215D02*
Y93214D01*
X162041Y91715D01*
X164040D01*
X138189Y85676D02*
X140188D01*
X139189D01*
Y82677D01*
X141188D02*
Y85676D01*
X142687D01*
X143187Y85176D01*
Y84177D01*
X142687Y83677D01*
X141188D01*
X144187Y82677D02*
X145187D01*
X144687D01*
Y85676D01*
X144187Y85176D01*
X148686Y85676D02*
X146686D01*
Y84177D01*
X147686Y84676D01*
X148186D01*
X148686Y84177D01*
Y83177D01*
X148186Y82677D01*
X147186D01*
X146686Y83177D01*
X177953Y94882D02*
Y97881D01*
X179452D01*
X179952Y97381D01*
Y96381D01*
X179452Y95882D01*
X177953D01*
X178952D02*
X179952Y94882D01*
X180952Y97381D02*
X181452Y97881D01*
X182451D01*
X182951Y97381D01*
Y96881D01*
X182451Y96381D01*
X181951D01*
X182451D01*
X182951Y95882D01*
Y95382D01*
X182451Y94882D01*
X181452D01*
X180952Y95382D01*
X183951Y94882D02*
X184950D01*
X184451D01*
Y97881D01*
X183951Y97381D01*
X179626Y207527D02*
Y205027D01*
X180126Y204527D01*
X181125D01*
X181625Y205027D01*
Y207527D01*
X184624D02*
X182625D01*
Y206027D01*
X183625Y206527D01*
X184125D01*
X184624Y206027D01*
Y205027D01*
X184125Y204527D01*
X183125D01*
X182625Y205027D01*
X139370Y129771D02*
X141369Y126772D01*
Y129771D02*
X139370Y126772D01*
X142369D02*
X143369D01*
X142869D01*
Y129771D01*
X142369Y129271D01*
X304165Y205755D02*
X302165D01*
Y204255D01*
X303165D01*
X302165D01*
Y202756D01*
X305164Y205755D02*
Y202756D01*
X306664D01*
X307164Y203256D01*
Y205255D01*
X306664Y205755D01*
X305164D01*
X308163Y202756D02*
X309163D01*
X308663D01*
Y205755D01*
X308163Y205255D01*
X7299Y32899D02*
X5300D01*
Y31400D01*
X6300D01*
X5300D01*
Y29900D01*
X8299Y32899D02*
Y29900D01*
X9799D01*
X10298Y30400D01*
Y32399D01*
X9799Y32899D01*
X8299D01*
X13297Y29900D02*
X11298D01*
X13297Y31899D01*
Y32399D01*
X12798Y32899D01*
X11798D01*
X11298Y32399D01*
X303181Y34889D02*
X301181D01*
Y33389D01*
X302181D01*
X301181D01*
Y31890D01*
X304180Y34889D02*
Y31890D01*
X305680D01*
X306179Y32390D01*
Y34389D01*
X305680Y34889D01*
X304180D01*
X307179Y34389D02*
X307679Y34889D01*
X308679D01*
X309178Y34389D01*
Y33889D01*
X308679Y33389D01*
X308179D01*
X308679D01*
X309178Y32889D01*
Y32390D01*
X308679Y31890D01*
X307679D01*
X307179Y32390D01*
X192126Y132874D02*
Y135873D01*
X193625D01*
X194125Y135373D01*
Y134373D01*
X193625Y133874D01*
X192126D01*
X193126D02*
X194125Y132874D01*
X195125Y135873D02*
X197124D01*
Y135373D01*
X195125Y133374D01*
Y132874D01*
X84939Y179870D02*
Y182869D01*
X86439D01*
X86938Y182369D01*
Y181369D01*
X86439Y180869D01*
X84939D01*
X85939D02*
X86938Y179870D01*
X87938Y182369D02*
X88438Y182869D01*
X89438D01*
X89937Y182369D01*
Y181869D01*
X89438Y181369D01*
X89937Y180869D01*
Y180369D01*
X89438Y179870D01*
X88438D01*
X87938Y180369D01*
Y180869D01*
X88438Y181369D01*
X87938Y181869D01*
Y182369D01*
X88438Y181369D02*
X89438D01*
X122931Y179870D02*
Y182869D01*
X124431D01*
X124931Y182369D01*
Y181369D01*
X124431Y180869D01*
X122931D01*
X123931D02*
X124931Y179870D01*
X125930Y180369D02*
X126430Y179870D01*
X127430D01*
X127929Y180369D01*
Y182369D01*
X127430Y182869D01*
X126430D01*
X125930Y182369D01*
Y181869D01*
X126430Y181369D01*
X127929D01*
X178150Y101378D02*
Y104377D01*
X179649D01*
X180149Y103877D01*
Y102877D01*
X179649Y102378D01*
X178150D01*
X179149D02*
X180149Y101378D01*
X181149Y103877D02*
X181649Y104377D01*
X182648D01*
X183148Y103877D01*
Y103377D01*
X182648Y102877D01*
X182148D01*
X182648D01*
X183148Y102378D01*
Y101878D01*
X182648Y101378D01*
X181649D01*
X181149Y101878D01*
X186147Y101378D02*
X184148D01*
X186147Y103377D01*
Y103877D01*
X185647Y104377D01*
X184648D01*
X184148Y103877D01*
X176772Y115354D02*
Y118353D01*
X178271D01*
X178771Y117853D01*
Y116854D01*
X178271Y116354D01*
X176772D01*
X177771D02*
X178771Y115354D01*
X179771Y117853D02*
X180271Y118353D01*
X181270D01*
X181770Y117853D01*
Y117354D01*
X181270Y116854D01*
X180770D01*
X181270D01*
X181770Y116354D01*
Y115854D01*
X181270Y115354D01*
X180271D01*
X179771Y115854D01*
X182770Y117853D02*
X183270Y118353D01*
X184269D01*
X184769Y117853D01*
Y117354D01*
X184269Y116854D01*
X183769D01*
X184269D01*
X184769Y116354D01*
Y115854D01*
X184269Y115354D01*
X183270D01*
X182770Y115854D01*
X177559Y107858D02*
Y110857D01*
X179059D01*
X179558Y110357D01*
Y109358D01*
X179059Y108858D01*
X177559D01*
X178559D02*
X179558Y107858D01*
X180558Y110357D02*
X181058Y110857D01*
X182058D01*
X182557Y110357D01*
Y109858D01*
X182058Y109358D01*
X181558D01*
X182058D01*
X182557Y108858D01*
Y108358D01*
X182058Y107858D01*
X181058D01*
X180558Y108358D01*
X185057Y107858D02*
Y110857D01*
X183557Y109358D01*
X185556D01*
X117813Y162547D02*
Y165546D01*
X119313D01*
X119812Y165046D01*
Y164046D01*
X119313Y163547D01*
X117813D01*
X118813D02*
X119812Y162547D01*
X120812Y165046D02*
X121312Y165546D01*
X122312D01*
X122811Y165046D01*
Y164546D01*
X122312Y164046D01*
X121812D01*
X122312D01*
X122811Y163547D01*
Y163047D01*
X122312Y162547D01*
X121312D01*
X120812Y163047D01*
X125810Y165546D02*
X123811D01*
Y164046D01*
X124811Y164546D01*
X125311D01*
X125810Y164046D01*
Y163047D01*
X125311Y162547D01*
X124311D01*
X123811Y163047D01*
X96159Y155512D02*
Y158511D01*
X97659D01*
X98159Y158011D01*
Y157011D01*
X97659Y156511D01*
X96159D01*
X97159D02*
X98159Y155512D01*
X99159Y158011D02*
X99658Y158511D01*
X100658D01*
X101158Y158011D01*
Y157511D01*
X100658Y157011D01*
X100158D01*
X100658D01*
X101158Y156511D01*
Y156012D01*
X100658Y155512D01*
X99658D01*
X99159Y156012D01*
X102157Y158011D02*
X102657Y158511D01*
X103657D01*
X104157Y158011D01*
Y157511D01*
X103657Y157011D01*
X104157Y156511D01*
Y156012D01*
X103657Y155512D01*
X102657D01*
X102157Y156012D01*
Y156511D01*
X102657Y157011D01*
X102157Y157511D01*
Y158011D01*
X102657Y157011D02*
X103657D01*
X117321Y189955D02*
X119320D01*
X118321D01*
Y186956D01*
X120320D02*
Y189955D01*
X121819D01*
X122319Y189455D01*
Y188455D01*
X121819Y187956D01*
X120320D01*
X125318Y189955D02*
X124319Y189455D01*
X123319Y188455D01*
Y187456D01*
X123819Y186956D01*
X124819D01*
X125318Y187456D01*
Y187956D01*
X124819Y188455D01*
X123319D01*
X78049Y189955D02*
X80049D01*
X79049D01*
Y186956D01*
X81048D02*
Y189955D01*
X82548D01*
X83048Y189455D01*
Y188455D01*
X82548Y187956D01*
X81048D01*
X84047Y189955D02*
X86047D01*
Y189455D01*
X84047Y187456D01*
Y186956D01*
X136614Y140401D02*
X138613D01*
X137614D01*
Y137402D01*
X139613D02*
Y140401D01*
X141113D01*
X141613Y139901D01*
Y138901D01*
X141113Y138401D01*
X139613D01*
X142612Y139901D02*
X143112Y140401D01*
X144112D01*
X144612Y139901D01*
Y139401D01*
X144112Y138901D01*
X144612Y138401D01*
Y137901D01*
X144112Y137402D01*
X143112D01*
X142612Y137901D01*
Y138401D01*
X143112Y138901D01*
X142612Y139401D01*
Y139901D01*
X143112Y138901D02*
X144112D01*
X138583Y106936D02*
X140582D01*
X139582D01*
Y103937D01*
X141582D02*
Y106936D01*
X143081D01*
X143581Y106436D01*
Y105437D01*
X143081Y104937D01*
X141582D01*
X144581Y104437D02*
X145081Y103937D01*
X146080D01*
X146580Y104437D01*
Y106436D01*
X146080Y106936D01*
X145081D01*
X144581Y106436D01*
Y105936D01*
X145081Y105437D01*
X146580D01*
X160086Y105118D02*
Y103119D01*
Y104118D01*
X157087D01*
Y102119D02*
X160086D01*
Y100620D01*
X159586Y100120D01*
X158586D01*
X158086Y100620D01*
Y102119D01*
X157087Y99120D02*
Y98120D01*
Y98620D01*
X160086D01*
X159586Y99120D01*
Y96621D02*
X160086Y96121D01*
Y95121D01*
X159586Y94621D01*
X157586D01*
X157087Y95121D01*
Y96121D01*
X157586Y96621D01*
X159586D01*
X106299Y142763D02*
X108299D01*
X107299D01*
Y139764D01*
X109298D02*
Y142763D01*
X110798D01*
X111298Y142263D01*
Y141263D01*
X110798Y140763D01*
X109298D01*
X114297Y139764D02*
X112297D01*
X114297Y141763D01*
Y142263D01*
X113797Y142763D01*
X112797D01*
X112297Y142263D01*
X115296D02*
X115796Y142763D01*
X116796D01*
X117296Y142263D01*
Y141763D01*
X116796Y141263D01*
X116296D01*
X116796D01*
X117296Y140763D01*
Y140264D01*
X116796Y139764D01*
X115796D01*
X115296Y140264D01*
X120079Y142467D02*
X122078D01*
X121078D01*
Y139469D01*
X123078D02*
Y142467D01*
X124577D01*
X125077Y141968D01*
Y140968D01*
X124577Y140468D01*
X123078D01*
X128076Y139469D02*
X126077D01*
X128076Y141468D01*
Y141968D01*
X127576Y142467D01*
X126577D01*
X126077Y141968D01*
X130575Y139469D02*
Y142467D01*
X129076Y140968D01*
X131075D01*
X231496Y172880D02*
Y170381D01*
X231996Y169881D01*
X232996D01*
X233495Y170381D01*
Y172880D01*
X235995Y169881D02*
Y172880D01*
X234495Y171381D01*
X236494D01*
X96159Y164365D02*
Y161866D01*
X96659Y161366D01*
X97659D01*
X98159Y161866D01*
Y164365D01*
X99159D02*
X101158D01*
Y163865D01*
X99159Y161866D01*
Y161366D01*
X233340Y129524D02*
Y127025D01*
X233840Y126525D01*
X234840D01*
X235339Y127025D01*
Y129524D01*
X238338D02*
X237339Y129024D01*
X236339Y128025D01*
Y127025D01*
X236839Y126525D01*
X237839D01*
X238338Y127025D01*
Y127525D01*
X237839Y128025D01*
X236339D01*
M02*
